<svg width="38" height="38" viewBox="0 0 38 38" fill="none" xmlns="http://www.w3.org/2000/svg">
<path fill-rule="evenodd" clip-rule="evenodd" d="M7.65234 28.4998C7.65234 28.0626 8.00678 27.7081 8.44401 27.7081L29.5551 27.7081C29.9923 27.7081 30.3468 28.0626 30.3468 28.4998C30.3468 28.937 29.9923 29.2915 29.5551 29.2915L8.44401 29.2915C8.00678 29.2915 7.65234 28.937 7.65234 28.4998Z" fill="#39B6FF"/>
<path fill-rule="evenodd" clip-rule="evenodd" d="M9.50183 20.0556C9.5 19.726 9.5 19.3748 9.5 19V13.7222C9.5 11.7318 9.5 10.7367 10.1183 10.1183C10.7367 9.5 11.7318 9.5 13.7222 9.5H20.0556C22.0459 9.5 23.0411 9.5 23.6594 10.1183C23.9073 10.3662 24.0558 10.6746 24.1448 11.0833H25.3333C27.9998 11.0833 30.3472 12.9958 30.3472 15.5694C30.3472 18.143 27.9998 20.0556 25.3333 20.0556H9.50183ZM24.2732 12.6667C24.2778 12.9837 24.2778 13.334 24.2778 13.7222V18.4722H25.3333C27.3306 18.4722 28.7639 17.0766 28.7639 15.5694C28.7639 14.0623 27.3306 12.6667 25.3333 12.6667H24.2732Z" fill="#68F388"/>
<path d="M15.8335 25.3334H17.9446C20.9301 25.3334 22.4229 25.3334 23.3504 24.4059C24.1615 23.5948 24.2633 22.3515 24.2761 20.0556H9.50195C9.51473 22.3515 9.61654 23.5948 10.4276 24.4059C11.3551 25.3334 12.8479 25.3334 15.8335 25.3334Z" fill="#39B6FF"/>
</svg>
