<svg width="36" height="36" viewBox="0 0 36 36" fill="none" xmlns="http://www.w3.org/2000/svg">
<path d="M27.9036 22.4414C27.9871 21.4165 27.9983 20.1674 27.9998 18.6978C28.0002 18.3125 27.6876 18 27.3023 18C26.917 18 26.6048 18.3126 26.6044 18.6979C26.6029 20.1755 26.592 21.3561 26.5128 22.3281C26.4288 23.3597 26.2714 24.091 26.0064 24.6476L23.3734 22.2779C22.4064 21.4076 20.9663 21.3209 19.9019 22.0689L19.6245 22.2639C18.8848 22.7837 17.8785 22.6966 17.2392 22.0573L13.2487 18.0668C12.4522 17.2704 11.1747 17.2278 10.327 17.9696L9.39567 18.7844C9.39535 18.5314 9.39535 18.2702 9.39535 18C9.39535 15.7877 9.39683 14.1987 9.55942 12.9894C9.7193 11.8002 10.0234 11.0832 10.5533 10.5533C11.0832 10.0234 11.8002 9.7193 12.9894 9.55941C14.0675 9.41446 15.4475 9.39757 17.3019 9.39561C17.6872 9.3952 18 9.08299 18 8.69767C18 8.31236 17.6873 7.99983 17.302 8.00024C15.4735 8.00215 13.9711 8.01952 12.8034 8.17651C11.4595 8.3572 10.399 8.73426 9.56664 9.56664C8.73426 10.399 8.3572 11.4595 8.17651 12.8034C7.99998 14.1165 7.99999 15.7993 8 17.9466V18.0009C8 18.4917 8 18.9569 8.00193 19.3967C8.00949 21.1259 8.04591 22.5184 8.24498 23.6376C8.44763 24.777 8.82871 25.6954 9.56664 26.4334C10.399 27.2657 11.4595 27.6428 12.8034 27.8235C14.1165 28 15.7993 28 17.9466 28H18.0534C20.2007 28 21.8836 28 23.1966 27.8235C24.5405 27.6428 25.601 27.2657 26.4334 26.4334C26.7267 26.1401 26.9676 25.814 27.1636 25.45C27.6081 24.6246 27.8067 23.6308 27.9036 22.4414Z" fill="#68F388"/>
<path fill-rule="evenodd" clip-rule="evenodd" d="M23.5 17C21.3787 17 20.318 17 19.659 16.341C19 15.682 19 14.6213 19 12.5C19 10.3787 19 9.31802 19.659 8.65901C20.318 8 21.3787 8 23.5 8C25.6213 8 26.682 8 27.341 8.65901C28 9.31802 28 10.3787 28 12.5C28 14.6213 28 15.682 27.341 16.341C26.682 17 25.6213 17 23.5 17ZM22.0453 14.216C21.2805 13.5454 20.5 12.6519 20.5 11.798C20.5 10.0249 22.15 9.3629 23.5 10.7326C24.85 9.3629 26.5 10.0249 26.5 11.798C26.5 12.6519 25.7195 13.5454 24.9548 14.216C24.3586 14.7387 24.0606 15 23.5 15C22.9394 15 22.6414 14.7387 22.0453 14.216Z" fill="#39B6FF"/>
</svg>
