<svg width="38" height="38" viewBox="0 0 38 38" fill="none" xmlns="http://www.w3.org/2000/svg">
<path d="M1 17C1 9.45753 1 5.68629 3.34315 3.34315C5.68629 1 9.45753 1 17 1H21C28.5425 1 32.3137 1 34.6569 3.34315C37 5.68629 37 9.45753 37 17V21C37 28.5425 37 32.3137 34.6569 34.6569C32.3137 37 28.5425 37 21 37H17C9.45753 37 5.68629 37 3.34315 34.6569C1 32.3137 1 28.5425 1 21V17Z" fill="white"/>
<path d="M1 17C1 9.45753 1 5.68629 3.34315 3.34315C5.68629 1 9.45753 1 17 1H21C28.5425 1 32.3137 1 34.6569 3.34315C37 5.68629 37 9.45753 37 17V21C37 28.5425 37 32.3137 34.6569 34.6569C32.3137 37 28.5425 37 21 37H17C9.45753 37 5.68629 37 3.34315 34.6569C1 32.3137 1 28.5425 1 21V17Z" stroke="#E7E7E7"/>
<path d="M11.0828 17.8943C11.5217 15.5534 11.7412 14.3829 12.5743 13.6915C13.4075 13 14.5984 13 16.98 13H21.0209C23.4026 13 24.5934 13 25.4266 13.6915C26.2598 14.3829 26.4792 15.5534 26.9181 17.8943L27.6681 21.8943C28.2853 25.186 28.5939 26.8318 27.6942 27.9159C26.7945 29 25.12 29 21.7709 29H16.23C12.881 29 11.2064 29 10.3067 27.9159C9.40701 26.8318 9.7156 25.186 10.3328 21.8943L11.0828 17.8943Z" fill="#90FCA9" fill-opacity="0.988235"/>
<path d="M16.75 12C16.75 10.7574 17.7574 9.75 19 9.75C20.2426 9.75 21.25 10.7574 21.25 12V13C21.25 13 21.25 13 21.25 13C21.816 13.0002 22.3119 13.0017 22.7499 13.0149C22.75 13.0099 22.75 13.005 22.75 13V12C22.75 9.92893 21.0711 8.25 19 8.25C16.9289 8.25 15.25 9.92893 15.25 12V13C15.25 13.005 15.25 13.01 15.2501 13.0149C15.6881 13.0018 16.184 13.0002 16.75 13C16.75 13 16.75 13 16.75 13V12Z" fill="#39B6FF"/>
<path d="M18.0429 22.8656C17.1649 22.2213 16 21.1812 16 20.1967C16 18.5235 17.65 17.8988 19 19.1913C20.35 17.8988 22 18.5235 22 20.1967C22 21.1812 20.8352 22.2214 19.9571 22.8656C19.5374 23.1736 19.3275 23.3276 19 23.3276C18.6725 23.3276 18.4626 23.1736 18.0429 22.8656Z" fill="#39B6FF"/>
</svg>
