<svg width="38" height="38" viewBox="0 0 38 38" fill="none" xmlns="http://www.w3.org/2000/svg">
<path d="M1 17C1 9.45753 1 5.68629 3.34315 3.34315C5.68629 1 9.45753 1 17 1H21C28.5425 1 32.3137 1 34.6569 3.34315C37 5.68629 37 9.45753 37 17V21C37 28.5425 37 32.3137 34.6569 34.6569C32.3137 37 28.5425 37 21 37H17C9.45753 37 5.68629 37 3.34315 34.6569C1 32.3137 1 28.5425 1 21V17Z" fill="white"/>
<path d="M1 17C1 9.45753 1 5.68629 3.34315 3.34315C5.68629 1 9.45753 1 17 1H21C28.5425 1 32.3137 1 34.6569 3.34315C37 5.68629 37 9.45753 37 17V21C37 28.5425 37 32.3137 34.6569 34.6569C32.3137 37 28.5425 37 21 37H17C9.45753 37 5.68629 37 3.34315 34.6569C1 32.3137 1 28.5425 1 21V17Z" stroke="#E7E7E7"/>
<path d="M24.0002 11C24.0002 12.1046 23.1048 13 22.0002 13C20.8956 13 20.0002 12.1046 20.0002 11C20.0002 9.89543 20.8956 9 22.0002 9C23.1048 9 24.0002 9.89543 24.0002 11Z" fill="#68F388"/>
<path fill-rule="evenodd" clip-rule="evenodd" d="M19.1612 14.1149L19.7738 14.7238C20.6831 15.6274 20.9995 15.9233 21.3796 16.0801C21.7597 16.2368 22.1927 16.25 23.4746 16.25H25.5002C25.9144 16.25 26.2502 16.5858 26.2502 17C26.2502 17.4142 25.9144 17.75 25.5002 17.75H23.4746C23.4267 17.75 23.3794 17.75 23.3327 17.75C22.2495 17.7506 21.4967 17.7509 20.8077 17.4668C20.1187 17.1826 19.585 16.6517 18.8171 15.8878C18.784 15.8549 18.7505 15.8215 18.7164 15.7877L18.1391 15.2139C17.7304 14.8077 17.4798 14.5613 17.2784 14.411C17.185 14.3413 17.131 14.3151 17.1054 14.3055C17.1001 14.3035 17.0964 14.3024 17.094 14.3018C17.0919 14.3028 17.0884 14.3046 17.0835 14.3075C17.0601 14.3215 17.0117 14.3571 16.9325 14.4425C16.7615 14.6267 16.5596 14.9144 16.2311 15.3878L15.0044 17.155C14.67 17.6368 14.467 17.9325 14.3522 18.1615C14.2989 18.2678 14.2824 18.3267 14.2774 18.3541C14.2765 18.3594 14.276 18.3631 14.2758 18.3656C14.2772 18.3675 14.2796 18.3705 14.2832 18.3745C14.3018 18.3952 14.3468 18.4366 14.448 18.4991C14.6659 18.6338 14.9939 18.7789 15.5314 19.0135L17.0473 19.6749C17.695 19.9575 18.241 20.1957 18.6617 20.4422C19.1084 20.7038 19.4859 21.0143 19.7392 21.4775C19.9926 21.9407 20.0504 22.4259 20.0298 22.9432C20.0103 23.4304 19.9164 24.0186 19.805 24.7165L19.7408 25.1182C19.6755 25.5273 19.291 25.8059 18.882 25.7406C18.4729 25.6753 18.1943 25.2908 18.2596 24.8818L18.3168 24.5233C18.437 23.7706 18.5155 23.271 18.5309 22.8835C18.5456 22.516 18.498 22.334 18.4232 22.1973C18.3485 22.0606 18.2208 21.9223 17.9035 21.7364C17.5689 21.5404 17.1058 21.337 16.4072 21.0322L14.9315 20.3883C14.9161 20.3816 14.9007 20.3748 14.8854 20.3682C14.4088 20.1603 13.9798 19.9731 13.6595 19.7752C13.3114 19.5601 12.9698 19.2603 12.8321 18.7749C12.6945 18.2895 12.8279 17.8551 13.0113 17.4893C13.18 17.1527 13.447 16.7682 13.7435 16.341C13.753 16.3273 13.7626 16.3135 13.7722 16.2997L14.9988 14.5325C15.0083 14.5188 15.0177 14.5052 15.0272 14.4916C15.3181 14.0723 15.5806 13.6941 15.833 13.4221C16.1078 13.126 16.4625 12.8526 16.9579 12.8075C17.4532 12.7623 17.8515 12.9671 18.1753 13.2087C18.4727 13.4306 18.7992 13.7551 19.1612 14.1149Z" fill="#68F388"/>
<path fill-rule="evenodd" clip-rule="evenodd" d="M25 21.25C22.9289 21.25 21.25 22.9289 21.25 25C21.25 27.0711 22.9289 28.75 25 28.75C27.0711 28.75 28.75 27.0711 28.75 25C28.75 22.9289 27.0711 21.25 25 21.25ZM25 22.75C23.7574 22.75 22.75 23.7574 22.75 25C22.75 26.2426 23.7574 27.25 25 27.25C26.2426 27.25 27.25 26.2426 27.25 25C27.25 23.7574 26.2426 22.75 25 22.75Z" fill="#39B6FF"/>
<path fill-rule="evenodd" clip-rule="evenodd" d="M13 21.25C10.9289 21.25 9.25 22.9289 9.25 25C9.25 27.0711 10.9289 28.75 13 28.75C15.0711 28.75 16.75 27.0711 16.75 25C16.75 22.9289 15.0711 21.25 13 21.25ZM13 22.75C11.7574 22.75 10.75 23.7574 10.75 25C10.75 26.2426 11.7574 27.25 13 27.25C14.2426 27.25 15.25 26.2426 15.25 25C15.25 23.7574 14.2426 22.75 13 22.75Z" fill="#39B6FF"/>
</svg>
