<svg width="38" height="38" viewBox="0 0 38 38" fill="none" xmlns="http://www.w3.org/2000/svg">
<path d="M1 17C1 9.45753 1 5.68629 3.34315 3.34315C5.68629 1 9.45753 1 17 1H21C28.5425 1 32.3137 1 34.6569 3.34315C37 5.68629 37 9.45753 37 17V21C37 28.5425 37 32.3137 34.6569 34.6569C32.3137 37 28.5425 37 21 37H17C9.45753 37 5.68629 37 3.34315 34.6569C1 32.3137 1 28.5425 1 21V17Z" fill="white"/>
<path d="M1 17C1 9.45753 1 5.68629 3.34315 3.34315C5.68629 1 9.45753 1 17 1H21C28.5425 1 32.3137 1 34.6569 3.34315C37 5.68629 37 9.45753 37 17V21C37 28.5425 37 32.3137 34.6569 34.6569C32.3137 37 28.5425 37 21 37H17C9.45753 37 5.68629 37 3.34315 34.6569C1 32.3137 1 28.5425 1 21V17Z" stroke="#E7E7E7"/>
<path d="M9 19C9 14.286 9 11.9289 10.4645 10.4645C11.9289 9 14.286 9 19 9C23.714 9 26.0711 9 27.5355 10.4645C29 11.9289 29 14.286 29 19C29 23.714 29 26.0711 27.5355 27.5355C26.0711 29 23.714 29 19 29C14.286 29 11.9289 29 10.4645 27.5355C9 26.0711 9 23.714 9 19Z" fill="#68F388"/>
<path d="M29 12C29 13.6569 27.6569 15 26 15C24.3431 15 23 13.6569 23 12C23 10.3431 24.3431 9 26 9C27.6569 9 29 10.3431 29 12Z" fill="#39B6FF"/>
<path d="M21.5 20.25C21.0858 20.25 20.75 20.5858 20.75 21C20.75 21.4142 21.0858 21.75 21.5 21.75H24C24.4142 21.75 24.75 21.4142 24.75 21V18.5C24.75 18.0858 24.4142 17.75 24 17.75C23.5858 17.75 23.25 18.0858 23.25 18.5V19.1893L21.2374 17.1768C20.554 16.4934 19.446 16.4934 18.7626 17.1768L17.1768 18.7626C17.0791 18.8602 16.9209 18.8602 16.8232 18.7626L14.5303 16.4697C14.2374 16.1768 13.7626 16.1768 13.4697 16.4697C13.1768 16.7626 13.1768 17.2374 13.4697 17.5303L15.7626 19.8232C16.446 20.5066 17.554 20.5066 18.2374 19.8232L19.8232 18.2374C19.9209 18.1398 20.0791 18.1398 20.1768 18.2374L22.1893 20.25H21.5Z" fill="#39B6FF"/>
</svg>
