<svg width="38" height="38" viewBox="0 0 38 38" fill="none" xmlns="http://www.w3.org/2000/svg">
<path d="M1 17C1 9.45753 1 5.68629 3.34315 3.34315C5.68629 1 9.45753 1 17 1H21C28.5425 1 32.3137 1 34.6569 3.34315C37 5.68629 37 9.45753 37 17V21C37 28.5425 37 32.3137 34.6569 34.6569C32.3137 37 28.5425 37 21 37H17C9.45753 37 5.68629 37 3.34315 34.6569C1 32.3137 1 28.5425 1 21V17Z" fill="white"/>
<path d="M1 17C1 9.45753 1 5.68629 3.34315 3.34315C5.68629 1 9.45753 1 17 1H21C28.5425 1 32.3137 1 34.6569 3.34315C37 5.68629 37 9.45753 37 17V21C37 28.5425 37 32.3137 34.6569 34.6569C32.3137 37 28.5425 37 21 37H17C9.45753 37 5.68629 37 3.34315 34.6569C1 32.3137 1 28.5425 1 21V17Z" stroke="#E7E7E7"/>
<path d="M21.5 26.9815C23.0728 26.9415 24.1771 26.815 25 26.4151V27.9999C25 28.5522 24.5523 28.9999 24 28.9999H22.5C21.9477 28.9999 21.5 28.5522 21.5 27.9999V26.9815Z" fill="#39B6FF"/>
<path d="M13 26.415C13.8229 26.815 14.9272 26.9415 16.5 26.9815V27.9999C16.5 28.5522 16.0523 28.9999 15.5 28.9999H14C13.4477 28.9999 13 28.5522 13 27.9999V26.415Z" fill="#39B6FF"/>
<path fill-rule="evenodd" clip-rule="evenodd" d="M12.1716 10.1716C13.3431 9 15.2288 9 19 9C22.7712 9 24.6569 9 25.8284 10.1716C26.8915 11.2347 26.99 12.8857 26.9991 16L27 20C26.9909 23.1143 26.8915 24.7653 25.8284 25.8284C25.5862 26.0706 25.3136 26.2627 25 26.4151C24.1771 26.8151 23.0728 26.9415 21.5 26.9815C20.7729 26.9999 19.9458 27 19 27C18.0542 27 17.2271 27 16.5 26.9815C14.9272 26.9415 13.8229 26.815 13 26.415C12.6864 26.2626 12.4138 26.0706 12.1716 25.8284C11.1085 24.7653 11.0091 23.1143 11 20L11.0009 16C11.01 12.8857 11.1085 11.2347 12.1716 10.1716Z" fill="#68F388"/>
<path d="M24.75 23C24.75 22.5858 24.4142 22.25 24 22.25H22.5C22.0858 22.25 21.75 22.5858 21.75 23C21.75 23.4142 22.0858 23.75 22.5 23.75H24C24.4142 23.75 24.75 23.4142 24.75 23Z" fill="#39B6FF"/>
<path d="M13.25 23C13.25 22.5858 13.5858 22.25 14 22.25H15.5C15.9142 22.25 16.25 22.5858 16.25 23C16.25 23.4142 15.9142 23.75 15.5 23.75H14C13.5858 23.75 13.25 23.4142 13.25 23Z" fill="#39B6FF"/>
<path d="M12.5 16.5C12.5 17.9142 12.5 18.6213 12.9393 19.0607C13.3787 19.5 14.0858 19.5 15.5 19.5H22.5C23.9142 19.5 24.6213 19.5 25.0607 19.0607C25.5 18.6213 25.5 17.9142 25.5 16.5V14C25.5 12.5858 25.5 11.8787 25.0607 11.4393C24.6213 11 23.9142 11 22.5 11H15.5C14.0858 11 13.3787 11 12.9393 11.4393C12.5 11.8787 12.5 12.5858 12.5 14V16.5Z" fill="#39B6FF"/>
<path d="M11.001 16L11 20L9.40039 18.7998C9.14858 18.611 9 18.3148 9 18V17C9 16.4477 9.44772 16 10 16H11.001ZM28 16C28.5523 16 29 16.4477 29 17V18C29 18.3148 28.8514 18.611 28.5996 18.7998L27 20L26.999 16H28Z" fill="#39B6FF"/>
</svg>
