<svg width="38" height="38" viewBox="0 0 38 38" fill="none" xmlns="http://www.w3.org/2000/svg">
<path d="M1 17C1 9.45753 1 5.68629 3.34315 3.34315C5.68629 1 9.45753 1 17 1H21C28.5425 1 32.3137 1 34.6569 3.34315C37 5.68629 37 9.45753 37 17V21C37 28.5425 37 32.3137 34.6569 34.6569C32.3137 37 28.5425 37 21 37H17C9.45753 37 5.68629 37 3.34315 34.6569C1 32.3137 1 28.5425 1 21V17Z" fill="white"/>
<path d="M1 17C1 9.45753 1 5.68629 3.34315 3.34315C5.68629 1 9.45753 1 17 1H21C28.5425 1 32.3137 1 34.6569 3.34315C37 5.68629 37 9.45753 37 17V21C37 28.5425 37 32.3137 34.6569 34.6569C32.3137 37 28.5425 37 21 37H17C9.45753 37 5.68629 37 3.34315 34.6569C1 32.3137 1 28.5425 1 21V17Z" stroke="#FFFFFF"/>
<path fill-rule="evenodd" clip-rule="evenodd" d="M8.25 28C8.25 27.5858 8.58579 27.25 9 27.25L29 27.25C29.4142 27.25 29.75 27.5858 29.75 28C29.75 28.4142 29.4142 28.75 29 28.75L9 28.75C8.58579 28.75 8.25 28.4142 8.25 28Z" fill="#39B6FF"/>
<path fill-rule="evenodd" clip-rule="evenodd" d="M10.0017 20C10 19.6878 10 19.355 10 19V14C10 12.1144 10 11.1716 10.5858 10.5858C11.1716 10 12.1144 10 14 10H20C21.8856 10 22.8284 10 23.4142 10.5858C23.649 10.8206 23.7897 11.1128 23.874 11.5H25C27.5261 11.5 29.75 13.3119 29.75 15.75C29.75 18.1882 27.5261 20 25 20H10.0017ZM23.9957 13C24 13.3004 24 13.6323 24 14V18.5H25C26.8921 18.5 28.25 17.1778 28.25 15.75C28.25 14.3222 26.8921 13 25 13H23.9957Z" fill="#68F388"/>
<path d="M16.0002 25H18.0002C20.8286 25 22.2429 25 23.1215 24.1213C23.8899 23.3529 23.9864 22.175 23.9985 20H10.002C10.0141 22.175 10.1105 23.3529 10.8789 24.1213C11.7576 25 13.1718 25 16.0002 25Z" fill="#39B6FF"/>
</svg>
