<svg width="38" height="38" viewBox="0 0 38 38" fill="none" xmlns="http://www.w3.org/2000/svg">
<path d="M1 17C1 9.45753 1 5.68629 3.34315 3.34315C5.68629 1 9.45753 1 17 1H21C28.5425 1 32.3137 1 34.6569 3.34315C37 5.68629 37 9.45753 37 17V21C37 28.5425 37 32.3137 34.6569 34.6569C32.3137 37 28.5425 37 21 37H17C9.45753 37 5.68629 37 3.34315 34.6569C1 32.3137 1 28.5425 1 21V17Z" fill="white"/>
<path d="M1 17C1 9.45753 1 5.68629 3.34315 3.34315C5.68629 1 9.45753 1 17 1H21C28.5425 1 32.3137 1 34.6569 3.34315C37 5.68629 37 9.45753 37 17V21C37 28.5425 37 32.3137 34.6569 34.6569C32.3137 37 28.5425 37 21 37H17C9.45753 37 5.68629 37 3.34315 34.6569C1 32.3137 1 28.5425 1 21V17Z" stroke="#E7E7E7"/>
<path d="M14 11.8294C14 13.3771 15.7259 15.0076 17.1497 16.0893C17.9489 16.6964 18.3484 17 19 17C19.6516 17 20.0512 16.6964 20.8503 16.0893C22.2741 15.0076 24 13.3772 24 11.8293C24 9.03918 21.2499 7.99746 19 10.1528C16.7501 7.99746 14 9.03918 14 11.8294Z" fill="#68F388"/>
<path d="M13.2599 28.3884H13C12.0572 28.3884 11.5858 28.3884 11.2929 28.0955C11 27.8026 11 27.3312 11 26.3884V25.2764C11 24.7579 11 24.4987 11.1332 24.2672C11.2664 24.0356 11.4673 23.9188 11.8691 23.6851C14.5146 22.1464 18.2715 21.2803 20.7791 22.7759C20.9475 22.8764 21.0991 22.9977 21.2285 23.1431C21.7866 23.77 21.746 24.7161 21.1028 25.2775C20.9669 25.396 20.8222 25.486 20.6764 25.5172C20.7962 25.5033 20.911 25.4874 21.0206 25.4699C21.932 25.3245 22.697 24.8375 23.3974 24.3084L25.2046 22.9433C25.8417 22.462 26.7873 22.4619 27.4245 22.943C27.9982 23.3762 28.1736 24.0894 27.8109 24.6707C27.388 25.3487 26.7921 26.216 26.2199 26.7459C25.6469 27.2766 24.7939 27.7504 24.0975 28.0865C23.326 28.4589 22.4738 28.6734 21.6069 28.8138C19.8488 29.0983 18.0166 29.0549 16.2763 28.6964C15.2925 28.4937 14.2708 28.3884 13.2599 28.3884Z" fill="#39B6FF"/>
</svg>
