<svg width="38" height="38" viewBox="0 0 38 38" fill="none" xmlns="http://www.w3.org/2000/svg">
<path d="M1 17C1 9.45753 1 5.68629 3.34315 3.34315C5.68629 1 9.45753 1 17 1H21C28.5425 1 32.3137 1 34.6569 3.34315C37 5.68629 37 9.45753 37 17V21C37 28.5425 37 32.3137 34.6569 34.6569C32.3137 37 28.5425 37 21 37H17C9.45753 37 5.68629 37 3.34315 34.6569C1 32.3137 1 28.5425 1 21V17Z" fill="white"/>
<path d="M1 17C1 9.45753 1 5.68629 3.34315 3.34315C5.68629 1 9.45753 1 17 1H21C28.5425 1 32.3137 1 34.6569 3.34315C37 5.68629 37 9.45753 37 17V21C37 28.5425 37 32.3137 34.6569 34.6569C32.3137 37 28.5425 37 21 37H17C9.45753 37 5.68629 37 3.34315 34.6569C1 32.3137 1 28.5425 1 21V17Z" stroke="#E7E7E7"/>
<path d="M28.9036 23.4414C28.9871 22.4165 28.9983 21.1674 28.9998 19.6978C29.0002 19.3125 28.6876 19 28.3023 19C27.917 19 27.6048 19.3126 27.6044 19.6979C27.6029 21.1755 27.592 22.3561 27.5128 23.3281C27.4288 24.3597 27.2714 25.091 27.0064 25.6476L24.3734 23.2779C23.4064 22.4076 21.9663 22.3209 20.9019 23.0689L20.6245 23.2639C19.8848 23.7837 18.8785 23.6966 18.2392 23.0573L14.2487 19.0668C13.4522 18.2704 12.1747 18.2278 11.327 18.9696L10.3957 19.7844C10.3954 19.5314 10.3953 19.2702 10.3953 19C10.3953 16.7877 10.3968 15.1987 10.5594 13.9894C10.7193 12.8002 11.0234 12.0832 11.5533 11.5533C12.0832 11.0234 12.8002 10.7193 13.9894 10.5594C15.0675 10.4145 16.4475 10.3976 18.3019 10.3956C18.6872 10.3952 19 10.083 19 9.69767C19 9.31236 18.6873 8.99983 18.302 9.00024C16.4735 9.00215 14.9711 9.01952 13.8034 9.17651C12.4595 9.3572 11.399 9.73426 10.5666 10.5666C9.73426 11.399 9.3572 12.4595 9.17651 13.8034C8.99998 15.1165 8.99999 16.7993 9 18.9466V19.0009C9 19.4917 9 19.9569 9.00193 20.3967C9.00949 22.1259 9.04591 23.5184 9.24498 24.6376C9.44763 25.777 9.82871 26.6954 10.5666 27.4334C11.399 28.2657 12.4595 28.6428 13.8034 28.8235C15.1165 29 16.7993 29 18.9466 29H19.0534C21.2007 29 22.8836 29 24.1966 28.8235C25.5405 28.6428 26.601 28.2657 27.4334 27.4334C27.7267 27.1401 27.9676 26.814 28.1636 26.45C28.6081 25.6246 28.8067 24.6308 28.9036 23.4414Z" fill="#68F388"/>
<path fill-rule="evenodd" clip-rule="evenodd" d="M24.5 18C22.3787 18 21.318 18 20.659 17.341C20 16.682 20 15.6213 20 13.5C20 11.3787 20 10.318 20.659 9.65901C21.318 9 22.3787 9 24.5 9C26.6213 9 27.682 9 28.341 9.65901C29 10.318 29 11.3787 29 13.5C29 15.6213 29 16.682 28.341 17.341C27.682 18 26.6213 18 24.5 18ZM23.0453 15.216C22.2805 14.5454 21.5 13.6519 21.5 12.798C21.5 11.0249 23.15 10.3629 24.5 11.7326C25.85 10.3629 27.5 11.0249 27.5 12.798C27.5 13.6519 26.7195 14.5454 25.9548 15.216C25.3586 15.7387 25.0606 16 24.5 16C23.9394 16 23.6414 15.7387 23.0453 15.216Z" fill="#39B6FF"/>
</svg>
