<svg width="38" height="38" viewBox="0 0 38 38" fill="none" xmlns="http://www.w3.org/2000/svg">
<path d="M1 17C1 9.45753 1 5.68629 3.34315 3.34315C5.68629 1 9.45753 1 17 1H21C28.5425 1 32.3137 1 34.6569 3.34315C37 5.68629 37 9.45753 37 17V21C37 28.5425 37 32.3137 34.6569 34.6569C32.3137 37 28.5425 37 21 37H17C9.45753 37 5.68629 37 3.34315 34.6569C1 32.3137 1 28.5425 1 21V17Z" fill="white"/>
<path d="M1 17C1 9.45753 1 5.68629 3.34315 3.34315C5.68629 1 9.45753 1 17 1H21C28.5425 1 32.3137 1 34.6569 3.34315C37 5.68629 37 9.45753 37 17V21C37 28.5425 37 32.3137 34.6569 34.6569C32.3137 37 28.5425 37 21 37H17C9.45753 37 5.68629 37 3.34315 34.6569C1 32.3137 1 28.5425 1 21V17Z" stroke="#E7E7E7"/>
<path opacity="0.8" fill-rule="evenodd" clip-rule="evenodd" d="M19 8.25C19.4142 8.25 19.75 8.58579 19.75 9V11C19.75 11.4142 19.4142 11.75 19 11.75C18.5858 11.75 18.25 11.4142 18.25 11V9C18.25 8.58579 18.5858 8.25 19 8.25Z" fill="#39B6FF"/>
<g opacity="0.5">
<path d="M25.5304 12.4697C25.8233 12.7626 25.8233 13.2374 25.5304 13.5303L25.1872 13.8736C24.8943 14.1665 24.4194 14.1665 24.1265 13.8736C23.8336 13.5807 23.8336 13.1058 24.1265 12.8129L24.4698 12.4697C24.7627 12.1768 25.2376 12.1768 25.5304 12.4697Z" fill="#39B6FF"/>
<path d="M12.4697 12.4698C12.7626 12.1769 13.2374 12.1769 13.5303 12.4698L13.8736 12.813C14.1665 13.1059 14.1665 13.5808 13.8736 13.8737C13.5807 14.1666 13.1058 14.1666 12.8129 13.8737L12.4697 13.5304C12.1768 13.2376 12.1768 12.7627 12.4697 12.4698Z" fill="#39B6FF"/>
</g>
<path d="M8 19.3333C8 19.0237 8 18.8689 8.01711 18.7389C8.13526 17.8415 8.84148 17.1353 9.73895 17.0171C9.86891 17 10.0237 17 10.3333 17H27.6667C27.9763 17 28.1311 17 28.2611 17.0171C29.1585 17.1353 29.8647 17.8415 29.9829 18.7389C30 18.8689 30 19.0237 30 19.3333V20C30 20.9286 30 21.3929 29.9692 21.7846C29.5832 26.6884 25.6884 30.5832 20.7846 30.9692C20.3929 31 19.9286 31 19 31C18.0714 31 17.6071 31 17.2154 30.9692C12.3116 30.5832 8.41676 26.6884 8.03083 21.7846C8 21.3929 8 20.9286 8 20V19.3333Z" fill="#68F388"/>
<path d="M26.2821 18C27.2309 18 27.9618 18.8367 27.3149 19.5307C26.8626 20.016 26.1997 20.457 25.364 20.8284C24.5282 21.1999 23.5361 21.4945 22.4442 21.6955C21.3522 21.8965 20.1819 22 19 22C17.8181 22 16.6478 21.8965 15.5558 21.6955C14.4639 21.4945 13.4718 21.1999 12.636 20.8284C11.8003 20.457 11.1374 20.016 10.6851 19.5307C10.0382 18.8367 10.7691 18 11.7179 18L19 18H26.2821Z" fill="#39B6FF"/>
</svg>
