<svg width="38" height="38" viewBox="0 0 38 38" fill="none" xmlns="http://www.w3.org/2000/svg">
<path d="M1 17C1 9.45753 1 5.68629 3.34315 3.34315C5.68629 1 9.45753 1 17 1H21C28.5425 1 32.3137 1 34.6569 3.34315C37 5.68629 37 9.45753 37 17V21C37 28.5425 37 32.3137 34.6569 34.6569C32.3137 37 28.5425 37 21 37H17C9.45753 37 5.68629 37 3.34315 34.6569C1 32.3137 1 28.5425 1 21V17Z" fill="white"/>
<path d="M1 17C1 9.45753 1 5.68629 3.34315 3.34315C5.68629 1 9.45753 1 17 1H21C28.5425 1 32.3137 1 34.6569 3.34315C37 5.68629 37 9.45753 37 17V21C37 28.5425 37 32.3137 34.6569 34.6569C32.3137 37 28.5425 37 21 37H17C9.45753 37 5.68629 37 3.34315 34.6569C1 32.3137 1 28.5425 1 21V17Z" stroke="#E7E7E7"/>
<g clip-path="url(#clip0_536_1005)">
<path fill-rule="evenodd" clip-rule="evenodd" d="M19.7497 29C24.9224 28.6161 29 24.2918 29 19.0139L29 19.0069L29 19C29 13.4772 24.5228 9 19 9C13.4772 9 9 13.4772 9 19L9 19.0069L9 19.0139C9 24.2918 13.0776 28.6161 18.2503 29L18.2503 28.9723C13.0799 28.5891 9.00357 24.2744 9 19.0069C9.00374 13.4796 13.4795 9 19 9C24.5205 9 28.9963 13.4796 29 19.0069C28.9964 24.2744 24.9201 28.5891 19.7497 28.9723L19.7497 29Z" fill="#90FCA9" fill-opacity="0.988235"/>
<path d="M18.2503 28.9723C18.4978 28.9907 18.7478 29 19 29C19.2522 29 19.5022 28.9907 19.7497 28.9723C24.9201 28.5891 28.9964 24.2744 29 19.0069C28.9963 13.4796 24.5205 9 19 9C13.4795 9 9.00374 13.4796 9 19.0069C9.00357 24.2744 13.0799 28.5891 18.2503 28.9723Z" fill="#90FCA9" fill-opacity="0.988235"/>
<path d="M14.9248 17.9555C14.9248 19.9091 16.2957 21.5422 18.1268 21.9425L18.1272 28.9679C18.4154 28.9893 18.7065 29.0001 19.0001 29.0001C19.2938 29.0001 19.5849 28.9893 19.8731 28.9679L19.8733 21.9425C21.7045 21.5423 23.0755 19.9092 23.0755 17.9555V17.3725C23.0755 16.7285 22.5541 16.2065 21.9111 16.2065H21.62V13.8745C21.62 13.3915 21.229 13 20.7467 13C20.2644 13 19.8734 13.3915 19.8734 13.8745V16.2065H18.1268V13.8745C18.1268 13.3915 17.7359 13 17.2536 13C16.7713 13 16.3803 13.3915 16.3803 13.8745V16.2065H16.0892C15.4461 16.2065 14.9248 16.7285 14.9248 17.3725V17.9555Z" fill="#39B6FF"/>
<path d="M11 27L27 11" stroke="white" stroke-width="2"/>
</g>
<defs>
<clipPath id="clip0_536_1005">
<rect x="9" y="9" width="20" height="20.0001" rx="10" fill="white"/>
</clipPath>
</defs>
</svg>
