<svg width="38" height="38" viewBox="0 0 38 38" fill="none" xmlns="http://www.w3.org/2000/svg">
<path d="M1 17C1 9.45753 1 5.68629 3.34315 3.34315C5.68629 1 9.45753 1 17 1H21C28.5425 1 32.3137 1 34.6569 3.34315C37 5.68629 37 9.45753 37 17V21C37 28.5425 37 32.3137 34.6569 34.6569C32.3137 37 28.5425 37 21 37H17C9.45753 37 5.68629 37 3.34315 34.6569C1 32.3137 1 28.5425 1 21V17Z" fill="white"/>
<path d="M1 17C1 9.45753 1 5.68629 3.34315 3.34315C5.68629 1 9.45753 1 17 1H21C28.5425 1 32.3137 1 34.6569 3.34315C37 5.68629 37 9.45753 37 17V21C37 28.5425 37 32.3137 34.6569 34.6569C32.3137 37 28.5425 37 21 37H17C9.45753 37 5.68629 37 3.34315 34.6569C1 32.3137 1 28.5425 1 21V17Z" stroke="#E7E7E7"/>
<path fill-rule="evenodd" clip-rule="evenodd" d="M10 29C10 28.5858 10.3358 28.25 10.75 28.25H26.75C27.1642 28.25 27.5 28.5858 27.5 29C27.5 29.4142 27.1642 29.75 26.75 29.75H10.75C10.3358 29.75 10 29.4142 10 29Z" fill="#39B6FF"/>
<path d="M25.8307 14.3716C27.0595 13.1428 27.0595 11.1505 25.8307 9.92162C24.6019 8.69279 22.6095 8.69279 21.3807 9.92162L20.6709 10.6314C20.6806 10.6608 20.6907 10.6905 20.7012 10.7207C20.9613 11.4705 21.4522 12.4536 22.3756 13.377C23.299 14.3004 24.282 14.7913 25.0319 15.0514C25.0619 15.0618 25.0915 15.0719 25.1208 15.0815L25.8307 14.3716Z" fill="#39B6FF"/>
<path d="M20.7011 10.5996L20.6705 10.6302C20.6803 10.6595 20.6903 10.6893 20.7008 10.7194C20.961 11.4693 21.4518 12.4523 22.3752 13.3757C23.2987 14.2992 24.2817 14.79 25.0316 15.0502C25.0613 15.0605 25.0907 15.0705 25.1196 15.0801L18.2698 21.9299C17.808 22.3917 17.577 22.6227 17.3224 22.8213C17.0221 23.0555 16.6971 23.2564 16.3533 23.4202C16.0618 23.5591 15.752 23.6624 15.1324 23.869L11.865 24.9581C11.56 25.0597 11.2239 24.9804 10.9966 24.7531C10.7693 24.5258 10.69 24.1897 10.7916 23.8847L11.8807 20.6173C12.0873 19.9977 12.1906 19.6879 12.3295 19.3964C12.4933 19.0526 12.6942 18.7276 12.9284 18.4273C13.127 18.1727 13.3579 17.9418 13.8197 17.48L20.7011 10.5996Z" fill="#68F388"/>
</svg>
