<svg width="38" height="38" viewBox="0 0 38 38" fill="none" xmlns="http://www.w3.org/2000/svg">
<path d="M1 17C1 9.45753 1 5.68629 3.34315 3.34315C5.68629 1 9.45753 1 17 1H21C28.5425 1 32.3137 1 34.6569 3.34315C37 5.68629 37 9.45753 37 17V21C37 28.5425 37 32.3137 34.6569 34.6569C32.3137 37 28.5425 37 21 37H17C9.45753 37 5.68629 37 3.34315 34.6569C1 32.3137 1 28.5425 1 21V17Z" fill="white"/>
<path d="M1 17C1 9.45753 1 5.68629 3.34315 3.34315C5.68629 1 9.45753 1 17 1H21C28.5425 1 32.3137 1 34.6569 3.34315C37 5.68629 37 9.45753 37 17V21C37 28.5425 37 32.3137 34.6569 34.6569C32.3137 37 28.5425 37 21 37H17C9.45753 37 5.68629 37 3.34315 34.6569C1 32.3137 1 28.5425 1 21V17Z" stroke="#E7E7E7"/>
<path d="M9 23H29V26C29 27.1046 28.1046 28 27 28H11C9.89543 28 9 27.1046 9 26V23Z" fill="#90FCA9" fill-opacity="0.988235"/>
<rect x="12" y="16" width="14" height="4" fill="#90FCA9" fill-opacity="0.988235"/>
<path d="M14.25 11H23.7584V14H14.25V11Z" fill="#90FCA9" fill-opacity="0.988235"/>
<path d="M12 20H26L29 23H9L12 20Z" fill="#39B6FF"/>
<path d="M14.25 14H23.75L26 16H12L14.25 14Z" fill="#39B6FF"/>
<path d="M15.3749 10.3019C15.692 10.1046 16.058 10 16.4315 10H21.5836C21.9571 10 22.3231 10.1046 22.6402 10.3019L23.7622 11H14.2529L15.3749 10.3019Z" fill="#39B6FF"/>
</svg>
