<svg width="38" height="38" viewBox="0 0 38 38" fill="none" xmlns="http://www.w3.org/2000/svg">
<path d="M1 17C1 9.45753 1 5.68629 3.34315 3.34315C5.68629 1 9.45753 1 17 1H21C28.5425 1 32.3137 1 34.6569 3.34315C37 5.68629 37 9.45753 37 17V21C37 28.5425 37 32.3137 34.6569 34.6569C32.3137 37 28.5425 37 21 37H17C9.45753 37 5.68629 37 3.34315 34.6569C1 32.3137 1 28.5425 1 21V17Z" fill="white"/>
<path d="M1 17C1 9.45753 1 5.68629 3.34315 3.34315C5.68629 1 9.45753 1 17 1H21C28.5425 1 32.3137 1 34.6569 3.34315C37 5.68629 37 9.45753 37 17V21C37 28.5425 37 32.3137 34.6569 34.6569C32.3137 37 28.5425 37 21 37H17C9.45753 37 5.68629 37 3.34315 34.6569C1 32.3137 1 28.5425 1 21V17Z" stroke="#E7E7E7"/>
<path d="M18.5956 29.0006H19.4044C22.1871 29.0006 23.5785 29.0006 24.4831 28.1147C25.3878 27.2288 25.4803 25.7755 25.6654 22.8691L25.9321 18.6812C26.0326 17.1042 26.0828 16.3157 25.6289 15.8161C25.1751 15.3164 24.4087 15.3164 22.876 15.3164H15.124C13.5913 15.3164 12.8249 15.3164 12.3711 15.8161C11.9172 16.3157 11.9674 17.1042 12.0679 18.6812L12.3346 22.8691C12.5197 25.7755 12.6122 27.2288 13.5169 28.1147C14.4215 29.0006 15.8129 29.0006 18.5956 29.0006Z" fill="#90FCA9" fill-opacity="0.988235"/>
<path d="M10 13.386C10 12.9015 10.3454 12.5088 10.7714 12.5088L13.4357 12.5083C13.965 12.4931 14.432 12.1103 14.6121 11.5441C14.6169 11.5292 14.6223 11.5109 14.6419 11.4442L14.7567 11.0526C14.8269 10.8124 14.8881 10.6032 14.9737 10.4162C15.3121 9.67736 15.9381 9.16432 16.6615 9.03297C16.8446 8.99972 17.0385 8.99986 17.2611 9.00002H20.7391C20.9617 8.99986 21.1556 8.99972 21.3387 9.03297C22.0621 9.16432 22.6881 9.67736 23.0264 10.4162C23.1121 10.6032 23.1733 10.8124 23.2435 11.0526L23.3583 11.4442C23.3778 11.5109 23.3833 11.5292 23.388 11.5441C23.5682 12.1103 24.1278 12.4935 24.6571 12.5088H27.2286C27.6546 12.5088 28 12.9015 28 13.386C28 13.8704 27.6546 14.2632 27.2286 14.2632H10.7714C10.3454 14.2632 10 13.8704 10 13.386Z" fill="#39B6FF"/>
<path fill-rule="evenodd" clip-rule="evenodd" d="M16.4254 18.4815C16.8376 18.4381 17.2051 18.7547 17.2463 19.1885L17.7463 24.4517C17.7875 24.8855 17.4868 25.2724 17.0747 25.3158C16.6625 25.3592 16.295 25.0426 16.2538 24.6088L15.7538 19.3456C15.7126 18.9118 16.0133 18.5249 16.4254 18.4815Z" fill="#39B6FF"/>
<path fill-rule="evenodd" clip-rule="evenodd" d="M21.5747 18.4815C21.9868 18.5249 22.2875 18.9118 22.2463 19.3456L21.7463 24.6088C21.7051 25.0426 21.3376 25.3592 20.9254 25.3158C20.5133 25.2724 20.2126 24.8855 20.2538 24.4517L20.7538 19.1885C20.795 18.7547 21.1625 18.4381 21.5747 18.4815Z" fill="#39B6FF"/>
</svg>
