<svg width="38" height="38" viewBox="0 0 38 38" fill="none" xmlns="http://www.w3.org/2000/svg">
<path d="M1 17C1 9.45753 1 5.68629 3.34315 3.34315C5.68629 1 9.45753 1 17 1H21C28.5425 1 32.3137 1 34.6569 3.34315C37 5.68629 37 9.45753 37 17V21C37 28.5425 37 32.3137 34.6569 34.6569C32.3137 37 28.5425 37 21 37H17C9.45753 37 5.68629 37 3.34315 34.6569C1 32.3137 1 28.5425 1 21V17Z" fill="white"/>
<path d="M1 17C1 9.45753 1 5.68629 3.34315 3.34315C5.68629 1 9.45753 1 17 1H21C28.5425 1 32.3137 1 34.6569 3.34315C37 5.68629 37 9.45753 37 17V21C37 28.5425 37 32.3137 34.6569 34.6569C32.3137 37 28.5425 37 21 37H17C9.45753 37 5.68629 37 3.34315 34.6569C1 32.3137 1 28.5425 1 21V17Z" stroke="#E7E7E7"/>
<path opacity="0.8" d="M16.6099 32C16.2944 32 16.0577 31.7113 16.1196 31.4019L18.5097 19.4515C18.6169 18.9155 19.3831 18.9155 19.4903 19.4515L21.8804 31.4019C21.9423 31.7113 21.7056 32 21.3901 32H16.6099Z" fill="#39B6FF"/>
<ellipse cx="19" cy="16" rx="8" ry="10" fill="#68F388"/>
<path d="M17.7238 18.3301C16.5531 17.396 15 15.8877 15 14.4603C15 12.0341 17.2001 11.1282 19 13.0025C20.7999 11.1282 23 12.0341 23 14.4603C23 15.8877 21.4469 17.396 20.2762 18.3301C19.7165 18.7767 19.4367 19 19 19C18.5633 19 18.2835 18.7767 17.7238 18.3301Z" fill="#39B6FF"/>
</svg>
