<svg width="24" height="25" viewBox="0 0 24 25" fill="none" xmlns="http://www.w3.org/2000/svg">
<path fill-rule="evenodd" clip-rule="evenodd" d="M7.59843 4.98666C7.86525 3.67678 9.03088 2.75 10.3663 2.75H13.6337C14.9691 2.75 16.1347 3.67678 16.4016 4.98666C16.4632 5.28904 16.7371 5.51086 17.022 5.51086H17.0384L17.0548 5.51157C18.4582 5.57294 19.5362 5.74517 20.4362 6.33558C21.0032 6.70757 21.4909 7.18617 21.871 7.74464C22.3439 8.43947 22.5524 9.23694 22.6524 10.2014C22.75 11.1438 22.75 12.325 22.75 13.8211V13.9062C22.75 15.4023 22.75 16.5835 22.6524 17.5258C22.5524 18.4903 22.3439 19.2878 21.871 19.9826C21.4909 20.5411 21.0032 21.0197 20.4362 21.3917C19.7327 21.8532 18.9262 22.0567 17.948 22.1544C16.9903 22.25 15.789 22.25 14.2634 22.25H9.73657C8.21098 22.25 7.00967 22.25 6.05196 22.1544C5.07379 22.0567 4.26731 21.8532 3.56385 21.3917C2.99682 21.0197 2.50905 20.5411 2.12899 19.9826C1.65612 19.2878 1.44756 18.4903 1.34762 17.5258C1.24998 16.5835 1.24999 15.4023 1.25 13.9062V13.8211C1.24999 12.325 1.24998 11.1438 1.34762 10.2014C1.44756 9.23694 1.65612 8.43947 2.12899 7.74464C2.50905 7.18617 2.99682 6.70757 3.56385 6.33558C4.46383 5.74517 5.5418 5.57294 6.94523 5.51157L6.96161 5.51086H6.978C7.26288 5.51086 7.53683 5.28905 7.59843 4.98666ZM10.3663 4.25C9.72522 4.25 9.18905 4.69299 9.06824 5.28607C8.87258 6.24659 8.021 7.00186 6.99633 7.01078C5.64772 7.07069 4.92536 7.23636 4.38664 7.58978C3.98309 7.85452 3.63752 8.1941 3.36906 8.58857C3.09291 8.99435 2.92696 9.51325 2.83963 10.356C2.75094 11.2121 2.75 12.3156 2.75 13.8636C2.75 15.4117 2.75094 16.5152 2.83963 17.3712C2.92696 18.214 3.09291 18.7329 3.36906 19.1387C3.63752 19.5332 3.98309 19.8728 4.38664 20.1375C4.80417 20.4114 5.33844 20.5756 6.20104 20.6618C7.07549 20.7491 8.20193 20.75 9.77778 20.75H14.2222C15.7981 20.75 16.9245 20.7491 17.799 20.6618C18.6616 20.5756 19.1958 20.4114 19.6134 20.1375C20.0169 19.8728 20.3625 19.5332 20.6309 19.1387C20.9071 18.7329 21.073 18.214 21.1604 17.3712C21.2491 16.5152 21.25 15.4117 21.25 13.8636C21.25 12.3156 21.2491 11.2121 21.1604 10.356C21.073 9.51325 20.9071 8.99435 20.6309 8.58857C20.3625 8.1941 20.0169 7.85452 19.6134 7.58978C19.0746 7.23636 18.3523 7.07069 17.0037 7.01078C15.979 7.00186 15.1274 6.24659 14.9318 5.28607C14.8109 4.69299 14.2748 4.25 13.6337 4.25H10.3663ZM12 11.25C10.7574 11.25 9.75 12.2574 9.75 13.5C9.75 14.7426 10.7574 15.75 12 15.75C13.2426 15.75 14.25 14.7426 14.25 13.5C14.25 12.2574 13.2426 11.25 12 11.25ZM8.25 13.5C8.25 11.4289 9.92893 9.75 12 9.75C14.0711 9.75 15.75 11.4289 15.75 13.5C15.75 15.5711 14.0711 17.25 12 17.25C9.92893 17.25 8.25 15.5711 8.25 13.5ZM17.25 10.5C17.25 10.0858 17.5858 9.75 18 9.75H19C19.4142 9.75 19.75 10.0858 19.75 10.5C19.75 10.9142 19.4142 11.25 19 11.25H18C17.5858 11.25 17.25 10.9142 17.25 10.5Z" fill="#FF387F"/>
</svg>
