<svg width="24" height="25" viewBox="0 0 24 25" fill="none" xmlns="http://www.w3.org/2000/svg">
<path d="M12.5535 17.0061C12.4114 17.1615 12.2106 17.25 12 17.25C11.7894 17.25 11.5886 17.1615 11.4465 17.0061L7.44648 12.6311C7.16698 12.3254 7.18822 11.851 7.49392 11.5715C7.79963 11.292 8.27402 11.3132 8.55352 11.6189L11.25 14.5682V3.5C11.25 3.08579 11.5858 2.75 12 2.75C12.4142 2.75 12.75 3.08579 12.75 3.5V14.5682L15.4465 11.6189C15.726 11.3132 16.2004 11.292 16.5061 11.5715C16.8118 11.851 16.833 12.3254 16.5535 12.6311L12.5535 17.0061Z" fill="#EEEEEE"/>
<path d="M3.75 15.5C3.75 15.0858 3.41422 14.75 3 14.75C2.58579 14.75 2.25 15.0858 2.25 15.5V15.5549C2.24998 16.9225 2.24996 18.0248 2.36652 18.8918C2.48754 19.7919 2.74643 20.5497 3.34835 21.1516C3.95027 21.7536 4.70814 22.0125 5.60825 22.1335C6.47522 22.25 7.57754 22.25 8.94513 22.25H15.0549C16.4225 22.25 17.5248 22.25 18.3918 22.1335C19.2919 22.0125 20.0497 21.7536 20.6517 21.1516C21.2536 20.5497 21.5125 19.7919 21.6335 18.8918C21.75 18.0248 21.75 16.9225 21.75 15.5549V15.5C21.75 15.0858 21.4142 14.75 21 14.75C20.5858 14.75 20.25 15.0858 20.25 15.5C20.25 16.9354 20.2484 17.9365 20.1469 18.6919C20.0482 19.4257 19.8678 19.8142 19.591 20.091C19.3142 20.3678 18.9257 20.5482 18.1919 20.6469C17.4365 20.7484 16.4354 20.75 15 20.75H9C7.56459 20.75 6.56347 20.7484 5.80812 20.6469C5.07435 20.5482 4.68577 20.3678 4.40901 20.091C4.13225 19.8142 3.9518 19.4257 3.85315 18.6919C3.75159 17.9365 3.75 16.9354 3.75 15.5Z" fill="#EEEEEE"/>
</svg>
