<svg width="25" height="25" viewBox="0 0 25 25" fill="none" xmlns="http://www.w3.org/2000/svg">
<path fill-rule="evenodd" clip-rule="evenodd" d="M9.38558 3.86262C12.3283 1.04579 17.0864 1.04579 20.0291 3.86262C22.9903 6.69714 22.9903 11.307 20.0291 14.1415L12.081 21.7495C9.99097 23.7502 6.61532 23.7502 4.52525 21.7495C2.41669 19.7312 2.41669 16.4446 4.52525 14.4263L12.359 6.92771C13.5964 5.74324 15.5896 5.74325 16.827 6.92771C18.0829 8.12989 18.0829 10.0932 16.827 11.2953L8.93612 18.8486C8.63689 19.135 8.16213 19.1247 7.87571 18.8254C7.58929 18.5262 7.59967 18.0515 7.89889 17.765L15.7898 10.2118C16.4286 9.60021 16.4286 8.62285 15.7898 8.0113C15.1324 7.38205 14.0536 7.38205 13.3962 8.0113L5.56248 15.5098C4.07095 16.9376 4.07095 19.2382 5.56248 20.6659C7.07251 22.1114 9.53377 22.1114 11.0438 20.6659L18.9919 13.0579C21.336 10.814 21.336 7.1901 18.9919 4.9462C16.6292 2.6846 12.7855 2.6846 10.4228 4.9462L4.01861 11.0764C3.71939 11.3628 3.24463 11.3524 2.95821 11.0532C2.67179 10.754 2.68216 10.2792 2.98139 9.99281L9.38558 3.86262Z" fill="#EEEEEE"/>
</svg>
