<svg width="38" height="57" viewBox="0 0 38 57" fill="none" xmlns="http://www.w3.org/2000/svg">
<g clip-path="url(#clip0_1142_2155)">
<path d="M38.001 38.6191H0.00390625V0.62207H38.001V38.6191ZM29.4492 16.6299C29.4491 11.5482 23.7013 7.94459 18.999 12.8301C14.2968 7.94462 8.54897 11.5482 8.54883 16.6299C8.54883 21.7116 12.7495 24.4199 15.8242 26.8438C16.9091 27.699 17.9541 28.5038 18.999 28.5039C20.0439 28.5039 21.0889 27.699 22.1738 26.8438C25.2485 24.4199 29.4492 21.7116 29.4492 16.6299Z" fill="white"/>
</g>
<path d="M2.00885 52.6221L0.230903 46.3531H1.73177L2.8401 50.7633H2.89783L4.01771 46.3531H5.50703L6.63846 50.7402H6.69618L7.79297 46.3531H9.29384L7.51589 52.6221H5.98038L4.80278 48.3735H4.72196L3.54436 52.6221H2.00885ZM12.5556 52.7491C10.7257 52.7491 9.55383 51.4502 9.55383 49.5164C9.55383 47.5653 10.7257 46.2722 12.5556 46.2722C14.3912 46.2722 15.5631 47.5653 15.5573 49.5164C15.5631 51.4502 14.3912 52.7491 12.5556 52.7491ZM11.0432 49.5049C11.0432 50.6536 11.5454 51.5715 12.5671 51.5715C13.5715 51.5715 14.0738 50.6536 14.068 49.5049C14.0738 48.3561 13.5715 47.4325 12.5671 47.4383C11.5454 47.4325 11.0432 48.3561 11.0432 49.5049ZM19.2 52.7491C17.3701 52.7491 16.1983 51.4502 16.1983 49.5164C16.1983 47.5653 17.3701 46.2722 19.2 46.2722C21.0357 46.2722 22.2075 47.5653 22.2018 49.5164C22.2075 51.4502 21.0357 52.7491 19.2 52.7491ZM17.6876 49.5049C17.6876 50.6536 18.1898 51.5715 19.2116 51.5715C20.216 51.5715 20.7182 50.6536 20.7124 49.5049C20.7182 48.3561 20.216 47.4325 19.2116 47.4383C18.1898 47.4325 17.6876 48.3561 17.6876 49.5049ZM23.1083 52.6221V46.3531H24.5861V52.6221H23.1083ZM23.0044 44.6559C23.0044 44.2172 23.3911 43.8593 23.8587 43.8593C24.3263 43.8593 24.7131 44.2172 24.7131 44.6559C24.7131 45.1004 24.3263 45.4583 23.8587 45.4641C23.3911 45.4583 23.0044 45.1004 23.0044 44.6559ZM25.7581 52.6221V46.3531H27.1666V47.4152H27.2475C27.5072 46.6994 28.1364 46.2722 28.9677 46.2722C29.8162 46.2722 30.4281 46.7052 30.6648 47.4152H30.7341C31.0054 46.7225 31.7039 46.2722 32.6159 46.2722C33.7647 46.2722 34.5728 47.0111 34.5671 48.4081V52.6221H33.1008V48.639C33.1008 47.8597 32.6275 47.5076 32.0271 47.5076C31.3056 47.5076 30.8842 47.9982 30.8842 48.7083V52.6221H29.4526V48.5813C29.4468 47.929 29.0196 47.5076 28.3904 47.5076C27.7554 47.5076 27.2359 48.0329 27.2359 48.8122V52.6221H25.7581ZM35.7391 52.6221V46.3531H37.2169V52.6221H35.7391ZM35.6352 44.6559C35.6352 44.2172 36.022 43.8593 36.4896 43.8593C36.9571 43.8593 37.3439 44.2172 37.3439 44.6559C37.3439 45.1004 36.9571 45.4583 36.4896 45.4641C36.022 45.4583 35.6352 45.1004 35.6352 44.6559Z" fill="white"/>
<defs>
<clipPath id="clip0_1142_2155">
<rect y="0.62207" width="38" height="38" rx="9.1726" fill="white"/>
</clipPath>
</defs>
</svg>
