<svg width="24" height="24" viewBox="0 0 24 24" fill="none" xmlns="http://www.w3.org/2000/svg">
<path d="M19.2624 15.8286L21.2498 9.86619C22.986 4.65753 23.8542 2.0532 22.4794 0.678472C21.1047 -0.696259 18.5004 0.171849 13.2917 1.90807L7.32932 3.89553C3.12543 5.29683 1.02349 5.99748 0.426173 7.02493C-0.142058 8.00235 -0.142058 9.20954 0.426172 10.187C1.02348 11.2144 3.12543 11.9151 7.32932 13.3164C7.85031 13.49 8.43643 13.366 8.82656 12.9795L15.2015 6.66363C15.5602 6.30831 16.1389 6.311 16.4943 6.66965C16.8496 7.02829 16.8469 7.60708 16.4882 7.96241L10.2162 14.1763C9.78624 14.6023 9.65012 15.2543 9.84154 15.8286C11.2428 20.0324 11.9435 22.1344 12.9709 22.7317C13.9484 23.3 15.1555 23.3 16.133 22.7317C17.1604 22.1344 17.8611 20.0325 19.2624 15.8286Z" fill="#DDDDDD"/>
</svg>
