<svg width="17" height="18" viewBox="0 0 17 18" fill="none" xmlns="http://www.w3.org/2000/svg">
<path d="M15.5832 10.4163V8.99967C15.5832 8.40536 15.5832 7.87715 15.574 7.40592H1.42564C1.4165 7.87715 1.4165 8.40536 1.4165 8.99967V10.4163C1.4165 13.0876 1.4165 14.4233 2.24637 15.2531C3.07623 16.083 4.41188 16.083 7.08317 16.083H9.9165C12.5878 16.083 13.9234 16.083 14.7533 15.2531C15.5832 14.4233 15.5832 13.0876 15.5832 10.4163Z" fill="#333333"/>
<path d="M5.48942 2.27051C5.48942 1.97711 5.25157 1.73926 4.95817 1.73926C4.66477 1.73926 4.42692 1.97711 4.42692 2.27051V3.38915C3.40739 3.47079 2.73809 3.67115 2.24637 4.16287C1.75464 4.6546 1.55428 5.3239 1.47264 6.34342H15.527C15.4454 5.3239 15.245 4.6546 14.7533 4.16287C14.2616 3.67115 13.5923 3.47079 12.5728 3.38915V2.27051C12.5728 1.97711 12.3349 1.73926 12.0415 1.73926C11.7481 1.73926 11.5103 1.97711 11.5103 2.27051V3.34215C11.039 3.33301 10.5108 3.33301 9.9165 3.33301H7.08317C6.48885 3.33301 5.96065 3.33301 5.48942 3.34215V2.27051Z" fill="#333333"/>
</svg>
