<svg width="20" height="21" viewBox="0 0 20 21" fill="none" xmlns="http://www.w3.org/2000/svg">
<circle cx="10" cy="11.333" r="2.5" stroke="white" stroke-width="1.25"/>
<path d="M8.14799 18H11.8517C14.4525 18 15.753 18 16.6871 17.3872C17.0915 17.1219 17.4388 16.7809 17.709 16.3839C18.3332 15.4667 18.3332 14.1899 18.3332 11.6364C18.3332 9.0828 18.3332 7.80601 17.709 6.88884C17.4388 6.49178 17.0915 6.15087 16.6871 5.88557C16.0869 5.49178 15.3354 5.35102 14.1848 5.30071C13.6358 5.30071 13.1631 4.89223 13.0554 4.36364C12.8939 3.57074 12.1848 3 11.3612 3H8.63845C7.81488 3 7.1058 3.57074 6.94428 4.36364C6.8366 4.89223 6.36388 5.30071 5.81483 5.30071C4.66428 5.35102 3.9128 5.49178 3.31254 5.88557C2.90813 6.15087 2.56091 6.49178 2.29069 6.88884C1.6665 7.80601 1.6665 9.0828 1.6665 11.6364C1.6665 14.1899 1.6665 15.4667 2.29069 16.3839C2.56091 16.7809 2.90813 17.1219 3.31254 17.3872C4.2467 18 5.54713 18 8.14799 18Z" stroke="white" stroke-width="1.25"/>
<path d="M15.8333 8.83301H15" stroke="white" stroke-width="1.25" stroke-linecap="round"/>
</svg>
