<svg width="40" height="40" viewBox="0 0 40 40" fill="none" xmlns="http://www.w3.org/2000/svg">
<rect width="40" height="40" rx="20" fill="#7FA119"/>
<path d="M26.8538 16.0436C26.1241 14.7797 25.0591 13.7423 23.7765 13.0459C22.494 12.3495 21.0438 12.0214 19.5864 12.0978C18.129 12.1741 16.7211 12.6521 15.5184 13.4787C14.3156 14.3053 13.3649 15.4484 12.7713 16.7817M28.6738 13.5859L27.9523 16.7112C27.8294 17.2435 27.2983 17.5754 26.766 17.4525L23.6406 16.731M13.1473 23.9569C13.877 25.2208 14.942 26.2583 16.2246 26.9546C17.5071 27.651 18.9573 27.9791 20.4147 27.9028C21.8721 27.8264 23.28 27.3485 24.4827 26.5219C25.6855 25.6952 26.6362 24.5521 27.2298 23.2189M11.3273 26.4147L12.0488 23.2893C12.1717 22.757 12.7028 22.4251 13.2351 22.548L16.3604 23.2695" stroke="white" stroke-width="1.5" stroke-linecap="round"/>
</svg>
