<svg width="114" height="42" viewBox="0 0 114 42" fill="none" xmlns="http://www.w3.org/2000/svg">
<path d="M2 6C2 3.79086 3.79086 2 6 2H108C110.209 2 112 3.79086 112 6V36C112 38.2091 110.209 40 108 40H6C3.79086 40 2 38.2091 2 36V6Z" fill="white"/>
<path d="M107.434 0.828125C107.541 0.877273 107.629 0.942077 107.697 1.00391C107.748 1.0501 107.78 1.11143 107.82 1.16211C107.902 1.06724 108.131 0.840978 108.5 0.857422C108.687 0.86578 108.832 0.932009 108.939 1.00977L109.15 1.22656L109.197 1.2793C109.314 1.21552 109.511 1.1275 109.76 1.17383C110.127 1.2425 110.303 1.51877 110.369 1.67773C110.404 1.76229 110.405 1.85067 110.416 1.92383C110.478 1.93792 110.549 1.93671 110.615 1.9707C110.776 2.0534 110.871 2.17732 110.938 2.29297C111.08 2.34331 111.23 2.42998 111.342 2.59766C111.499 2.83272 111.489 3.07611 111.477 3.18359C111.601 3.28827 111.695 3.40752 111.752 3.54102C111.899 3.53561 112.062 3.54633 112.221 3.58789C112.367 3.62632 112.594 3.71999 112.754 3.93359L112.883 4.18555L112.93 4.4668C112.927 4.72915 112.806 4.93734 112.725 5.04688L112.713 5.05273C112.782 5.14534 112.848 5.2559 112.877 5.39844C112.933 5.679 112.825 5.89477 112.725 6.04883C112.743 6.059 112.765 6.0673 112.783 6.07812C112.864 6.12717 113.087 6.27128 113.199 6.53516L113.264 6.83984L113.199 7.19727C113.156 7.29713 113.094 7.37852 113.041 7.4375C112.998 7.48554 112.939 7.50861 112.895 7.54297C112.974 7.74288 112.991 7.96583 112.9 8.17578C112.846 8.30023 112.766 8.38914 112.695 8.45703C112.731 8.58078 112.754 8.71574 112.73 8.86133C112.725 8.89648 112.698 8.92839 112.689 8.96094C112.784 9.02827 112.901 9.12765 112.977 9.2832C113.061 9.45896 113.085 9.67407 113.018 9.88086C112.977 10.0064 112.902 10.094 112.842 10.1621C112.843 10.2204 112.843 10.2807 112.83 10.3438L112.824 10.3496C112.87 10.4234 112.919 10.5077 112.941 10.6133C112.965 10.7266 112.953 10.8304 112.936 10.9238C113.013 11.0516 113.074 11.2234 113.047 11.4395C113.006 11.7637 112.788 11.9392 112.684 12.0137C112.719 12.0572 112.76 12.1029 112.789 12.1602C112.895 12.3662 112.917 12.6162 112.824 12.8516C112.786 12.9477 112.73 13.0228 112.678 13.0859C112.742 13.171 112.81 13.2788 112.842 13.4199C112.89 13.631 112.855 13.8352 112.771 14C112.729 14.0825 112.657 14.1339 112.602 14.1934C112.625 14.2101 112.656 14.2219 112.678 14.2402C112.773 14.3194 112.906 14.4564 112.982 14.6562L113.041 14.8789L113.035 15.2012C113.022 15.3046 112.994 15.4081 112.959 15.5059C112.939 15.5605 112.898 15.6005 112.871 15.6465C112.919 15.752 112.953 15.8754 112.941 16.0273C113.002 16.0819 113.065 16.1545 113.117 16.2441C113.215 16.4118 113.254 16.6131 113.217 16.8125L113.152 17.0117C113.102 17.12 113.024 17.1985 112.953 17.2695C112.962 17.2824 112.98 17.2911 112.988 17.3047C113.09 17.4647 113.156 17.686 113.105 17.9316C113.07 18.1009 112.983 18.2225 112.906 18.3125C112.891 18.4017 112.865 18.4787 112.83 18.5527C112.836 18.557 112.842 18.5601 112.848 18.5645C112.94 18.6376 113.112 18.7987 113.17 19.0684C113.203 19.2252 113.192 19.3694 113.152 19.4902L112.988 19.7832C112.912 19.8731 112.809 19.9333 112.713 20C112.803 20.177 112.857 20.3927 112.783 20.6562C112.776 20.6806 112.761 20.7024 112.754 20.7266C112.773 20.7603 112.797 20.7928 112.812 20.832C112.871 20.9828 112.867 21.1434 112.836 21.3008C112.844 21.3069 112.852 21.3122 112.859 21.3184L113.053 21.5352C113.118 21.6375 113.174 21.7737 113.182 21.9395C113.192 22.1764 113.087 22.346 112.994 22.4668C113.047 22.5438 113.109 22.632 113.135 22.748C113.21 23.0849 113.058 23.3517 112.93 23.4922C112.914 23.5089 112.887 23.5124 112.871 23.5273C112.95 23.6171 113.04 23.7406 113.076 23.9141C113.125 24.1482 113.054 24.3476 112.965 24.5C112.994 24.7526 112.909 24.9638 112.801 25.1035C112.727 25.1988 112.633 25.2537 112.561 25.3027C112.609 25.3638 112.66 25.4356 112.695 25.5254C112.778 25.7336 112.775 25.9602 112.689 26.1641C112.652 26.2531 112.604 26.3266 112.555 26.3867L112.408 26.5332C112.401 26.5387 112.391 26.5396 112.385 26.5449C112.465 26.7053 112.522 26.8792 112.514 27.0781C112.592 27.1128 112.672 27.1409 112.742 27.1836C112.803 27.2205 112.888 27.2791 112.971 27.3594L113.193 27.6816L113.252 27.8809C113.282 28.0824 113.232 28.2798 113.135 28.4375C113.079 28.5277 113.01 28.5948 112.947 28.6484C112.952 28.6884 112.954 28.7288 112.953 28.7715C113.046 28.8947 113.147 29.0712 113.135 29.3105C113.119 29.6045 112.956 29.8016 112.854 29.8965C112.805 29.9416 112.744 29.9647 112.695 29.9961C112.682 30.043 112.669 30.0882 112.648 30.1309C112.67 30.178 112.688 30.2255 112.701 30.2773C112.793 30.3286 112.888 30.399 112.971 30.4824C113.064 30.5775 113.183 30.7421 113.217 30.9746C113.237 31.1172 113.208 31.2429 113.17 31.3555C113.211 31.6003 113.145 31.8362 113.018 32.0176C112.889 32.1998 112.711 32.3117 112.584 32.3809C112.541 32.4994 112.492 32.6129 112.426 32.7148L112.414 32.7266C112.48 32.7702 112.546 32.8111 112.607 32.8555L112.754 32.9844C112.807 33.0394 112.862 33.1055 112.906 33.1895C113.008 33.3845 113.035 33.6243 112.953 33.8574C112.927 33.9315 112.885 33.9896 112.848 34.0449C112.988 34.2073 113.146 34.4573 113.059 34.8066C113.013 34.9848 112.912 35.1121 112.818 35.2109C112.846 35.3551 112.836 35.4836 112.801 35.5977C112.808 35.6045 112.822 35.608 112.83 35.6152C112.916 35.6977 113.038 35.8478 113.088 36.0664C113.159 36.3798 113.041 36.6033 112.912 36.7637C112.914 36.8649 112.911 36.974 112.871 37.0859C112.806 37.2685 112.682 37.3866 112.572 37.4785C112.547 37.5701 112.52 37.661 112.467 37.7422C112.507 37.8945 112.538 38.1204 112.402 38.3574C112.263 38.6002 112.044 38.6799 111.898 38.7207C111.878 38.7667 111.874 38.8195 111.846 38.8613L111.57 39.1309C111.39 39.2441 111.2 39.2768 111.025 39.2832C111.027 39.2965 111.036 39.3108 111.037 39.3242C111.043 39.3855 111.048 39.475 111.031 39.5762C111.015 39.6758 110.965 39.8372 110.832 39.9863C110.514 40.3417 110.104 40.2439 109.965 40.1973C109.864 40.3015 109.738 40.4062 109.543 40.4434C109.505 40.4505 109.467 40.4414 109.432 40.4434C109.385 40.5138 109.342 40.5916 109.279 40.6543C109.157 40.7762 108.982 40.8905 108.758 40.9355C108.645 40.9581 108.537 40.9611 108.436 40.9473L108.154 40.8652L108.107 40.8477C107.949 40.8389 107.805 40.7952 107.674 40.7363L107.521 40.8887C107.412 40.9987 107.194 41.1604 106.883 41.1465C106.69 41.1373 106.545 41.0545 106.438 40.9766C106.256 41.0661 106.035 41.1085 105.805 41.0293C105.585 40.9536 105.451 40.8071 105.383 40.7188C105.348 40.6734 105.323 40.6219 105.295 40.5723C105.266 40.5792 105.238 40.6032 105.207 40.6074C105.03 40.631 104.876 40.5924 104.744 40.5371C104.703 40.6148 104.651 40.7134 104.568 40.8008C104.478 40.896 104.312 41.0328 104.064 41.0703C103.917 41.0925 103.786 41.0686 103.672 41.0293C103.547 41.0709 103.409 41.0942 103.262 41.0645C103.09 41.0294 102.962 40.9477 102.881 40.877C102.864 40.8619 102.849 40.8399 102.834 40.8242C102.698 40.8341 102.579 40.8198 102.477 40.7773C102.354 40.8234 102.229 40.8365 102.102 40.8242L101.803 41.041C101.54 41.1583 101.257 41.1634 100.994 41.0703C100.847 41.1735 100.664 41.2597 100.449 41.2695L100.133 41.2285C99.8236 41.1402 99.6446 40.9164 99.5645 40.7949C99.5541 40.7792 99.5509 40.7584 99.541 40.7422C99.3888 40.7312 99.2632 40.6944 99.1602 40.6309C99.1162 40.6926 99.0813 40.7756 99.0078 40.8359C98.8477 40.967 98.5742 41.0866 98.2578 41C98.2294 40.9921 98.2075 40.9691 98.1816 40.959C98.1119 40.999 98.0373 41.0429 97.9473 41.0645L97.707 41.0879C97.5256 41.081 97.3663 41.0317 97.2324 40.959L96.9043 40.7012C96.8959 40.6925 96.8903 40.6866 96.8867 40.6836C96.8907 40.6861 96.9002 40.6849 96.9102 40.6895C96.8127 40.6576 96.7204 40.6206 96.6348 40.5723C96.6127 40.5815 96.5924 40.5985 96.5703 40.6074C96.5865 40.6009 96.5936 40.5974 96.5879 40.6016C96.582 40.6059 96.5674 40.6153 96.5469 40.6367C96.4186 40.7716 96.1713 40.9599 95.8262 40.9473C95.7783 40.9454 95.7348 40.9265 95.6914 40.918C95.6523 40.9426 95.6199 40.986 95.5742 41.0059C95.3393 41.1071 95.1022 41.0959 94.9004 41.0176L94.707 40.918C94.6565 40.8833 94.6126 40.8404 94.5664 40.8008C94.3844 40.8267 94.2089 40.8122 94.0566 40.7305L94.0449 40.7246C93.9692 40.7777 93.883 40.8311 93.7812 40.8652C93.576 40.9338 93.3601 40.9286 93.1602 40.8594C92.8201 40.8878 92.5793 40.7137 92.4453 40.5781C92.3572 40.683 92.1699 40.8735 91.8594 40.8945C91.8122 40.8977 91.7674 40.8811 91.7246 40.877C91.636 40.9607 91.5075 41.0693 91.3203 41.1113C91.2087 41.1361 91.1025 41.1278 91.0039 41.1113C90.9495 41.1313 90.8926 41.1551 90.8281 41.1641C90.6704 41.186 90.5273 41.1488 90.4004 41.0996C90.2845 41.1664 90.156 41.24 89.9961 41.2461L89.7441 41.2168C89.499 41.1545 89.311 41.0141 89.1641 40.8711C89.0638 40.9791 88.8931 41.1277 88.6484 41.1699H88.3848C88.0663 41.2572 87.7842 41.1581 87.5938 41.0117C87.5147 40.9509 87.4493 40.882 87.3945 40.8125C87.3098 40.8443 87.2209 40.861 87.125 40.8652C87.0685 40.9038 87.008 40.949 86.9316 40.9766C86.735 41.0471 86.519 41.0395 86.3281 40.9648C86.198 40.9135 86.0979 40.8341 86.0176 40.7539C85.9653 40.8056 85.9114 40.863 85.8418 40.9062C85.6625 41.0175 85.445 41.0656 85.2207 41.0293C85.0782 41.0826 84.9184 41.1246 84.7402 41.0938C84.5223 41.0559 84.3635 40.9395 84.248 40.8359C84.148 40.9605 83.9955 41.1202 83.75 41.1816C83.4744 41.2504 83.2423 41.1625 83.0645 41.0527C82.9618 41.1247 82.8354 41.1962 82.6777 41.2227C82.5306 41.247 82.394 41.2346 82.2734 41.1992L81.9629 41.041C81.8345 40.9446 81.7262 40.8231 81.6406 40.6953C81.5505 40.6932 81.4658 40.685 81.3887 40.6602L81.0664 40.4844C81.0588 40.4782 81.0543 40.4707 81.0488 40.4668C81.0097 40.5459 80.9603 40.6417 80.8848 40.7305C80.8078 40.8206 80.6631 40.9621 80.4395 41.0234C79.9374 41.16 79.6295 40.8156 79.5137 40.6602L79.3613 40.6309C79.2841 40.614 79.2086 40.584 79.1328 40.5605C79.0957 40.6183 79.054 40.6851 78.998 40.748L78.7812 40.9355C78.6017 41.0563 78.3469 41.1253 78.0723 41.041C77.8758 40.9804 77.746 40.861 77.668 40.7715C77.432 40.8559 77.1891 40.8305 76.9883 40.7188C76.962 40.7041 76.9411 40.6822 76.918 40.666C76.9105 40.6787 76.9084 40.6945 76.9004 40.707C76.8459 40.7919 76.7248 40.9593 76.5137 41.0586C76.2443 41.1848 75.9516 41.149 75.7285 41.0117C75.6074 40.937 75.528 40.8384 75.4707 40.7598C75.3589 40.7747 75.234 40.7776 75.1016 40.7363C75.0628 40.7241 75.0306 40.6997 74.9961 40.6836C74.9181 40.7074 74.8345 40.7319 74.7383 40.7305C74.4708 40.7257 74.2802 40.6009 74.1523 40.4785C74.1167 40.489 74.0794 40.4896 74.041 40.4961C74.0336 40.5101 74.0314 40.5291 74.0234 40.543C73.9754 40.6263 73.8887 40.7593 73.7422 40.8652C73.5693 40.9901 73.3093 41.078 73.0215 40.9941C72.9003 40.9585 72.8037 40.8962 72.7285 40.8359L72.5703 40.6777C72.5569 40.6894 72.5492 40.7076 72.5352 40.7188L72.2891 40.8652C72.1228 40.9342 71.9333 40.9547 71.7441 40.9062C71.6651 40.9842 71.5707 41.0776 71.4336 41.1289L71.1406 41.1816C70.9613 41.1832 70.8024 41.1418 70.666 41.0762L70.3262 40.8359C70.222 40.7354 70.1188 40.6281 70.0156 40.5195C69.965 40.4663 69.9189 40.4063 69.8691 40.3496C69.7997 40.4542 69.7453 40.5658 69.6641 40.6543C69.521 40.8096 69.2842 40.9904 68.9785 41.0234L68.6504 41C68.4648 40.9563 68.3263 40.8592 68.2227 40.7656C68.0756 40.7945 67.9229 40.7988 67.7773 40.748C67.6755 40.7122 67.5928 40.6598 67.5254 40.6074C67.4912 40.6037 67.4578 40.603 67.4258 40.5957C67.3663 40.7216 67.2862 40.8712 67.1562 40.9883C67.0445 41.0886 66.8519 41.2062 66.5938 41.2109C66.3538 41.2151 66.1747 41.1125 66.0547 41.0176L65.9961 41.0645C65.788 41.1758 65.5527 41.2174 65.3164 41.1816L65.0762 41.1172C64.8598 41.0314 64.7145 40.8827 64.625 40.7656C64.5286 40.8551 64.4054 40.9453 64.2383 40.9883C64.1129 41.0202 63.9965 41.0166 63.8926 41C63.6916 41.1101 63.4416 41.1611 63.1895 41.0586C63.0399 40.9977 62.9388 40.8988 62.8672 40.8184C62.6874 40.9491 62.4269 41.07 62.1055 40.9766C62.0046 40.9471 61.9211 40.8983 61.8477 40.8477C61.7633 40.9066 61.6586 40.9673 61.5254 40.9941C61.4703 41.0051 61.4136 40.994 61.3613 40.9941C61.2292 41.0807 61.0576 41.1555 60.8398 41.1465C60.7079 41.1409 60.597 41.0991 60.5 41.0527C60.4537 41.0605 60.4055 41.0769 60.3535 41.0762C60.1188 41.0727 59.951 40.9647 59.8379 40.8711V40.877C59.745 40.9801 59.5462 41.1569 59.2402 41.1699C58.9241 41.1828 58.7025 41.0161 58.5957 40.9062C58.5384 40.8472 58.5015 40.7742 58.4609 40.707C58.3568 40.7284 58.2423 40.7452 58.1152 40.7188L58.1035 40.7129C58.0152 40.7836 57.9175 40.852 57.7988 40.8945L57.7109 40.9473C57.5193 41.0927 57.2306 41.1961 56.9082 41.1055C56.8448 41.0876 56.7969 41.0449 56.7441 41.0176C56.5512 41.0578 56.3622 41.0457 56.1992 40.9648C56.071 40.9012 55.9829 40.8103 55.918 40.7363C55.8748 40.7559 55.8341 40.7876 55.7832 40.8008C55.6808 40.8271 55.5759 40.8346 55.4785 40.8242L55.2031 40.748C55.18 40.7372 55.1607 40.7191 55.1387 40.707C55.0126 40.7731 54.8581 40.8229 54.6816 40.8125C54.5085 40.8022 54.3637 40.7424 54.2539 40.6719C54.1356 40.6649 54.0177 40.6585 53.9023 40.6309C53.8294 40.6133 53.7629 40.577 53.6973 40.5488C53.619 40.5831 53.5332 40.6092 53.4336 40.6191C53.3654 40.7102 53.2441 40.8463 53.0469 40.9238C52.8005 41.0202 52.568 40.9684 52.3789 40.8711C52.202 40.9012 52.0508 40.862 51.916 40.8008C51.8993 40.8166 51.8879 40.8384 51.8691 40.8535C51.7824 40.9233 51.6525 41.0017 51.4824 41.0293C51.3058 41.0574 51.1377 41.0241 51.002 40.959C50.9077 40.9134 50.8388 40.8479 50.7793 40.7891C50.6223 40.9263 50.3709 41.0831 50.0293 41.0176C49.824 40.9777 49.6791 40.8683 49.5723 40.7656C49.4486 40.8228 49.3095 40.8688 49.1445 40.8652C49.0899 40.864 49.0351 40.8556 48.9805 40.8535L48.6289 41.0996C48.3853 41.2219 48.1024 41.2322 47.8438 41.1172C47.7054 41.0555 47.5979 40.9689 47.5156 40.8828C47.3722 40.9825 47.1821 41.0822 46.9355 41.0645C46.729 41.049 46.5751 40.9558 46.4551 40.8652C46.3264 40.8649 46.2095 40.8309 46.0918 40.7891C46.0018 40.9077 45.8722 41.057 45.6641 41.1348C45.4298 41.2222 45.1755 41.2393 44.9258 41.1758C44.7902 41.1411 44.6688 41.0856 44.5625 41.0176L44.2871 40.7891C44.2734 40.7751 44.2597 40.7615 44.2461 40.748C44.1809 40.7917 44.1095 40.8444 44.0176 40.8711C43.7342 40.9524 43.4757 40.871 43.3027 40.748C43.2833 40.7342 43.2733 40.7099 43.2559 40.6953C43.2185 40.7395 43.1855 40.7902 43.1387 40.8301C42.9711 40.9725 42.7155 41.0782 42.418 41.0293C42.1937 41.0997 41.9575 41.0883 41.7441 40.9824C41.6361 40.9287 41.5461 40.8601 41.4746 40.7891L41.3105 40.5898C41.2964 40.5689 41.2837 40.5466 41.2695 40.5254C41.208 40.5342 41.1492 40.5466 41.0879 40.543C41.0098 40.6745 40.884 40.8595 40.666 40.9648C40.4875 41.0504 40.2702 41.074 40.0566 41.0117C39.9142 40.9696 39.8085 40.8936 39.7285 40.8242C39.6503 40.8502 39.5641 40.8724 39.4648 40.8711C39.1274 40.866 38.9132 40.6639 38.8262 40.5605C38.7895 40.5168 38.7708 40.4639 38.7441 40.4199C38.7018 40.4967 38.6575 40.5786 38.5977 40.6484C38.4976 40.7647 38.2921 40.9448 38.0059 40.9766L37.6953 40.9473C37.6745 40.9418 37.6566 40.9246 37.6367 40.918C37.5354 41.0059 37.3855 41.1107 37.1738 41.1348C36.9699 41.1578 36.8018 41.0922 36.6699 41.0176C36.6093 41.064 36.5367 41.1128 36.4473 41.1465L36.0957 41.1992H35.9199C35.5253 41.2295 35.2771 40.9918 35.1582 40.8477C35.1225 40.8481 35.0851 40.8581 35.0469 40.8535C34.8525 40.8299 34.713 40.7387 34.6133 40.6543C34.5919 40.6596 34.5711 40.6737 34.5488 40.6777C34.4922 40.688 34.4371 40.6712 34.3848 40.6719C34.3669 40.7097 34.3638 40.7538 34.3438 40.7891C34.2981 40.8692 34.2281 40.977 34.127 41.0703C34.0758 41.1173 34.0066 41.1678 33.9219 41.2109L33.6113 41.2988C33.2839 41.3273 33.0357 41.176 32.8906 41.041C32.8509 41.0039 32.8298 40.9523 32.7969 40.9121C32.7057 41.0194 32.5455 41.1865 32.2988 41.2402L31.9824 41.2461C31.7588 41.2094 31.6014 41.0913 31.5078 41C31.4644 40.9576 31.4342 40.9084 31.4023 40.8652C31.3573 40.9075 31.3126 40.9575 31.25 40.9941C31.0478 41.1123 30.785 41.1566 30.5293 41.0586C30.3822 41.0019 30.2802 40.9078 30.207 40.8301C30.1793 40.829 30.1482 40.8399 30.1191 40.8359C30.0455 40.8258 29.9809 40.8015 29.9199 40.7773C29.8041 40.8165 29.672 40.8398 29.5156 40.8125C29.2847 40.7716 29.1251 40.6475 29.0352 40.5547C28.9289 40.6536 28.7727 40.7734 28.5371 40.7891C28.4119 40.797 28.3025 40.7707 28.209 40.7363C28.1013 40.7892 27.9745 40.8389 27.8223 40.8359C27.7296 40.8339 27.6455 40.8086 27.5703 40.7832C27.4964 40.87 27.3989 40.9825 27.248 41.0527L27.0078 41.1289C26.7765 41.1632 26.5815 41.1067 26.4219 41.0234C26.4137 41.0254 26.4069 41.0334 26.3984 41.0352C26.0387 41.1096 25.7701 40.934 25.6426 40.8066C25.6276 40.7917 25.6208 40.7692 25.6074 40.7539C25.5342 40.7567 25.4671 40.751 25.4023 40.7363C25.2508 40.8983 24.9415 41.1357 24.5059 41C24.4033 40.968 24.317 40.9215 24.248 40.8711C24.117 40.9409 23.949 41.0022 23.7441 40.9707C23.4438 40.9236 23.2661 40.7307 23.1934 40.6367L23.1875 40.6309C23.1049 40.6592 23.0228 40.6969 22.9297 40.707C22.8658 40.7139 22.8036 40.6984 22.7422 40.6953C22.6756 40.7804 22.6076 40.8739 22.5137 40.9473L22.2969 41.0762C22.1354 41.1509 21.9429 41.1844 21.7461 41.1406C21.5664 41.0999 21.432 41.0044 21.3418 40.9238C21.2345 40.9322 21.1202 40.9317 21.002 40.8887C20.9912 40.8848 20.983 40.8753 20.9727 40.8711C20.8551 40.9762 20.6964 41.0931 20.4688 41.1172C20.2172 41.1435 20.0273 41.0469 19.8828 40.9473C19.6772 40.9521 19.4876 40.8972 19.3203 40.8008L19.3145 40.8125C19.1449 40.9081 18.9246 40.9572 18.6934 40.9004C18.5747 40.8711 18.4778 40.8203 18.4004 40.7656C18.3306 40.8542 18.2613 40.9541 18.1602 41.0293L17.9375 41.1582C17.6064 41.2972 17.2912 41.2059 17.0762 41.0527C16.9419 41.1188 16.7758 41.1741 16.5781 41.1406C16.3108 41.095 16.1438 40.9313 16.0625 40.8359C15.9726 40.7302 15.907 40.6072 15.8574 40.4902C15.8285 40.4933 15.8002 40.5076 15.7695 40.5078C15.7021 40.5082 15.6409 40.4911 15.582 40.4785C15.5642 40.5103 15.5546 40.5469 15.5352 40.5781L15.2598 40.918C15.1248 41.0404 14.9054 41.1759 14.6211 41.1816C14.3352 41.1867 14.1125 41.0585 13.9707 40.9355C13.9559 40.9229 13.9473 40.918 13.9473 40.918L13.5957 40.7949C13.5479 40.7748 13.5068 40.7424 13.4609 40.7188C13.3968 40.7422 13.3314 40.7738 13.2559 40.7832C13.1674 40.794 13.0836 40.7718 13.0039 40.7598L12.9102 40.8418C12.7094 41.0041 12.392 41.1233 12.043 41C11.9336 40.961 11.8489 40.897 11.7734 40.8359C11.6829 40.8443 11.5922 40.8359 11.498 40.8184C11.2618 40.9124 10.9999 40.9303 10.7363 40.8301L10.3555 40.7598C10.2459 40.7159 10.1532 40.6568 10.0801 40.5957C10.0664 40.5843 10.0579 40.5666 10.0449 40.5547C10.0351 40.5553 10.0256 40.5544 10.0156 40.5547L9.82812 40.8242C9.74191 40.924 9.55243 41.1024 9.25391 41.1289C8.93442 41.1563 8.70136 40.9966 8.58594 40.8828C8.51103 40.8089 8.4638 40.716 8.41602 40.6309C8.40045 40.6605 8.39351 40.6955 8.375 40.7246C8.32168 40.8085 8.19012 40.9907 7.94727 41.0879C7.62782 41.2148 7.3225 41.1185 7.13281 40.9707C7.0581 40.9121 7.002 40.8445 6.95703 40.7832L6.85742 40.625C6.84946 40.6094 6.83607 40.5935 6.82812 40.5781C6.7106 40.5843 6.6102 40.5687 6.51758 40.5371C6.48244 40.5763 6.4548 40.6245 6.41211 40.6602C6.27897 40.771 6.08543 40.8726 5.85547 40.8828L5.61523 40.8594C5.40985 40.8122 5.22186 40.7197 5.05859 40.6016L4.96484 40.5488C4.87573 40.5145 4.7987 40.4646 4.73047 40.4141C4.64912 40.4702 4.50973 40.558 4.32617 40.584C4.20338 40.6011 4.04501 40.5931 3.88086 40.5195C3.71343 40.4443 3.59568 40.3246 3.52344 40.209C3.44253 40.0789 3.41338 39.9461 3.40039 39.8457C3.29628 39.8123 3.19324 39.7789 3.0957 39.7285H3.06055C2.92357 39.726 2.67541 39.6871 2.46875 39.4824C2.25423 39.2689 2.21661 39.009 2.22266 38.8496C2.22381 38.8198 2.23635 38.7907 2.24023 38.7617C2.12664 38.7035 1.99816 38.6156 1.90625 38.4629C1.81608 38.3118 1.79934 38.1616 1.80078 38.0352C1.78977 38.0313 1.77655 38.0336 1.76562 38.0293C1.64834 37.9833 1.46691 37.884 1.33789 37.6836C1.19694 37.4631 1.18447 37.2243 1.22656 37.0391L1.23242 37.0273C1.21677 36.949 1.214 36.8733 1.21484 36.7988C1.20516 36.7907 1.18924 36.7899 1.17969 36.7812C1.0568 36.6691 0.86956 36.4308 0.904297 36.084C0.924632 35.883 1.01953 35.7396 1.10352 35.6387C1.05834 35.5256 1.02334 35.4002 1.02734 35.2578C1.03458 35.0208 1.12704 34.8243 1.23242 34.6836L1.53711 34.3848C1.56342 34.3653 1.59232 34.3499 1.61914 34.332C1.57867 34.2835 1.53395 34.2346 1.49023 34.1855L1.23828 33.9102C1.15332 33.8192 1.05122 33.6774 1.00977 33.4824C0.965539 33.2738 1.00416 33.0748 1.08594 32.9141C1.19118 32.7088 1.36273 32.5813 1.49023 32.5039C1.47694 32.4266 1.48481 32.3538 1.49023 32.2812C1.3882 32.2355 1.27774 32.1999 1.18555 32.1348C1.09337 32.0696 0.931148 31.9363 0.833984 31.7246L0.763672 31.4844C0.726059 31.2244 0.816028 31.0076 0.921875 30.8457C0.894688 30.7767 0.869835 30.7032 0.857422 30.623L0.816406 30.3125C0.800166 30.1856 0.801186 30.0617 0.822266 29.9434L0.921875 29.6562V29.7441C0.878827 29.4309 0.968442 29.1476 1.11523 28.9297L1.13867 28.9062C1.03019 28.7943 0.883976 28.6122 0.886719 28.332C0.890106 28.0302 1.05702 27.8374 1.16797 27.7344C1.155 27.6991 1.12379 27.6689 1.11523 27.6289C1.07894 27.4575 1.10341 27.3044 1.15039 27.1777C1.13286 27.1331 1.10211 27.0894 1.0918 27.0371C1.07482 26.9503 1.09106 26.8714 1.09766 26.7969C0.999885 26.6618 0.89693 26.4702 0.933594 26.2109C0.956174 26.0544 1.01734 25.9289 1.08594 25.8359L1.03906 25.6895C1.01607 25.5112 1.05386 25.3593 1.10938 25.2324C1.0695 25.1713 1.02415 25.105 0.998047 25.0215C0.939707 24.8335 0.966335 24.6481 1.02734 24.4824C1.00775 24.253 1.08684 24.0736 1.17969 23.9316C1.05957 23.7595 0.955172 23.5173 1.05078 23.2051C1.06122 23.1712 1.08407 23.1419 1.09766 23.1113C1.08091 23.065 1.04791 23.019 1.03906 22.9648C0.996255 22.6988 1.07955 22.4921 1.18555 22.3438C0.990692 22.1572 0.759073 21.8394 0.845703 21.4004L0.916016 21.1719C0.930657 21.1385 0.951634 21.109 0.96875 21.0781L0.962891 21.0723C0.882382 20.744 1.02023 20.4771 1.15039 20.3281C1.17722 20.2976 1.21605 20.2827 1.24414 20.2578C1.16273 20.1854 1.07698 20.1071 1.00977 20.0059L0.892578 19.7832C0.792552 19.515 0.828168 19.2395 0.951172 19.0156C1.00613 18.9165 1.07538 18.8309 1.14453 18.7637C1.10503 18.7253 1.04583 18.6985 1.00977 18.6465C0.891713 18.4757 0.811901 18.2246 0.886719 17.9492C0.951609 17.7118 1.10651 17.5655 1.19727 17.4922L1.26758 17.4453C1.24206 17.4015 1.19839 17.3644 1.17969 17.3105C1.07488 17.0064 1.17993 16.7375 1.30859 16.5605C1.30436 16.4893 1.29186 16.4129 1.30859 16.332C1.31656 16.2938 1.33761 16.2611 1.34961 16.2266C1.32534 16.186 1.3047 16.1431 1.28516 16.0977L1.0918 15.9336C1.01907 15.8515 0.949073 15.739 0.910156 15.5938C0.815594 15.2396 0.976258 14.9637 1.10938 14.8203C1.07942 14.5643 1.1784 14.3639 1.28516 14.2285C1.18954 14.1561 1.06829 14.0473 0.998047 13.877C0.92739 13.7039 0.918279 13.5071 0.980469 13.3203C1.03017 13.1716 1.11233 13.066 1.17969 12.998C1.16221 12.9776 1.13743 12.9627 1.12109 12.9395C1.05287 12.8421 0.982842 12.7057 0.96875 12.5352C0.954445 12.3611 1.00292 12.2062 1.06836 12.084C1.13713 11.9558 1.22838 11.8651 1.30859 11.8027C1.31375 11.5951 1.40755 11.4326 1.50195 11.3047C1.50081 11.2969 1.49765 11.2892 1.49609 11.2812C1.452 11.0567 1.47778 10.8371 1.54883 10.6309C1.52859 10.4861 1.53749 10.3581 1.57227 10.2383C1.53078 10.2152 1.48413 10.2002 1.44336 10.1738L1.09766 9.875C0.988335 9.73984 0.883812 9.54399 0.869141 9.30078C0.854546 9.0531 0.937809 8.8412 1.04492 8.68555L1.05664 8.66797L1.08594 8.59766C1.02826 8.52819 0.964214 8.44751 0.927734 8.33984C0.796743 7.95123 0.987553 7.6407 1.13281 7.49609C1.16699 7.46221 1.21458 7.44603 1.25 7.41992C1.23311 7.34976 1.23657 7.2775 1.23242 7.20312C1.1728 7.11765 1.10807 7.01466 1.08008 6.88086C1.0401 6.68877 1.06705 6.49933 1.13867 6.3418C1.23696 6.12682 1.4066 5.99547 1.53125 5.91406C1.48572 5.88713 1.43364 5.86938 1.39062 5.83789C1.3189 5.78537 1.17404 5.66572 1.08008 5.47461C1.02743 5.36713 0.98191 5.21808 0.998047 5.04102C1.01534 4.85818 1.08954 4.70436 1.17969 4.5957C1.26621 4.49165 1.36871 4.42403 1.45508 4.37891C1.44836 4.22324 1.47764 4.04099 1.61914 3.86328C1.69267 3.77125 1.77803 3.71266 1.85352 3.66992C1.90289 3.45806 2.02843 3.27071 2.22266 3.1543C2.22032 2.99462 2.24746 2.79301 2.38672 2.60352C2.53312 2.40588 2.72361 2.3192 2.89062 2.28125C2.89264 2.26625 2.89384 2.24943 2.89648 2.23438C2.93394 2.02266 3.05685 1.72964 3.37109 1.56055L3.6582 1.45508C3.75282 1.43679 3.84551 1.43725 3.93359 1.44336L4.39648 1.56055L4.4375 1.57812V1.58398C4.51741 1.57766 4.59473 1.57109 4.67188 1.57812C4.68075 1.56142 4.68526 1.54209 4.69531 1.52539C4.75393 1.4282 4.86515 1.27776 5.05859 1.17969C5.3746 1.02048 5.64175 1.11021 5.83203 1.21484C5.94795 1.15149 6.08243 1.09591 6.24219 1.08594C6.28841 1.08311 6.33321 1.10004 6.37695 1.10352C6.48827 1.02888 6.62961 0.965863 6.80469 0.951172C7.06308 0.929636 7.2581 1.03395 7.40234 1.13867C7.5162 1.08689 7.65717 1.04884 7.82422 1.06836C8.02102 1.09186 8.16277 1.18493 8.26367 1.27344C8.36489 1.20887 8.47798 1.15137 8.61523 1.12695L8.90234 1.12109C9.10224 1.15275 9.24638 1.26666 9.35352 1.36133L9.36523 1.35547L9.45898 1.30273L9.74023 1.15625C9.84976 1.11983 9.97437 1.09855 10.1094 1.10938C10.2478 1.12069 10.365 1.16786 10.4668 1.2207C10.5336 1.12628 10.648 0.990835 10.8359 0.910156C11.1753 0.76578 11.4969 0.881961 11.6855 1.03906C11.7544 1.09662 11.8074 1.1609 11.8496 1.2207C11.9776 1.21971 12.1032 1.25292 12.2246 1.30859C12.2587 1.25579 12.2844 1.19031 12.3359 1.13867C12.4053 1.06925 12.519 0.977955 12.6816 0.927734C12.8585 0.873358 13.0444 0.881908 13.209 0.945312C13.3826 1.01242 13.4923 1.13267 13.5664 1.22656C13.6557 1.12625 13.7751 1.01204 13.9414 0.939453L14.2227 0.845703C14.321 0.824025 14.423 0.810822 14.5273 0.810547L14.75 0.839844C14.9526 0.890915 15.1035 1.0065 15.2012 1.10352C15.3024 1.20453 15.369 1.32875 15.4297 1.4375L15.4414 1.43164L15.7227 1.23242C15.8431 1.17408 15.9917 1.13543 16.1621 1.14453C16.4049 1.15815 16.5815 1.27214 16.707 1.37891C16.781 1.3871 16.851 1.40431 16.918 1.42578C16.9819 1.36008 17.0653 1.28997 17.1758 1.23828C17.3698 1.14758 17.5718 1.16214 17.7617 1.2207C17.8639 1.14316 17.9956 1.07331 18.1602 1.04492H18.4473C18.6061 1.07094 18.7276 1.15178 18.8281 1.22656C18.9665 1.12646 19.1614 1.02804 19.4258 1.07422C19.5784 0.928583 19.8154 0.76733 20.1641 0.833984H20.2227L20.498 0.845703C20.7485 0.896325 20.9256 1.0497 21.0195 1.15625C21.0334 1.17205 21.0359 1.19847 21.0488 1.21484C21.0785 1.21316 21.1072 1.19609 21.1367 1.19727L21.4941 1.28516L21.5645 1.30859L21.8398 1.38477C21.9574 1.25489 22.0936 1.13128 22.2559 1.03906L22.5195 0.939453C22.618 0.920474 22.7249 0.918565 22.8359 0.939453C23.0431 0.978911 23.1946 1.08604 23.2871 1.17383C23.4331 1.31246 23.5205 1.48838 23.5801 1.625C23.6054 1.62148 23.6303 1.62676 23.6562 1.625C23.763 1.53831 23.8725 1.4521 23.9902 1.38477C24.142 1.29831 24.3073 1.23168 24.4824 1.19141L24.793 1.17383C24.8514 1.1128 24.9244 1.04382 25.0215 0.992188C25.2145 0.889996 25.4541 0.858336 25.6895 0.939453C25.7027 0.94403 25.712 0.957831 25.7246 0.962891C25.8552 0.866549 26.0342 0.78543 26.2637 0.792969C26.5781 0.803999 26.7756 0.988529 26.8965 1.12695C27.0096 1.11183 27.115 1.13735 27.2188 1.16211C27.3577 1.04759 27.5585 0.94253 27.7988 0.945312L28.0801 0.992188L28.3145 1.11523C28.3213 1.11979 28.3254 1.12815 28.332 1.13281L28.3379 1.12695C28.4562 1.02021 28.6381 0.906002 28.8652 0.880859L29.1113 0.892578L29.3516 0.962891C29.4326 0.997524 29.5024 1.04457 29.5684 1.0918C29.7137 1.00109 29.9127 0.917315 30.166 0.974609C30.3497 1.01667 30.4752 1.11944 30.5645 1.20898C30.6349 1.11832 30.778 0.962409 31.0156 0.892578C31.2688 0.81819 31.4951 0.885787 31.666 0.986328C31.8346 0.909724 32.0397 0.85801 32.2637 0.933594C32.345 0.96115 32.4038 1.01575 32.4629 1.05664C32.4769 1.0541 32.4894 1.04094 32.5039 1.03906C32.5958 1.02748 32.6789 1.055 32.7559 1.06836C32.8374 1.01856 32.9349 0.971209 33.0547 0.951172C33.3243 0.906696 33.552 0.999743 33.6992 1.10938C33.7502 1.14743 33.779 1.20332 33.8164 1.24414C33.928 1.11866 34.105 0.959338 34.3789 0.921875L34.5137 0.886719L34.7598 0.833984C34.9981 0.818706 35.2133 0.902643 35.3691 1.02148C35.4932 1.11632 35.5777 1.23834 35.6445 1.34375L35.6504 1.33789C35.7841 1.31417 35.9042 1.32829 36.0137 1.35547C36.0237 1.35157 36.0326 1.3415 36.043 1.33789C36.1241 1.30987 36.2066 1.30576 36.2891 1.30273C36.3293 1.23988 36.3622 1.1596 36.4297 1.09766C36.5058 1.0279 36.627 0.945562 36.793 0.904297C36.9714 0.860355 37.1502 0.880549 37.3027 0.945312C37.5095 1.03343 37.6258 1.18763 37.6895 1.28516C37.8072 1.26354 37.9175 1.26399 38.0234 1.28516C38.1852 1.21886 38.3781 1.17874 38.5977 1.24414C38.7848 1.30004 38.9171 1.41148 39.0137 1.51367C39.0886 1.51891 39.1579 1.5474 39.2305 1.56641C39.3533 1.42291 39.5084 1.27303 39.7285 1.19727L39.9629 1.14453C40.1018 1.12861 40.231 1.16811 40.3613 1.20312C40.4397 1.08031 40.6838 0.735912 41.1465 0.746094L41.4863 0.816406C41.6436 0.881237 41.7539 0.99594 41.8496 1.09766C41.9175 1.05888 41.9805 1.00595 42.0605 0.980469L42.418 0.939453C42.5171 0.951703 42.6038 0.987868 42.6816 1.02734C42.7516 0.978201 42.8327 0.934341 42.9277 0.904297L43.2617 0.863281C43.5644 0.890949 43.7796 1.09092 43.877 1.20898C43.9921 1.34919 44.0673 1.51598 44.123 1.66016C44.1556 1.67139 44.1802 1.69916 44.2109 1.71289C44.2352 1.6438 44.2576 1.56975 44.293 1.50195C44.3304 1.43016 44.4587 1.2001 44.7324 1.08008C44.9 1.00687 45.0983 0.987111 45.2891 1.04492C45.3352 1.05905 45.3737 1.08424 45.4121 1.10352C45.498 1.06805 45.5932 1.03571 45.6992 1.02734L45.9805 1.04492C46.0672 1.06271 46.1473 1.09176 46.2207 1.12695C46.3251 1.0213 46.4501 0.920441 46.6016 0.851562L46.9648 0.769531C47.0899 0.76622 47.2182 0.790688 47.3398 0.839844C47.4462 0.883138 47.5351 0.941819 47.6094 1.00391L47.791 1.18555L47.8613 1.2793C47.9652 1.27956 48.058 1.29009 48.1426 1.32031C48.2037 1.28922 48.2746 1.266 48.3535 1.25C48.6342 1.19417 48.8533 1.30196 48.998 1.4082C49.0995 1.28952 49.25 1.14884 49.4785 1.0918C49.8448 1.00062 50.1131 1.17432 50.2754 1.32031C50.3544 1.33532 50.4253 1.3544 50.4922 1.38477C50.523 1.37059 50.5517 1.34898 50.5859 1.33789C50.8373 1.25663 51.0529 1.30656 51.2246 1.39062C51.3812 1.37089 51.5449 1.38756 51.7051 1.46094C51.7273 1.47116 51.7431 1.49635 51.7637 1.50781C51.7848 1.48215 51.807 1.45738 51.8281 1.43164L52.1035 1.19141C52.2318 1.1163 52.3955 1.06218 52.5957 1.07422C52.631 1.07635 52.6627 1.09186 52.6953 1.09766C52.8366 0.994614 53.0179 0.938942 53.2402 0.939453C53.5108 0.806789 53.8189 0.816136 54.0781 0.962891C54.1418 0.999068 54.1868 1.05367 54.2363 1.09766C54.2959 1.07714 54.3586 1.05183 54.4297 1.04492C54.6466 1.0239 54.8357 1.0924 54.9746 1.17969C55.1417 1.28513 55.2483 1.43345 55.3203 1.55469C55.4127 1.4017 55.5178 1.25466 55.6426 1.13281L55.8008 1.00391C55.8658 0.962989 55.946 0.929497 56.0352 0.904297C56.2262 0.85069 56.4203 0.86383 56.5918 0.933594C56.6373 0.952297 56.6759 0.985957 56.7148 1.00977C56.8538 0.875414 57.0671 0.720348 57.3828 0.746094L57.7285 0.845703C57.8271 0.895153 57.9106 0.956867 57.9746 1.01562C57.99 1.02981 57.9953 1.05363 58.0098 1.06836C58.0939 1.06866 58.1858 1.07302 58.2793 1.10352C58.3378 1.12277 58.3888 1.15214 58.4375 1.17969C58.6012 1.04379 58.8816 0.911728 59.2168 1.02148C59.4182 1.08772 59.539 1.22412 59.6152 1.32031C59.6467 1.31363 59.6804 1.29995 59.7148 1.29688C59.8886 1.28187 60.0323 1.32662 60.1484 1.38477C60.2621 1.27513 60.4362 1.13977 60.6758 1.11523L60.9863 1.13867L61.0332 1.16211C61.1121 1.07571 61.2158 0.988345 61.3496 0.927734L61.7832 0.828125C61.8555 0.826133 61.9276 0.833135 62 0.845703L62.2227 0.904297L62.498 1.06836C62.5748 1.13195 62.6333 1.20278 62.6797 1.26172C62.715 1.3067 62.7373 1.35999 62.7676 1.4082L63.0605 1.50195C63.1404 1.43673 63.2264 1.37726 63.3184 1.32617C63.3322 1.31844 63.3672 1.29236 63.4238 1.23242L63.7168 1.01562C63.8443 0.953401 64.0017 0.916296 64.1855 0.933594C64.2033 0.935306 64.2213 0.948522 64.2383 0.951172C64.3152 0.899541 64.4073 0.854903 64.5137 0.828125C64.8389 0.747028 65.0759 0.880592 65.2402 1.00977C65.3375 0.947289 65.4544 0.890004 65.5977 0.869141L65.9258 0.886719C66.2186 0.960215 66.3985 1.17919 66.4648 1.27344C66.6916 1.27543 66.8561 1.36164 66.9805 1.4668C67.0304 1.40764 67.0809 1.34089 67.1504 1.29102C67.2831 1.19623 67.4781 1.11041 67.7129 1.12695C67.8274 1.13531 67.9268 1.16915 68.0117 1.20898L68.2168 1.34375L68.3984 1.53711C68.4547 1.53054 68.5078 1.52197 68.5625 1.52539C68.5732 1.50253 68.5795 1.47741 68.5918 1.45508C68.6249 1.39523 68.6821 1.29682 68.7793 1.20898C68.8809 1.1172 69.0691 1.00321 69.3242 1.00391C69.3778 1.00417 69.4236 1.02969 69.4707 1.03906C69.6272 0.920406 69.871 0.79409 70.1855 0.886719C70.4157 0.955323 70.5495 1.11181 70.625 1.21484C70.6771 1.2233 70.7315 1.22696 70.7832 1.23828L70.9238 1.29102C71.0534 1.21348 71.2234 1.14053 71.4395 1.16797C71.4644 1.17115 71.4864 1.18631 71.5098 1.19141C71.5525 1.15074 71.5948 1.10832 71.6445 1.07422L71.9492 0.933594C72.0649 0.902982 72.193 0.888319 72.3301 0.910156C72.4596 0.930803 72.5706 0.978326 72.6641 1.0332L72.8867 1.20898L73.0977 1.47852C73.2871 1.44444 73.4586 1.47915 73.6191 1.53125C73.7722 1.46432 73.9419 1.41949 74.1348 1.43164V1.42578C74.2354 1.39074 74.3393 1.36667 74.4453 1.35547L74.7734 1.36133L75.0371 1.43164C75.0565 1.43994 75.0713 1.45757 75.0898 1.4668C75.147 1.379 75.2086 1.2951 75.2773 1.2207L75.5293 0.992188C75.6276 0.921002 75.7392 0.860813 75.8633 0.816406L76.0742 0.763672C76.287 0.741344 76.4897 0.802529 76.6543 0.904297C76.8079 0.999668 76.9118 1.12871 76.9883 1.23828C77.1265 1.12093 77.3236 0.988087 77.6035 1.00391L77.8379 1.05078C78.0499 1.1225 78.1949 1.26408 78.2773 1.36133L78.2832 1.37891C78.37 1.33093 78.466 1.2886 78.5762 1.26758L78.875 1.25586C79.1453 1.28592 79.3581 1.43085 79.5078 1.57227C79.5247 1.52915 79.5401 1.48492 79.5605 1.44336C79.6014 1.36064 79.6886 1.20336 79.8477 1.08008C79.9359 1.01171 80.0677 0.941097 80.2344 0.916016C80.3244 0.902732 80.4107 0.907467 80.4922 0.921875C80.5047 0.914247 80.5143 0.899745 80.5273 0.892578C80.6668 0.81646 80.8418 0.76635 81.0371 0.787109C81.1156 0.795539 81.1835 0.827133 81.248 0.851562C81.3429 0.837408 81.4428 0.829532 81.5469 0.851562C81.7231 0.889135 81.8546 0.977776 81.9453 1.05664C82.0295 0.989084 82.1287 0.919744 82.2559 0.880859L82.502 0.845703C82.7384 0.84182 82.9434 0.935682 83.0879 1.05078C83.1783 1.12306 83.2463 1.20921 83.3047 1.29102C83.3625 1.27845 83.4203 1.27033 83.4805 1.26758C83.6127 1.14843 83.804 1.01696 84.0781 1.02148C84.3202 1.02603 84.496 1.13717 84.623 1.24414C84.6406 1.22259 84.6508 1.19447 84.6699 1.17383C84.7809 1.05376 84.971 0.905087 85.2383 0.857422L85.584 0.863281C85.8937 0.939478 86.0759 1.18515 86.1348 1.27344C86.1979 1.36818 86.2268 1.48353 86.2695 1.58984C86.3383 1.57529 86.4082 1.55898 86.4805 1.55469L86.7559 1.54297C86.7706 1.50653 86.7787 1.4669 86.7969 1.43164C86.8275 1.37245 86.8836 1.27974 86.9727 1.19141C87.0623 1.10252 87.2364 0.971296 87.4941 0.957031C87.7238 0.945028 87.8954 1.04109 88.0098 1.12695C88.2349 1.08927 88.4428 1.14819 88.6016 1.25586C88.6422 1.19098 88.6838 1.11113 88.7539 1.04492C88.8829 0.923609 89.1338 0.769201 89.4629 0.822266C89.6089 0.845909 89.7252 0.904847 89.8145 0.96875L90.002 1.15039L90.1133 1.33203C90.133 1.30704 90.1496 1.27938 90.1719 1.25586C90.2559 1.16719 90.4013 1.04972 90.6113 0.998047C90.7255 0.97016 90.8358 0.96426 90.9395 0.980469L91.2266 1.08008L91.2734 1.10938C91.3422 1.03394 91.4378 0.945716 91.5723 0.886719C91.8198 0.778453 92.0873 0.80286 92.3047 0.921875C92.4096 0.979421 92.4857 1.05417 92.5449 1.12109C92.6058 1.13618 92.6563 1.16654 92.709 1.19141C92.821 1.12714 92.9465 1.05772 93.1016 1.05078L93.3652 1.08008L93.7227 1.26172C93.8145 1.33686 93.8771 1.42304 93.9219 1.48438C93.9565 1.48146 93.9908 1.4833 94.0273 1.48438C94.0691 1.4159 94.1102 1.33105 94.1855 1.26172C94.3495 1.11136 94.6605 0.952721 95.0234 1.08594C95.0341 1.08986 95.0425 1.09926 95.0527 1.10352C95.0948 1.08154 95.1371 1.05511 95.1875 1.03906C95.3202 0.996794 95.4522 1.00027 95.5801 1.02148C95.6166 1.00303 95.654 0.984144 95.6914 0.962891L95.9141 0.869141C96.1395 0.810294 96.38 0.84192 96.5879 0.962891C96.6271 0.985731 96.6539 1.0245 96.6875 1.05078C96.7683 1.0047 96.8656 0.966362 96.9805 0.951172C97.2483 0.91625 97.4397 1.02256 97.5723 1.12695C97.6299 1.10318 97.6888 1.06746 97.7598 1.05664C98.035 1.01499 98.2613 1.12161 98.4043 1.23242C98.4173 1.24257 98.4213 1.26276 98.4336 1.27344C98.5039 1.23491 98.5843 1.19682 98.6797 1.17969C98.8074 1.15688 98.9196 1.17715 99.0195 1.20312C99.1559 1.13276 99.3316 1.08663 99.5469 1.13281C99.7139 1.16881 99.838 1.25006 99.9277 1.33203C99.9925 1.28807 100.06 1.24457 100.139 1.21484L100.52 1.10352H100.496C100.499 1.10153 100.506 1.09758 100.514 1.0918L100.818 0.939453C100.941 0.905269 101.082 0.895567 101.234 0.933594C101.444 0.986057 101.579 1.11064 101.662 1.20312C101.683 1.17293 101.696 1.13726 101.721 1.10938C101.815 1.00235 102.032 0.803715 102.371 0.810547C102.536 0.814318 102.671 0.865042 102.775 0.927734L102.998 1.12109L103.033 1.17969C103.208 1.0513 103.47 0.942532 103.795 1.03906L103.789 1.04492C103.896 1.03253 103.995 1.03308 104.088 1.05078C104.134 1.01058 104.176 0.960208 104.234 0.927734C104.395 0.839105 104.6 0.788387 104.82 0.833984C104.923 0.855486 105.01 0.895881 105.084 0.939453L105.26 1.07422L105.494 1.34375C105.509 1.36438 105.521 1.38708 105.535 1.4082C105.67 1.38189 105.817 1.37959 105.969 1.42578C106.019 1.44135 106.06 1.48027 106.104 1.50195C106.112 1.49934 106.119 1.49265 106.127 1.49023C106.177 1.37456 106.225 1.25013 106.303 1.14453C106.397 1.01703 106.643 0.739574 107.053 0.740234L107.434 0.828125ZM90.8105 41.0527H90.8281C90.7774 41.0321 90.7245 41.0215 90.6816 40.9941L90.8105 41.0527ZM46.3203 40.7598L46.332 40.7656C46.3187 40.7521 46.3024 40.7431 46.291 40.7305C46.2928 40.7324 46.3011 40.7451 46.3203 40.7598ZM42.9805 40.5488L42.9922 40.543C42.9316 40.5284 42.8687 40.5253 42.8105 40.502L42.9805 40.5488ZM49.9766 40.4434H49.9883C50.0236 40.4152 50.0438 40.3888 50.0469 40.3848L49.9766 40.4434ZM52.6543 40.3086C52.6741 40.3304 52.7149 40.3696 52.7773 40.4082C52.7313 40.3706 52.685 40.3425 52.6543 40.3086ZM16.4492 40.1797L16.4609 40.1738L16.4844 40.1504L16.4492 40.1797ZM91.168 39.8809L91.1562 39.8633C91.1537 39.8602 91.1488 39.8562 91.1445 39.8516C91.1506 39.8622 91.1627 39.8711 91.168 39.8809ZM37.8711 39.7695L37.9883 39.8105L38.0234 39.6816L37.8711 39.7695ZM37.9883 39.8105L37.8711 39.7695L38.0234 39.6816L37.9883 39.8105ZM62.8027 39.7168L62.791 39.6992C62.7872 39.6946 62.7803 39.6889 62.7734 39.6816C62.7813 39.6936 62.7949 39.7047 62.8027 39.7168ZM20.7676 39.6816C20.7558 39.6973 20.7483 39.7097 20.7441 39.7168C20.7546 39.6973 20.7768 39.6815 20.791 39.6582C20.7828 39.6677 20.7726 39.675 20.7676 39.6816ZM96.2422 39.5879C96.2212 39.5689 96.1915 39.5414 96.1484 39.5176C96.1813 39.5447 96.2175 39.5623 96.2422 39.5879ZM51.8398 39.5352C51.8281 39.5442 51.8145 39.5498 51.8047 39.5586V39.5703C51.8151 39.5583 51.8277 39.5479 51.8398 39.5352ZM11.8613 2.91992C11.7211 2.98025 11.5571 3.00577 11.3867 2.97266C11.2839 2.95258 11.1998 2.90916 11.1289 2.86719C11.0401 2.93602 10.936 3.00443 10.8008 3.03711C10.3729 3.14004 10.079 2.8986 9.93945 2.74414V2.75C9.87951 2.83538 9.76102 2.97636 9.57031 3.06641C9.34163 3.17379 9.08195 3.17511 8.85547 3.06641C8.79836 3.03899 8.75298 3.00033 8.70898 2.9668C8.60764 3.04267 8.49316 3.11279 8.35156 3.14844C8.0185 3.23181 7.7767 3.09412 7.61328 2.96094C7.40956 3.0135 7.19542 2.99342 7.00977 2.89062C6.87408 2.81497 6.78345 2.70886 6.72266 2.62695C6.59525 2.65451 6.47439 2.65541 6.35938 2.63281C6.35239 2.63651 6.34886 2.64679 6.3418 2.65039L6.04883 2.76172C5.92743 2.79378 5.81439 2.7959 5.70898 2.78516C5.64138 2.86346 5.56395 2.95656 5.44531 3.01953L5.24609 3.10156C5.11967 3.13332 4.99486 3.13816 4.87695 3.13086L4.54297 3.06641H4.56641C4.50513 3.07543 4.4436 3.0555 4.38477 3.05469C4.3807 3.0736 4.38419 3.09428 4.37891 3.11328C4.34267 3.24229 4.2654 3.40605 4.11523 3.54102C3.99583 3.64786 3.85933 3.69898 3.72852 3.72852L3.72266 3.82812C3.68158 3.97749 3.60033 4.1011 3.50586 4.20312C3.51546 4.38364 3.4953 4.60477 3.3125 4.80078C3.28066 4.83487 3.24064 4.85684 3.20703 4.88281C3.1882 5.00955 3.1447 5.13164 3.06055 5.24609C3.08466 5.28711 3.11631 5.33148 3.13672 5.38672L3.18945 5.69727C3.18474 5.90812 3.12829 6.10459 3.04297 6.27734C3.02687 6.31011 3.01521 6.34252 3.00781 6.37695C2.95955 6.60364 2.82938 6.76912 2.69727 6.89844C2.70598 6.95518 2.70426 7.01308 2.70312 7.07422C2.73965 7.14829 2.77809 7.22223 2.80273 7.30273L2.86133 7.60742L2.84375 7.87109C2.83195 7.92283 2.80427 7.96665 2.78516 8.01172C2.84342 8.10876 2.89914 8.23018 2.9082 8.38086C2.91818 8.54832 2.8771 8.69694 2.81445 8.81445C2.74774 8.9391 2.65224 9.02175 2.57422 9.08398C2.66531 9.13093 2.76087 9.1787 2.84375 9.24219C2.90369 9.28824 2.9751 9.35227 3.04297 9.43555L3.21875 9.75195L3.26562 10.0859C3.25645 10.3218 3.1484 10.5149 3.03125 10.666C3.03168 10.8233 3.01312 10.9768 2.95508 11.123C2.95982 11.1111 2.97008 11.0902 2.97266 11.0645L3.00195 11.457C2.99705 11.5671 2.96972 11.6684 2.9375 11.7617C2.94146 11.7703 2.95134 11.7763 2.95508 11.7852C3.08127 12.0874 3.00637 12.3872 2.86133 12.5879C2.83518 12.624 2.79591 12.6466 2.76758 12.6758C2.77296 12.7122 2.79041 12.748 2.79102 12.7871C2.79154 12.8215 2.77674 12.8542 2.77344 12.8867C2.8095 12.9625 2.84979 13.0492 2.86133 13.1504C2.86771 13.2082 2.84261 13.2618 2.83789 13.3145C2.92199 13.3732 3.02693 13.4498 3.10742 13.5664L3.21875 13.7949L3.27148 14.0938C3.27417 14.2868 3.21405 14.4613 3.13086 14.6094L2.99023 14.8086C2.98391 14.8158 2.97328 14.8191 2.9668 14.8262C3.00137 14.9524 3.01986 15.0975 2.9668 15.2656C2.92403 15.4006 2.84711 15.4981 2.77344 15.5762C2.91117 15.7146 3.07749 15.9341 3.04883 16.2617C3.0356 16.4126 2.97126 16.5292 2.9082 16.6309C2.91692 16.696 2.9208 16.7583 2.91406 16.8242C3.05229 16.9495 3.24923 17.1787 3.23633 17.5273C3.22448 17.8259 3.06286 18.03 2.9375 18.1543C3.01992 18.2471 3.11002 18.3892 3.14844 18.5762C3.18872 18.7735 3.15904 18.9633 3.08398 19.1211C2.97346 19.3528 2.77871 19.4839 2.65039 19.5605C2.66242 19.5807 2.68054 19.5974 2.69141 19.6191C2.73539 19.7076 2.75984 19.802 2.77344 19.8945C2.82957 19.9487 2.891 20.0154 2.9375 20.0996C3.00196 20.2172 3.0468 20.3682 3.03711 20.5391C3.02708 20.7089 2.96382 20.8486 2.89648 20.9492C2.80013 21.093 2.67361 21.1782 2.58594 21.2305C2.57054 21.3551 2.5379 21.4623 2.48633 21.5527C2.53341 21.6111 2.58169 21.6693 2.62109 21.7344C2.67204 21.8185 2.71453 21.909 2.75 22.0039L2.83203 22.3086L2.80273 22.6953C2.79071 22.7366 2.76094 22.7692 2.74414 22.8066C2.78488 22.901 2.81544 23.012 2.81445 23.1406C2.81371 23.2289 2.77832 23.3032 2.75586 23.375C2.82651 23.4515 2.90832 23.5518 2.95508 23.6914C3.02911 23.9141 3.0015 24.1463 2.9082 24.3359C2.85878 24.4354 2.79249 24.5098 2.73242 24.5703C2.82912 24.6615 2.94826 24.8032 2.99023 25.0156C3.05215 25.3326 2.90929 25.5631 2.79102 25.7012C2.87379 25.9217 2.86324 26.1609 2.75586 26.3691C2.75003 26.3804 2.73272 26.3878 2.72656 26.3984C2.76462 26.5269 2.77019 26.6498 2.75 26.7676C2.81514 26.8792 2.87608 27.0188 2.87305 27.1953C2.87249 27.2235 2.85273 27.2509 2.84961 27.2773C2.94026 27.3843 3.0426 27.5535 3.06055 27.7754C3.06953 27.8911 3.05456 27.9979 3.02539 28.0918L2.90234 28.3379C2.89602 28.3469 2.88543 28.3526 2.87891 28.3613L2.91406 28.4082L3.00195 28.6309C3.05852 28.8576 3.02374 29.094 2.90234 29.2988C2.77555 29.5124 2.5879 29.6432 2.46289 29.7148C2.43776 29.7293 2.41516 29.7389 2.39844 29.75C2.39254 29.9015 2.36631 30.0431 2.31055 30.1777C2.31502 30.2108 2.31751 30.2442 2.32227 30.2773C2.47595 30.4231 2.70024 30.7052 2.60352 31.1152C2.59945 31.1323 2.58498 31.1458 2.58008 31.1621C2.60075 31.1752 2.62464 31.1831 2.64453 31.1973C2.73756 31.2636 2.90703 31.3999 3.00195 31.6191L3.06641 31.8652L3.04297 32.2754L3.03711 32.2812C3.08425 32.3744 3.13048 32.4782 3.14258 32.6035C3.15689 32.7563 3.13455 32.8961 3.08984 33.0137L2.91406 33.3066C2.88111 33.3453 2.83367 33.3714 2.79688 33.4062C2.82581 33.4414 2.85683 33.4764 2.88477 33.5117L3.06641 33.8164L3.17188 34.1914L3.20117 34.3906C3.27915 34.7351 3.13793 35.0162 2.99023 35.1875C2.91048 35.28 2.81526 35.3459 2.72656 35.4043C2.77569 35.5 2.81939 35.6151 2.82617 35.75C2.8341 35.9184 2.77951 36.0566 2.7207 36.1719C2.75618 36.2545 2.78348 36.349 2.79102 36.4531C2.79589 36.5214 2.78291 36.5853 2.77344 36.6465C2.81448 36.6542 2.85631 36.6579 2.89648 36.6699C2.99413 36.6991 3.1501 36.7606 3.28906 36.8984C3.44151 37.0498 3.52105 37.2547 3.52344 37.4785C3.73056 37.584 3.88109 37.7633 3.94531 37.9766C3.9948 38.1416 3.97382 38.2911 3.95703 38.3926C4.09237 38.3733 4.26833 38.3739 4.44922 38.4629C4.57409 38.5247 4.66325 38.611 4.73047 38.6973C4.85816 38.6751 5.00549 38.6767 5.16406 38.7324C5.43591 38.8282 5.56994 39.0334 5.65039 39.1895C5.66421 39.1741 5.67665 39.1574 5.69141 39.1426C5.81442 39.0199 6.02474 38.866 6.3125 38.8438L6.62891 38.873C6.68156 38.8866 6.72837 38.911 6.77539 38.9316C6.88492 38.8885 7.01282 38.8645 7.16211 38.8789C7.42906 38.9051 7.60693 39.0495 7.72461 39.1777C7.78514 39.1528 7.84897 39.1237 7.92383 39.1133C7.97781 39.0531 8.03636 38.9887 8.11133 38.9375C8.27982 38.8226 8.49795 38.7592 8.72656 38.7852L8.96094 38.8438L9.1543 38.9492C9.19901 38.9815 9.23604 39.0193 9.27148 39.0547C9.30463 39.0331 9.33766 39.0086 9.37695 38.9902C9.57651 38.8975 9.8089 38.8794 10.0273 38.9609L10.0332 38.9668C10.1702 38.9315 10.3278 38.9168 10.502 38.9727C10.7384 39.0487 10.8839 39.2157 10.9766 39.3418C11.0087 39.3474 11.0388 39.3633 11.0703 39.3711C11.2369 39.306 11.419 39.2858 11.6035 39.3125H11.6328C11.8332 39.2367 12.0697 39.232 12.3008 39.3301C12.323 39.3396 12.3388 39.3604 12.3594 39.3711C12.4788 39.2936 12.6301 39.2229 12.8105 39.207C12.9018 39.1993 12.9872 39.2148 13.0684 39.2305C13.1613 39.187 13.2696 39.1527 13.3906 39.1426C13.5261 39.1314 13.6498 39.1529 13.7598 39.1895L14.041 39.3359L14.1758 39.4121L14.3691 39.4824C14.3808 39.4856 14.3929 39.4907 14.4043 39.4941C14.4571 39.3863 14.5198 39.2762 14.5977 39.1777C14.6947 39.055 14.8761 38.8692 15.1602 38.8027L15.5059 38.7852C15.5975 38.7973 15.6805 38.8276 15.7578 38.8613C15.8427 38.8232 15.9369 38.7965 16.0391 38.7852L16.3965 38.8145L16.6309 38.9141C16.8317 39.0392 16.9444 39.2207 16.9941 39.3066V39.3184C17.1812 39.2785 17.366 39.2958 17.5273 39.3711C17.5411 39.3776 17.5552 39.3875 17.5684 39.3945C17.6824 39.2836 17.827 39.1851 18.0078 39.1309L18.2422 39.084C18.427 39.0705 18.5973 39.125 18.7578 39.1953C18.8141 39.1531 18.8786 39.1093 18.957 39.0781C19.187 38.9868 19.436 39.005 19.6426 39.1074C19.7305 39.1512 19.8024 39.206 19.8594 39.2598L19.9883 39.4121L20.0059 39.4355C20.0656 39.434 20.1206 39.4439 20.1758 39.4531H20.1816L20.293 39.2949C20.3462 39.2332 20.4152 39.1679 20.5039 39.1133C20.7252 38.9776 21.0146 38.9424 21.2832 39.0664C21.3616 39.1027 21.4221 39.1546 21.4766 39.2012C21.546 39.1964 21.6216 39.2029 21.6992 39.2188C21.7948 39.2385 21.8699 39.2842 21.9395 39.3242C21.9663 39.3035 21.9912 39.2784 22.0215 39.2598C22.2475 39.1213 22.518 39.0974 22.7715 39.1836C22.9342 39.0743 23.1252 38.9839 23.3516 38.9609L23.627 38.9727C23.7505 39 23.8463 39.0662 23.9316 39.125C24.0123 39.0916 24.1029 39.0677 24.2012 39.0605L24.4707 39.084L24.7402 39.2012C24.9019 39.064 25.1457 38.925 25.4844 39.0078H25.4961C25.5462 38.9823 25.6024 38.9593 25.666 38.9434C25.8616 38.8944 26.0541 38.9206 26.2109 38.9961C26.4496 39.1113 26.5691 39.3134 26.6152 39.4004L26.627 39.4062C26.6771 39.324 26.7567 39.2076 26.8848 39.1133C27.0514 38.9912 27.3069 38.9027 27.5938 38.9785C27.6571 38.9954 27.7069 39.0341 27.7578 39.0605C27.8841 38.9803 28.0558 38.91 28.2734 38.9316C28.2981 38.9341 28.3206 38.9448 28.3438 38.9492C28.4609 38.857 28.6258 38.7709 28.8242 38.7559L29.1465 38.7969L29.4219 38.8848L29.7148 39.0254C29.7604 39.0576 29.796 39.0971 29.832 39.1309C29.8623 39.1273 29.8933 39.1136 29.9258 39.1133C30.0881 39.1117 30.2192 39.1592 30.3301 39.2188C30.4751 39.1937 30.6142 39.207 30.7461 39.2539C30.8654 39.1136 31.0153 38.9748 31.209 38.8848L31.5723 38.8027C31.6969 38.805 31.8223 38.8393 31.9355 38.8965C32.0456 38.9525 32.1257 39.0284 32.1875 39.0957C32.2386 39.0555 32.2867 39.0041 32.3516 38.9727L32.5508 38.9082C32.7522 38.8621 32.9633 38.8851 33.1543 38.9785C33.2767 39.0386 33.371 39.1211 33.4473 39.2012L33.4531 39.1953C33.5822 39.0671 33.8493 38.8899 34.209 38.9668C34.2882 38.9839 34.359 39.0109 34.4199 39.043C34.4699 39.0173 34.5221 38.9834 34.584 38.9668C34.839 38.899 35.0733 38.9632 35.2461 39.0723C35.2542 39.0774 35.2618 39.0846 35.2695 39.0898C35.3862 39.0687 35.5155 39.0678 35.6562 39.1133C35.7728 39.151 35.859 39.2161 35.9316 39.2773C36.0077 39.1739 36.1339 39.0428 36.3301 38.9727C36.5233 38.9037 36.7297 38.9142 36.9102 38.9902C37.014 39.0344 37.0915 39.0993 37.1504 39.1543C37.3471 39.0671 37.5562 39.0684 37.7422 39.1309L37.7539 39.1191C37.8789 38.9778 38.1469 38.7851 38.5039 38.8203C38.7171 38.7314 38.9424 38.7141 39.1602 38.7734L39.418 38.8789L39.6113 39.0312C39.8472 38.9786 40.0695 39.0347 40.2383 39.1426C40.2559 39.1538 40.2691 39.1717 40.2852 39.1836C40.3602 39.1314 40.4465 39.0811 40.5488 39.0488L40.9707 39.002C40.9787 39.0025 40.9862 39.0071 40.9941 39.0078C41.1481 38.9017 41.3592 38.8058 41.6328 38.8555C41.8192 38.8894 41.9612 38.979 42.0664 39.0723L42.2773 39.3242L42.3301 39.4062C42.3704 39.358 42.413 39.3088 42.4648 39.2656C42.6569 39.1057 42.9552 38.9918 43.2852 39.0898C43.4277 39.0693 43.5593 39.0882 43.6777 39.125C43.806 39.0367 43.9898 38.9617 44.2109 38.9727C44.3242 38.9784 44.4243 39.0054 44.5098 39.043L44.7266 39.1777L45.0195 39.4238C45.0374 39.439 45.0545 39.4552 45.0723 39.4707C45.0824 39.4497 45.0904 39.4269 45.1016 39.4062C45.1466 39.3235 45.2472 39.1654 45.4238 39.0488C45.6563 38.8962 45.9672 38.8618 46.25 39.0078C46.4506 39.1117 46.5606 39.2724 46.6133 39.3594C46.7334 39.3582 46.8412 39.3811 46.9414 39.418C46.9469 39.4136 46.9535 39.4106 46.959 39.4062L47.2168 39.2598C47.3165 39.2194 47.4305 39.1918 47.5566 39.1895C47.684 39.1871 47.7999 39.2102 47.9023 39.248L48.166 39.3945L48.3066 39.5176C48.4736 39.4204 48.6731 39.3471 48.9102 39.3594H48.9629C49.0621 39.259 49.2008 39.15 49.3906 39.0957C49.5477 39.0512 49.6958 39.0534 49.8301 39.084L50.1816 39.2422L50.2227 39.2773C50.2921 39.2191 50.3636 39.1621 50.4336 39.1074L50.7148 38.9609C50.8262 38.9271 50.9553 38.9132 51.0957 38.9375C51.1843 38.9531 51.2571 38.9972 51.3242 39.0312C51.3889 38.9765 51.4651 38.9172 51.5645 38.8789C51.8656 38.763 52.157 38.8444 52.3496 38.9844C52.4515 39.0585 52.5212 39.1498 52.5723 39.2246C52.5907 39.2089 52.6043 39.1868 52.625 39.1719C52.7779 39.0613 53.0069 38.9688 53.2754 39.0195C53.287 39.0218 53.2993 39.0286 53.3105 39.0312C53.3739 39.0034 53.4384 38.9626 53.5156 38.9492C53.6816 38.9208 53.8325 38.9394 53.9609 38.9844L54.2773 39.1719C54.3084 39.1778 54.337 39.1833 54.3652 39.1836L54.5176 39.207C54.605 39.1259 54.737 39.0331 54.916 38.9902C55.1157 38.943 55.2808 38.9794 55.4199 39.0371C55.4634 38.9967 55.5128 38.9553 55.5723 38.9199C55.7592 38.809 56.0062 38.7569 56.2578 38.8379C56.3671 38.8733 56.4569 38.929 56.5273 38.9844L56.6855 39.1426L56.8496 39.418C56.8609 39.4185 56.8732 39.417 56.8848 39.418C57.0017 39.4277 57.1017 39.4639 57.1895 39.5059C57.2538 39.3965 57.468 39.0601 57.8984 39.0137C58.0468 38.9982 58.1758 39.0247 58.2852 39.0664C58.3138 39.0499 58.343 39.0342 58.373 39.0195L58.7129 38.9316C58.8316 38.9276 58.955 38.9529 59.0703 39.002C59.1322 39.0285 59.1811 39.0676 59.2285 39.1016C59.3132 39.0168 59.4238 38.9332 59.5625 38.873L59.9141 38.8027C60.0342 38.8059 60.151 38.8372 60.2598 38.8906C60.4414 38.9801 60.5572 39.1104 60.6172 39.1953C60.6813 39.2863 60.7273 39.3922 60.7695 39.4941C60.813 39.5041 60.8539 39.5142 60.8926 39.5293C60.9183 39.52 60.9411 39.5014 60.9688 39.4941L60.9805 39.4883C60.9934 39.4634 61.0069 39.4365 61.0215 39.4121C61.0709 39.3297 61.1558 39.2074 61.291 39.1074C61.4436 38.9946 61.6785 38.902 61.9531 38.9551C62.0942 38.9824 62.2008 39.0504 62.2871 39.1133C62.3534 39.0405 62.4463 38.9569 62.5742 38.8965C62.7694 38.8043 62.9996 38.7833 63.2188 38.8613C63.3161 38.8963 63.3997 38.9454 63.4648 38.9961L63.6113 39.1426L63.7754 39.3887C63.8035 39.388 63.8307 39.3807 63.8574 39.3828C63.8713 39.3716 63.8837 39.3584 63.8984 39.3477C64.0266 39.2542 64.1952 39.1739 64.3906 39.1602C64.4872 39.0971 64.6111 39.0361 64.7656 39.0195C65.0154 38.9931 65.2252 39.0827 65.3633 39.1836C65.4302 39.2326 65.473 39.3013 65.5215 39.3594C65.6325 39.263 65.8102 39.1492 66.0547 39.1426C66.2067 39.1386 66.3365 39.179 66.4414 39.2305C66.4619 39.2013 66.4782 39.1698 66.5 39.1426L66.8047 38.8848C66.9498 38.8054 67.1402 38.756 67.3672 38.7969C67.6281 38.8447 67.7937 39.0037 67.9004 39.1309C67.9145 39.1337 67.9276 39.1392 67.9414 39.1426C68.0823 39.0555 68.2761 38.982 68.5098 39.0195C68.656 39.0435 68.772 39.1024 68.8613 39.166C68.9173 39.0893 68.989 39.0114 69.0723 38.9434C69.2507 38.7984 69.5316 38.6765 69.8633 38.7559C69.8809 38.7601 69.8984 38.757 69.9102 38.7559C70.1436 38.7343 70.339 38.7993 70.4961 38.8906L70.8535 39.2012L70.9473 39.3125C71.0252 39.2205 71.151 39.1152 71.3281 39.0547C71.5615 38.9753 71.7604 39.0269 71.9199 39.1016C72.0025 39.0345 72.1118 38.9673 72.2539 38.9316C72.6497 38.8338 72.9148 39.0357 73.0684 39.1953C73.1663 39.0997 73.3406 38.9764 73.584 38.9492C73.6819 38.9385 73.7709 38.9541 73.8535 38.9727C73.9942 38.9131 74.15 38.8713 74.3223 38.873L74.6738 38.9434C74.731 38.967 74.7775 39.0056 74.8262 39.0371C74.8978 39.0189 74.9745 38.9994 75.0605 39.002C75.2351 39.0077 75.3757 39.0707 75.4883 39.1426C75.4992 39.1408 75.5122 39.1382 75.5234 39.1367C75.713 39.1129 75.8767 39.1611 76.0156 39.2246C76.0792 39.1575 76.1569 39.0913 76.25 39.0371L76.6191 38.8555L76.9062 38.7852C77.0058 38.7787 77.1098 38.7894 77.2109 38.8203C77.3087 38.8505 77.3894 38.896 77.457 38.9434C77.5544 38.8887 77.6792 38.8501 77.8262 38.8438C78.0599 38.8339 78.2325 38.9287 78.3535 39.0195C78.4786 38.9262 78.6639 38.8346 78.8984 38.8438C79.0211 38.8488 79.1309 38.8783 79.2207 38.9199L79.4375 39.0664L79.4961 39.1074C79.5588 39.131 79.6195 39.1473 79.6777 39.1602L79.9648 39.2246L80.0879 39.2656C80.136 39.2166 80.1777 39.1604 80.2344 39.1191L80.4336 39.002C80.5723 38.937 80.7287 38.8952 80.8965 38.8965L81.1543 38.9316L81.4766 39.0254L81.6523 39.0957C81.6613 39.0925 81.6724 39.0869 81.6816 39.084C81.9145 39.011 82.1463 39.049 82.332 39.1484C82.4811 39.2286 82.5811 39.3364 82.6426 39.418C82.7059 39.38 82.7803 39.3473 82.8652 39.3242C83.0307 39.2799 83.1964 39.2945 83.3457 39.3418C83.3818 39.2867 83.4152 39.227 83.4629 39.1777C83.5608 39.0767 83.7489 38.932 84.0254 38.9141C84.1699 38.9049 84.2957 38.934 84.4004 38.9785L84.6523 39.1367L84.9746 39.4531L85.0391 39.5234C85.0546 39.5211 85.0702 39.5192 85.0859 39.5176C85.156 39.4119 85.2225 39.306 85.2969 39.2129L85.543 38.9844C85.6567 38.9096 85.8032 38.8484 85.9824 38.8379C86.1696 38.8271 86.3261 38.8757 86.4512 38.9434L86.7324 39.1719L86.8203 39.3066C86.9093 39.201 87.0347 39.0899 87.207 39.0254C87.4104 38.9497 87.6325 38.9569 87.8281 39.0371C87.9162 39.0735 87.9907 39.1233 88.0508 39.1719L88.1914 39.3125L88.2676 39.4297C88.2759 39.4164 88.2824 39.4017 88.291 39.3887C88.3715 39.2675 88.5111 39.0987 88.7246 38.9902L88.9473 38.9141C89.0282 38.8974 89.1144 38.8878 89.2051 38.8965C89.3831 38.9137 89.5313 38.9853 89.6387 39.0605C89.7999 39.1742 89.9026 39.3264 89.9727 39.4473C90.0688 39.3959 90.1889 39.3597 90.3301 39.3535C90.5311 39.3447 90.6905 39.4124 90.8105 39.4883L90.8223 39.4766C90.8786 39.3909 91.041 39.1682 91.3496 39.0957C91.4465 39.0731 91.5364 39.0692 91.6191 39.0781C91.6943 38.9988 91.7862 38.9153 91.9062 38.8555L92.2051 38.7441C92.3079 38.7184 92.4163 38.7038 92.5273 38.7031L92.7793 38.7383C93.0074 38.8051 93.1633 38.9547 93.248 39.0547C93.3015 39.1179 93.3308 39.1967 93.3711 39.2656L93.377 39.2598L93.5234 39.1016C93.5879 39.0459 93.6688 38.9896 93.7695 38.9492C94.0069 38.8541 94.2596 38.8769 94.4668 38.9844C94.5682 39.0375 94.6474 39.1086 94.707 39.1719C94.9397 39.1734 95.1122 39.2713 95.2402 39.3711C95.2923 39.3481 95.3483 39.3258 95.4102 39.3125C95.5574 39.2809 95.6868 39.2996 95.8027 39.3301C95.8678 39.2897 95.9338 39.2488 96.0078 39.2188L96.2598 39.1074L96.5352 39.0195C96.6325 39.0042 96.735 39.003 96.8398 39.0195C96.9426 39.036 97.0386 39.0679 97.1211 39.1074L97.332 39.2422L97.373 39.2715L97.584 39.3711C97.7107 39.2518 97.9532 39.0987 98.2812 39.1484C98.3355 39.1568 98.3873 39.173 98.4336 39.1895C98.4433 39.1822 98.453 39.173 98.4629 39.166L98.8438 38.9844C98.913 38.9657 98.9854 38.9538 99.0605 38.9492L99.3008 38.9609L99.5645 39.043C99.5962 39.0575 99.6232 39.0788 99.6523 39.0957C99.8789 39.0351 100.112 39.0771 100.297 39.1895C100.472 39.2967 100.57 39.4461 100.619 39.5293C100.624 39.5383 100.626 39.5495 100.631 39.5586C100.729 39.5322 100.839 39.5241 100.953 39.5293L101.234 39.5645C101.34 39.4331 101.52 39.2534 101.809 39.207C101.87 39.1973 101.929 39.2048 101.984 39.207C102.117 39.1032 102.323 38.9935 102.594 39.0254C102.624 39.0291 102.653 39.0482 102.682 39.0547C102.713 39.0373 102.744 39.0162 102.781 39.002C102.973 38.9285 103.18 38.9317 103.367 39.0078C103.569 39.0904 103.691 39.2366 103.76 39.3418C103.802 39.294 103.841 39.2433 103.889 39.2012L104.281 38.9668C104.36 38.939 104.444 38.9221 104.533 38.9141L104.809 38.9258L105.014 38.9961C105.079 38.9502 105.144 38.9028 105.219 38.8672L105.564 38.7852C105.684 38.7829 105.808 38.8047 105.922 38.8555C106.058 38.9165 106.153 39.0082 106.221 39.084C106.269 39.0641 106.321 39.0423 106.379 39.0312C106.565 38.9962 106.74 39.0319 106.883 39.1016C106.989 39.1535 107.067 39.228 107.129 39.2949C107.203 39.2579 107.279 39.219 107.363 39.1953L107.627 39.1602C107.87 39.1554 108.089 39.2381 108.266 39.3594C108.274 39.3602 108.281 39.3643 108.289 39.3652C108.363 39.1905 108.508 38.9406 108.828 38.8379C108.901 38.8146 108.973 38.8186 109.039 38.8145C109.078 38.7679 109.119 38.7212 109.168 38.6797L109.438 38.5273C109.455 38.5214 109.473 38.5203 109.49 38.5156C109.495 38.5029 109.496 38.4875 109.502 38.4746C109.566 38.328 109.687 38.1967 109.854 38.0996C110.021 37.8823 110.253 37.789 110.439 37.7598C110.481 37.7533 110.522 37.7555 110.562 37.7539C110.622 37.6329 110.699 37.5367 110.797 37.4609C110.816 37.2793 110.884 37.1001 111.025 36.957C111.08 36.9018 111.144 36.8622 111.201 36.8281C111.246 36.7229 111.301 36.6307 111.371 36.5527C111.372 36.5068 111.368 36.4594 111.377 36.4121L111.219 36.2656C111.132 36.1647 111.035 36.0078 111.008 35.8027C110.99 35.6681 111.013 35.5442 111.049 35.4336C110.988 35.3207 110.938 35.1804 110.949 35.0059C110.959 34.8524 111.011 34.7285 111.072 34.6309C110.992 34.53 110.901 34.3887 110.879 34.1973C110.849 33.9271 110.954 33.7108 111.061 33.5762C111.032 33.5472 110.987 33.5274 110.961 33.4941C110.838 33.3386 110.726 33.1051 110.75 32.8203L110.832 32.4805C110.871 32.3753 110.92 32.2769 110.979 32.1875C111.041 32.0923 111.104 31.9955 111.166 31.9004C111.185 31.8717 111.186 31.8639 111.184 31.877L111.307 31.5547C111.362 31.4642 111.424 31.3885 111.482 31.332L111.488 31.3203C111.438 31.2797 111.379 31.2447 111.336 31.1914C111.256 31.0935 111.198 30.9472 111.172 30.7695L111.16 30.7637C111.06 30.671 110.903 30.4835 110.879 30.2012C110.854 29.9054 110.99 29.6848 111.102 29.5625C111.146 29.5139 111.202 29.4797 111.248 29.4453C111.272 29.3521 111.313 29.2678 111.359 29.1934C111.349 29.1601 111.354 29.1256 111.348 29.0938C111.334 29.084 111.315 29.081 111.301 29.0703C111.232 29.0169 111.123 28.912 111.049 28.748C110.964 28.5594 110.954 28.3422 111.031 28.1387C111.055 28.0766 111.082 28.0211 111.113 27.9746C111.062 27.9121 111.016 27.8338 110.979 27.7402C110.895 27.5296 110.897 27.2992 110.984 27.0957L110.99 27.0605L110.844 26.7383C110.746 26.4089 110.825 26.1136 110.967 25.8887C110.881 25.7523 110.814 25.5796 110.82 25.3848L110.855 25.1973L110.867 25.2793L110.855 25.1797C110.786 24.7529 111.049 24.46 111.189 24.3477C111.222 24.3214 111.26 24.2999 111.295 24.2773L111.236 24.2422C111.106 24.1474 110.769 23.8487 110.85 23.3633C110.885 23.1572 110.985 23.0032 111.09 22.8945C110.993 22.7607 110.893 22.5647 110.926 22.3086C110.954 22.0889 111.067 21.9382 111.16 21.8398C111.106 21.733 111.063 21.6036 111.066 21.4473C111.071 21.253 111.142 21.1015 111.219 20.9902C111.193 20.8518 111.195 20.7179 111.23 20.5859C111.214 20.5699 111.194 20.5562 111.178 20.5391L110.938 20.1934C110.854 20.0144 110.829 19.7994 110.891 19.5898C110.931 19.4533 111 19.3468 111.066 19.2676C111.01 19.191 110.956 19.0935 110.926 18.9746C110.849 18.6723 110.958 18.4134 111.084 18.2539L111.307 18.0195C111.32 18.0074 111.334 17.9962 111.348 17.9844L111.154 17.8496C111.055 17.7671 110.864 17.5758 110.838 17.2637C110.813 16.962 110.955 16.745 111.066 16.625C111.031 16.5597 110.995 16.4861 110.979 16.3965C110.948 16.2275 110.979 16.0864 111.025 15.9688L111.02 15.9629C110.954 15.8006 110.944 15.6148 110.996 15.4355C111.045 15.2704 111.137 15.1549 111.207 15.084L111.219 15.0723C111.193 15.0475 111.16 15.0303 111.137 15.002C111.047 14.8923 110.953 14.7218 110.938 14.5039C110.93 14.3904 110.944 14.2859 110.973 14.1934C110.959 14.1251 110.951 14.0531 110.955 13.9766C110.967 13.7883 111.035 13.632 111.113 13.5195C111.127 13.4994 111.145 13.4794 111.16 13.4609C111.08 13.2423 111.058 13.0027 111.113 12.7637L111.119 12.7402C111.019 12.6542 110.906 12.5398 110.832 12.377C110.66 11.9949 110.749 11.6125 110.955 11.334L111.166 11.1172L111.172 11.1113C111.165 11.0312 111.164 10.9576 111.178 10.8887C111.136 10.8213 111.084 10.7479 111.061 10.6543C111.003 10.4147 111.07 10.2175 111.154 10.0684C111.144 10.0087 111.145 9.94804 111.148 9.88672C111.045 9.80018 110.872 9.62388 110.838 9.33594C110.797 8.98158 110.985 8.736 111.102 8.62695C111.039 8.5006 110.992 8.34729 111.008 8.16992C111.018 8.06466 111.042 7.96845 111.078 7.88867C111.012 7.81263 110.947 7.71576 110.908 7.58984C110.817 7.2882 110.929 7.04671 111.043 6.88672C110.994 6.8385 110.944 6.78376 110.902 6.7168L110.803 6.48242C110.697 6.09156 110.857 5.80362 111.031 5.60938C110.963 5.51757 110.904 5.4031 110.879 5.26367C110.855 5.13161 110.866 5.0126 110.891 4.91211L110.691 4.80078C110.515 4.64669 110.416 4.45556 110.369 4.26172C110.242 4.19856 110.117 4.11362 110.029 3.98047C109.944 3.8508 109.915 3.71503 109.9 3.60547C109.892 3.59938 109.879 3.60023 109.871 3.59375C109.844 3.57123 109.83 3.53559 109.807 3.51172C109.797 3.511 109.787 3.51863 109.777 3.51758C109.578 3.49547 109.379 3.40645 109.232 3.24219C109.161 3.1621 109.113 3.07481 109.08 2.99609C109.059 2.99515 109.037 3.00455 109.016 3.00195C108.874 2.98469 108.752 2.92625 108.646 2.85547V2.86133C108.574 2.951 108.383 3.15791 108.061 3.18945C107.877 3.20713 107.723 3.15949 107.604 3.0957L107.346 2.89062L107.17 2.7207C107.159 2.71229 107.151 2.70013 107.141 2.69141C107.068 2.76634 106.968 2.8569 106.824 2.91406C106.723 2.95381 106.614 2.96693 106.508 2.9668C106.356 3.05688 106.162 3.13908 105.922 3.10156C105.788 3.08036 105.681 3.02477 105.588 2.9668L105.348 3.01953C105.048 3.03184 104.817 2.89461 104.674 2.76758C104.633 2.73156 104.608 2.68366 104.574 2.64453C104.411 2.71091 104.222 2.73934 104.029 2.68555C103.964 2.6671 103.911 2.63163 103.859 2.60352C103.81 2.68821 103.759 2.77912 103.684 2.85547C103.6 2.94051 103.465 3.04961 103.273 3.10156C103.169 3.12986 103.063 3.13541 102.963 3.125L102.682 3.04297C102.602 3.00493 102.529 2.96005 102.465 2.9082C102.453 2.92109 102.449 2.94246 102.436 2.95508C102.335 3.04962 102.163 3.17052 101.926 3.19531C101.874 3.20067 101.818 3.20877 101.762 3.22461C101.502 3.29777 101.258 3.23714 101.082 3.125C100.93 3.0279 100.836 2.89733 100.783 2.81445C100.755 2.76996 100.743 2.71638 100.719 2.66797C100.659 2.76968 100.594 2.87931 100.502 2.97266C100.386 3.0906 100.199 3.23056 99.9395 3.27148C99.5704 3.32936 99.3325 3.13429 99.1895 2.98438C99.1267 2.99203 99.0693 2.98971 99.0137 2.98438C98.9009 3.09178 98.7282 3.21725 98.498 3.24219L98.1641 3.21289C97.9382 3.14582 97.7925 2.99616 97.6953 2.87891C97.6352 2.89989 97.5751 2.94274 97.502 2.94922C97.3558 2.96169 97.2278 2.93422 97.1211 2.89062C96.9897 2.96498 96.8225 3.03151 96.6113 3.00195C96.4629 2.98106 96.3452 2.92485 96.2539 2.86133L96.0605 2.67969C96.013 2.62044 95.977 2.55121 95.9316 2.48633C95.8844 2.49997 95.8389 2.51435 95.791 2.52148C95.7637 2.57072 95.7482 2.63063 95.709 2.67969C95.6214 2.789 95.3629 3.05554 94.9473 2.99609C94.8462 2.98134 94.7576 2.94744 94.6836 2.9082C94.5867 2.95124 94.4787 2.99282 94.3496 2.99609C94.3011 2.99723 94.2515 2.98054 94.2031 2.97852C94.1277 3.04262 94.0311 3.10847 93.9043 3.14844C93.6467 3.22951 93.3974 3.17976 93.2129 3.06641C93.1331 3.01736 93.0705 2.95759 93.0195 2.90234C92.9498 2.92875 92.8789 2.96668 92.791 2.97266C92.4893 2.99239 92.2693 2.84912 92.1523 2.73828C92.108 2.69619 92.0848 2.64087 92.0527 2.59766C91.9669 2.67101 91.8529 2.75708 91.6953 2.79688C91.594 2.82234 91.4926 2.82469 91.3965 2.81445L91.1211 2.73828C91.099 2.72792 91.0786 2.71398 91.0566 2.70312C91.0412 2.72651 91.0385 2.7628 91.0215 2.78516C90.9461 2.88363 90.7857 3.06163 90.5352 3.13672L90.248 3.17188L90.2129 3.17773C89.7933 3.30632 89.4682 3.08937 89.3105 2.92578C89.2464 2.96884 89.1785 3.01695 89.0938 3.04297L88.7656 3.07227L88.3789 3.01367C88.3084 2.99747 88.2501 2.95939 88.1914 2.93164C88.1669 2.94364 88.1429 2.96259 88.1152 2.97266C87.9643 3.02729 87.8111 3.01946 87.6641 2.98438C87.59 3.04372 87.5061 3.11349 87.3887 3.14844C87.1198 3.22825 86.8962 3.13845 86.7324 3.03711L86.5684 3.04883C86.5746 3.04844 86.5792 3.04908 86.5801 3.04883L86.5684 3.05469C86.4041 3.13602 86.2243 3.18982 86.0352 3.21289C85.5545 3.27107 85.2827 2.92992 85.1914 2.79688C85.094 2.83735 84.9839 2.87369 84.8574 2.87305C84.7332 2.8724 84.6248 2.8369 84.5293 2.79688C84.34 2.81606 84.1804 2.76724 84.043 2.69727C83.8994 2.75751 83.7488 2.78066 83.5859 2.76172C83.5114 2.79527 83.4398 2.83745 83.3574 2.85547L82.9355 2.86719C82.8066 2.84603 82.6943 2.79917 82.6016 2.74414C82.5923 2.7543 82.5878 2.76942 82.5781 2.7793C82.4959 2.86291 82.3636 2.96568 82.1797 3.01953C81.9799 3.07781 81.7761 3.06064 81.5996 2.98438C81.3666 2.88354 81.2204 2.70692 81.1367 2.58594C81.1083 2.54483 81.0913 2.49509 81.0664 2.45117C80.9759 2.51364 80.861 2.56369 80.7148 2.58594C80.6977 2.62205 80.6928 2.66341 80.6738 2.69727C80.6262 2.78203 80.5126 2.96646 80.3105 3.0957L80.082 3.20117C79.9928 3.2266 79.8988 3.24434 79.8066 3.25391L79.5254 3.25977C79.3812 3.24843 79.2508 3.20751 79.1328 3.1543L78.8223 2.96094L78.8105 2.95508C78.7775 2.98485 78.7496 3.02207 78.7109 3.04883C78.5212 3.1791 78.2537 3.26675 77.9609 3.19531C77.775 3.14979 77.6411 3.04429 77.5391 2.94922C77.5098 2.96819 77.4851 2.99733 77.4512 3.01367C77.1987 3.13495 76.918 3.11784 76.6895 2.99023C76.5062 2.88739 76.3963 2.74043 76.3438 2.65625C76.3337 2.6401 76.3258 2.6285 76.3203 2.62109C76.2778 2.59967 76.2351 2.58219 76.1973 2.55664C76.1366 2.68722 76.0589 2.83978 75.9395 2.9668C75.8365 3.07582 75.6533 3.21943 75.4062 3.25977H75.1367C74.8358 3.21505 74.625 3.03991 74.4746 2.87891C74.3749 2.9026 74.2741 2.91188 74.1699 2.91406C74.0396 2.99629 73.8794 3.07081 73.6836 3.07812C73.5419 3.08317 73.4159 3.0519 73.3027 3.00781C73.2086 3.06674 73.0959 3.13126 72.9512 3.14844C72.7309 3.17405 72.5371 3.10818 72.3945 3.01953C72.3034 2.96277 72.2384 2.88516 72.1777 2.81445C72.055 2.92255 71.8589 3.05974 71.5742 3.03711C71.4655 3.02827 71.3729 2.99296 71.293 2.95508C71.0907 3.02685 70.8759 3.03185 70.6777 2.94336C70.5172 2.8716 70.4116 2.76268 70.3438 2.67969L70.2734 2.67383C70.2654 2.6732 70.2579 2.66878 70.25 2.66797C70.227 2.69925 70.2111 2.74139 70.1797 2.77344C70.0948 2.85985 69.9261 2.99061 69.6758 3.01367C69.6054 3.01995 69.5436 2.99439 69.4824 2.98438C69.4231 3.0374 69.3559 3.09625 69.2656 3.13672C69.0125 3.24939 68.7506 3.21086 68.5391 3.0957C68.3759 3.16847 68.175 3.20941 67.9414 3.13672C67.8433 3.10613 67.761 3.05873 67.6895 3.00781C67.5672 3.10103 67.4057 3.19523 67.1914 3.20703C66.9613 3.2194 66.7427 3.16867 66.5469 3.07812C66.4975 3.0552 66.4618 3.01281 66.418 2.98438C66.3739 2.9988 66.3284 3.01841 66.2773 3.02539C66.1033 3.04909 65.9398 3.01324 65.8086 2.94922C65.7345 2.91286 65.679 2.86041 65.627 2.81445C65.5838 2.83704 65.5442 2.8746 65.4922 2.89062C65.1993 2.98037 64.9351 2.88964 64.7598 2.76172C64.6788 2.70253 64.6144 2.63661 64.5664 2.57422C64.4102 2.61021 64.2766 2.59118 64.1562 2.55664C64.1187 2.58172 64.0848 2.61652 64.0449 2.63867L63.9395 2.72656C63.7632 2.91503 63.4668 3.13703 63.0605 3.11328C62.8606 3.10131 62.6918 3.02387 62.5449 2.9375C62.4993 2.94213 62.4534 2.96417 62.4043 2.96094C62.2023 2.9473 62.0409 2.86324 61.9297 2.7793C61.9151 2.76818 61.9024 2.74997 61.8887 2.73828C61.8198 2.83666 61.7001 2.98094 61.4961 3.06055C61.2372 3.16152 61.0079 3.1099 60.834 3.01953C60.6739 3.16657 60.4031 3.34644 60.0312 3.25391C59.903 3.22199 59.7971 3.16395 59.709 3.10156C59.695 3.10579 59.6826 3.1214 59.668 3.125C59.409 3.18829 59.1892 3.10386 59.0293 3.00195C58.9056 3.09147 58.7348 3.18692 58.502 3.17188C58.3405 3.16121 58.2092 3.10733 58.1094 3.04297L57.8984 2.85547C57.8513 2.79821 57.8146 2.73044 57.7695 2.66797C57.6838 2.66529 57.5943 2.64968 57.5 2.61523C57.4691 2.65717 57.4506 2.71232 57.4121 2.75C57.2995 2.85978 57.0827 3.01069 56.7793 2.99609C56.5634 2.98549 56.4077 2.8846 56.2988 2.79688L55.9883 3.0957C55.7612 3.23967 55.4736 3.3217 55.1621 3.26562C54.9496 3.22701 54.7593 3.14114 54.5938 3.03125C54.4652 2.94578 54.3644 2.83066 54.2773 2.71484C53.9948 2.77127 53.7428 2.69015 53.5625 2.5625C53.5233 2.53471 53.4962 2.49378 53.4629 2.46289C53.3496 2.58209 53.1848 2.71586 52.9414 2.75C52.8474 2.76295 52.7628 2.75159 52.6836 2.73828C52.5367 2.9132 52.3269 3.10574 52.0332 3.18945C51.7505 3.26974 51.4839 3.20493 51.2832 3.07812C51.2077 3.03027 51.1455 2.97097 51.0898 2.91406C51.055 2.91216 51.0203 2.92018 50.9844 2.91406C50.8878 2.97878 50.7772 3.04581 50.6328 3.06641C50.2438 3.12185 49.9938 2.89906 49.8594 2.75C49.8396 2.74538 49.8198 2.74394 49.8008 2.73828C49.6821 2.83054 49.5386 2.91599 49.3613 2.94922L49.3789 2.94336L49.3613 2.95508C49.2359 3.0412 49.0577 3.11197 48.8457 3.10742C48.7362 3.10478 48.6385 3.08256 48.5527 3.04883C48.4951 3.07636 48.4321 3.10478 48.3594 3.11914C48.0094 3.18825 47.7446 3.01684 47.6152 2.89062C47.5979 2.87373 47.5895 2.84941 47.5742 2.83203C47.5555 2.83021 47.5348 2.8351 47.5156 2.83203C47.261 2.79096 47.0841 2.64969 46.9707 2.5332C46.8968 2.59642 46.8176 2.66352 46.7188 2.70898L46.4316 2.79102C46.2116 2.81997 46.0228 2.76844 45.8633 2.69141C45.8424 2.70794 45.8283 2.73463 45.8047 2.75C45.6688 2.83821 45.498 2.88573 45.3184 2.87891C45.2599 2.95493 45.1751 3.0472 45.0547 3.11914C44.9028 3.2096 44.7161 3.23482 44.5156 3.20703C44.1862 3.31453 43.878 3.24315 43.6367 3.08398C43.4455 3.06608 43.3033 2.98424 43.1914 2.89648C43.0738 2.98249 42.9134 3.06071 42.6992 3.05469C42.3842 3.04502 42.1891 2.86366 42.0898 2.74414C41.9771 2.78357 41.864 2.80731 41.75 2.80273L41.3867 2.71484C41.3576 2.70112 41.3377 2.67201 41.3105 2.65625C41.2745 2.70559 41.2522 2.77265 41.1992 2.82031C41.0478 2.95613 40.7628 3.10331 40.4199 3.00781C40.2906 2.97142 40.1932 2.90264 40.1152 2.83789C40.0686 2.88524 40.0228 2.93741 39.9629 2.97852C39.766 3.11302 39.4925 3.19569 39.1953 3.11328C39.0954 3.08529 38.9945 3.0507 38.8965 3.01367C38.6003 3.05764 38.3707 2.95376 38.1992 2.82031L38.1875 2.82617C38.1243 2.83413 38.0647 2.81277 38.0059 2.80859C37.8868 2.88954 37.7368 2.96568 37.543 2.97266C37.3767 2.97824 37.2366 2.93121 37.1211 2.87305C37.0316 2.94662 36.8946 3.03551 36.7109 3.06055C36.5184 3.08615 36.3461 3.03493 36.2129 2.96094C36.1957 2.95136 36.1819 2.93613 36.166 2.92578C36.16 2.92652 36.1545 2.93101 36.1484 2.93164C36.0588 2.94084 35.9742 2.92817 35.8965 2.91406C35.8135 2.9593 35.7207 3.00187 35.6094 3.01953C35.4312 3.04717 35.2718 3.01998 35.1406 2.9668L34.8301 2.76758C34.7923 2.73161 34.765 2.6842 34.7305 2.64453C34.6801 2.72431 34.6119 2.83273 34.4961 2.91992C34.3393 3.03785 34.0954 3.13531 33.8105 3.07227C33.6866 3.04463 33.5856 2.99386 33.5059 2.9375L33.3242 2.77344C33.3182 2.7662 33.3157 2.75921 33.3125 2.75586C33.2569 2.73374 33.2026 2.71492 33.1543 2.68555C33.1097 2.70173 33.0657 2.73526 33.0137 2.74414C32.8778 2.76695 32.754 2.74697 32.6445 2.71484C32.4933 2.77976 32.3131 2.82677 32.1055 2.76758C32.0053 2.73894 31.9281 2.68701 31.8594 2.63867C31.7538 2.66034 31.6479 2.66494 31.5371 2.64453C31.5158 2.68397 31.5093 2.73094 31.4844 2.76758C31.4272 2.85155 31.3208 2.98495 31.1504 3.07812C31.0507 3.13233 30.9395 3.16738 30.8223 3.17773L30.459 3.13086L30.4062 3.11914C30.1384 3.10962 29.9517 2.9765 29.8262 2.85547C29.7756 2.86764 29.7256 2.89411 29.668 2.89648C29.5461 2.90112 29.4341 2.87883 29.3398 2.84375L29.1055 2.70898C29.0864 2.6941 29.0713 2.67182 29.0527 2.65625C28.9422 2.76483 28.7852 2.89067 28.5605 2.9375C28.2618 2.99962 28.0023 2.90459 27.8223 2.77344L27.8105 2.76172C27.7517 2.79844 27.6901 2.84355 27.6113 2.86719C27.3479 2.94611 27.0995 2.88239 26.9199 2.76758C26.867 2.7335 26.8247 2.68843 26.7852 2.65039H26.5684C26.4304 2.63076 26.3142 2.57589 26.2109 2.51562C26.1032 2.56761 25.9831 2.61392 25.8418 2.62109C25.7489 2.62565 25.6644 2.60943 25.584 2.5918C25.5469 2.62475 25.5235 2.6751 25.4785 2.70312C25.3179 2.80323 25.0993 2.87042 24.8574 2.82031C24.7831 2.80488 24.7228 2.76686 24.6641 2.73828C24.6335 2.75982 24.5998 2.78386 24.5645 2.81445C24.3841 2.97071 24.1252 3.09329 23.8145 3.08984C23.6807 3.16172 23.5244 3.22074 23.3398 3.21875C23.2269 3.21752 23.1231 3.19879 23.0293 3.16602L22.7773 3.03711C22.6711 2.96377 22.5831 2.87188 22.5078 2.77344C22.4152 2.82494 22.3138 2.87283 22.1973 2.89648C22.0715 2.92176 21.9438 2.92699 21.8223 2.91406L21.4707 2.82031L21.377 2.79688C21.3226 2.79006 21.2714 2.76198 21.2188 2.75C21.1667 2.78135 21.1157 2.82209 21.0488 2.84375C20.8009 2.92348 20.556 2.88172 20.3691 2.77344C20.3171 2.74312 20.2742 2.70264 20.2344 2.66797C20.1437 2.78902 19.9716 2.98224 19.666 3.01367C19.5584 3.02459 19.4637 3.00713 19.3789 2.98438C19.2873 3.05423 19.1741 3.12191 19.0332 3.1543C18.7005 3.23015 18.4529 3.08265 18.2891 2.94922C18.1692 3.02595 18.0134 3.09663 17.8086 3.08398C17.6487 3.07391 17.5215 3.01892 17.4219 2.95508C17.2551 3.02737 17.0652 3.064 16.8652 3.03125C16.7009 3.00425 16.5672 2.93096 16.4551 2.85547C16.345 2.84762 16.2473 2.82817 16.1562 2.79102C16.1457 2.79892 16.1375 2.81258 16.127 2.82031C15.9229 2.96886 15.6636 3.05694 15.3887 3.02539L15.1074 2.94922L14.9668 2.90234C14.7225 2.85473 14.5506 2.7182 14.4395 2.60352C14.3659 2.68953 14.2441 2.81209 14.0586 2.87891C13.8993 2.9357 13.7403 2.9202 13.5898 2.88477L13.584 2.89648C13.3395 2.99579 13.1043 2.96066 12.9219 2.87305C12.7694 2.98798 12.5573 3.10959 12.2773 3.07812C12.1089 3.05877 11.9692 2.9935 11.8613 2.91992ZM58.7129 39.4062C58.7041 39.3971 58.6963 39.382 58.6836 39.3711L58.6719 39.3652C58.6853 39.3817 58.7026 39.3922 58.7129 39.4062ZM109.678 39.0312C109.697 39.047 109.718 39.0558 109.73 39.0664L109.713 39.0488C109.706 39.0442 109.696 39.0385 109.684 39.0312H109.678ZM109.889 38.0762C109.883 38.0808 109.877 38.0889 109.871 38.0938C109.914 38.0702 109.951 38.0341 110 38.0176C109.968 38.0285 109.928 38.0455 109.889 38.0762ZM112.59 37.3496C112.592 37.3414 112.6 37.3345 112.602 37.3262L112.613 37.1504C112.62 37.2179 112.598 37.2831 112.59 37.3496ZM112.666 37.0098C112.67 37.0069 112.688 36.9936 112.713 36.9688C112.718 36.9632 112.724 36.9526 112.73 36.9453L112.666 37.0098ZM1.36719 36.2188C1.34375 36.2607 1.32297 36.3166 1.30859 36.3828C1.33057 36.3277 1.33937 36.2685 1.36719 36.2188ZM111.242 29.8145L111.283 29.9727L111.242 29.7852C111.243 29.7949 111.241 29.8048 111.242 29.8145ZM2.3457 17.5859C2.34706 17.5852 2.36483 17.5783 2.38672 17.5625L2.39258 17.5508C2.37335 17.5613 2.35983 17.5787 2.3457 17.5859ZM111.811 17.3105C111.788 17.3325 111.748 17.3747 111.711 17.4395C111.748 17.3951 111.774 17.3457 111.811 17.3105ZM1.98242 15.1602L2.05859 14.9258L1.95898 15.084L1.98242 15.1602ZM1.98242 15.1602L1.95898 15.084L2.05859 14.9258L1.98242 15.1602ZM2.62109 11.3926L2.60938 11.3809L2.59766 11.375C2.60515 11.3798 2.61232 11.3866 2.62109 11.3926ZM112.438 9.45312L112.426 9.44141L112.414 9.43555C112.422 9.44072 112.429 9.44742 112.438 9.45312ZM1.85352 6.10742L1.85938 6.11328V6.10742L1.85352 6.10156V6.10742ZM110.738 3.72266C110.75 3.72087 110.76 3.72427 110.768 3.72266C110.79 3.71768 110.805 3.71227 110.809 3.71094L110.738 3.72266ZM44.4863 3.21289C44.4925 3.21262 44.4981 3.20759 44.5039 3.20703C44.4584 3.20005 44.4094 3.21066 44.3633 3.19531C44.3964 3.20619 44.4396 3.21475 44.4863 3.21289ZM86.6211 2.98438C86.6308 2.99062 86.6472 2.99914 86.668 3.00781H86.6738C86.6534 2.99289 86.6269 2.9879 86.6094 2.97266C86.6112 2.97417 86.6141 2.97985 86.6211 2.98438ZM106.373 2.95508L106.391 2.94922C106.331 2.9406 106.267 2.94153 106.209 2.91992L106.373 2.95508ZM48.0898 2.70898C48.0993 2.70528 48.1103 2.70708 48.1191 2.70312L48.1133 2.69727C48.1056 2.70172 48.0977 2.70468 48.0898 2.70898ZM38.1758 2.65625C38.1809 2.65262 38.189 2.65374 38.1934 2.65039C38.2255 2.62545 38.2415 2.60335 38.2461 2.59766C38.2295 2.61841 38.1989 2.63163 38.1758 2.65625ZM110.316 2.29883C110.299 2.30269 110.286 2.303 110.281 2.30469L110.305 2.29883H110.316ZM6.16016 2.5625H6.17188C6.12674 2.54294 6.0775 2.53499 6.03711 2.50977L6.16016 2.5625ZM79.8594 2.19336L79.8711 2.19922C79.8489 2.16738 79.8162 2.14384 79.8008 2.11719L79.8594 2.19336ZM32.4922 2.16992L32.5039 2.16406C32.5224 2.14061 32.5306 2.12178 32.5332 2.11719L32.4922 2.16992ZM65.6387 1.78906C65.6328 1.79731 65.6308 1.80638 65.627 1.8125C65.6332 1.80042 65.6434 1.79009 65.6504 1.77734L65.6387 1.78906ZM73.9121 1.6543C73.8822 1.63658 73.8428 1.62098 73.7949 1.60742C73.8327 1.62701 73.8773 1.63152 73.9121 1.6543ZM31.8184 1.54297C31.8129 1.55039 31.8102 1.5609 31.8066 1.56641C31.8155 1.55017 31.8313 1.5371 31.8418 1.51953C31.8331 1.52961 31.8235 1.53603 31.8184 1.54297ZM105.213 1.53125C105.202 1.53505 105.197 1.54189 105.195 1.54297C105.205 1.53647 105.22 1.53744 105.23 1.53125H105.213ZM38.3516 1.41406C38.3111 1.38887 38.2558 1.36437 38.1875 1.34961C38.2436 1.37257 38.3029 1.38273 38.3516 1.41406ZM46.584 1.39648V1.39062C46.5809 1.38785 46.5732 1.38397 46.5664 1.37891C46.5607 1.37469 46.5517 1.37261 46.543 1.36719C46.5552 1.37902 46.5727 1.38476 46.584 1.39648ZM81.1016 1.36719C81.1 1.36441 81.0917 1.34937 81.0781 1.33203C81.0752 1.32828 81.0704 1.32502 81.0664 1.32031C81.0785 1.33896 81.0937 1.35366 81.1016 1.36719ZM53.2754 0.927734C53.2641 0.929919 53.255 0.936725 53.2461 0.939453C53.2912 0.939848 53.3382 0.92029 53.3867 0.927734H53.2754Z" fill="#78C8C2"/>
<path d="M31.249 22.7484V20.9984C31.249 20.2643 31.249 19.6118 31.2377 19.0297H13.7603C13.749 19.6118 13.749 20.2643 13.749 20.9984V22.7484C13.749 26.0483 13.749 27.6982 14.7741 28.7233C15.7993 29.7484 17.4492 29.7484 20.749 29.7484H24.249C27.5489 29.7484 29.1988 29.7484 30.2239 28.7233C31.249 27.6982 31.249 26.0483 31.249 22.7484Z" fill="#121212"/>
<path d="M18.7803 12.6859C18.7803 12.3235 18.4865 12.0297 18.124 12.0297C17.7616 12.0297 17.4678 12.3235 17.4678 12.6859V14.0678C16.2084 14.1686 15.3816 14.4161 14.7741 15.0236C14.1667 15.631 13.9192 16.4578 13.8184 17.7172H31.1797C31.0788 16.4578 30.8313 15.631 30.2239 15.0236C29.6165 14.4161 28.7897 14.1686 27.5303 14.0678V12.6859C27.5303 12.3235 27.2365 12.0297 26.874 12.0297C26.5116 12.0297 26.2178 12.3235 26.2178 12.6859V14.0097C25.6357 13.9984 24.9832 13.9984 24.249 13.9984H20.749C20.0149 13.9984 19.3624 13.9984 18.7803 14.0097V12.6859Z" fill="#121212"/>
</svg>
