<svg width="88" height="36" viewBox="0 0 88 36" fill="none" xmlns="http://www.w3.org/2000/svg">
<rect x="2" y="2" width="84" height="32" rx="4" fill="white"/>
<rect x="2" y="2" width="84" height="32" rx="4" stroke="#78C8C2" stroke-width="1.5"/>
<path d="M26.499 19.4988V17.9988C26.499 17.3695 26.499 16.8102 26.4893 16.3113H11.5087C11.499 16.8102 11.499 17.3695 11.499 17.9988V19.4988C11.499 22.3272 11.499 23.7414 12.3777 24.6201C13.2564 25.4988 14.6706 25.4988 17.499 25.4988H20.499C23.3274 25.4988 24.7417 25.4988 25.6203 24.6201C26.499 23.7414 26.499 22.3272 26.499 19.4988Z" fill="#121212"/>
<path d="M15.8115 10.8738C15.8115 10.5631 15.5597 10.3113 15.249 10.3113C14.9384 10.3113 14.6865 10.5631 14.6865 10.8738V12.0582C13.607 12.1447 12.8984 12.3568 12.3777 12.8775C11.8571 13.3981 11.6449 14.1068 11.5585 15.1863H26.4396C26.3531 14.1068 26.141 13.3981 25.6203 12.8775C25.0997 12.3568 24.391 12.1447 23.3115 12.0582V10.8738C23.3115 10.5631 23.0597 10.3113 22.749 10.3113C22.4384 10.3113 22.1865 10.5631 22.1865 10.8738V12.0085C21.6876 11.9988 21.1283 11.9988 20.499 11.9988H17.499C16.8697 11.9988 16.3105 11.9988 15.8115 12.0085V10.8738Z" fill="#121212"/>
</svg>
