<svg width="136" height="72" viewBox="0 0 136 72" fill="none" xmlns="http://www.w3.org/2000/svg">
<g filter="url(#filter0_g_696_1347)">
<path d="M28.5254 6.38914C33.4985 5.17497 38.678 5.07057 43.696 6.08335L43.8428 6.11297C46.3063 6.61016 48.7061 7.38262 50.997 8.41578L51.3373 8.56924C55.8074 10.5851 59.7533 13.603 62.8696 17.3891L63.0011 17.5489C64.547 19.4271 65.8607 21.485 66.9135 23.678L66.971 23.7977C69.0727 28.1755 70.069 33.0017 69.8727 37.8538C69.7736 40.3043 69.3636 42.7596 68.6674 45.1112C67.2934 49.7526 64.8142 54.051 61.4663 57.547L61.236 57.7876C59.5366 59.5621 57.637 61.1334 55.5751 62.4697L55.3803 62.596C51.173 65.323 46.4106 67.0778 41.4397 67.7328L41.2012 67.7642C38.649 68.1005 36.0674 68.1525 33.5038 67.9194L33.2641 67.8976C28.2709 67.4435 23.4417 65.882 19.1279 63.3268L18.9281 63.2084C16.8141 61.9562 14.8527 60.4628 13.0832 58.7582L12.8434 58.5271C9.35733 55.1688 6.70691 50.9738 5.147 46.3916C4.35663 44.0699 3.84797 41.6332 3.65019 39.1886C3.25856 34.3484 4.05961 29.4859 5.98318 25.0271L6.03579 24.9051C6.9994 22.6715 8.22903 20.5623 9.69803 18.6233L9.82301 18.4583C12.7841 14.5497 16.6053 11.3753 20.9905 9.18093L21.3243 9.01389C23.5717 7.88924 25.9385 7.02072 28.3799 6.42466L28.5254 6.38914Z" fill="white"/>
<path d="M28.5254 6.38914C33.4985 5.17497 38.678 5.07057 43.696 6.08335L43.8428 6.11297C46.3063 6.61016 48.7061 7.38262 50.997 8.41578L51.3373 8.56924C55.8074 10.5851 59.7533 13.603 62.8696 17.3891L63.0011 17.5489C64.547 19.4271 65.8607 21.485 66.9135 23.678L66.971 23.7977C69.0727 28.1755 70.069 33.0017 69.8727 37.8538C69.7736 40.3043 69.3636 42.7596 68.6674 45.1112C67.2934 49.7526 64.8142 54.051 61.4663 57.547L61.236 57.7876C59.5366 59.5621 57.637 61.1334 55.5751 62.4697L55.3803 62.596C51.173 65.323 46.4106 67.0778 41.4397 67.7328L41.2012 67.7642C38.649 68.1005 36.0674 68.1525 33.5038 67.9194L33.2641 67.8976C28.2709 67.4435 23.4417 65.882 19.1279 63.3268L18.9281 63.2084C16.8141 61.9562 14.8527 60.4628 13.0832 58.7582L12.8434 58.5271C9.35733 55.1688 6.70691 50.9738 5.147 46.3916C4.35663 44.0699 3.84797 41.6332 3.65019 39.1886C3.25856 34.3484 4.05961 29.4859 5.98318 25.0271L6.03579 24.9051C6.9994 22.6715 8.22903 20.5623 9.69803 18.6233L9.82301 18.4583C12.7841 14.5497 16.6053 11.3753 20.9905 9.18093L21.3243 9.01389C23.5717 7.88924 25.9385 7.02072 28.3799 6.42466L28.5254 6.38914Z" fill="#89806E" fill-opacity="0.9"/>
</g>
<ellipse cx="32.4723" cy="30.6288" rx="4.90078" ry="6.06764" transform="rotate(-1.15475 32.4723 30.6288)" fill="#F6F6F6"/>
<ellipse cx="45.0719" cy="30.3749" rx="4.90078" ry="6.06764" transform="rotate(-1.15475 45.0719 30.3749)" fill="#F6F6F6"/>
<circle cx="35.0668" cy="31.9766" r="2.33371" transform="rotate(-1.15475 35.0668 31.9766)" fill="black"/>
<circle cx="43.0189" cy="32.7501" r="2.33371" transform="rotate(-1.15475 43.0189 32.7501)" fill="black"/>
<ellipse cx="39.5754" cy="35.6203" rx="2.10034" ry="1.40022" transform="rotate(-1.15475 39.5754 35.6203)" fill="#FFA7A7"/>
<g filter="url(#filter1_g_696_1347)">
<path d="M110.936 6.33474C103.48 3.37089 95.2042 3.20407 87.6353 5.86508L87.1862 5.99613C79.7812 8.15656 73.465 13.0333 69.5012 19.6507L69.4075 19.7881C65.1332 26.0639 63.5523 33.7909 65.0183 41.2411C66.0374 48.7715 69.9629 55.6041 75.9552 60.2773L76.2843 60.5339C82.2178 65.7208 89.8451 68.5559 97.726 68.5038L98.0277 68.5018L98.329 68.516C106.201 68.8856 113.937 66.3602 120.074 61.4166L120.414 61.1734C126.589 56.7455 130.787 50.0767 132.109 42.5934C133.874 35.2083 132.605 27.4239 128.588 20.981L128.5 20.8399C124.806 14.0682 118.691 8.94086 111.379 6.48378L110.936 6.33474Z" fill="#C0C0C0"/>
</g>
<ellipse cx="4.90078" cy="6.06764" rx="4.90078" ry="6.06764" transform="matrix(-0.999797 -0.0201528 -0.0201528 0.999797 107.943 24.2607)" fill="#F6F6F6"/>
<ellipse cx="4.90078" cy="6.06764" rx="4.90078" ry="6.06764" transform="matrix(-0.999797 -0.0201528 -0.0201528 0.999797 95.3438 24.0068)" fill="#F6F6F6"/>
<circle cx="2.33371" cy="2.33371" r="2.33371" transform="matrix(-0.999797 -0.0201528 -0.0201528 0.999797 102.707 29.29)" fill="black"/>
<circle cx="2.33371" cy="2.33371" r="2.33371" transform="matrix(-0.999797 -0.0201528 -0.0201528 0.999797 94.7549 30.0635)" fill="black"/>
<ellipse cx="2.10034" cy="1.40022" rx="2.10034" ry="1.40022" transform="matrix(-0.999797 -0.0201528 -0.0201528 0.999797 97.9463 33.8623)" fill="#FF7878"/>
<defs>
<filter id="filter0_g_696_1347" x="0.553223" y="2.39453" width="72.3438" height="68.668" filterUnits="userSpaceOnUse" color-interpolation-filters="sRGB">
<feFlood flood-opacity="0" result="BackgroundImageFix"/>
<feBlend mode="normal" in="SourceGraphic" in2="BackgroundImageFix" result="shape"/>
<feTurbulence type="fractalNoise" baseFrequency="1 1" numOctaves="3" seed="5586" />
<feDisplacementMap in="shape" scale="6" xChannelSelector="R" yChannelSelector="G" result="displacedImage" width="100%" height="100%" />
<feMerge result="effect1_texture_696_1347">
<feMergeNode in="displacedImage"/>
</feMerge>
</filter>
<filter id="filter1_g_696_1347" x="61.4844" y="0.983398" width="74.4019" height="70.5684" filterUnits="userSpaceOnUse" color-interpolation-filters="sRGB">
<feFlood flood-opacity="0" result="BackgroundImageFix"/>
<feBlend mode="normal" in="SourceGraphic" in2="BackgroundImageFix" result="shape"/>
<feTurbulence type="fractalNoise" baseFrequency="1 1" numOctaves="3" seed="5586" />
<feDisplacementMap in="shape" scale="6" xChannelSelector="R" yChannelSelector="G" result="displacedImage" width="100%" height="100%" />
<feMerge result="effect1_texture_696_1347">
<feMergeNode in="displacedImage"/>
</feMerge>
</filter>
</defs>
</svg>
