<svg width="114" height="42" viewBox="0 0 114 42" fill="none" xmlns="http://www.w3.org/2000/svg">
<path d="M2 6C2 3.79086 3.79086 2 6 2H108C110.209 2 112 3.79086 112 6V36C112 38.2091 110.209 40 108 40H6C3.79086 40 2 38.2091 2 36V6Z" fill="white"/>
<path d="M15.9512 0.792969L16.1562 0.904297C16.1794 0.920815 16.2001 0.939448 16.2207 0.957031C16.2407 0.941202 16.2575 0.919025 16.2793 0.904297C16.4356 0.798898 16.6355 0.731724 16.8535 0.746094L17.0762 0.787109L17.2988 0.898438C17.4249 0.984455 17.503 1.09826 17.5625 1.18555C17.7055 1.13868 17.8568 1.11373 18.0137 1.13281L18.2656 1.19727L18.3359 1.23828C18.4468 1.18087 18.5829 1.12783 18.7461 1.13281C18.8883 1.13736 19.0052 1.18721 19.1035 1.23828C19.2661 1.14069 19.4586 1.07032 19.6719 1.07422L19.9473 1.12109L20.2695 1.22656L20.4395 1.32031C20.4522 1.30804 20.4607 1.29124 20.4746 1.2793C20.5989 1.17237 20.808 1.05023 21.084 1.06836C21.208 1.07667 21.3121 1.11782 21.4004 1.16211C21.5511 1.05288 21.7782 0.95148 22.0566 1.00977C22.1458 1.02848 22.213 1.07845 22.2793 1.11523C22.3009 1.11045 22.3207 1.09491 22.3438 1.0918C22.5015 1.07062 22.6435 1.10998 22.7656 1.16211C22.8172 1.13483 22.871 1.09772 22.9355 1.08008C23.1158 1.03133 23.2846 1.06156 23.4336 1.11523C23.577 1.09865 23.7052 1.13166 23.8262 1.17383C23.9221 1.0703 24.0586 0.955665 24.2422 0.886719C24.3571 0.84374 24.4758 0.825519 24.5938 0.828125L24.9336 0.898438L25.1914 1.06836C25.282 1.04836 25.3832 1.03766 25.4961 1.05664C25.8399 1.11515 26.0161 1.36623 26.0703 1.44922C26.0767 1.45902 26.076 1.47447 26.082 1.48438C26.1279 1.47816 26.1742 1.47739 26.2227 1.47852C26.2698 1.40114 26.3068 1.31923 26.3574 1.25L26.5215 1.07422C26.5981 1.01096 26.6997 0.952845 26.8262 0.916016C27.1348 0.826344 27.4035 0.931401 27.5703 1.0625C27.5801 1.0702 27.5845 1.08389 27.5938 1.0918C27.6015 1.09087 27.6092 1.08666 27.6172 1.08594C27.6453 1.08338 27.6725 1.09162 27.6992 1.0918C27.7775 1.00213 27.9204 0.870392 28.1387 0.810547C28.261 0.777138 28.3799 0.769315 28.4902 0.787109L28.7949 0.898438L28.9883 1.05078C29.1535 1.20551 29.2695 1.39437 29.3516 1.55469C29.4575 1.41983 29.5793 1.28562 29.7324 1.18555L30.0371 1.05664C30.1504 1.02871 30.2742 1.01783 30.4062 1.03906C30.6257 1.07439 30.7868 1.18761 30.9043 1.29102C30.9168 1.27831 30.9261 1.26211 30.9395 1.25C31.0603 1.14082 31.2777 1.0085 31.5664 1.02734C31.7042 1.03657 31.8187 1.08128 31.9121 1.13281L32.1289 1.29688V1.30273C32.2377 1.28169 32.3578 1.26924 32.4922 1.30273C32.6205 1.3351 32.7227 1.40141 32.8086 1.4668C32.8336 1.46453 32.8585 1.45524 32.8848 1.45508C32.9211 1.45489 32.9562 1.46301 32.9902 1.4668C33.1169 1.38028 33.2836 1.30769 33.4941 1.31445C33.6918 1.3213 33.8444 1.39803 33.9629 1.48438C34.069 1.43103 34.2001 1.38673 34.3555 1.39062C34.4254 1.39251 34.4837 1.42734 34.543 1.44336C34.6863 1.29417 34.9538 1.08029 35.3457 1.15625C35.4393 1.17439 35.5198 1.21114 35.5918 1.25C35.6782 1.16628 35.7773 1.08373 35.8965 1.02734L36.2246 0.886719L36.5879 0.828125C36.7057 0.83581 36.8191 0.868266 36.9219 0.921875C36.9797 0.952262 37.0246 0.997104 37.0684 1.0332C37.2104 0.994903 37.3714 0.985717 37.543 1.04492C37.5987 1.06419 37.6386 1.10633 37.6836 1.13281C37.7988 1.06292 37.9467 1.00003 38.1348 1.00977C38.5422 1.03184 38.7467 1.33568 38.7969 1.41406C38.8088 1.43275 38.8097 1.45951 38.8203 1.47852C38.9646 1.47617 39.0947 1.49816 39.2129 1.54297C39.3226 1.49972 39.4473 1.47805 39.5938 1.49023C39.6127 1.46165 39.6274 1.43017 39.6465 1.40234L39.8516 1.16797C39.9511 1.08419 40.0832 1.00467 40.25 0.96875C40.5997 0.894012 40.8627 1.05605 41.0234 1.19727C41.0837 1.20457 41.1449 1.20884 41.2051 1.21484L41.2812 1.22656C41.3503 1.17292 41.4335 1.11582 41.5391 1.08008C41.685 1.03099 41.8354 1.03921 41.9785 1.06836C42.081 0.988393 42.228 0.908648 42.418 0.886719C42.555 0.870994 42.6776 0.895976 42.7871 0.933594C42.9212 0.914139 43.0613 0.912866 43.1973 0.962891C43.2198 0.971208 43.2351 0.994275 43.2559 1.00391C43.3715 0.938973 43.5193 0.882482 43.7012 0.892578C43.8709 0.902299 44.0028 0.971476 44.1055 1.03906L44.1172 1.0332L44.4277 1.05078L44.7148 1.09766L45.0898 1.17383L45.2656 1.25C45.3751 1.1903 45.4965 1.13796 45.6348 1.11523L45.7344 1.08594L45.9805 1.00977C46.0665 0.998071 46.1576 0.999028 46.25 1.01562C46.3663 1.03674 46.4614 1.09004 46.543 1.13867L46.5488 1.13281C46.8747 1.03293 47.1161 1.15135 47.2871 1.2793C47.3708 1.24196 47.4654 1.21708 47.5742 1.20898C47.6092 1.16008 47.6409 1.10687 47.6855 1.0625C47.7741 0.974741 47.9189 0.861527 48.125 0.816406C48.3005 0.778171 48.4629 0.814465 48.6055 0.869141C48.7935 0.770989 49.0221 0.718207 49.2676 0.78125C49.3887 0.812384 49.4926 0.863201 49.5781 0.921875L49.7832 1.10352L50 1.39648C50.0324 1.44687 50.058 1.50168 50.0879 1.55469C50.1634 1.50777 50.2442 1.45689 50.3457 1.43164C50.5012 1.39324 50.6451 1.40506 50.7734 1.4375C50.8663 1.31621 50.971 1.1964 51.1016 1.10352L51.2949 1.00391C51.4972 0.921541 51.739 0.906136 51.9805 1.00977C52.0052 1.02046 52.0221 1.04438 52.0449 1.05664C52.1519 0.979351 52.3069 0.90016 52.5078 0.898438C52.7286 0.897165 52.9029 0.983747 53.0117 1.06836C53.0933 1.13177 53.1466 1.21111 53.1934 1.2793C53.2009 1.27925 53.2091 1.27328 53.2168 1.27344C53.31 1.27537 53.3927 1.30059 53.4688 1.32617C53.5077 1.28934 53.5378 1.24047 53.5859 1.20898C53.6901 1.14091 53.8251 1.10047 53.9785 1.08594C54.0348 1.02592 54.0988 0.965589 54.1777 0.916016C54.2935 0.843429 54.4449 0.781585 54.623 0.775391C54.79 0.770024 54.9356 0.818131 55.0566 0.880859C55.2117 0.887524 55.3409 0.925794 55.4492 0.986328C55.5738 0.929864 55.723 0.883884 55.8945 0.904297C55.9354 0.909287 55.9691 0.935476 56.0059 0.945312C56.0582 0.917156 56.1032 0.874964 56.1582 0.851562L56.4102 0.787109C56.4972 0.777767 56.5882 0.779717 56.6797 0.798828C56.8544 0.835674 56.9911 0.919602 57.084 0.998047C57.1062 1.01684 57.1167 1.04834 57.1367 1.06836C57.1801 1.05976 57.225 1.04228 57.2715 1.03906L57.5059 1.05078C57.5198 1.03984 57.5318 1.02603 57.5469 1.01562C57.6511 0.944004 57.7987 0.875762 57.9805 0.869141C58.1644 0.862922 58.3222 0.921073 58.4375 0.992188C58.5783 1.07939 58.668 1.19681 58.7246 1.28516L58.7305 1.29102C58.7417 1.27642 58.7484 1.2584 58.7598 1.24414L59.0879 0.945312C59.2299 0.853977 59.4045 0.780978 59.6152 0.775391L59.8848 0.763672L60.125 0.78125C60.1993 0.794062 60.2696 0.814238 60.3359 0.839844L60.6875 1.05078L60.834 1.2207C60.8577 1.18969 60.8748 1.15141 60.9043 1.12109C60.9993 1.02373 61.1747 0.885682 61.4316 0.857422C61.7052 0.827732 61.9246 0.936669 62.0586 1.04492C62.1587 1.126 62.2153 1.22715 62.2637 1.30273C62.3354 1.32026 62.4104 1.32555 62.4805 1.34961C62.6721 1.4154 62.8161 1.53935 62.9375 1.66016C63.0555 1.54738 63.2253 1.42594 63.4648 1.40234L63.4824 1.4082C63.4944 1.39008 63.4989 1.36713 63.5117 1.34961C63.6018 1.22649 63.7842 1.01803 64.0859 0.945312L64.332 0.921875C64.5675 0.932377 64.7637 1.03831 64.8945 1.15039C64.9651 1.21111 65.0202 1.28171 65.0703 1.34961C65.2081 1.2403 65.3787 1.13722 65.5918 1.10352H65.8672C66.1193 1.14526 66.2997 1.29875 66.4004 1.4082C66.4177 1.42703 66.4256 1.453 66.4414 1.47266C66.4921 1.46653 66.5449 1.4533 66.5996 1.45508L66.9395 1.51367C67.0058 1.53416 67.0658 1.5665 67.127 1.5957C67.2676 1.52179 67.4355 1.46665 67.6309 1.47852C67.6899 1.48211 67.7419 1.50658 67.7949 1.51953C67.8253 1.49946 67.8514 1.47351 67.8828 1.45508C67.8859 1.45073 67.8897 1.44489 67.8945 1.4375C67.9051 1.42112 67.9201 1.39637 67.9355 1.36719L68.1113 1.11523C68.201 1.0148 68.3251 0.911052 68.4922 0.851562C68.9506 0.689353 69.2926 0.953999 69.4414 1.12109C69.4957 1.10023 69.55 1.07435 69.6113 1.0625L69.916 1.05664C70.194 1.10313 70.3877 1.28702 70.4785 1.39648L70.4844 1.41406C70.5298 1.39832 70.579 1.39834 70.6309 1.39062C70.6599 1.32629 70.676 1.25515 70.7129 1.19727C70.7667 1.11306 70.8719 0.974794 71.0469 0.875C71.2076 0.783442 71.3983 0.74339 71.5918 0.775391L71.7852 0.828125L72.0195 0.96875C72.1496 1.07034 72.2355 1.20364 72.3125 1.32031C72.445 1.23351 72.5902 1.15586 72.7578 1.11523L73.0859 1.09766C73.1538 1.04103 73.2331 0.976402 73.3379 0.939453C73.703 0.81189 74.0113 0.973243 74.1699 1.12109C74.1898 1.1397 74.1936 1.17211 74.2109 1.19141L74.2227 1.18555C74.3088 1.18423 74.3869 1.20078 74.457 1.2207C74.5485 1.16171 74.6574 1.114 74.7852 1.0918C74.9137 0.971341 75.1063 0.837697 75.3828 0.833984C75.5377 0.832022 75.6663 0.873598 75.7754 0.927734C75.8183 0.92133 75.8625 0.909377 75.9102 0.910156C76.1576 0.91474 76.3259 1.04021 76.4375 1.13867C76.4886 1.11467 76.5388 1.07667 76.6016 1.0625C76.9039 0.994753 77.1579 1.10934 77.3105 1.23242C77.4044 1.30841 77.4564 1.40517 77.5039 1.47852C77.5892 1.44692 77.6795 1.41194 77.7793 1.40234L77.9082 1.4082C77.9206 1.3875 77.9303 1.36374 77.9434 1.34375C78.0218 1.22385 78.1472 1.07357 78.3301 0.962891L78.6582 0.833984C78.7804 0.812234 78.9151 0.8168 79.0508 0.851562C79.172 0.883039 79.2759 0.933242 79.3613 0.992188L79.5664 1.17383L79.7773 1.50195C79.8968 1.38519 80.0477 1.2773 80.2402 1.2207L80.627 1.18555C80.7955 1.20766 80.9313 1.2901 81.0488 1.37305C81.078 1.34603 81.1003 1.31027 81.1309 1.28516L81.3242 1.16797C81.4001 1.13192 81.4882 1.09851 81.5879 1.08594C81.7949 1.06015 81.9831 1.11521 82.127 1.19727C82.1811 1.22827 82.2183 1.27702 82.2617 1.31445C82.3441 1.28423 82.4313 1.26948 82.5254 1.26172C82.5376 1.24579 82.547 1.22466 82.5605 1.20898C82.6468 1.10969 82.8321 0.940232 83.123 0.910156C83.437 0.878201 83.6643 1.02978 83.7852 1.14453L84.0137 1.45508L84.1484 1.67773C84.2131 1.69007 84.2776 1.70271 84.3418 1.71875C84.3888 1.66556 84.4396 1.6102 84.4883 1.54883L84.6406 1.40234C84.7051 1.34948 84.7827 1.2935 84.8809 1.25586C85.0578 1.18856 85.2406 1.2018 85.4082 1.25C85.4123 1.24435 85.4156 1.23804 85.4199 1.23242C85.4868 1.14518 85.6181 1.00029 85.8242 0.921875C86.0138 0.850205 86.2024 0.876387 86.375 0.933594C86.4062 0.920957 86.4344 0.896288 86.4688 0.886719C86.6317 0.841547 86.7837 0.84667 86.9199 0.880859L87.2715 1.05078L87.541 1.25L87.6289 1.29688L87.6934 1.33789C87.789 1.26382 87.9048 1.18559 88.0566 1.15039C88.1575 1.05581 88.3131 0.934004 88.543 0.910156C88.8555 0.877976 89.0835 1.02987 89.2051 1.14453C89.2326 1.17059 89.2458 1.20983 89.2695 1.23828C89.4693 1.19727 89.645 1.23831 89.7969 1.30273C89.8753 1.18259 90.0686 0.924327 90.418 0.851562L90.793 0.857422C90.9525 0.897653 91.0638 0.999965 91.1562 1.08594C91.2958 0.997567 91.4859 0.925672 91.7305 0.974609C91.9158 1.01219 92.0476 1.11134 92.1406 1.20312C92.1502 1.19082 92.154 1.1741 92.1641 1.16211C92.2754 1.02984 92.5138 0.807285 92.8789 0.804688L93.1426 0.798828L93.5117 0.857422C93.7625 0.952505 93.9196 1.15341 94.0215 1.29688C94.2142 1.18161 94.4699 1.12658 94.7305 1.2207C94.9253 1.29112 95.0452 1.42425 95.1172 1.51367L95.123 1.50781L95.2109 1.48438L95.3398 1.4082L95.5273 1.30859C95.6455 1.25969 95.7761 1.2426 95.9141 1.25C96.0167 1.14239 96.1816 1.00802 96.4355 0.986328C96.7371 0.960723 96.9349 1.11092 97.0566 1.22656C97.1235 1.13612 97.263 0.974234 97.502 0.898438C97.6504 0.851449 97.7914 0.847932 97.918 0.875L98.2461 1.02734L98.2812 1.05664C98.3304 1.03493 98.3764 0.997982 98.4277 0.980469L98.6797 0.886719L98.8789 0.833984C99.0726 0.80884 99.2594 0.860005 99.4121 0.951172C99.48 0.991745 99.5349 1.0393 99.582 1.08594C99.6166 1.06536 99.6467 1.03219 99.6875 1.01562C99.8845 0.935905 100.071 0.952689 100.232 1.00391C100.364 0.950716 100.524 0.917394 100.707 0.957031C100.875 0.993903 100.994 1.08303 101.082 1.16211L101.094 1.15625C101.201 1.15183 101.296 1.17087 101.381 1.19727C101.424 1.14295 101.463 1.08028 101.521 1.0332C101.647 0.931795 101.846 0.827088 102.102 0.839844C102.227 0.846493 102.339 0.877801 102.43 0.921875L102.641 1.06836L102.658 1.08008C102.655 1.07797 102.645 1.07839 102.635 1.07422L102.6 1.0625C102.642 1.07281 102.677 1.10649 102.717 1.12109C102.869 1.02885 103.072 0.947912 103.326 1.00977C103.612 1.07957 103.773 1.27234 103.836 1.36133C103.843 1.37161 103.847 1.3861 103.854 1.39648C103.901 1.40598 103.949 1.40849 103.994 1.42578C104.03 1.43963 104.062 1.46129 104.094 1.47852C104.213 1.36476 104.364 1.26308 104.557 1.21484L104.814 1.18555C104.831 1.18634 104.846 1.19561 104.861 1.19727C104.884 1.16823 104.898 1.13161 104.926 1.10352C105.063 0.963841 105.365 0.764467 105.752 0.880859C105.938 0.937156 106.057 1.05682 106.139 1.15039C106.24 1.16564 106.333 1.20031 106.426 1.23828C106.637 1.21482 106.814 1.25314 106.965 1.33203C107.057 1.30978 107.144 1.294 107.234 1.30273C107.313 1.22905 107.414 1.15219 107.551 1.10938C107.855 1.01447 108.084 1.13105 108.242 1.24414C108.353 1.17369 108.535 1.09073 108.77 1.12109C109.048 1.15834 109.222 1.3232 109.303 1.43164C109.38 1.53596 109.418 1.64081 109.438 1.70117C109.46 1.7722 109.462 1.84933 109.473 1.91797C109.58 1.85088 109.7 1.77561 109.842 1.73633C109.931 1.71159 110.037 1.69238 110.152 1.69531L110.516 1.7832L110.961 2.07031L111.102 2.23438C111.217 2.40317 111.261 2.5846 111.271 2.72656C111.272 2.73938 111.265 2.75484 111.266 2.76758C111.35 2.8259 111.425 2.90384 111.494 3.00195C111.738 3.01196 111.995 3.06272 112.232 3.18945L112.455 3.3418C112.525 3.40481 112.593 3.48027 112.648 3.57031C112.76 3.75283 112.798 3.95053 112.795 4.13281C112.791 4.32153 112.724 4.47709 112.654 4.60156C112.723 4.67297 112.794 4.76389 112.842 4.88281C112.916 5.06709 112.917 5.262 112.871 5.43359C112.839 5.5505 112.771 5.63827 112.713 5.7207C112.722 5.72675 112.733 5.73187 112.742 5.73828C112.829 5.79788 113.05 5.97035 113.111 6.28906C113.184 6.66877 112.977 6.93559 112.854 7.05078C112.815 7.08647 112.764 7.10022 112.725 7.12695C112.813 7.28322 112.89 7.4794 112.848 7.71875C112.842 7.74954 112.821 7.77813 112.812 7.80664C112.876 7.94576 112.92 8.10284 112.889 8.28125L113.041 8.57422C113.075 8.69132 113.084 8.82618 113.053 8.97266C113.023 9.10974 112.963 9.21696 112.9 9.30078C112.901 9.4225 112.884 9.5403 112.848 9.6582L112.842 9.62305C112.845 9.63966 112.84 9.65942 112.842 9.67578C112.837 9.69049 112.841 9.70806 112.836 9.72266C112.839 9.71507 112.84 9.70317 112.842 9.6875C112.874 9.96323 112.78 10.1861 112.66 10.373C112.739 10.4306 112.819 10.5029 112.889 10.5898C112.998 10.7264 113.095 10.9192 113.1 11.1465L113.07 11.3809L112.918 11.8086C112.898 11.8519 112.86 11.8826 112.836 11.9199C112.945 12.0385 113.082 12.2548 113.064 12.5469C113.054 12.7104 112.988 12.8381 112.924 12.9395C112.935 13.0244 112.946 13.1104 112.93 13.1973C112.98 13.2661 113.029 13.349 113.059 13.4492C113.189 13.897 112.909 14.2064 112.783 14.3105C112.727 14.3565 112.657 14.3743 112.602 14.4043C112.599 14.531 112.569 14.6462 112.531 14.7559C112.6 14.8069 112.671 14.8618 112.748 14.9141L113.006 15.1543C113.097 15.2717 113.174 15.4317 113.188 15.6348C113.202 15.8517 113.138 16.0245 113.053 16.1562L112.795 16.4316C112.775 16.4467 112.751 16.4576 112.73 16.4727C112.848 16.5717 112.982 16.7164 113.041 16.9297C113.106 17.1651 113.064 17.3654 112.988 17.5215L112.719 17.8555C112.628 17.9293 112.559 17.9961 112.508 18.0547C112.504 18.0724 112.499 18.0898 112.496 18.1074C112.534 18.1271 112.576 18.1412 112.613 18.166C112.699 18.2236 112.882 18.3628 112.971 18.6113C113.083 18.9268 112.977 19.2157 112.836 19.3965C112.791 19.4543 112.738 19.4974 112.689 19.5371C112.717 19.6169 112.727 19.7006 112.73 19.7949C112.774 19.8584 112.825 19.9201 112.859 19.9941L112.965 20.3691L112.959 20.627C112.956 20.6415 112.945 20.6539 112.941 20.668C113.019 20.7364 113.113 20.8209 113.176 20.9434L113.258 21.2129L113.229 21.582C113.194 21.6893 113.143 21.7807 113.088 21.8516C113.053 21.8969 112.996 21.9169 112.959 21.9512C112.997 22.0199 113.035 22.0983 113.053 22.1914C113.127 22.5772 112.912 22.8463 112.789 22.959C112.769 22.9773 112.739 22.9842 112.719 23C112.715 23.0283 112.72 23.0587 112.713 23.0879C112.7 23.1418 112.657 23.182 112.637 23.2285C112.726 23.3357 112.819 23.4559 112.871 23.6094L112.924 23.8438L112.912 24.1191C112.892 24.2104 112.852 24.2886 112.812 24.3594C112.843 24.3941 112.879 24.427 112.906 24.4707C113.034 24.6789 113.081 24.9537 112.971 25.2207C112.926 25.33 112.857 25.4123 112.795 25.4785C112.803 25.5484 112.792 25.6155 112.783 25.6836C112.876 25.8682 112.908 26.083 112.865 26.3164C112.945 26.5556 112.931 26.8135 112.807 27.0371C112.778 27.0888 112.73 27.1237 112.695 27.166C112.721 27.2164 112.748 27.2699 112.766 27.3301C112.84 27.5873 112.764 27.8012 112.672 27.9746C112.682 28.1809 112.622 28.366 112.525 28.5137C112.629 28.5636 112.741 28.6132 112.836 28.6895C112.936 28.77 113.093 28.9277 113.164 29.1641L113.205 29.4277C113.202 29.658 113.112 29.8509 113.012 30.0195C113.096 30.2179 113.129 30.4293 113.088 30.6406L113.018 30.8691L113.006 30.8809C113.034 30.9178 113.068 30.9534 113.094 30.998L113.211 31.3145L113.217 31.5781C113.184 31.8235 113.046 32.0077 112.936 32.1172C112.893 32.1594 112.841 32.1886 112.795 32.2227C112.804 32.2501 112.824 32.2747 112.83 32.3047C112.894 32.6225 112.763 32.846 112.631 33.002C112.662 33.0336 112.702 33.0615 112.73 33.1016C112.798 33.1966 112.866 33.3317 112.883 33.5C112.9 33.6717 112.859 33.827 112.795 33.9512C112.749 34.0403 112.682 34.1053 112.625 34.1621C112.716 34.2683 112.815 34.4038 112.859 34.584C112.888 34.7013 112.891 34.8189 112.877 34.9297L112.789 35.2402C112.779 35.2599 112.759 35.2742 112.748 35.293C112.795 35.3262 112.844 35.3627 112.889 35.4102C112.963 35.4898 113.062 35.6214 113.1 35.8086C113.14 36.0106 113.096 36.2003 113.018 36.3477C112.954 36.4663 112.867 36.549 112.789 36.6113C112.765 36.7233 112.722 36.819 112.666 36.9043C112.701 37.0334 112.723 37.1873 112.684 37.3496C112.663 37.4347 112.629 37.5109 112.59 37.5781L112.449 37.7598C112.399 37.8105 112.34 37.8453 112.285 37.8828C112.312 37.9282 112.347 37.969 112.367 38.0176C112.413 38.127 112.486 38.3605 112.396 38.6328C112.345 38.7888 112.259 38.9056 112.162 38.9902L111.869 39.1602C111.714 39.2127 111.554 39.2569 111.395 39.2891C111.302 39.3075 111.21 39.2952 111.119 39.2949C111.138 39.3796 111.169 39.4823 111.166 39.5938C111.163 39.6961 111.132 40.1055 110.727 40.3145C110.462 40.4497 110.216 40.3924 110.076 40.3438C109.98 40.3941 109.871 40.4382 109.742 40.4434C109.645 40.4473 109.56 40.418 109.484 40.3965C109.401 40.4493 109.307 40.4979 109.197 40.5195C109.153 40.5281 109.11 40.5178 109.068 40.5195C109.064 40.5303 109.067 40.544 109.062 40.5547C109.027 40.6372 108.934 40.828 108.734 40.9648C108.62 41.0434 108.469 41.1087 108.289 41.1113C108.113 41.1136 107.965 41.0553 107.861 40.9941C107.776 40.9438 107.71 40.8822 107.656 40.8242C107.597 40.8414 107.538 40.8783 107.469 40.8828C107.259 40.896 107.09 40.8226 106.953 40.7422C106.914 40.7501 106.875 40.7642 106.836 40.7715C106.724 40.7923 106.614 40.7821 106.508 40.7715C106.387 40.8662 106.225 40.9603 106.01 40.9707C105.83 40.9789 105.685 40.9244 105.564 40.8594C105.48 40.9254 105.36 40.9958 105.201 41.0234C105.019 41.0549 104.848 41.021 104.709 40.9531C104.698 40.9476 104.69 40.9355 104.68 40.9297C104.648 40.9355 104.614 40.9508 104.58 40.9531C104.221 40.9771 103.971 40.7802 103.842 40.6426L103.777 40.5898C103.7 40.5532 103.63 40.502 103.561 40.4551C103.543 40.4622 103.526 40.4719 103.508 40.4785L103.461 40.5078C103.512 40.4911 103.542 40.4722 103.549 40.4668L103.525 40.4961C103.398 40.6546 103.252 40.7994 103.086 40.918L102.641 41.1641C102.294 41.3038 101.964 41.2039 101.75 41.0352C101.701 40.9961 101.666 40.9441 101.627 40.9004C101.505 40.9268 101.377 40.9438 101.246 40.9121C101.068 40.8691 100.937 40.7759 100.848 40.6953C100.771 40.6261 100.705 40.5501 100.654 40.4727C100.532 40.5743 100.386 40.6692 100.197 40.707C100.206 40.7052 100.212 40.7024 100.215 40.7012C100.212 40.7028 100.206 40.7068 100.197 40.7129C100.08 40.7968 99.9148 40.8706 99.7109 40.877C99.5939 40.8804 99.4879 40.8579 99.3945 40.8242C99.2826 40.8928 99.1451 40.9364 98.9902 40.9473C98.7769 41.1088 98.4738 41.2416 98.1055 41.1348C98.0441 41.1168 97.9869 41.0834 97.9297 41.0586C97.8465 41.1004 97.7606 41.1451 97.6602 41.1641L97.373 41.1758C97.1209 41.1512 96.9133 41.0443 96.7461 40.918C96.5731 41.068 96.2847 41.2255 95.9082 41.0996C95.8606 41.0836 95.8193 41.0565 95.7793 41.0352C95.6508 41.0665 95.5051 41.0751 95.3516 41.0293C95.1067 40.956 94.9618 40.7909 94.8945 40.7012C94.8863 40.6901 94.8788 40.6772 94.8711 40.666C94.8553 40.6708 94.8403 40.6738 94.8242 40.6777C94.7731 40.7443 94.709 40.821 94.6191 40.8828C94.4047 41.03 94.102 41.0862 93.8105 40.9531C93.7027 40.9035 93.6166 40.8362 93.5527 40.7715C93.4788 40.8002 93.3991 40.8295 93.3066 40.8359C93.1387 40.8472 93.0008 40.799 92.8848 40.7422C92.803 40.8282 92.7208 40.9201 92.6094 40.9824C92.3989 41.0994 92.1318 41.132 91.8828 41.0293C91.809 40.9988 91.7549 40.9468 91.7012 40.9062V40.9121C91.5837 41.0059 91.4004 41.1023 91.168 41.1055C91.0515 41.107 90.9478 41.0812 90.8574 41.0469L90.6289 40.918C90.5915 40.8891 90.5634 40.8506 90.5293 40.8184C90.5019 40.843 90.4776 40.8719 90.4473 40.8945L90.2363 41.0176C90.0749 41.0904 89.8856 41.1201 89.6914 41.0762C89.5075 41.0339 89.3712 40.9356 89.2812 40.8535C89.2104 40.7888 89.1542 40.7151 89.1055 40.6426C89.0077 40.7107 88.8912 40.7779 88.7422 40.8008C88.709 40.8058 88.6739 40.7936 88.6426 40.7949C88.6367 40.8007 88.637 40.8127 88.6309 40.8184C88.5465 40.8961 88.4035 40.9976 88.2031 41.0293C87.9892 41.0628 87.7967 41.0021 87.6582 40.918C87.5612 40.8585 87.4911 40.7827 87.4355 40.7129C87.3121 40.7672 87.1774 40.8001 87.0137 40.7891L86.9141 40.7949C86.9438 40.7998 86.9775 40.7995 87.0078 40.7949L86.791 40.8594C86.694 40.8746 86.5909 40.8816 86.4863 40.8652C86.3059 40.8368 86.1588 40.7561 86.041 40.6719C85.9902 40.6686 85.9395 40.6641 85.8887 40.6602C85.7634 40.7288 85.6376 40.8037 85.4961 40.8418C85.1576 40.9321 84.8752 40.8262 84.6699 40.6836C84.612 40.6922 84.5538 40.6941 84.4941 40.6953C84.2968 40.8085 84.0476 40.8769 83.7734 40.7891C83.6834 40.76 83.6129 40.7058 83.5449 40.6602C83.4549 40.7802 83.322 40.9377 83.1055 41.0176C82.9666 41.0688 82.8346 41.0662 82.7129 41.0527C82.6865 41.0679 82.6665 41.0984 82.6367 41.1113C82.377 41.2239 82.1019 41.191 81.8867 41.0645C81.7622 40.9912 81.6761 40.8966 81.6172 40.8184C81.5269 40.8426 81.4291 40.8713 81.3184 40.8594L81.3066 40.8535C81.199 40.9554 81.0444 41.0844 80.8262 41.1172L80.5332 41.1113C80.5387 41.1123 80.5484 41.1116 80.5566 41.1113C80.5644 41.111 80.571 41.1063 80.5742 41.1055C80.01 41.2499 79.6853 40.8067 79.6133 40.6953C79.5799 40.6438 79.5642 40.582 79.5371 40.5254C79.5328 40.534 79.5357 40.5462 79.5312 40.5547C79.4871 40.6382 79.4072 40.7723 79.2734 40.8828C79.1208 41.0086 78.8634 41.1317 78.5527 41.0586C78.4185 41.0269 78.3122 40.9637 78.2305 40.9004L77.9668 40.6367C77.9042 40.6657 77.8417 40.7114 77.7617 40.7246C77.598 40.7514 77.4538 40.7244 77.334 40.6777C77.2507 40.7599 77.1337 40.8442 76.9766 40.8887C76.7678 40.9475 76.5904 40.9148 76.4492 40.8535C76.3437 40.952 76.1904 41.0557 75.9746 41.0762C75.5861 41.1121 75.359 40.869 75.2598 40.7422C75.1081 40.73 74.9867 40.6832 74.8848 40.6191C74.8683 40.6459 74.8635 40.6808 74.8438 40.707C74.7709 40.8039 74.5455 41.0585 74.1582 41.0527C73.7805 41.0464 73.5667 40.7966 73.4961 40.7012C73.4462 40.6333 73.4152 40.5558 73.3848 40.4902C73.3555 40.4855 73.326 40.4852 73.2969 40.4785C73.1537 40.5092 73.0286 40.5046 72.9102 40.4785C72.9019 40.4853 72.9011 40.5013 72.8926 40.5078C72.754 40.6134 72.5706 40.6765 72.3711 40.6836L72.3535 40.7188C72.3018 40.8022 72.2038 40.9393 72.043 41.041C71.8513 41.1622 71.5894 41.2162 71.3223 41.123C71.261 41.1017 71.2124 41.0648 71.1641 41.0352C71.0603 41.1196 70.9093 41.2126 70.707 41.2344C70.4796 41.2583 70.2846 41.1916 70.1445 41.0996C70.069 41.0498 70.0058 40.9887 69.9512 40.9297C69.7529 40.9657 69.5837 40.9161 69.4414 40.8418C69.4279 40.8451 69.4144 40.8566 69.4004 40.8594C69.2852 40.882 69.18 40.8706 69.084 40.8535L68.7793 41.0352C68.5062 41.1307 68.221 41.1195 67.959 41.0117C67.8429 40.9638 67.7438 40.8873 67.6426 40.8184C67.5741 40.8197 67.5112 40.8084 67.4492 40.7949C67.3667 40.8868 67.2597 41.009 67.0918 41.0703L66.793 41.1172C66.7155 41.1165 66.6362 41.1181 66.5586 41.123L66.4238 41.1465C66.1831 41.2149 65.9659 41.1582 65.7969 41.0645C65.774 41.0811 65.7578 41.108 65.7324 41.123C65.5431 41.235 65.2937 41.2832 65.041 41.1992C64.9067 41.1541 64.8059 41.0807 64.7305 41.0117C64.59 41.0852 64.42 41.1457 64.2031 41.1055C63.9751 41.0631 63.8178 40.9396 63.7285 40.8477L63.5352 40.5723C63.5231 40.5497 63.5058 40.5286 63.4941 40.5078C63.454 40.5526 63.4153 40.6022 63.3652 40.6426C63.2642 40.724 63.127 40.7882 62.9668 40.8242C62.853 40.949 62.6775 41.1075 62.4043 41.1406C62.0511 41.1827 61.8059 41.0044 61.666 40.8652C61.5881 40.9317 61.4948 41.0045 61.3672 41.041C60.9385 41.1627 60.6446 40.903 60.5293 40.7715L60.2598 40.7129C60.2492 40.7086 60.2406 40.7 60.2305 40.6953C60.1677 40.748 60.0999 40.8044 60.0137 40.8418C59.8334 40.9198 59.624 40.933 59.4219 40.8711C59.3871 40.8604 59.359 40.838 59.3281 40.8242C59.2423 40.8392 59.1533 40.8368 59.0586 40.8242C58.9826 40.8844 58.8886 40.9524 58.7656 40.9883C58.528 41.057 58.3348 41.0059 58.1797 40.9297C58.156 40.9359 58.1345 40.9545 58.1094 40.959C57.8607 41.003 57.6499 40.9288 57.4824 40.8301C57.3986 40.8752 57.3022 40.9183 57.1836 40.9297C56.9861 40.9483 56.8298 40.8896 56.709 40.8184C56.6592 40.8295 56.608 40.8464 56.5508 40.8477C56.4477 40.8498 56.3557 40.8279 56.2754 40.8008C56.1798 40.8427 56.0691 40.8805 55.9355 40.877C55.7344 40.8713 55.5829 40.7897 55.4727 40.707C55.342 40.7747 55.1823 40.8392 54.9863 40.8125C54.8101 40.7885 54.679 40.7066 54.582 40.6309C54.5604 40.6654 54.554 40.7096 54.5293 40.7422C54.4557 40.8389 54.301 41.0138 54.0605 41.0938L53.7852 41.1348C53.3923 41.1343 53.1097 40.9162 52.9414 40.7305C52.8789 40.6615 52.8161 40.5914 52.7539 40.5195C52.7232 40.5289 52.6933 40.5426 52.6602 40.5488C52.6239 40.6389 52.5964 40.7326 52.5488 40.8125C52.4848 40.9199 52.268 41.2663 51.8281 41.3047C51.6883 41.3168 51.5638 41.2923 51.459 41.252L51.207 41.1055C51.1222 41.1362 51.0391 41.1677 50.9492 41.1699L50.5918 41.0996C50.4076 41.0176 50.2848 40.8829 50.1992 40.7715C50.146 40.8287 50.0754 40.8958 49.9766 40.9473C49.795 41.0413 49.5692 41.07 49.3496 40.9941C49.2293 40.9523 49.1404 40.8837 49.0742 40.8242C49.0563 40.836 49.0402 40.8519 49.0215 40.8652C48.8915 40.9584 48.7202 41.0368 48.5176 41.0586C48.4385 41.067 48.3628 41.0563 48.2891 41.0469C48.2704 41.0587 48.2556 41.0768 48.2363 41.0879L47.9434 41.2168C47.5987 41.327 47.3183 41.2024 47.1406 41.0645C47.0863 41.0848 47.0337 41.1185 46.9707 41.1289C46.6374 41.1832 46.3692 41.0405 46.209 40.9004C46.0621 40.7716 45.9602 40.6135 45.8926 40.4844C45.8073 40.4757 45.7332 40.4451 45.6582 40.4199C45.6209 40.4422 45.5898 40.4781 45.5469 40.4961C45.3076 40.5959 45.064 40.5688 44.8496 40.4785H44.832C44.7727 40.5775 44.711 40.6924 44.6152 40.7832C44.5093 40.8831 44.3462 40.9944 44.1348 41.0352L43.9121 41.0469C43.6385 41.03 43.4376 40.8968 43.2852 40.7598C43.1749 40.7905 43.0699 40.7921 42.9688 40.7832C42.8748 40.8918 42.7306 41.0285 42.5 41.0703C42.0779 41.1458 41.8206 40.878 41.7207 40.7539C41.6368 40.8437 41.5233 40.9626 41.3516 41.0234L41.0996 41.0703C40.9427 41.0776 40.7974 41.045 40.6602 41C40.4159 41.0869 40.1399 41.0898 39.875 40.9648L39.4062 40.6426L39.3945 40.6309L39.2773 40.7832C39.1228 40.9351 38.8316 41.1163 38.4512 41.0352C38.3384 41.0111 38.2456 40.9632 38.1641 40.9121C38.0474 40.9262 37.9196 40.9298 37.7832 40.8828C37.7066 40.8563 37.6378 40.8228 37.5781 40.7832C37.4987 40.7933 37.4133 40.7996 37.3203 40.7832C37.2939 40.7785 37.2688 40.7607 37.2441 40.7539L37.0625 40.9004C36.7606 41.0495 36.4299 41.0092 36.1777 40.8477C36.1553 40.8332 36.1397 40.8106 36.1191 40.7949C36.0183 40.9179 35.8558 41.0863 35.5977 41.1465C35.3432 41.2051 35.1342 41.1223 34.9707 41.0293C34.8446 41.0311 34.7169 41.0126 34.6016 40.959C34.4807 40.9024 34.3918 40.8237 34.3262 40.7539C34.2074 40.8072 34.0654 40.8485 33.8984 40.8301C33.8862 40.8287 33.8752 40.8202 33.8633 40.8184L33.7754 40.9355C33.6576 41.0471 33.4348 41.1921 33.1309 41.1699C32.9975 41.1602 32.888 41.1142 32.7969 41.0645C32.6749 41.1177 32.5255 41.1548 32.3516 41.1289C32.2029 41.1067 32.0849 41.0466 31.9941 40.9824C31.9565 40.9997 31.9253 41.0341 31.8828 41.0469C31.7223 41.095 31.5691 41.0955 31.4316 41.0645L31.0742 40.9004L31.0098 40.8594C30.7357 40.7737 30.5566 40.5771 30.4297 40.4023C30.4027 40.4619 30.3808 40.5298 30.3418 40.5898C30.2861 40.6753 30.1594 40.8457 29.9316 40.9414C29.638 41.0642 29.3444 41.0015 29.1406 40.8594C29.1256 40.8489 29.1134 40.8352 29.0996 40.8242C29.0127 40.8618 28.9249 40.8984 28.8242 40.9121C28.7215 41.0094 28.5701 41.1241 28.3438 41.1465C27.9617 41.1838 27.7162 40.9582 27.623 40.8477C27.5864 40.8042 27.5676 40.751 27.541 40.707C27.4553 40.736 27.3657 40.7437 27.2656 40.7422C27.1185 40.8506 26.8962 40.9461 26.627 40.9004C26.5262 40.883 26.4424 40.8409 26.3691 40.8008C26.3518 40.8155 26.3416 40.8396 26.3223 40.8535C26.2244 40.9237 26.0822 40.9919 25.9062 41.0059C25.7284 41.0196 25.571 40.9736 25.4492 40.9062C25.3655 40.8595 25.3038 40.7928 25.25 40.7363C25.1967 40.7827 25.1335 40.8335 25.0566 40.8711C24.8601 40.9667 24.6247 40.9872 24.4004 40.9062C24.2088 40.837 24.0861 40.7113 24.0137 40.625C23.8606 40.6971 23.6824 40.7464 23.4863 40.7246C23.2901 40.7023 23.1309 40.6206 23.0059 40.5312L22.8125 40.6367L22.5488 40.7305C22.3488 40.8108 22.1265 40.8303 21.9102 40.7656C21.8733 40.7546 21.844 40.7272 21.8105 40.7129C21.7229 40.7449 21.63 40.7704 21.5293 40.7773L21.2539 40.7598C21.1058 40.7292 20.9802 40.6634 20.873 40.5898C20.826 40.6046 20.7812 40.6178 20.7324 40.625C20.621 40.743 20.4595 40.8799 20.2168 40.918C19.9984 40.952 19.8189 40.9008 19.6777 40.8242C19.666 40.8329 19.661 40.8511 19.6484 40.8594C19.441 40.9961 19.1508 41.0481 18.8691 40.9297L18.8633 40.9238C18.7859 40.9705 18.6927 41.0136 18.582 41.0352C18.3589 41.0784 18.1544 41.0259 17.9961 40.9355C17.8358 40.8441 17.7316 40.7107 17.6562 40.5957C17.6136 40.61 17.5685 40.6109 17.5215 40.6191L17.3633 40.7949C17.2908 40.8863 17.1418 41.0467 16.8945 41.1113C16.6054 41.1868 16.3506 41.093 16.1855 40.9707C16.1667 40.9567 16.1556 40.9327 16.1387 40.918C16.0117 40.928 15.8883 40.9163 15.7754 40.8711C15.7222 40.8498 15.6834 40.8111 15.6406 40.7832C15.5949 40.7928 15.5461 40.8111 15.4941 40.8125C15.4593 40.8134 15.4268 40.798 15.3945 40.7949C15.2859 40.8955 15.1043 41.0224 14.8438 41.0293C14.5444 41.0368 14.3317 40.8911 14.2227 40.7832L14.2285 40.7715C14.15 40.8339 14.055 40.8971 13.9297 40.9297C13.7135 40.9858 13.5324 40.9445 13.3906 40.877L13.2266 40.959C12.9648 41.0346 12.7299 40.9635 12.541 40.8594C12.4813 40.8756 12.4172 40.8929 12.3477 40.8945C12.298 40.8956 12.2525 40.8782 12.207 40.8711C12.1206 40.9653 12.0119 41.0852 11.8438 41.1406L11.4922 41.1758C11.3945 41.1653 11.2969 41.1517 11.1992 41.1406C10.9611 41.1135 10.749 41.0257 10.5723 40.9062C10.5495 40.8908 10.5351 40.8645 10.5137 40.8477C10.4701 40.8618 10.4233 40.8816 10.373 40.8887C10.079 40.9291 9.86646 40.7946 9.73438 40.6836V40.6895L9.35352 40.8008C8.99939 40.8457 8.73667 40.6728 8.5918 40.5312C8.5677 40.5077 8.5488 40.48 8.52734 40.4551C8.43822 40.4837 8.3485 40.501 8.25195 40.5078C8.23511 40.534 8.20988 40.565 8.1875 40.6074C8.1216 40.7324 7.99201 40.9514 7.75391 41.0879C7.61664 41.1664 7.43727 41.2174 7.23828 41.1992C7.20065 41.1957 7.16737 41.1776 7.13281 41.1699C6.97914 41.2261 6.80011 41.261 6.59961 41.2051C6.40401 41.1504 6.26519 41.0335 6.16602 40.9297C6.11169 40.9184 6.05382 40.9165 6.00195 40.8945C5.91644 40.8581 5.84373 40.8136 5.78516 40.7656C5.61834 40.8067 5.43302 40.8193 5.24609 40.7305C5.22657 40.7211 5.21127 40.7056 5.19336 40.6953C5.15557 40.7195 5.12748 40.7633 5.08203 40.7832C4.87075 40.8757 4.52729 40.9115 4.23242 40.666C4.01898 40.488 3.95361 40.2577 3.93359 40.168C3.92283 40.1195 3.92106 40.0685 3.91602 40.0215H3.9043L3.66406 39.9805C3.48155 39.9276 3.31755 39.8248 3.18359 39.6758C3.09729 39.7053 3.00709 39.7403 2.91406 39.752C2.80301 39.7656 2.63627 39.7672 2.45703 39.6992C2.35453 39.6603 2.2612 39.6023 2.18164 39.5293L1.98828 39.2715C1.82997 38.9433 1.90526 38.6186 1.98828 38.3809C1.88592 38.3379 1.75624 38.2711 1.64844 38.1406C1.4689 37.922 1.43408 37.6582 1.47852 37.4434L1.48438 37.4316C1.4079 37.3299 1.33702 37.2095 1.31445 37.0566C1.30761 37.0101 1.31974 36.9649 1.32031 36.9219C1.2865 36.8672 1.24326 36.8117 1.2207 36.7402C1.16468 36.5621 1.18853 36.3973 1.23242 36.2539C1.22061 36.2352 1.19631 36.2218 1.18555 36.2012C1.06096 35.962 1.07556 35.7027 1.17383 35.4863C1.03845 35.3179 0.906752 35.1019 0.921875 34.8066L0.962891 34.5547C0.978762 34.5021 1.00514 34.4554 1.02734 34.4082C0.984499 34.2824 0.956817 34.1383 0.992188 33.9688C1.0162 33.8538 1.06233 33.758 1.11523 33.6758C1.04433 33.5643 0.967019 33.4171 0.974609 33.2246C0.975838 33.1935 0.993632 33.1655 0.998047 33.1367C0.98209 33.1209 0.954905 33.1134 0.939453 33.0957C0.832823 32.973 0.712183 32.7628 0.728516 32.4863L0.816406 32.1055C0.86399 31.9885 0.927989 31.8818 0.998047 31.7891L1.0625 31.6777C1.15347 31.4465 1.30412 31.2611 1.46094 31.1152L1.47852 31.1035C1.45411 31.0291 1.44235 30.9505 1.4375 30.8633C1.339 30.6901 1.2709 30.4737 1.31445 30.2305C1.33967 30.09 1.40386 29.9764 1.4668 29.8789C1.41084 29.7711 1.35864 29.6392 1.36133 29.4805C1.36419 29.3363 1.40979 29.2169 1.46094 29.1172C1.44562 29.0654 1.43153 29.0158 1.42578 28.9648C1.32507 28.8732 1.21991 28.7502 1.16211 28.5781C1.06744 28.2935 1.14107 28.0566 1.24414 27.8809C1.17426 27.7614 1.11754 27.6105 1.13281 27.418C1.06565 27.3569 0.985056 27.2809 0.927734 27.1719C0.823738 26.974 0.79527 26.7281 0.880859 26.4922L1.00977 26.2227C1.00222 26.1718 0.97788 26.121 0.980469 26.0645C0.990095 25.8646 1.07555 25.7114 1.15625 25.6016C1.11886 25.5452 1.06573 25.4909 1.03906 25.4199C0.94949 25.1791 0.976366 24.9429 1.0625 24.7461C1.03401 24.7066 0.997716 24.6701 0.974609 24.623C0.889774 24.4496 0.859221 24.2378 0.916016 24.0254C0.968749 23.8304 1.08211 23.6928 1.16797 23.6094L1.2207 23.5684C1.19979 23.5382 1.16249 23.5148 1.14453 23.4805C1.06407 23.3253 1.02431 23.1299 1.0625 22.9238C1.09906 22.7294 1.19504 22.5846 1.2793 22.4902L1.40234 22.373C1.36512 22.3541 1.31985 22.3477 1.28516 22.3262C1.18615 22.2644 0.799918 21.9929 0.845703 21.4941L0.851562 21.5176C0.750572 21.244 0.755426 20.9524 0.863281 20.6855L1.04492 20.3809C1.03163 20.268 1.0276 20.1465 1.06836 20.0176C1.10466 19.9032 1.17136 19.8151 1.23242 19.7363C1.15711 19.6816 1.07339 19.6262 1.00977 19.543C0.91005 19.4124 0.817052 19.2115 0.833984 18.9629C0.850291 18.7283 0.956734 18.554 1.05078 18.4473C1.09209 18.278 1.16203 18.1367 1.25586 18.0254H1.25C1.14686 17.7971 1.14983 17.5376 1.25586 17.3164C1.27162 17.2836 1.29628 17.2569 1.31445 17.2285C1.22637 17.1147 1.14572 16.9799 1.10352 16.8184C1.0668 16.677 1.07348 16.543 1.09766 16.4199C0.975691 16.3085 0.820371 16.1347 0.78125 15.8691C0.70822 15.3651 1.07699 15.0774 1.19727 14.9961C1.30651 14.9226 1.43836 14.8788 1.56055 14.832C1.40517 14.6758 1.20659 14.3833 1.30859 13.9883C1.29693 13.9801 1.27908 13.9796 1.26758 13.9707C1.16058 13.8879 0.872145 13.617 0.945312 13.1797C0.96965 13.0354 1.03186 12.9229 1.09766 12.834C1.09273 12.7963 1.07954 12.7582 1.08008 12.7168C1.08132 12.6248 1.10241 12.5438 1.12695 12.4707C1.07514 12.3928 1.01562 12.308 0.986328 12.2012C0.871165 11.7788 1.10625 11.4955 1.26758 11.3457C1.13067 11.203 0.957726 10.9571 0.998047 10.6133C1.00575 10.5487 1.03205 10.4927 1.05078 10.4375C0.999809 10.3084 0.961462 10.1568 0.998047 9.97461C1.01764 9.87835 1.05787 9.79887 1.09766 9.72852C1.0912 9.70116 1.07231 9.67588 1.06836 9.64648C1.04055 9.4378 1.09486 9.26656 1.16797 9.13086L1.13281 9.11328C1.04733 9.04306 0.924381 8.92019 0.851562 8.73242C0.769173 8.51964 0.774871 8.28949 0.863281 8.08789C0.91919 7.96131 1.0035 7.86884 1.07422 7.80078C1.08146 7.68959 1.10313 7.58188 1.15039 7.48438C1.19243 7.39768 1.24529 7.32357 1.30273 7.26172C1.17721 7.15375 1.00002 6.96679 0.998047 6.6582C0.996913 6.41407 1.10454 6.24241 1.20898 6.125C1.20311 6.04903 1.2019 5.98032 1.21484 5.91406C1.11311 5.75801 1.00367 5.52251 1.11523 5.2168C1.18582 5.02396 1.31211 4.90446 1.39648 4.8418C1.40221 4.83756 1.40836 4.83409 1.41406 4.83008C1.41532 4.73376 1.42252 4.62927 1.46094 4.52539L1.63672 4.20898L1.64258 4.20312C1.61767 3.99121 1.62083 3.75001 1.77148 3.51758L1.88281 3.33008C1.88496 3.32246 1.88623 3.30492 1.88867 3.27734L1.93555 3.05469C1.96235 2.97759 2.0015 2.89722 2.05859 2.82031C2.17817 2.66004 2.34101 2.56559 2.49219 2.51562C2.60914 2.47721 2.72272 2.46663 2.82617 2.46875C2.82428 2.41701 2.8132 2.36197 2.82031 2.30469C2.83892 2.1581 2.92562 1.81625 3.28906 1.64844C3.3869 1.60352 3.48332 1.58438 3.57031 1.57812C3.58536 1.55863 3.59365 1.53273 3.61133 1.51367C3.82963 1.27842 4.12455 1.22564 4.36133 1.26758C4.48723 1.28992 4.58723 1.34514 4.66602 1.39062C4.77964 1.21634 4.91965 1.04634 5.11133 0.921875L5.31641 0.822266C5.3928 0.796275 5.47731 0.778798 5.56836 0.775391C5.75122 0.768661 5.9114 0.823166 6.03711 0.892578C6.22345 0.995737 6.34188 1.15106 6.42383 1.27344C6.5772 1.23601 6.71641 1.23803 6.8457 1.27344C6.90004 1.25205 6.95302 1.22095 7.01562 1.20898C7.1308 1.18708 7.24373 1.18584 7.34961 1.20312L7.64258 1.30273L7.96484 1.54297C7.98231 1.54183 7.99957 1.5314 8.01758 1.53125C8.15707 1.53027 8.28004 1.56791 8.38672 1.61328C8.45492 1.54499 8.52881 1.48191 8.60938 1.42578L8.78516 1.32617C8.93843 1.26222 9.11454 1.24231 9.30078 1.2793C9.31585 1.26786 9.32567 1.24903 9.3418 1.23828C9.46703 1.15532 9.64118 1.08787 9.8457 1.0918C10.0479 1.09575 10.2133 1.16718 10.332 1.25L10.3262 1.25586C10.4714 1.27956 10.5911 1.32577 10.6895 1.39062C10.696 1.38581 10.7002 1.37775 10.707 1.37305C10.8424 1.27981 11.0206 1.21778 11.2168 1.22656C11.2954 1.11431 11.4068 0.981925 11.5742 0.892578L11.8086 0.804688C11.8926 0.786943 11.9833 0.782964 12.0781 0.792969C12.2641 0.812613 12.4113 0.889831 12.5176 0.96875C12.5647 1.0038 12.5968 1.05216 12.6348 1.0918C12.6848 1.03591 12.7305 0.969217 12.7988 0.921875C12.9188 0.83884 13.0882 0.766236 13.291 0.763672C13.3937 0.76246 13.4883 0.782709 13.5723 0.810547L13.7891 0.916016L13.9766 1.02148C14.0474 1.05415 14.0983 1.11305 14.1582 1.15625C14.2936 1.05649 14.4465 0.964174 14.627 0.916016L14.9199 0.869141C14.9668 0.866517 15.0134 0.872984 15.0605 0.875C15.2419 0.770952 15.4546 0.706851 15.6816 0.728516L15.9512 0.792969ZM98.1758 40.8887C98.1704 40.8933 98.1637 40.8958 98.1582 40.9004C98.2182 40.8694 98.2571 40.8368 98.2695 40.8242L98.1758 40.8887ZM96.3066 40.6426C96.3238 40.625 96.3398 40.6118 96.3477 40.6016C96.3581 40.5877 96.3628 40.5764 96.3652 40.5723L96.3066 40.6426ZM47.7617 40.4902C47.7655 40.4855 47.7707 40.4822 47.7734 40.4785C47.7897 40.4566 47.7956 40.44 47.7969 40.4375C47.7873 40.4556 47.7722 40.4717 47.7617 40.4902ZM73.2969 40.4785L73.3086 40.4844C73.327 40.4842 73.3434 40.4817 73.3555 40.4785H73.2969ZM53.8262 40.2969C53.8498 40.3213 53.8953 40.3593 53.9609 40.3965C53.9114 40.359 53.8604 40.3324 53.8262 40.2969ZM66.6992 40.1387C66.7022 40.144 66.7095 40.1513 66.7168 40.1621C66.7108 40.15 66.7046 40.1385 66.6992 40.127V40.1387ZM95.0879 39.793C95.0714 39.8139 95.0616 39.8287 95.0586 39.834L95.1172 39.7637C95.1063 39.7753 95.0943 39.7849 95.0879 39.793ZM7.6543 39.8047C7.62527 39.7858 7.59134 39.7628 7.54883 39.7461C7.58565 39.766 7.62236 39.7823 7.6543 39.8047ZM11.8262 39.623C11.8022 39.6521 11.789 39.6747 11.7852 39.6816L11.832 39.6113L11.8262 39.623ZM69.5703 2.84375C69.482 2.87003 69.3824 2.88618 69.2715 2.87891C69.0468 2.8638 68.882 2.75968 68.7617 2.65625C68.7264 2.68055 68.6954 2.7119 68.6562 2.73242C68.6248 2.74884 68.5792 2.78042 68.5215 2.83203C68.3885 2.95125 68.1785 3.07757 67.9062 3.08984C67.7847 3.09504 67.6768 3.06991 67.5781 3.03711C67.4542 3.0849 67.3197 3.12094 67.1738 3.125C66.9826 3.12989 66.8066 3.0762 66.6465 3.00781C66.5669 3.05797 66.4708 3.10827 66.3535 3.13086C66.1082 3.17785 65.8891 3.1089 65.7324 3.00781C65.6619 2.96205 65.6138 2.89388 65.5625 2.83789C65.554 2.84144 65.5478 2.85212 65.5391 2.85547C65.3548 2.92579 65.1658 2.91908 64.9824 2.87305C64.7542 2.92585 64.5445 2.88794 64.373 2.79688C64.3258 2.84303 64.2768 2.89739 64.209 2.9375C64.0632 3.02345 63.8859 3.04481 63.6992 3.02539C63.5608 3.1332 63.3872 3.22957 63.166 3.24805C63.051 3.25764 62.9356 3.2591 62.8203 3.25977C62.351 3.26231 62.0569 2.94242 61.918 2.75C61.8898 2.74286 61.8624 2.73638 61.8359 2.73242C61.7691 2.72239 61.7126 2.68926 61.6543 2.66797L61.6367 2.69727C61.5586 2.78336 61.4589 2.86802 61.3438 2.94336L60.9395 3.11328C60.5423 3.19391 60.2464 2.98929 60.1016 2.83789C60.0326 2.76553 59.9791 2.68293 59.9316 2.60352L59.8145 2.375L59.8086 2.36328L59.709 2.51562C59.6625 2.59663 59.585 2.70647 59.4746 2.80273C59.3594 2.90296 59.1682 3.01887 58.9121 3.01953C58.772 3.01967 58.6544 2.97901 58.5547 2.93164C58.2866 2.99319 58.0375 2.92272 57.8691 2.79102C57.8204 2.75284 57.7876 2.70323 57.752 2.66211C57.7005 2.66562 57.6488 2.68044 57.5938 2.67383C57.5151 2.66422 57.4468 2.6348 57.3828 2.60938C57.312 2.65284 57.2301 2.6973 57.1309 2.7207C56.9067 2.77328 56.6943 2.73002 56.5273 2.63867C56.4426 2.59222 56.3878 2.51742 56.3281 2.45703C56.2556 2.48132 56.1779 2.48688 56.0938 2.49219L55.8887 2.67969C55.7928 2.74259 55.6677 2.79377 55.5137 2.80859C55.1813 2.84017 54.9468 2.67156 54.834 2.55664C54.8019 2.52374 54.7829 2.47912 54.7578 2.44531C54.705 2.48557 54.6612 2.54389 54.5938 2.57422C54.523 2.60596 54.4446 2.62076 54.3652 2.63281C54.3091 2.70929 54.2462 2.79014 54.1602 2.85547C54.0424 2.94442 53.8681 3.03238 53.6504 3.03711C53.5267 3.0397 53.4179 3.01026 53.3223 2.97266L53.3105 2.99023C53.1785 3.07316 52.9955 3.13391 52.7832 3.10742C52.5802 3.08199 52.4328 2.98678 52.3438 2.9082C52.3158 2.8835 52.2966 2.85231 52.2734 2.82617C52.1875 2.84003 52.0935 2.84894 51.9922 2.83203C51.8722 2.81187 51.7688 2.7665 51.6758 2.71484C51.6461 2.74675 51.6281 2.79075 51.5938 2.82031C51.4546 2.93991 51.2417 3.06381 50.9668 3.06641C50.8679 3.06729 50.779 3.03564 50.6914 3.01367C50.5882 3.09556 50.4689 3.17179 50.3281 3.21875C49.9607 3.34059 49.6145 3.23879 49.3613 3.05469C49.2411 2.96688 49.141 2.85872 49.0566 2.74414L48.8457 2.39258C48.8386 2.37831 48.8291 2.36467 48.8223 2.35156L48.7109 2.38086C48.6881 2.38275 48.6632 2.37441 48.6406 2.375C48.6367 2.38157 48.6389 2.39191 48.6348 2.39844C48.5826 2.48155 48.4836 2.60944 48.3301 2.70898C48.1703 2.81209 47.9598 2.8527 47.7266 2.80859C47.7055 2.82057 47.6907 2.84472 47.668 2.85547C47.5562 2.90809 47.4335 2.93729 47.3105 2.94336L46.9414 2.88477C46.9026 2.87026 46.8716 2.83829 46.8359 2.82031C46.73 2.8714 46.6026 2.91429 46.4492 2.9082C46.1653 2.8963 45.9754 2.74199 45.875 2.63867C45.7555 2.72944 45.6031 2.82256 45.4004 2.84375C45.1135 2.87306 44.8739 2.76826 44.7148 2.64453L44.6914 2.62109L44.4805 2.57422C44.385 2.55904 44.2888 2.54848 44.1934 2.5332C44.1996 2.53406 44.2092 2.53371 44.2168 2.5332L44.2285 2.52734C44.1493 2.55029 44.0729 2.54734 44 2.55078C43.9472 2.63665 43.7703 2.91533 43.4023 2.9668C42.9944 3.02378 42.7489 2.76441 42.6523 2.64453C42.5669 2.71442 42.4553 2.78683 42.3066 2.82031C42.0559 2.8765 41.8487 2.79654 41.6973 2.70312C41.6814 2.70738 41.6668 2.71718 41.6504 2.7207L41.3574 2.73828L41.0527 2.70898L40.7422 2.67383C40.7043 2.66882 40.6724 2.6413 40.6367 2.63281C40.6316 2.64169 40.6302 2.65312 40.625 2.66211C40.5635 2.76934 40.3641 3.09542 39.957 3.16602C39.7693 3.19826 39.6127 3.15867 39.4824 3.10156C39.4393 3.11415 39.3959 3.13041 39.3477 3.13672C39.1253 3.16563 38.9438 3.09569 38.7969 3.01367C38.6503 3.07696 38.4774 3.12493 38.2812 3.07812C38.1806 3.0537 38.0999 3.00015 38.0293 2.95508C37.8989 3.00427 37.7476 3.04043 37.5723 3.00195C37.4736 2.98001 37.3966 2.92767 37.3262 2.88477C37.1987 2.95736 37.0361 3.02011 36.8281 2.99023C36.5944 2.95595 36.4399 2.82873 36.3418 2.7207C36.3155 2.74803 36.2957 2.7832 36.2656 2.80859C36.1452 2.91017 35.9698 3.00774 35.7559 3.03125L35.5273 3.02539C35.4161 3.00909 35.3167 2.97614 35.2285 2.93164C35.0695 3.08336 34.8137 3.26864 34.4375 3.17188C34.4119 3.16527 34.3907 3.14514 34.3672 3.13672C34.2227 3.21384 34.0549 3.27152 33.8691 3.25391L33.623 3.18945C33.5254 3.15033 33.4417 3.09601 33.3652 3.03711C33.1892 3.0853 33.0343 3.07974 32.8965 3.03711C32.7392 3.08839 32.5508 3.10438 32.3457 3.03125C32.2686 3.00353 32.2003 2.9667 32.1406 2.92578C32.1192 2.92892 32.0987 2.94174 32.0762 2.94336C31.9176 2.9547 31.7815 2.91717 31.666 2.86719C31.6406 2.89054 31.6201 2.92164 31.5898 2.94336C31.4056 3.07529 31.1325 3.16049 30.8398 3.06055C30.7205 3.01934 30.6247 2.95372 30.5527 2.89062L30.4004 2.7207L30.3887 2.70898C30.3764 2.704 30.3655 2.69672 30.3535 2.69141C30.2252 2.8496 30.0576 3.02146 29.8145 3.10742C29.5645 3.19569 29.3148 3.18723 29.0938 3.10742L28.8242 2.97266C28.6232 2.92755 28.4747 2.82046 28.3672 2.7207C28.323 2.74782 28.2872 2.79437 28.2324 2.81445C28.0466 2.88239 27.8749 2.8699 27.7285 2.82617C27.5801 2.89195 27.3943 2.93796 27.1777 2.87305C27.1564 2.86659 27.1389 2.85151 27.1191 2.84375C27.0458 2.92108 26.9596 3.00093 26.8438 3.05469C26.6526 3.14334 26.4265 3.16361 26.2109 3.08984C26.1855 3.08107 26.1638 3.06513 26.1406 3.05469L26.0117 3.11914C25.6302 3.22782 25.3603 3.04177 25.1973 2.89062C25.1814 2.893 25.1669 2.90671 25.1504 2.9082C24.8499 2.93517 24.6451 2.78604 24.5234 2.67383C24.3835 2.80688 24.1735 2.95854 23.8613 2.93164C23.6758 2.91552 23.5338 2.83996 23.4219 2.75586C23.3322 2.8702 23.0877 3.1389 22.6719 3.08398C22.4486 3.05441 22.2974 2.93995 22.1973 2.83789C22.1697 2.83775 22.1384 2.84683 22.1094 2.84375C22.0339 2.83545 21.9653 2.82029 21.9043 2.79688L21.7168 2.89648C21.4709 2.98193 21.2398 2.94621 21.0547 2.86133L20.9199 2.94922C20.696 3.05389 20.437 3.06976 20.1934 2.97852C19.9766 2.89688 19.8251 2.74834 19.7305 2.63281C19.7022 2.65637 19.6769 2.68422 19.6484 2.70898C19.5561 2.78925 19.4179 2.87571 19.2383 2.91406C19.0493 2.95409 18.8626 2.93099 18.7051 2.86133C18.6987 2.8585 18.6937 2.85256 18.6875 2.84961C18.6811 2.85191 18.6765 2.85915 18.6699 2.86133C18.3841 2.95636 18.141 2.88497 17.9609 2.7793C17.8898 2.86322 17.7884 2.96256 17.6387 3.02539C17.3053 3.16465 16.99 3.05681 16.8008 2.90234C16.7662 2.87411 16.7405 2.83866 16.7129 2.80859C16.6674 2.85055 16.6233 2.90222 16.5605 2.9375C16.4429 3.00323 16.2883 3.05235 16.1152 3.04297C15.944 3.03337 15.8003 2.97016 15.6992 2.90234C15.5203 2.78183 15.4259 2.61505 15.3828 2.5332C15.3529 2.47611 15.3291 2.41607 15.3066 2.35742C15.2163 2.3699 15.1239 2.37579 15.0254 2.36328V2.36914L14.7559 2.61523C14.5866 2.77553 14.2732 2.94698 13.8887 2.83789C13.6946 2.78216 13.5588 2.66731 13.4609 2.5625L13.3906 2.67969C13.2935 2.80766 13.0642 3.05604 12.6816 3.07227C12.3947 3.0844 12.1968 2.94692 12.0605 2.82617C11.9831 2.90472 11.8768 2.98835 11.7324 3.03711C11.5354 3.10336 11.3612 3.08229 11.2168 3.03125C11.1116 3.11145 10.9676 3.19866 10.7773 3.21875C10.5718 3.24028 10.39 3.18304 10.25 3.10156C10.1138 3.02188 10.0126 2.91459 9.93945 2.81445C9.87083 2.86368 9.78864 2.91272 9.6875 2.94336C9.51066 2.99636 9.35684 2.97545 9.22461 2.9375C9.03249 3.13703 8.703 3.35892 8.25195 3.23047C8.15281 3.20219 8.06253 3.1595 7.97656 3.11328C7.83774 3.14747 7.68248 3.15388 7.51367 3.10156C7.3044 3.03658 7.16483 2.90353 7.06836 2.79102C7.0081 2.80509 6.94928 2.83667 6.88086 2.83789C6.8568 2.83831 6.83368 2.82168 6.81055 2.82031C6.70799 2.90171 6.58037 2.97984 6.41211 3.00781C6.18213 3.04596 5.99363 2.99081 5.84961 2.9082L5.55078 2.64453L5.54492 2.63867L5.35742 2.79102C5.18068 2.8864 4.98933 2.94317 4.78906 2.96094C4.75125 2.96429 4.71427 2.95595 4.67773 2.95508C4.61099 3.03973 4.52473 3.12273 4.40234 3.18359C4.34352 3.21267 4.28278 3.22861 4.22656 3.24219C4.16743 3.35967 4.08283 3.47201 3.94531 3.56445C3.79596 3.81965 3.56074 3.95726 3.33594 3.99805C3.29669 4.00517 3.25689 3.99547 3.21875 3.99805C3.1938 4.04836 3.16407 4.09566 3.13672 4.14453C3.16475 4.26447 3.18703 4.40246 3.16016 4.55469C3.13988 4.66937 3.09732 4.77227 3.04297 4.86523C3.06526 4.91148 3.09857 4.95584 3.11328 5.01172C3.18885 5.30108 3.09361 5.56807 2.93164 5.75586C2.93742 5.83195 2.93371 5.90319 2.91992 5.97266C2.94924 6.02924 2.97951 6.09186 2.99609 6.16602C3.02101 6.2781 3.00959 6.38641 2.99023 6.48828C3.03472 6.53211 3.0799 6.5815 3.11914 6.64062L3.23047 6.86914L3.27148 7.15625C3.27364 7.34047 3.22527 7.50893 3.14844 7.6543L3.01953 7.85352C2.92072 7.97448 2.79499 8.06825 2.66797 8.15234C2.66207 8.20386 2.6419 8.24982 2.62695 8.29883C2.72727 8.37647 2.83356 8.4817 2.9082 8.62695C2.98966 8.78577 3.03215 8.98169 2.99023 9.18945C2.97064 9.28614 2.93624 9.37014 2.89648 9.44141L2.76758 9.61719H2.76172C2.78703 9.71869 2.79576 9.83373 2.77344 9.96289C2.75332 10.0785 2.71004 10.1761 2.66211 10.2559C2.6684 10.2878 2.68276 10.3209 2.68555 10.3555C2.69173 10.4343 2.67416 10.5046 2.66211 10.5723C2.81619 10.6918 2.96252 10.831 3.07812 10.9941L3.21289 11.293C3.23984 11.4082 3.24597 11.537 3.21289 11.6738C3.154 11.9152 3.006 12.0716 2.91406 12.1484H2.90234C2.94632 12.2666 2.97196 12.4085 2.94336 12.5703C2.92956 12.6469 2.90736 12.7151 2.87891 12.7754C2.91866 12.9057 2.93712 13.0586 2.88477 13.2324L2.87891 13.2383L3.01953 13.4375L3.08398 13.6484C3.12152 13.8645 3.07283 14.082 2.9668 14.2637C2.97273 14.2759 2.98462 14.2864 2.99023 14.2988C3.04111 14.4116 3.08947 14.5243 3.13086 14.6387C3.17327 14.756 3.19492 14.8789 3.20117 15.002L3.16602 15.3711C3.10011 15.6255 2.92597 15.7771 2.79688 15.875C2.80088 15.8835 2.81066 15.8897 2.81445 15.8984C2.91769 16.1374 2.87702 16.3767 2.7793 16.5781C2.83333 16.6323 2.89579 16.6775 2.94336 16.7363L3.07812 16.959C3.1142 17.0466 3.14009 17.149 3.14258 17.2637C3.14719 17.4972 3.05509 17.6854 2.96094 17.8086C2.95047 17.8222 2.93092 17.8309 2.91992 17.8438L2.96094 18.0078L2.91992 18.377C2.85481 18.5797 2.70727 18.7128 2.58594 18.8223C2.59666 18.8323 2.61071 18.841 2.62109 18.8516C2.70509 18.9375 2.80711 19.0733 2.85547 19.2617C2.89614 19.4212 2.87515 19.5768 2.83203 19.7188C2.88319 20.032 2.76355 20.2697 2.62109 20.4453C2.62563 20.5062 2.63043 20.5718 2.62109 20.6387C2.58815 20.8714 2.4595 21.0325 2.35156 21.1484C2.50579 21.1981 2.67007 21.2582 2.80859 21.3477C2.89195 21.4018 3.02208 21.5043 3.11914 21.6641C3.17544 21.757 3.2194 21.8636 3.23633 21.9805L3.20117 22.3555C3.15947 22.4837 3.11338 22.6127 3.05469 22.7363C3.00347 22.8439 2.93248 22.9361 2.86133 23.0234C2.86818 23.032 2.87811 23.0381 2.88477 23.0469L3.02539 23.2988L3.08398 23.5449C3.10386 23.7822 3.02159 23.9995 2.90234 24.1602C2.84776 24.2333 2.77774 24.2896 2.71484 24.3418C2.7632 24.4718 2.79502 24.6204 2.76758 24.7812C2.75332 24.8634 2.72178 24.9335 2.69141 24.998C2.7062 25.0109 2.7238 25.0203 2.73828 25.0332L2.90234 25.2207C2.95586 25.3031 3.00278 25.4065 3.02539 25.5312C3.07529 25.8069 2.9793 26.0382 2.86719 26.1875C2.76597 26.3211 2.63909 26.4084 2.55664 26.457H2.54492L2.55078 26.4629C2.62472 26.5057 2.8844 26.6614 2.97266 26.9902C3.02198 27.1758 2.99242 27.3334 2.94336 27.4648C3.00659 27.5989 3.05447 27.7639 3.02539 27.9512C3.0018 28.0999 2.93107 28.2118 2.86719 28.3027C2.92321 28.4137 2.96063 28.5445 2.96094 28.6953C3.07423 28.8519 3.17813 29.069 3.11914 29.3574C3.11116 29.3964 3.08447 29.4278 3.07227 29.4629C3.13599 29.5944 3.1762 29.7517 3.16016 29.9258C3.15177 30.0163 3.13076 30.0989 3.10156 30.1719L2.99609 30.3594C2.96201 30.4079 2.91655 30.4475 2.87891 30.4941C2.88408 30.515 2.88068 30.5372 2.88477 30.5586C3.02775 30.6859 3.23069 30.9173 3.20703 31.2793C3.19343 31.4871 3.11315 31.6473 3.01953 31.7656L2.76172 32C2.64427 32.0776 2.54764 32.143 2.48047 32.2051C2.50499 32.2164 2.53274 32.2213 2.55664 32.2344C2.6165 32.2671 2.71412 32.3246 2.80273 32.4219C2.89532 32.5236 3.01577 32.7137 3.01367 32.9727C3.01294 33.0475 2.97832 33.1099 2.96094 33.1719C3.04877 33.3066 3.13737 33.4893 3.10156 33.7285C3.07685 33.8916 3.00459 34.0157 2.93164 34.1094L2.73828 34.2969C2.7075 34.3189 2.67037 34.3336 2.63867 34.3555C2.65205 34.5246 2.61811 34.6681 2.5625 34.7891C2.63347 34.8679 2.70066 34.9519 2.75586 35.0469C2.86001 35.2263 2.8901 35.4258 2.86133 35.6211C2.93367 35.7079 3.00387 35.8228 3.03711 35.9727C3.09138 36.2196 3.00581 36.4141 2.91992 36.5586C3.05235 36.6637 3.19641 36.8183 3.23633 37.0625C3.24622 37.124 3.22742 37.1834 3.22461 37.2383C3.30112 37.2886 3.38061 37.3466 3.44727 37.4316C3.59984 37.6265 3.63352 37.84 3.62891 38.0234C3.72427 38.0378 3.83155 38.0761 3.93945 38.1406C4.12119 38.2495 4.21481 38.4122 4.27344 38.5684C4.35554 38.5891 4.43373 38.6249 4.51367 38.6621C4.72216 38.6643 4.91933 38.7367 5.07031 38.873C5.12604 38.9235 5.16326 38.9845 5.19922 39.0371C5.21643 39.0363 5.23422 39.0311 5.25195 39.0312L5.44531 39.0664C5.57447 38.9692 5.76265 38.8684 6.01953 38.8965C6.37655 38.9363 6.57175 39.1846 6.63477 39.2773C6.68791 39.356 6.71596 39.4433 6.74609 39.5176C6.78264 39.5312 6.82275 39.5347 6.85742 39.5527C6.90239 39.5761 6.93626 39.613 6.97461 39.6406C6.99238 39.6382 7.00895 39.6245 7.02734 39.623C7.11398 39.4983 7.2179 39.3813 7.33789 39.2832L7.72461 39.0664C7.83741 39.0294 7.96154 39.0199 8.09375 39.0254C8.165 38.9864 8.23916 38.9491 8.31055 38.9082L8.53906 38.8145C8.62567 38.7932 8.72003 38.782 8.82031 38.791C9.01447 38.8086 9.16907 38.891 9.27734 38.9727C9.33147 39.0136 9.3701 39.0666 9.41211 39.1133C9.46807 39.0849 9.52725 39.0587 9.58789 39.0371L9.85742 38.9844C10.0191 38.9802 10.1635 39.0261 10.2852 39.0898C10.323 39.0752 10.359 39.0466 10.4023 39.0371C10.7275 38.9667 10.9857 39.104 11.1289 39.2305C11.1902 39.2849 11.2244 39.3565 11.2637 39.4121L11.2754 39.4004C11.312 39.3338 11.4746 39.0469 11.832 38.9609C12.1712 38.8798 12.4047 39.0382 12.5469 39.166C12.6929 39.1591 12.8221 39.1895 12.9277 39.2363L12.9395 39.2305C13.0945 39.1186 13.3124 39.0478 13.5488 39.084C13.6447 38.9984 13.7904 38.904 13.9883 38.873C14.1327 38.8507 14.2634 38.865 14.375 38.9023L14.6504 39.0547L14.7148 39.1191C14.7924 39.0612 14.8882 39.0079 15.0078 38.9785C15.1775 38.937 15.3236 38.9601 15.4473 39.002C15.5739 38.9481 15.7311 38.9171 15.916 38.9551C16.0814 38.9892 16.2067 39.0684 16.2969 39.1484C16.3682 39.1458 16.445 39.1518 16.5254 39.1719C16.6398 39.2006 16.7313 39.2521 16.8066 39.3066C16.8912 39.2599 16.9807 39.2151 17.082 39.1895C17.1824 39.0587 17.3567 38.8781 17.6387 38.8203C17.8546 38.7762 18.0383 38.8143 18.1836 38.8848L18.5 39.1309L18.623 39.3008C18.7231 39.2709 18.828 39.2651 18.9336 39.2715C18.9708 39.2275 19.0045 39.1723 19.0566 39.1309C19.2089 39.0101 19.4573 38.9028 19.7539 38.9668C19.9475 39.0087 20.0808 39.114 20.1699 39.2012C20.2477 39.1725 20.325 39.1435 20.4102 39.1367C20.5528 39.0201 20.7551 38.9 21.0371 38.9258C21.268 38.9475 21.4345 39.0583 21.5527 39.166C21.6523 39.1345 21.7637 39.1167 21.8867 39.125C22.0193 39.1343 22.1343 39.1759 22.2324 39.2246C22.3199 39.0982 22.5335 38.8485 22.9004 38.8027C23.3234 38.7511 23.5995 39.008 23.7148 39.1484C23.756 39.1357 23.7955 39.1171 23.8379 39.1074L24.2773 39.0957C24.3606 39.1101 24.4351 39.1466 24.5117 39.1777C24.5655 39.1126 24.6163 39.0448 24.6816 38.9902L24.8574 38.873C25.0496 38.7744 25.2989 38.7278 25.5664 38.8262C25.6571 38.8596 25.7223 38.9227 25.7891 38.9727C25.8645 38.9206 25.9571 38.871 26.0703 38.8438C26.2175 38.8084 26.355 38.8175 26.4746 38.8496L26.7734 39.002L26.9375 39.1719C26.9472 39.1702 26.9572 39.1732 26.9668 39.1719C26.997 39.1269 27.0181 39.0731 27.0547 39.0312C27.1763 38.8927 27.4371 38.6729 27.8223 38.7031L28.1562 38.8027C28.2468 38.8519 28.3177 38.9114 28.3672 38.9609C28.4649 39.059 28.5296 39.1663 28.5723 39.248C28.5935 39.2888 28.6004 39.3385 28.6191 39.3828C28.737 39.3085 28.8678 39.2467 29.0117 39.207L29.2461 39.1719C29.2927 39.1718 29.337 39.1827 29.3809 39.1895C29.4465 39.1011 29.5324 39.0086 29.6387 38.9316L29.8789 38.8027C29.9719 38.7667 30.0755 38.7432 30.1895 38.7383C30.3784 38.7301 30.5424 38.7835 30.6816 38.8555C30.9343 38.8563 31.141 38.9578 31.2793 39.0723C31.415 39.1848 31.5091 39.3229 31.5781 39.4414C31.6062 39.4259 31.635 39.4077 31.666 39.3945C31.8536 39.3152 32.0474 39.3142 32.2344 39.3594C32.3479 39.2396 32.5417 39.0901 32.8379 39.0957C32.9916 39.099 33.1181 39.1433 33.2188 39.2012C33.3236 39.1283 33.4657 39.0596 33.6465 39.0488C33.7257 39.0443 33.8019 39.0519 33.8691 39.0664C33.879 39.0567 33.8884 39.0466 33.8984 39.0371L34.1504 38.8672C34.257 38.8203 34.3874 38.7928 34.5371 38.8027C34.8247 38.8221 35.0173 38.9767 35.1113 39.0781C35.2223 39.1978 35.2922 39.3467 35.3457 39.4766C35.4424 39.4125 35.5518 39.3558 35.6797 39.3242C35.6499 39.3319 35.6506 39.3414 35.6797 39.3184L35.8613 39.2012C35.9322 39.1672 36.0159 39.1393 36.1074 39.125C36.2972 39.0957 36.4759 39.1353 36.623 39.207C36.6318 39.2113 36.638 39.2201 36.6465 39.2246C36.7702 39.1307 36.9356 39.0519 37.1504 39.0488C37.3123 39.0467 37.4439 39.0952 37.5547 39.1543C37.6561 39.1343 37.7696 39.128 37.8945 39.1543C38.0368 39.1844 38.1477 39.254 38.2402 39.3242C38.3122 39.32 38.3882 39.3193 38.4688 39.3359C38.4842 39.3392 38.5007 39.3437 38.5156 39.3477C38.5991 39.2503 38.7133 39.1442 38.8672 39.0723C39.0692 38.9779 39.2871 38.9648 39.4883 39.0195L39.6875 39.0957L39.8984 39.2012C40.078 39.274 40.2354 39.3809 40.373 39.5C40.4444 39.4799 40.5205 39.4623 40.6016 39.459C40.6542 39.4569 40.7044 39.4649 40.7539 39.4707C40.7929 39.3912 40.8275 39.3086 40.877 39.2363C40.9605 39.1146 41.1201 38.9243 41.375 38.8262L41.6621 38.7617C41.8507 38.7472 42.0287 38.7868 42.1836 38.8613L42.3945 38.9961L42.4473 39.0488C42.4788 39.0384 42.5116 39.0264 42.5469 39.0195C42.7183 38.9861 42.8864 39.0112 43.0273 39.0723C43.1126 39.1094 43.1743 39.1688 43.2324 39.2188C43.4502 39.1673 43.6687 39.1815 43.8594 39.2773L43.8711 39.2715C44.01 39.1391 44.2521 38.9857 44.5742 39.002L44.6973 38.9961H45.0137C45.1067 38.9228 45.2251 38.8552 45.3711 38.8203C45.7128 38.7392 45.9863 38.8835 46.1562 39.0254C46.2772 39.0422 46.3986 39.0562 46.5137 39.0957L46.7715 39.2305C46.813 39.26 46.847 39.2968 46.8828 39.3301C47.0504 39.2422 47.267 39.1824 47.5098 39.2598C47.7154 39.3254 47.8442 39.4593 47.9199 39.5527C47.9543 39.543 47.9883 39.5296 48.0254 39.5234C48.1348 39.5053 48.2413 39.5068 48.3418 39.5234C48.3772 39.502 48.4112 39.4788 48.4473 39.459L48.4531 39.4531C48.4635 39.4363 48.4734 39.4122 48.4883 39.3828L48.6113 39.1953C48.6738 39.1172 48.7615 39.0305 48.8809 38.9668C49.0253 38.8901 49.21 38.8474 49.4082 38.8848C49.5128 38.9047 49.6005 38.9476 49.6719 38.9902C49.7813 38.9401 49.9068 38.9102 50.0586 38.9199C50.2442 38.8501 50.4498 38.8436 50.6445 38.9141C50.7824 38.964 50.8805 39.0479 50.9551 39.1191C51.0823 39.0501 51.2442 38.9994 51.4473 39.0312C51.5741 39.0515 51.6778 39.0965 51.7578 39.1484C51.8634 39.0645 52.0122 38.9756 52.2148 38.9609C52.3116 38.954 52.3996 38.9639 52.4785 38.9844C52.593 38.9391 52.7177 38.9062 52.8535 38.9082L53.1641 38.9609L53.5215 39.1602C53.5699 39.1974 53.6089 39.2428 53.6504 39.2832C53.684 39.2462 53.7147 39.2045 53.7559 39.1719C53.893 39.0633 54.1107 38.9572 54.3828 38.9902C54.4114 38.9938 54.4383 39.0135 54.4648 39.0195C54.4786 39.0145 54.4914 39.0064 54.5059 39.002C54.7009 38.9427 54.898 38.9631 55.0684 39.0312C55.101 39.0086 55.1263 38.9746 55.1621 38.9551L55.4609 38.8555C55.5654 38.8418 55.6765 38.8485 55.7891 38.8789C55.9015 38.9096 55.9963 38.9605 56.0703 39.0137C56.1094 39.0049 56.1496 38.9932 56.1934 38.9902C56.3231 38.9818 56.4374 39.0064 56.5332 39.043C56.6565 38.996 56.8048 38.9708 56.9785 39.0078C56.9925 39.0108 57.0061 39.0159 57.0195 39.0195H57.0312C57.156 38.9491 57.3214 38.9034 57.5059 38.9199C57.6847 38.9364 57.8258 39.0066 57.9219 39.0781C58.0242 39.1543 58.0941 39.2467 58.1445 39.3242C58.2208 39.3151 58.303 39.3096 58.3906 39.3242C58.4398 39.2898 58.4961 39.257 58.5605 39.2305C58.7636 39.1477 58.9943 39.1429 59.1992 39.2246C59.2392 39.2406 59.2706 39.2694 59.3047 39.2891C59.351 39.2844 59.3962 39.2804 59.4453 39.2832C59.4593 39.2682 59.4713 39.2507 59.4863 39.2363C59.6186 39.1094 59.8402 38.9581 60.1426 38.9551L60.4707 39.0078C60.5583 39.0388 60.6356 39.0832 60.7051 39.1309C60.8155 39.115 60.9197 39.1246 61.0156 39.1484C61.1024 39.0864 61.2222 39.0247 61.373 39.002C61.5486 38.9755 61.7137 39.0078 61.8477 39.0723C62.0805 39.1844 62.1998 39.3782 62.2461 39.459C62.2501 39.4659 62.2546 39.4714 62.2578 39.4766C62.3188 39.4422 62.3844 39.41 62.457 39.3887C62.5322 39.2788 62.6427 39.1538 62.7969 39.0605C62.9909 38.9434 63.2163 38.9041 63.4355 38.9492C63.596 38.8955 63.78 38.8747 63.9746 38.9316C64.166 38.9882 64.3034 39.0997 64.4023 39.2012C64.4783 39.1499 64.5705 39.0978 64.6836 39.0723C64.905 39.023 65.0893 39.0844 65.2344 39.1602C65.3652 39.037 65.5744 38.905 65.8789 38.9434C66.1068 38.9727 66.2637 39.0891 66.3477 39.1719C66.425 39.2485 66.4736 39.3308 66.5059 39.3887C66.5523 39.3086 66.6817 39.1111 66.9277 39.002C67.0703 38.9393 67.2401 38.9145 67.4141 38.9492C67.5794 38.9826 67.7072 39.0561 67.7891 39.125C67.8652 39.1893 67.921 39.2643 67.9648 39.3301C68.11 39.3627 68.2395 39.4279 68.3516 39.5059C68.4691 39.3933 68.6402 39.269 68.8848 39.2422C68.9796 39.232 69.0682 39.2381 69.1484 39.2539C69.2815 39.1844 69.4425 39.1462 69.6406 39.1777C69.755 39.0933 69.918 39.0188 70.127 39.0195C70.3872 39.0208 70.5642 39.1475 70.6777 39.2539C70.8088 39.1759 70.981 39.1172 71.1875 39.1309L71.416 39.1777C71.5122 39.2109 71.5874 39.2678 71.6562 39.3184C71.7734 39.2489 71.9029 39.1926 72.043 39.1719C72.135 39.0514 72.2726 38.9155 72.4766 38.8438C72.6877 38.7696 72.9109 38.7815 73.1035 38.8672C73.1752 38.8991 73.2329 38.9438 73.2852 38.9844C73.3872 38.9826 73.4886 38.9971 73.5898 39.0195C73.5763 39.0198 73.5642 39.0232 73.5547 39.0254C73.5721 39.021 73.5904 39.0228 73.6074 39.0195C73.617 39.0218 73.6272 39.0229 73.6367 39.0254C73.6303 39.0237 73.6221 39.0205 73.6133 39.0195C73.7885 38.987 73.9365 39.0157 74.0645 39.0664C74.07 39.0607 74.0763 39.0544 74.082 39.0488L74.3105 38.873C74.4027 38.8212 74.5132 38.7807 74.6387 38.7617C74.7734 38.7415 74.8997 38.749 75.0137 38.7793L75.3125 38.9199L75.4707 39.0605C75.5731 39.0477 75.6715 39.0611 75.7637 39.084C75.9014 38.9597 76.1023 38.8383 76.3848 38.8555L76.6426 38.9082C76.6532 38.9122 76.6616 38.9214 76.6719 38.9258C76.7125 38.8958 76.7553 38.8628 76.8066 38.8379C76.9146 38.7858 77.0336 38.7589 77.1523 38.7559L77.5039 38.8203L77.6562 38.9141C77.8813 38.8247 78.1273 38.8347 78.3359 38.9375C78.4566 38.9971 78.5413 39.0829 78.6055 39.1543C78.6813 39.0848 78.7859 39.0125 78.9219 38.9668C79.0066 38.9384 79.0908 38.9329 79.1738 38.9316C79.3342 38.8149 79.5377 38.7107 79.7891 38.7031L80.1172 38.7617C80.398 38.8713 80.5517 39.1074 80.5977 39.1836C80.6123 39.2078 80.6135 39.2401 80.627 39.2656C80.7033 39.2073 80.7996 39.1512 80.9199 39.1191C81.0962 39.0726 81.2542 39.0905 81.3887 39.1367C81.4985 39.0802 81.6208 39.0255 81.7637 39.0195L81.9922 39.043L82.209 39.1191C82.3781 39.2055 82.4909 39.3319 82.5605 39.4238C82.5846 39.3841 82.6127 39.3466 82.6367 39.3066L82.8242 39.0605C82.9178 38.9686 83.0456 38.8811 83.2109 38.832C83.53 38.7376 83.7908 38.8409 83.9668 38.9668L84.1133 39.0957L84.2305 39.2363C84.2991 39.2248 84.3675 39.2054 84.4414 39.207L84.7695 39.1367C84.8817 39.1326 84.998 39.1464 85.1094 39.1836C85.1886 39.2103 85.2573 39.2497 85.3203 39.2891C85.5036 39.2002 85.7119 39.1473 85.9414 39.166L86.2109 39.1836C86.3937 39.1942 86.555 39.2556 86.6973 39.3301C86.7358 39.3214 86.7749 39.3174 86.8145 39.3125C86.9152 39.1854 87.0269 39.0669 87.1543 38.9668L87.4824 38.8027C87.614 38.7717 87.7643 38.7746 87.9219 38.8262C88.1737 38.9088 88.3181 39.0844 88.3789 39.1719V39.1777C88.3928 39.1776 88.4059 39.183 88.4199 39.1836C88.4982 39.1063 88.5831 39.0312 88.6836 38.9727L88.9473 38.8672C89.0419 38.8427 89.1437 38.8254 89.252 38.832C89.3589 38.8387 89.4565 38.8685 89.5449 38.9023L89.7852 39.0254L89.9492 39.207C90.052 39.1279 90.1734 39.0575 90.3184 39.0195L90.5469 38.9902C90.7493 38.9906 90.9249 39.0665 91.0625 39.1602C91.0831 39.1356 91.0992 39.107 91.1211 39.084L91.3613 38.9023C91.4692 38.8473 91.6049 38.8081 91.7656 38.8145C92.0727 38.8271 92.2702 39.0036 92.3633 39.1074C92.4581 39.0551 92.565 39.0057 92.6914 38.9902H92.9199L93.2129 39.0723C93.2973 39.0192 93.3976 38.9768 93.5059 38.9492L93.8281 38.9316C94.0661 38.9642 94.2308 39.1095 94.3379 39.2188C94.3476 39.2169 94.3573 39.2145 94.3672 39.2129C94.4488 39.1279 94.5523 39.038 94.6895 38.9785C94.9107 38.8827 95.1399 38.8861 95.3398 38.9551L95.5332 39.0488L95.75 39.2305C95.783 39.2655 95.8114 39.3015 95.8379 39.3359C95.8627 39.3356 95.8881 39.3281 95.9141 39.3301C96.0457 39.3403 96.1573 39.3806 96.248 39.4297C96.296 39.41 96.3472 39.3902 96.4004 39.377L96.7637 39.3418L97.1211 39.4121L97.4023 39.5469C97.4205 39.5579 97.4375 39.5705 97.4551 39.582C97.548 39.5314 97.6567 39.4872 97.7832 39.4707C97.9936 39.4433 98.1732 39.5056 98.3223 39.582C98.4013 39.5355 98.4899 39.5017 98.5859 39.4766C98.6164 39.4266 98.6475 39.3684 98.6914 39.3184C98.7803 39.2176 98.9698 39.0494 99.2656 39.0254C99.4955 39.0068 99.6721 39.0904 99.7988 39.1777C99.9417 38.9976 100.198 38.7591 100.572 38.7559L100.789 38.7793L101.029 38.8262L101.24 38.8848C101.428 38.9629 101.561 39.0901 101.639 39.1836C101.663 39.2132 101.675 39.2519 101.697 39.2832C101.768 39.2709 101.842 39.2648 101.92 39.2715C102.106 39.2877 102.256 39.3632 102.365 39.4414C102.385 39.4554 102.4 39.4734 102.418 39.4883C102.558 39.3302 102.746 39.1663 102.998 39.084C103.025 39.0751 103.062 39.0564 103.109 39.0254L103.408 38.8965C103.521 38.8681 103.645 38.8585 103.777 38.8789C103.9 38.8981 104.009 38.9396 104.1 38.9902L104.328 39.1602L104.416 39.2305L104.574 39.3242C104.628 39.3095 104.684 39.298 104.744 39.2949C104.786 39.2299 104.825 39.1485 104.896 39.084C105.07 38.9293 105.388 38.7844 105.746 38.9258C105.942 39.0035 106.057 39.1455 106.127 39.2422C106.292 39.2037 106.456 39.2309 106.613 39.2832C106.683 39.2698 106.755 39.2579 106.824 39.2422L107.111 39.2188C107.211 39.2251 107.306 39.2458 107.393 39.2773C107.564 39.2004 107.767 39.1724 107.996 39.2246C108.05 39.1616 108.127 39.0985 108.219 39.043C108.358 38.959 108.52 38.9299 108.688 38.9375C108.833 38.779 109.041 38.6552 109.297 38.6562C109.396 38.657 109.484 38.6781 109.561 38.7031C109.585 38.5285 109.635 38.3401 109.73 38.1641L109.895 37.9531C110.049 37.8057 110.237 37.753 110.387 37.7305C110.358 37.599 110.345 37.3956 110.451 37.1797L110.574 36.9922C110.71 36.8358 110.876 36.7566 110.984 36.7168V36.623C111.011 36.4604 111.081 36.3361 111.16 36.2363C111.071 36.1746 110.936 36.068 110.85 35.8906C110.714 35.6117 110.757 35.3074 110.902 35.082L111.137 34.8008L111.143 34.7891C111.1 34.7444 111.058 34.698 111.02 34.6484L110.85 34.3789C110.75 34.18 110.724 33.9404 110.809 33.7109C110.86 33.5715 110.941 33.4685 111.014 33.3945L110.99 33.1953C110.987 33.0682 110.99 32.9412 111.002 32.8145L111.084 32.5039C111.018 32.3793 110.968 32.2256 110.979 32.0469C110.99 31.8449 111.07 31.6849 111.154 31.5723L111.383 31.3555C111.363 31.3161 111.339 31.2777 111.324 31.2324C111.198 30.8304 111.383 30.5182 111.541 30.3535C111.511 30.2493 111.493 30.1386 111.488 30.0254C111.483 29.9059 111.507 29.7959 111.535 29.6914C111.495 29.6709 111.451 29.6559 111.412 29.6328L111.049 29.3457C110.97 29.2601 110.893 29.1585 110.832 29.041L110.703 28.6309C110.668 28.3115 110.809 28.0626 110.943 27.9102C111.014 27.8296 111.093 27.7599 111.172 27.7051C111.039 27.5276 110.938 27.2874 110.99 26.9785L111.09 26.6855C111.161 26.5501 111.263 26.4488 111.359 26.3633C111.359 26.3188 111.354 26.2735 111.359 26.2285C111.31 26.1326 111.275 26.0201 111.26 25.8945C111.254 25.8486 111.259 25.8039 111.26 25.7598C111.223 25.7101 111.182 25.656 111.154 25.5898C111.07 25.3911 111.084 25.1848 111.148 24.998C111.095 24.9449 111.042 24.8747 110.996 24.793C110.878 24.5808 110.85 24.3159 110.955 24.0664C111.008 23.9395 111.083 23.8426 111.154 23.7734L111.143 23.7617C111.002 23.5495 110.935 23.2594 111.037 22.959C111.066 22.8755 111.111 22.8062 111.154 22.7422V22.7305C111.151 22.6591 111.166 22.5937 111.178 22.5312C111.107 22.4695 111.037 22.3945 110.979 22.3027C110.848 22.0982 110.792 21.8203 110.902 21.5469C110.96 21.404 111.053 21.3021 111.131 21.2305C111.124 21.2163 111.108 21.2045 111.102 21.1895C111.036 21.0407 111.008 20.8657 111.049 20.6855C111.087 20.5169 111.172 20.3951 111.242 20.3164C111.26 20.2968 111.282 20.2808 111.301 20.2637C111.279 20.1985 111.263 20.1305 111.254 20.0586C111.154 19.958 111.041 19.8223 110.99 19.6309C110.917 19.3532 110.997 19.1135 111.107 18.9336C111.003 18.783 110.907 18.5805 110.949 18.3125L110.984 18.043L111.055 17.6797L111.184 17.3457C111.218 17.2826 111.259 17.2251 111.301 17.1699C111.234 17.0592 111.174 16.9278 111.16 16.7656V16.7715C111.022 16.5264 110.994 16.2282 111.119 15.9512C111.169 15.8418 111.232 15.7488 111.301 15.6758C111.269 15.6429 111.231 15.6135 111.201 15.5762L110.99 15.207C110.875 14.8755 110.945 14.5597 111.096 14.3105L111.061 13.9824C111.071 13.8753 111.101 13.7791 111.143 13.6953C111.133 13.676 111.121 13.6576 111.113 13.6367C111.046 13.4614 111.038 13.2672 111.102 13.0859C111.144 12.9645 111.207 12.8705 111.266 12.8047C111.266 12.7686 111.26 12.732 111.266 12.6934C111.18 12.6382 111.04 12.5365 110.943 12.3652C110.818 12.143 110.798 11.8631 110.914 11.6094C111.008 11.4069 111.157 11.2863 111.242 11.2285C111.248 11.2249 111.254 11.2203 111.26 11.2168L111.154 11.1172C111.026 10.9704 110.889 10.7354 110.908 10.4316C110.927 10.1375 111.082 9.9227 111.207 9.79883L111.354 9.64062C111.356 9.51851 111.371 9.39911 111.406 9.2832C111.393 9.21114 111.38 9.14416 111.383 9.07812C111.284 8.99523 111.151 8.85859 111.096 8.64453C111.032 8.39617 111.108 8.19239 111.195 8.04102C111.194 8.0332 111.191 8.02555 111.189 8.01758C111.153 7.82473 111.184 7.65996 111.242 7.52539L111.16 7.27344C111.138 7.13464 111.129 6.99203 111.131 6.85156L111.166 6.60547C111.176 6.57198 111.194 6.54203 111.207 6.51172C111.108 6.3757 111.015 6.19249 111.031 5.94922L111.037 5.75586C111.033 5.67328 111.051 5.59848 111.066 5.52734H111.061C110.963 5.46282 110.851 5.35686 110.773 5.19922C110.694 5.03582 110.676 4.86885 110.697 4.72461C110.719 4.57914 110.776 4.4605 110.832 4.37305C110.757 4.33786 110.685 4.28899 110.615 4.23242C110.561 4.18884 110.522 4.12984 110.475 4.08008C110.39 4.06945 110.295 4.05012 110.199 4.00391C110 3.90719 109.864 3.74317 109.789 3.56445C109.77 3.51975 109.759 3.47364 109.748 3.42969C109.716 3.43855 109.684 3.45245 109.648 3.45898L109.338 3.46484C109.239 3.4517 109.141 3.44109 109.045 3.42383L108.846 3.39453C108.663 3.37508 108.528 3.29085 108.424 3.20703C108.246 3.25254 108.065 3.24736 107.902 3.17773L107.732 3.07812L107.721 3.06641C107.607 3.10624 107.48 3.13404 107.34 3.11328C107.163 3.08711 107.029 3.00909 106.941 2.9375L106.924 2.94336C106.659 2.94927 106.466 2.83264 106.332 2.7207C106.301 2.71941 106.269 2.73036 106.238 2.72656L105.91 2.62695C105.938 2.63187 105.969 2.63098 105.998 2.62695C105.947 2.634 105.899 2.61585 105.852 2.61523C105.804 2.69412 105.744 2.79371 105.646 2.87305C105.553 2.94898 105.405 3.02914 105.213 3.04883C105.061 3.06397 104.927 3.02735 104.814 2.97852C104.693 3.09495 104.51 3.2341 104.252 3.26562C103.945 3.30238 103.695 3.17975 103.537 3.04883C103.495 3.01384 103.461 2.97 103.426 2.93164C103.242 2.91445 103.092 2.8599 102.986 2.7793C102.834 2.8107 102.677 2.81929 102.523 2.76172C102.421 2.72284 102.337 2.66414 102.271 2.60938C102.188 2.71012 102.036 2.87055 101.803 2.9375L101.527 2.9668C101.333 2.9587 101.174 2.89251 101.041 2.80859C100.866 2.84683 100.684 2.85419 100.514 2.77344C100.464 2.75003 100.43 2.70806 100.391 2.67969C100.354 2.68589 100.32 2.70786 100.279 2.70898C100.209 2.82063 100.118 2.95253 99.9805 3.05469C99.7999 3.1883 99.5245 3.27822 99.2246 3.17773C98.9819 3.09591 98.8418 2.92602 98.7793 2.83789C98.7158 2.74807 98.6622 2.64668 98.6211 2.54492C98.5045 2.59508 98.3712 2.6345 98.2227 2.63281C98.1731 2.63213 98.1281 2.61106 98.082 2.60352C98.0415 2.68579 98.0017 2.77134 97.9414 2.84375C97.8571 2.94474 97.6571 3.14377 97.332 3.16016C97.1291 3.16972 96.9701 3.09596 96.8516 3.01953C96.7074 3.01162 96.5864 2.9565 96.4824 2.89648C96.2924 2.9765 96.064 3.0004 95.8379 2.90234C95.8157 2.8927 95.7996 2.87224 95.7793 2.86133L95.7617 2.87891C95.6053 2.94083 95.4399 2.97947 95.2695 2.99609C95.2951 2.9936 95.3162 2.98908 95.3281 2.98438C95.3388 2.98009 95.3409 2.97962 95.334 2.98438C95.2004 3.07619 95.0102 3.15281 94.7832 3.13672C94.5623 3.12091 94.3941 3.02211 94.2852 2.93164C94.278 2.92565 94.2745 2.91435 94.2676 2.9082C94.0081 2.94873 93.7757 2.86953 93.6055 2.74414C93.3981 2.71148 93.2336 2.62684 93.1074 2.51562C93.0905 2.54306 93.0847 2.57729 93.0664 2.60352C93.0245 2.66337 92.9679 2.73457 92.8965 2.80273L92.6328 2.99023C92.4971 3.05582 92.3562 3.10993 92.2109 3.14844C91.9431 3.21928 91.7313 3.14661 91.5723 3.04883L91.5664 3.06055C91.378 3.18592 91.1109 3.25509 90.834 3.16016C90.7102 3.11755 90.6141 3.04938 90.541 2.98438C90.4103 3.0912 90.2313 3.19834 89.9844 3.19531C89.7051 3.19141 89.4889 3.06438 89.3516 2.94336C89.3257 2.95449 89.304 2.98132 89.2754 2.99023C88.9569 3.08891 88.676 2.97375 88.5078 2.83789C88.4823 2.81717 88.4709 2.78353 88.4492 2.76172C88.3718 2.84798 88.2447 2.96968 88.0508 3.03125C87.6704 3.15159 87.3817 2.98916 87.2129 2.83789L87.084 2.70312C87.0709 2.68622 87.0635 2.67685 87.0605 2.67383C87.0644 2.67695 87.0783 2.68172 87.0957 2.69141C86.956 2.63883 86.8289 2.56824 86.709 2.48633C86.6161 2.52509 86.5146 2.5504 86.3926 2.55078L86.2344 2.78516C86.1629 2.87248 86.0328 3.00695 85.8301 3.07812C85.5989 3.15849 85.3616 3.13103 85.168 3.03125C85.1578 3.02598 85.1484 3.01334 85.1387 3.00781C84.9691 3.13313 84.757 3.25363 84.4824 3.24805C84.3239 3.24465 84.166 3.21875 84.0137 3.17773L83.8027 3.13672C83.5016 3.08885 83.27 2.92527 83.1055 2.76172C83.0374 2.78511 82.9654 2.80944 82.8828 2.81445C82.8057 2.81901 82.7338 2.80464 82.666 2.79102L82.625 2.82031C82.5107 2.90261 82.3492 2.98038 82.1504 2.99023C81.9626 2.99927 81.8024 2.93995 81.6758 2.86719C81.6249 2.90713 81.5754 2.95803 81.5117 2.99023C81.2924 3.10049 81.0318 3.12669 80.7793 3.03711C80.6965 3.00773 80.6318 2.95158 80.5625 2.9082C80.5059 2.96696 80.4466 3.02786 80.375 3.07812L80.1641 3.19531C79.9148 3.29966 79.658 3.30075 79.4258 3.22461L79.2031 3.125C79.0459 3.03235 78.9213 2.90527 78.8223 2.77344C78.7935 2.80257 78.774 2.84686 78.7402 2.87305C78.6106 2.97277 78.4096 3.07104 78.1602 3.05469C78.0614 3.04801 77.9789 3.01 77.9023 2.97852C77.7607 3.08162 77.5972 3.1796 77.3926 3.21289C77.0724 3.26435 76.8461 3.12116 76.6953 2.99023C76.6724 3.0031 76.6563 3.03179 76.6309 3.04297C76.4874 3.10565 76.319 3.13149 76.1445 3.0957C75.9792 3.06162 75.8567 2.98308 75.7754 2.91406C75.6277 2.78863 75.5448 2.63409 75.5059 2.55078C75.4963 2.53017 75.4912 2.5075 75.4824 2.48633C75.4688 2.48294 75.4545 2.48441 75.4414 2.48047C75.399 2.50268 75.3482 2.5052 75.3008 2.52148C75.2658 2.59103 75.2338 2.6765 75.1719 2.75C75.0811 2.85776 74.8476 3.07606 74.4805 3.05469C74.3768 3.04856 74.2891 3.01797 74.2109 2.98438L74.1992 2.99609C74.0021 3.05512 73.7989 3.03247 73.6309 2.95508C73.455 2.8734 73.3461 2.74335 73.2793 2.64453C73.2041 2.6434 73.1308 2.63004 73.0566 2.60938C72.9911 2.65794 72.9265 2.71047 72.8516 2.75L72.541 2.87305C72.3478 2.92193 72.1481 2.92835 71.9492 2.89648C71.8193 2.87557 71.7084 2.82876 71.6152 2.77344C71.5972 2.79381 71.5893 2.82412 71.5684 2.84375C71.424 2.9786 71.1618 3.10818 70.8477 3.04297C70.8274 3.05706 70.8107 3.07682 70.7891 3.08984L70.5547 3.19531C70.1009 3.33538 69.7646 3.07567 69.623 2.91406C69.6042 2.89241 69.5873 2.8665 69.5703 2.84375ZM6.125 39.582C6.12936 39.5891 6.13855 39.5928 6.14258 39.5996C6.13791 39.5922 6.13333 39.5816 6.125 39.5703V39.582ZM6.125 39.582V39.5703C6.1102 39.5503 6.08827 39.5268 6.06055 39.5C6.08257 39.5306 6.10813 39.5547 6.125 39.582ZM92.7676 39.5527C92.7579 39.5653 92.7516 39.5736 92.75 39.5762L92.7793 39.541C92.7754 39.5456 92.7703 39.5492 92.7676 39.5527ZM68.8438 39.5117C68.8305 39.523 68.8235 39.5375 68.8145 39.5469C68.8256 39.532 68.8405 39.5177 68.8555 39.5L68.8438 39.5117ZM37.9355 39.5117L37.9297 39.5C37.9212 39.4893 37.9047 39.4733 37.8828 39.4531C37.9013 39.4786 37.9247 39.4944 37.9355 39.5117ZM106.654 39.2949C106.684 39.3063 106.719 39.3039 106.748 39.3184C106.734 39.3114 106.707 39.3005 106.672 39.2949H106.654ZM52.8477 39.1953C52.8261 39.1769 52.7948 39.1481 52.748 39.125C52.7847 39.151 52.8209 39.1703 52.8477 39.1953ZM1.24414 34.7422C1.26842 34.78 1.29124 34.8069 1.30859 34.8242C1.28528 34.8041 1.27076 34.7702 1.24414 34.7422ZM112.689 26.0234C112.715 25.9767 112.734 25.911 112.742 25.8359C112.723 25.898 112.721 25.9665 112.689 26.0234ZM112.314 23.6562C112.32 23.6517 112.34 23.6404 112.361 23.6152V23.6035C112.342 23.6196 112.331 23.6436 112.314 23.6562ZM112.602 22.4492C112.598 22.4399 112.6 22.4286 112.596 22.4199L112.502 22.2734C112.542 22.32 112.567 22.387 112.602 22.4492ZM0.845703 21.4941C0.844174 21.4872 0.840757 21.4796 0.839844 21.4707L0.845703 21.4531V21.4941ZM2.5625 14.6621C2.56458 14.6607 2.57321 14.6616 2.58008 14.6562C2.58663 14.6511 2.59196 14.6381 2.60352 14.627C2.58792 14.6374 2.57695 14.6531 2.5625 14.6621ZM112.848 9.68164L112.842 9.6875V9.67578C112.844 9.66985 112.846 9.66416 112.848 9.6582C112.848 9.66586 112.848 9.6738 112.848 9.68164ZM111.412 9.30078L111.424 9.40039C111.412 9.36366 111.419 9.32443 111.412 9.28906V9.30078ZM38.9258 2.95508H38.9434C38.9555 2.95032 38.9609 2.94336 38.9609 2.94336L38.9258 2.95508ZM2.73828 2.7207C2.69658 2.76832 2.66295 2.81872 2.63867 2.87305C2.66264 2.81642 2.706 2.77237 2.73828 2.7207ZM70.2793 2.64453L70.291 2.65625C70.2823 2.64261 70.2734 2.63104 70.2676 2.62109C70.2683 2.6223 70.2701 2.63242 70.2793 2.64453ZM8.75 2.62109C8.7555 2.62602 8.76599 2.62688 8.77344 2.63281L8.7207 2.58594C8.72688 2.59311 8.73487 2.60754 8.75 2.62109ZM74.9551 2.57422C74.9651 2.57378 74.9744 2.56341 74.9844 2.5625C74.9086 2.55941 74.8279 2.56994 74.7441 2.54492L74.9551 2.57422ZM3.21289 2.28125C3.1387 2.31383 3.0768 2.35988 3.02539 2.41016C3.08636 2.3669 3.14124 2.31257 3.21289 2.28125ZM29.4453 2.07617L29.5391 1.92969L29.3516 1.80078L29.4453 2.07617ZM29.5391 1.92969L29.4453 2.07617L29.3516 1.80078L29.5391 1.92969ZM65.873 1.73047C65.8305 1.75488 65.7972 1.77964 65.7734 1.80078C65.8012 1.77349 65.8405 1.7573 65.873 1.73047ZM58.4258 1.74219C58.4147 1.75662 58.4097 1.76894 58.4082 1.77148L58.4375 1.73047C58.4335 1.73529 58.4287 1.73846 58.4258 1.74219ZM59.4043 1.75977L59.4102 1.76562C59.407 1.76076 59.4053 1.75119 59.3984 1.74219C59.3905 1.73187 59.3752 1.71909 59.3574 1.70117C59.3723 1.7234 59.3925 1.73977 59.4043 1.75977ZM5.80859 1.72461C5.79943 1.73621 5.79765 1.74678 5.79688 1.74805C5.80832 1.72946 5.82827 1.71201 5.84375 1.68945C5.82866 1.70443 5.81543 1.716 5.80859 1.72461ZM78.623 1.70117C78.5918 1.67523 78.5467 1.64615 78.4883 1.61914C78.5333 1.65007 78.5849 1.6677 78.623 1.70117ZM31.707 1.53125C31.6535 1.56341 31.6186 1.59504 31.6016 1.61328C31.6264 1.58428 31.6695 1.56502 31.707 1.53125ZM48.3418 1.54297C48.3239 1.52366 48.2962 1.4994 48.2598 1.47266C48.2885 1.50027 48.321 1.51869 48.3418 1.54297ZM64.5664 1.44922C64.6307 1.42405 64.7 1.42708 64.7656 1.41406C64.6945 1.41691 64.627 1.42562 64.5664 1.44922ZM58.0566 1.30273C58.0276 1.2818 57.9915 1.25814 57.9453 1.23828C57.9824 1.26204 58.0235 1.27674 58.0566 1.30273ZM10.3262 1.25586L10.332 1.25C10.329 1.24842 10.3213 1.24677 10.3145 1.24414L10.2441 1.22656C10.2733 1.22857 10.2987 1.25137 10.3262 1.25586ZM44.2754 1.17383L44.2637 1.16211C44.2595 1.15888 44.2514 1.15996 44.2461 1.15625C44.2543 1.16446 44.2682 1.16613 44.2754 1.17383Z" fill="#78C8C2"/>
<path d="M13.749 18.4955C13.749 22.7506 17.266 25.018 19.8405 27.0475C20.749 27.7637 21.624 28.438 22.499 28.438C23.374 28.438 24.249 27.7637 25.1575 27.0475C27.732 25.018 31.249 22.7506 31.249 18.4955C31.249 14.2404 26.4364 11.2228 22.499 15.3136C18.5617 11.2228 13.749 14.2404 13.749 18.4955Z" fill="#FF387F"/>
</svg>
