<svg width="97" height="42" viewBox="0 0 97 42" fill="none" xmlns="http://www.w3.org/2000/svg">
<path d="M2 6C2 3.79086 3.51409 2 5.38182 2H91.6182C93.4858 2 95 3.79086 95 6V36C95 38.2091 93.4858 40 91.6182 40H5.38182C3.51409 40 2 38.2091 2 36V6Z" fill="white"/>
<path d="M91.0773 1.08667C91.1676 1.13514 91.2419 1.19905 91.2994 1.26002C91.3424 1.30557 91.3694 1.36605 91.4032 1.41603C91.4724 1.32248 91.6658 1.09935 91.9774 1.11557C92.1353 1.12381 92.2577 1.18912 92.3481 1.2658L92.5262 1.47959L92.5659 1.5316C92.6647 1.4687 92.8311 1.3819 93.0413 1.42759C93.3512 1.49531 93.4998 1.76775 93.5555 1.92451C93.5851 2.00789 93.5859 2.09505 93.5952 2.1672C93.6476 2.18109 93.7075 2.1799 93.7632 2.21342C93.8992 2.29497 93.9794 2.41717 94.036 2.53122C94.1559 2.58086 94.2825 2.66633 94.3771 2.83169C94.5097 3.06349 94.5012 3.30351 94.4911 3.4095C94.5958 3.51273 94.6752 3.63033 94.7233 3.76198C94.8474 3.75664 94.9851 3.76721 95.1193 3.8082C95.2426 3.84609 95.4343 3.93847 95.5694 4.14911L95.6783 4.39758L95.718 4.67493C95.7154 4.93364 95.6133 5.13895 95.5449 5.24697L95.5347 5.25274C95.593 5.34407 95.6487 5.45309 95.6732 5.59366C95.7205 5.87033 95.6293 6.08311 95.5449 6.23504C95.5601 6.24507 95.5787 6.25325 95.5938 6.26392C95.6622 6.31229 95.8505 6.4544 95.9451 6.71463L96 7.01509L95.9451 7.36756C95.9088 7.46604 95.8565 7.5463 95.8117 7.60446C95.7754 7.65184 95.7256 7.67459 95.6884 7.70847C95.7551 7.90561 95.7695 8.12547 95.6926 8.33251C95.647 8.45524 95.5795 8.54292 95.5195 8.60987C95.5499 8.7319 95.5694 8.86499 95.5491 9.00856C95.5449 9.04323 95.5221 9.0747 95.5145 9.10679C95.5947 9.17319 95.6935 9.27119 95.7577 9.42459C95.8286 9.59791 95.8489 9.81004 95.7923 10.014C95.7577 10.1378 95.6943 10.2242 95.6437 10.2913C95.6445 10.3488 95.6445 10.4083 95.6335 10.4705L95.6285 10.4762C95.6673 10.549 95.7087 10.6321 95.7273 10.7363C95.7475 10.848 95.7374 10.9504 95.723 11.0425C95.7881 11.1685 95.8396 11.3379 95.8168 11.551C95.7821 11.8707 95.5981 12.0438 95.5103 12.1173C95.5398 12.1601 95.5744 12.2052 95.5989 12.2617C95.6884 12.4649 95.707 12.7114 95.6285 12.9435C95.5964 13.0383 95.5491 13.1124 95.5052 13.1746C95.5592 13.2585 95.6167 13.3648 95.6437 13.504C95.6842 13.7121 95.6547 13.9135 95.5837 14.076C95.5483 14.1574 95.4875 14.2081 95.441 14.2667C95.4604 14.2832 95.4866 14.2949 95.5052 14.3129C95.5854 14.391 95.6977 14.5261 95.7619 14.7231L95.8117 14.9428L95.8066 15.2606C95.7957 15.3626 95.772 15.4646 95.7425 15.5611C95.7256 15.6149 95.691 15.6544 95.6682 15.6997C95.7087 15.8038 95.7374 15.9254 95.7273 16.0752C95.7788 16.1291 95.832 16.2007 95.8759 16.289C95.9586 16.4544 95.9916 16.6529 95.9603 16.8496L95.9054 17.046C95.8632 17.1528 95.7973 17.2302 95.7374 17.3002C95.745 17.3129 95.7602 17.3215 95.7669 17.3349C95.8531 17.4927 95.9088 17.711 95.8657 17.9532C95.8362 18.1201 95.7627 18.24 95.6977 18.3288C95.685 18.4167 95.6631 18.4927 95.6335 18.5656C95.6386 18.5699 95.6437 18.5729 95.6487 18.5773C95.7264 18.6494 95.8717 18.8082 95.9206 19.0742C95.9485 19.2288 95.9392 19.371 95.9054 19.4902L95.7669 19.7791C95.7028 19.8677 95.6158 19.9271 95.5347 19.9929C95.6107 20.1674 95.6563 20.3801 95.5938 20.64C95.5879 20.6641 95.5753 20.6856 95.5694 20.7094C95.5854 20.7427 95.6057 20.7747 95.6183 20.8134C95.6682 20.9621 95.6648 21.1204 95.6386 21.2757C95.6454 21.2817 95.6521 21.2869 95.658 21.293L95.8218 21.5068C95.8767 21.6077 95.924 21.742 95.9308 21.9055C95.9392 22.1391 95.8505 22.3064 95.772 22.4255C95.8168 22.5014 95.8691 22.5884 95.8911 22.7028C95.9544 23.035 95.8261 23.2981 95.718 23.4367C95.7045 23.4532 95.6817 23.4566 95.6682 23.4713C95.7349 23.5599 95.8109 23.6817 95.8413 23.8528C95.8826 24.0836 95.8227 24.2802 95.7475 24.4305C95.772 24.6796 95.7002 24.8879 95.6091 25.0257C95.5466 25.1196 95.4672 25.1738 95.4064 25.2221C95.4469 25.2824 95.49 25.3532 95.5195 25.4417C95.5896 25.647 95.5871 25.8705 95.5145 26.0716C95.4832 26.1593 95.4427 26.2318 95.4013 26.2911L95.2772 26.4356C95.2713 26.441 95.2629 26.4419 95.2578 26.4471C95.3253 26.6053 95.3735 26.7768 95.3667 26.9729C95.4326 27.0071 95.5001 27.0348 95.5592 27.0769C95.6107 27.1133 95.6825 27.1711 95.7526 27.2503L95.94 27.568L95.9899 27.7646C96.0152 27.9633 95.973 28.158 95.8911 28.3135C95.8438 28.4024 95.7855 28.4686 95.7323 28.5214C95.7366 28.5609 95.7382 28.6007 95.7374 28.6428C95.8159 28.7643 95.9012 28.9384 95.8911 29.1744C95.8776 29.4643 95.7399 29.6587 95.6538 29.7523C95.6124 29.7967 95.5609 29.8195 95.5195 29.8505C95.5086 29.8967 95.4976 29.9413 95.4799 29.9834C95.4984 30.0299 95.5136 30.0767 95.5246 30.1278C95.6023 30.1784 95.6825 30.2478 95.7526 30.33C95.8311 30.4238 95.9316 30.5861 95.9603 30.8154C95.9772 30.956 95.9527 31.08 95.9206 31.191C95.9552 31.4324 95.8995 31.6651 95.7923 31.844C95.6834 32.0236 95.5331 32.134 95.4258 32.2022C95.3895 32.3191 95.3481 32.431 95.2924 32.5315L95.2823 32.5431C95.338 32.5861 95.3937 32.6265 95.4452 32.6702L95.5694 32.7974C95.6141 32.8516 95.6606 32.9168 95.6977 32.9996C95.7838 33.1919 95.8066 33.4284 95.7374 33.6583C95.7154 33.7313 95.68 33.7886 95.6487 33.8432C95.7669 34.0033 95.9004 34.2499 95.8269 34.5943C95.7881 34.77 95.7028 34.8956 95.6234 34.993C95.647 35.1352 95.6386 35.2619 95.6091 35.3744C95.615 35.3812 95.6268 35.3846 95.6335 35.3917C95.7062 35.4731 95.8092 35.6211 95.8514 35.8367C95.9113 36.1457 95.8117 36.3661 95.7028 36.5243C95.7045 36.6241 95.7019 36.7317 95.6682 36.842C95.6133 37.0221 95.5086 37.1386 95.4157 37.2292C95.3946 37.3195 95.3718 37.4092 95.327 37.4892C95.3608 37.6394 95.387 37.8622 95.2721 38.0959C95.1548 38.3353 94.9699 38.4139 94.8466 38.4542C94.8297 38.4995 94.8263 38.5516 94.8027 38.5928L94.5696 38.8587C94.4176 38.9703 94.2572 39.0026 94.1094 39.0089C94.1111 39.022 94.1187 39.0361 94.1196 39.0493C94.1246 39.1098 94.1289 39.198 94.1145 39.2978C94.101 39.396 94.0588 39.5552 93.9465 39.7022C93.678 40.0527 93.3318 39.9563 93.2144 39.9103C93.1291 40.0131 93.0227 40.1163 92.8581 40.153C92.826 40.16 92.7939 40.151 92.7643 40.153C92.7247 40.2224 92.6884 40.2992 92.6352 40.361C92.5321 40.4812 92.3844 40.5939 92.1952 40.6383C92.0998 40.6606 92.0086 40.6635 91.9233 40.6499L91.6852 40.569L91.6455 40.5517C91.5121 40.543 91.3905 40.4999 91.2799 40.4418L91.1507 40.5921C91.0587 40.7006 90.8746 40.8601 90.612 40.8464C90.4491 40.8373 90.3266 40.7556 90.2363 40.6788C90.0826 40.7671 89.896 40.8089 89.7018 40.7308C89.516 40.6561 89.4029 40.5117 89.3455 40.4246C89.3159 40.3798 89.2948 40.329 89.2712 40.2801C89.2467 40.2869 89.223 40.3106 89.1969 40.3147C89.0474 40.338 88.9174 40.2999 88.8059 40.2454C88.7713 40.322 88.7274 40.4193 88.6573 40.5055C88.5813 40.5993 88.4411 40.7342 88.2317 40.7712C88.1076 40.7931 87.997 40.7695 87.9007 40.7308C87.7952 40.7718 87.6787 40.7948 87.5545 40.7655C87.4093 40.7309 87.3012 40.6503 87.2328 40.5806C87.2185 40.5657 87.2058 40.544 87.1931 40.5285C87.0783 40.5383 86.9778 40.5242 86.8917 40.4823C86.7878 40.5277 86.6823 40.5407 86.5751 40.5285L86.3226 40.7423C86.1005 40.858 85.8616 40.863 85.6395 40.7712C85.5154 40.873 85.3609 40.958 85.1793 40.9677L84.9125 40.9272C84.6512 40.8402 84.5001 40.6195 84.4325 40.4996C84.4237 40.4842 84.421 40.4636 84.4126 40.4477C84.2841 40.4368 84.1781 40.4005 84.0911 40.3379C84.0539 40.3988 84.0245 40.4806 83.9624 40.5401C83.8272 40.6693 83.5963 40.7873 83.3291 40.7019C83.3051 40.6941 83.2866 40.6714 83.2648 40.6615C83.2059 40.7009 83.1429 40.7442 83.0669 40.7655L82.864 40.7886C82.7109 40.7818 82.5764 40.7332 82.4633 40.6615L82.1862 40.4072C82.1792 40.3987 82.1744 40.3928 82.1714 40.3899C82.1748 40.3923 82.1828 40.3912 82.1912 40.3957C82.1089 40.3642 82.031 40.3278 81.9587 40.2801C81.94 40.2892 81.9229 40.306 81.9042 40.3147C81.9179 40.3083 81.9239 40.3049 81.9191 40.309C81.9141 40.3133 81.9018 40.3225 81.8845 40.3436C81.7761 40.4767 81.5673 40.6623 81.2759 40.6499C81.2355 40.648 81.1988 40.6294 81.1621 40.621C81.1291 40.6453 81.1017 40.6881 81.0631 40.7077C80.8648 40.8075 80.6646 40.7965 80.4942 40.7193L80.3309 40.621C80.2883 40.5868 80.2512 40.5445 80.2122 40.5055C80.0585 40.531 79.9103 40.5167 79.7817 40.4361L79.7718 40.4303C79.7079 40.4827 79.6351 40.5353 79.5492 40.569C79.3759 40.6366 79.1936 40.6315 79.0248 40.5632C78.7376 40.5912 78.5343 40.4196 78.4212 40.2858C78.3468 40.3893 78.1886 40.5771 77.9265 40.5979C77.8866 40.601 77.8488 40.5846 77.8126 40.5806C77.7378 40.6631 77.6293 40.7702 77.4712 40.8117C77.377 40.8361 77.2873 40.8279 77.2041 40.8117C77.1582 40.8314 77.1101 40.8548 77.0557 40.8637C76.9225 40.8853 76.8017 40.8486 76.6945 40.8001C76.5966 40.866 76.4881 40.9386 76.3531 40.9446L76.1403 40.9157C75.9334 40.8543 75.7746 40.7158 75.6506 40.5748C75.5659 40.6813 75.4218 40.8278 75.2152 40.8694H74.9926C74.7237 40.9555 74.4855 40.8578 74.3247 40.7134C74.2579 40.6535 74.2027 40.5855 74.1564 40.517C74.0849 40.5484 74.0098 40.5648 73.9288 40.569C73.8811 40.607 73.83 40.6516 73.7655 40.6788C73.5995 40.7483 73.4171 40.7408 73.256 40.6672C73.1461 40.6166 73.0616 40.5383 72.9938 40.4592C72.9496 40.5102 72.9041 40.5668 72.8453 40.6094C72.6939 40.7192 72.5103 40.7666 72.3209 40.7308C72.2006 40.7833 72.0656 40.8248 71.9152 40.7944C71.7312 40.757 71.5971 40.6422 71.4996 40.5401C71.4151 40.6629 71.2864 40.8204 71.0791 40.881C70.8464 40.9488 70.6504 40.8621 70.5002 40.7539C70.4135 40.8249 70.3068 40.8954 70.1736 40.9215C70.0494 40.9455 69.9341 40.9332 69.8323 40.8983L69.5701 40.7423C69.4617 40.6473 69.3702 40.5274 69.2979 40.4014C69.2219 40.3993 69.1503 40.3913 69.0852 40.3668L68.8131 40.1934C68.8067 40.1873 68.8029 40.1799 68.7982 40.1761C68.7652 40.2541 68.7235 40.3486 68.6598 40.4361C68.5947 40.525 68.4726 40.6645 68.2838 40.725C67.8598 40.8597 67.5998 40.52 67.502 40.3668L67.3734 40.3379C67.3082 40.3212 67.2444 40.2917 67.1804 40.2685C67.1491 40.3255 67.1139 40.3914 67.0666 40.4534L66.8835 40.6383C66.732 40.7574 66.5168 40.8255 66.285 40.7423C66.119 40.6826 66.0094 40.5648 65.9436 40.4766C65.7443 40.5598 65.5392 40.5347 65.3696 40.4246C65.3474 40.4101 65.3298 40.3885 65.3103 40.3725C65.304 40.385 65.3022 40.4006 65.2954 40.413C65.2494 40.4967 65.1472 40.6618 64.9689 40.7597C64.7414 40.8841 64.4943 40.8488 64.3059 40.7134C64.2036 40.6398 64.1366 40.5425 64.0882 40.465C63.9938 40.4797 63.8884 40.4826 63.7766 40.4418C63.7438 40.4298 63.7166 40.4058 63.6875 40.3899C63.6216 40.4133 63.551 40.4375 63.4698 40.4361C63.2439 40.4314 63.083 40.3083 62.975 40.1876C62.9449 40.198 62.9134 40.1986 62.881 40.205C62.8748 40.2188 62.8729 40.2375 62.8662 40.2512C62.8256 40.3334 62.7524 40.4645 62.6287 40.569C62.4827 40.6921 62.2632 40.7788 62.0202 40.6961C61.9178 40.661 61.8363 40.5995 61.7728 40.5401L61.6392 40.3841C61.6279 40.3956 61.6214 40.4135 61.6096 40.4246L61.4018 40.569C61.2613 40.637 61.1013 40.6572 60.9416 40.6094C60.8749 40.6863 60.7952 40.7784 60.6794 40.829L60.432 40.881C60.2806 40.8826 60.1464 40.8417 60.0312 40.777L59.7443 40.5401C59.6563 40.441 59.5692 40.3351 59.4821 40.2281C59.4393 40.1756 59.4004 40.1164 59.3584 40.0605C59.2998 40.1637 59.2538 40.2737 59.1853 40.361C59.0644 40.5141 58.8645 40.6924 58.6064 40.725L58.3293 40.7019C58.1726 40.6588 58.0557 40.563 57.9682 40.4707C57.844 40.4992 57.715 40.5035 57.5921 40.4534C57.5061 40.4181 57.4363 40.3664 57.3794 40.3147C57.3505 40.3111 57.3223 40.3104 57.2953 40.3032C57.2451 40.4274 57.1774 40.5749 57.0676 40.6904C56.9733 40.7893 56.8107 40.9052 56.5928 40.9099C56.3901 40.914 56.2389 40.8128 56.1376 40.7193L56.0881 40.7655C55.9124 40.8753 55.7137 40.9163 55.5142 40.881L55.3114 40.8175C55.1286 40.7329 55.0059 40.5862 54.9304 40.4707C54.849 40.559 54.7449 40.648 54.6038 40.6904C54.498 40.7218 54.3997 40.7183 54.3119 40.7019C54.1422 40.8105 53.9311 40.8608 53.7183 40.7597C53.5919 40.6996 53.5066 40.6021 53.4461 40.5228C53.2943 40.6517 53.0743 40.7709 52.803 40.6788C52.7178 40.6497 52.6473 40.6016 52.5853 40.5517C52.514 40.6098 52.4256 40.6696 52.3131 40.6961C52.2666 40.7069 52.2187 40.696 52.1746 40.6961C52.063 40.7815 51.9181 40.8552 51.7342 40.8464C51.6229 40.8408 51.5292 40.7996 51.4473 40.7539C51.4082 40.7616 51.3675 40.7777 51.3236 40.777C51.1254 40.7736 50.9837 40.6671 50.8882 40.5748V40.5806C50.8098 40.6823 50.6419 40.8566 50.3836 40.8694C50.1167 40.8822 49.9295 40.7178 49.8394 40.6094C49.791 40.5512 49.7598 40.4792 49.7255 40.413C49.6376 40.4341 49.541 40.4506 49.4336 40.4246L49.4238 40.4188C49.3492 40.4885 49.2667 40.5559 49.1665 40.5979L49.0923 40.6499C48.9305 40.7933 48.6867 40.8953 48.4145 40.8059C48.3609 40.7883 48.3205 40.7462 48.2759 40.7193C48.113 40.7589 47.9535 40.747 47.8158 40.6672C47.7076 40.6045 47.6332 40.5148 47.5784 40.4418C47.5419 40.4612 47.5075 40.4924 47.4646 40.5055C47.3781 40.5314 47.2895 40.5388 47.2073 40.5285L46.9747 40.4534C46.9552 40.4427 46.9389 40.4249 46.9204 40.413C46.8139 40.4781 46.6834 40.5272 46.5344 40.517C46.3882 40.5068 46.266 40.4479 46.1733 40.3783C46.0734 40.3714 45.9738 40.3651 45.8764 40.3379C45.8148 40.3206 45.7587 40.2848 45.7033 40.2569C45.6372 40.2908 45.5647 40.3165 45.4806 40.3263C45.423 40.4161 45.3206 40.5503 45.1541 40.6268C44.946 40.7218 44.7497 40.6707 44.59 40.5748C44.4407 40.6045 44.313 40.5658 44.1992 40.5055C44.1851 40.521 44.1755 40.5425 44.1596 40.5574C44.0864 40.6263 43.9767 40.7036 43.8331 40.7308C43.6839 40.7585 43.542 40.7257 43.4274 40.6615C43.3478 40.6165 43.2896 40.5519 43.2394 40.4939C43.1068 40.6292 42.8945 40.7838 42.6061 40.7193C42.4327 40.6799 42.3104 40.572 42.2202 40.4707C42.1158 40.5271 41.9983 40.5725 41.859 40.569C41.8129 40.5678 41.7666 40.5595 41.7205 40.5574L41.4236 40.8001C41.2179 40.9207 40.9791 40.9309 40.7607 40.8175C40.6439 40.7566 40.5531 40.6712 40.4836 40.5863C40.3625 40.6846 40.202 40.783 39.9938 40.7655C39.8194 40.7502 39.6895 40.6583 39.5881 40.569C39.4795 40.5687 39.3807 40.5351 39.2814 40.4939C39.2054 40.6109 39.0959 40.7581 38.9202 40.8348C38.7224 40.921 38.5077 40.9379 38.2968 40.8753C38.1823 40.841 38.0798 40.7863 37.9901 40.7193L37.7575 40.4939C37.746 40.4801 37.7344 40.4667 37.7229 40.4534C37.6678 40.4965 37.6076 40.5485 37.53 40.5748C37.2907 40.655 37.0724 40.5747 36.9263 40.4534C36.9099 40.4398 36.9015 40.4158 36.8868 40.4014C36.8552 40.445 36.8274 40.495 36.7878 40.5343C36.6463 40.6748 36.4305 40.779 36.1793 40.7308C35.9899 40.8002 35.7905 40.789 35.6103 40.6845C35.5191 40.6316 35.4431 40.5639 35.3827 40.4939L35.2441 40.2974C35.2322 40.2768 35.2215 40.2548 35.2095 40.2339C35.1576 40.2425 35.1079 40.2548 35.0562 40.2512C34.9902 40.3809 34.884 40.5633 34.6999 40.6672C34.5492 40.7516 34.3657 40.7749 34.1854 40.7134C34.0651 40.6719 33.9759 40.597 33.9083 40.5285C33.8423 40.5542 33.7695 40.5761 33.6857 40.5748C33.4008 40.5698 33.2199 40.3705 33.1465 40.2685C33.1155 40.2254 33.0997 40.1732 33.0771 40.1298C33.0414 40.2056 33.004 40.2863 32.9535 40.3552C32.869 40.4699 32.6955 40.6475 32.4538 40.6788L32.1916 40.6499C32.174 40.6445 32.1589 40.6275 32.1421 40.621C32.0565 40.7077 31.93 40.8111 31.7512 40.8348C31.579 40.8575 31.4371 40.7928 31.3257 40.7193C31.2746 40.765 31.2133 40.8131 31.1378 40.8464L30.8409 40.8983H30.6925C30.3593 40.9282 30.1497 40.6938 30.0493 40.5517C30.0191 40.5521 29.9876 40.562 29.9553 40.5574C29.7912 40.5342 29.6734 40.4442 29.5892 40.361C29.5711 40.3662 29.5536 40.3801 29.5347 40.3841C29.4869 40.3942 29.4404 40.3777 29.3962 40.3783C29.3811 40.4156 29.3785 40.4591 29.3616 40.4939C29.323 40.5729 29.2639 40.6792 29.1786 40.7712C29.1353 40.8176 29.0769 40.8674 29.0054 40.9099L28.7431 40.9966C28.4667 41.0247 28.2571 40.8755 28.1346 40.7423C28.1011 40.7057 28.0832 40.6549 28.0555 40.6152C27.9785 40.721 27.8432 40.8858 27.6349 40.9388L27.3677 40.9446C27.1789 40.9084 27.046 40.7919 26.967 40.7019C26.9303 40.6601 26.9048 40.6116 26.8779 40.569C26.8399 40.6107 26.8022 40.66 26.7493 40.6961C26.5786 40.8126 26.3567 40.8563 26.1408 40.7597C26.0166 40.7038 25.9304 40.611 25.8686 40.5343C25.8452 40.5333 25.819 40.544 25.7944 40.5401C25.7322 40.5301 25.6777 40.5061 25.6262 40.4823C25.5284 40.5209 25.4169 40.5439 25.2848 40.517C25.0898 40.4767 24.9551 40.3543 24.8792 40.2628C24.7894 40.3603 24.6575 40.4784 24.4586 40.4939C24.3529 40.5017 24.2605 40.4758 24.1816 40.4418C24.0906 40.494 23.9835 40.543 23.855 40.5401C23.7768 40.5381 23.7057 40.5131 23.6422 40.4881C23.5798 40.5737 23.4975 40.6846 23.3701 40.7539L23.1673 40.829C22.972 40.8628 22.8073 40.8071 22.6726 40.725C22.6656 40.7269 22.6599 40.7348 22.6527 40.7366C22.349 40.81 22.1222 40.6368 22.0145 40.5112C22.0019 40.4965 21.9961 40.4743 21.9848 40.4592C21.923 40.462 21.8664 40.4563 21.8116 40.4418C21.6837 40.6016 21.4225 40.8357 21.0547 40.7019C20.9681 40.6703 20.8952 40.6245 20.837 40.5748C20.7264 40.6436 20.5845 40.7041 20.4115 40.673C20.1579 40.6266 20.0079 40.4363 19.9465 40.3436L19.9415 40.3379C19.8718 40.3658 19.8024 40.403 19.7238 40.413C19.6699 40.4198 19.6174 40.4045 19.5655 40.4014C19.5093 40.4853 19.4519 40.5775 19.3726 40.6499L19.1895 40.777C19.0531 40.8507 18.8906 40.8837 18.7244 40.8405C18.5727 40.8004 18.4592 40.7062 18.383 40.6268C18.2924 40.635 18.1959 40.6345 18.0961 40.5921C18.087 40.5883 18.0801 40.5789 18.0714 40.5748C17.9721 40.6784 17.8381 40.7937 17.6459 40.8175C17.4335 40.8434 17.2731 40.7481 17.1511 40.6499C16.9775 40.6547 16.8174 40.6005 16.6761 40.5055L16.6712 40.517C16.528 40.6113 16.342 40.6597 16.1468 40.6037C16.0466 40.5748 15.9648 40.5247 15.8994 40.4707C15.8405 40.5581 15.7819 40.6566 15.6966 40.7308L15.5085 40.8579C15.229 40.995 14.9628 40.9049 14.7813 40.7539C14.6679 40.819 14.5276 40.8736 14.3607 40.8405C14.135 40.7956 13.994 40.6341 13.9253 40.5401C13.8494 40.4358 13.794 40.3145 13.7521 40.1992C13.7277 40.2022 13.7039 40.2163 13.6779 40.2165C13.621 40.2169 13.5693 40.2 13.5196 40.1876C13.5046 40.219 13.4965 40.2551 13.4801 40.2858L13.2475 40.621C13.1336 40.7417 12.9483 40.8754 12.7082 40.881C12.4668 40.886 12.2788 40.7596 12.1591 40.6383C12.1466 40.6259 12.1393 40.621 12.1393 40.621L11.8424 40.4996C11.8021 40.4798 11.7674 40.4479 11.7286 40.4246C11.6745 40.4477 11.6193 40.4788 11.5555 40.4881C11.4808 40.4987 11.41 40.4769 11.3427 40.465L11.2636 40.5459C11.0941 40.7059 10.826 40.8235 10.5314 40.7019C10.439 40.6634 10.3675 40.6003 10.3037 40.5401C10.2273 40.5483 10.1507 40.5401 10.0712 40.5228C9.87173 40.6155 9.65059 40.6332 9.42801 40.5343L9.10647 40.465C9.01393 40.4217 8.93566 40.3634 8.87393 40.3032C8.86236 40.292 8.85519 40.2745 8.84421 40.2628C8.83594 40.2634 8.82791 40.2625 8.81947 40.2628L8.66117 40.5285C8.58837 40.6269 8.42838 40.8029 8.17632 40.829C7.90655 40.856 7.70976 40.6985 7.6123 40.5863C7.54905 40.5134 7.50917 40.4218 7.46882 40.3379C7.45567 40.3671 7.44981 40.4016 7.43419 40.4303C7.38916 40.513 7.27808 40.6927 7.07302 40.7886C6.80328 40.9137 6.54548 40.8188 6.38531 40.673C6.32223 40.6152 6.27486 40.5485 6.23688 40.4881L6.15278 40.3321C6.14605 40.3167 6.13475 40.301 6.12804 40.2858C6.02881 40.292 5.94403 40.2766 5.86582 40.2454C5.83615 40.2841 5.81281 40.3316 5.77677 40.3668C5.66435 40.4761 5.50093 40.5763 5.30675 40.5863L5.1039 40.5632C4.93048 40.5167 4.77175 40.4255 4.63389 40.309L4.55473 40.2569C4.47948 40.2231 4.41444 40.1739 4.35683 40.1241C4.28814 40.1794 4.17044 40.266 4.01545 40.2917C3.91177 40.3085 3.77804 40.3006 3.63944 40.2281C3.49806 40.1539 3.39864 40.0359 3.33764 39.9219C3.26932 39.7936 3.24471 39.6626 3.23374 39.5636C3.14583 39.5307 3.05883 39.4977 2.97647 39.448H2.94679C2.83113 39.4455 2.62158 39.4072 2.44709 39.2053C2.26595 38.9948 2.23419 38.7385 2.23929 38.5813C2.24026 38.5519 2.25085 38.5232 2.25413 38.4946C2.15822 38.4372 2.04973 38.3505 1.97212 38.1999C1.89599 38.0509 1.88185 37.9028 1.88307 37.7782C1.87377 37.7743 1.86261 37.7766 1.85338 37.7724C1.75435 37.727 1.60116 37.6291 1.49221 37.4314C1.3732 37.214 1.36267 36.9785 1.39821 36.7959L1.40316 36.7842C1.38994 36.707 1.3876 36.6324 1.38831 36.5589C1.38014 36.5509 1.3667 36.5501 1.35863 36.5416C1.25487 36.431 1.09677 36.196 1.1261 35.854C1.14327 35.6558 1.2234 35.5144 1.29432 35.4149C1.25617 35.3033 1.22662 35.1797 1.22999 35.0393C1.23611 34.8055 1.31418 34.6118 1.40316 34.473L1.66043 34.1784C1.68265 34.1591 1.70705 34.1439 1.7297 34.1263C1.69552 34.0785 1.65776 34.0302 1.62085 33.9818L1.40811 33.7103C1.33637 33.6206 1.25016 33.4808 1.21516 33.2885C1.17781 33.0828 1.21042 32.8865 1.27947 32.728C1.36834 32.5256 1.51319 32.3998 1.62085 32.3235C1.60962 32.2473 1.61627 32.1755 1.62085 32.1039C1.53469 32.0588 1.44143 32.0237 1.36358 31.9595C1.28575 31.8952 1.14877 31.7638 1.06673 31.555L1.00736 31.3182C0.975599 31.0618 1.05157 30.848 1.14094 30.6883C1.11799 30.6203 1.097 30.5478 1.08652 30.4687L1.05189 30.1625C1.03817 30.0373 1.03903 29.9152 1.05683 29.7985L1.14094 29.5153V29.602C1.10459 29.2931 1.18026 29.0137 1.30421 28.7989L1.324 28.7757C1.2324 28.6653 1.10894 28.4858 1.11126 28.2094C1.11412 27.9118 1.25505 27.7217 1.34874 27.6201C1.33779 27.5853 1.31143 27.5555 1.30421 27.5161C1.27356 27.3471 1.29423 27.1961 1.33389 27.0711C1.31909 27.0271 1.29313 26.9841 1.28442 26.9325C1.27008 26.8469 1.2838 26.7691 1.28937 26.6956C1.20681 26.5624 1.11988 26.3734 1.15084 26.1177C1.1699 25.9634 1.22155 25.8396 1.27947 25.7479L1.23989 25.6036C1.22048 25.4277 1.25239 25.2779 1.29927 25.1528C1.26559 25.0925 1.2273 25.0271 1.20526 24.9448C1.156 24.7594 1.17848 24.5766 1.22999 24.4132C1.21345 24.187 1.28023 24.01 1.35863 23.87C1.25721 23.7003 1.16906 23.4614 1.24979 23.1536C1.2586 23.1201 1.27789 23.0913 1.28937 23.0611C1.27523 23.0154 1.24736 22.9701 1.23989 22.9166C1.20375 22.6543 1.27408 22.4505 1.36358 22.3042C1.19905 22.1202 1.00347 21.8068 1.07662 21.3739L1.13599 21.1485C1.14836 21.1156 1.16607 21.0865 1.18052 21.056L1.17557 21.0503C1.10759 20.7266 1.22399 20.4634 1.33389 20.3164C1.35655 20.2864 1.38934 20.2717 1.41305 20.2471C1.34431 20.1757 1.27191 20.0985 1.21516 19.9987L1.1162 19.7791C1.03174 19.5146 1.06182 19.2429 1.16568 19.0221C1.21208 18.9244 1.27056 18.84 1.32895 18.7737C1.29559 18.7359 1.24561 18.7094 1.21516 18.6581C1.11547 18.4897 1.04808 18.2421 1.11126 17.9705C1.16605 17.7364 1.29684 17.5921 1.37348 17.5198L1.43285 17.4736C1.4113 17.4304 1.37442 17.3938 1.35863 17.3407C1.27013 17.0408 1.35884 16.7756 1.46747 16.601C1.4639 16.5308 1.45335 16.4555 1.46747 16.3757C1.4742 16.338 1.49198 16.3058 1.50211 16.2718C1.48162 16.2317 1.46419 16.1894 1.44769 16.1447L1.28442 15.9828C1.22301 15.9019 1.16391 15.7909 1.13105 15.6477C1.0512 15.2985 1.18686 15.0264 1.29927 14.885C1.27397 14.6325 1.35754 14.4349 1.44769 14.3014C1.36695 14.23 1.26457 14.1227 1.20526 13.9547C1.1456 13.784 1.1379 13.59 1.19042 13.4057C1.23238 13.2591 1.30176 13.155 1.35863 13.0879C1.34387 13.0678 1.32295 13.0531 1.30915 13.0302C1.25155 12.9342 1.19242 12.7997 1.18052 12.6315C1.16844 12.4598 1.20937 12.3071 1.26463 12.1866C1.3227 12.0602 1.39975 11.9707 1.46747 11.9092C1.47183 11.7045 1.55103 11.5442 1.63074 11.4181C1.62978 11.4104 1.62711 11.4028 1.62579 11.3949C1.58857 11.1735 1.61033 10.957 1.67033 10.7536C1.65324 10.6108 1.66075 10.4846 1.69012 10.3665C1.65509 10.3437 1.6157 10.3289 1.58127 10.3028L1.28937 10.0082C1.19706 9.8749 1.1088 9.68177 1.09641 9.44193C1.08409 9.19768 1.1544 8.98871 1.24484 8.83522L1.25473 8.81788L1.27947 8.74855C1.23077 8.68004 1.17669 8.60048 1.14589 8.4943C1.03528 8.11108 1.1964 7.80485 1.31905 7.66224C1.34791 7.62883 1.38809 7.61288 1.418 7.58713C1.40374 7.51794 1.40666 7.44668 1.40316 7.37333C1.35282 7.28905 1.29816 7.18748 1.27453 7.05554C1.24077 6.86611 1.26352 6.67929 1.324 6.52395C1.40699 6.31195 1.55023 6.18242 1.65548 6.10213C1.61704 6.07558 1.57306 6.05807 1.53674 6.02702C1.47618 5.97523 1.35386 5.85724 1.27453 5.66877C1.23007 5.56278 1.19163 5.4158 1.20526 5.24119C1.21986 5.06089 1.28251 4.9092 1.35863 4.80204C1.43169 4.69943 1.51824 4.63275 1.59117 4.58826C1.58549 4.43474 1.61022 4.25502 1.7297 4.07977C1.79178 3.98902 1.86386 3.93124 1.9276 3.88909C1.96929 3.68017 2.07529 3.49541 2.23929 3.38062C2.23732 3.22315 2.26023 3.02433 2.37782 2.83747C2.50144 2.64257 2.66228 2.55709 2.8033 2.51966C2.80501 2.50487 2.80602 2.48828 2.80825 2.47344C2.83988 2.26466 2.94366 1.9757 3.209 1.80895L3.45143 1.70494C3.53132 1.68691 3.60959 1.68736 3.68396 1.69338L4.07482 1.80895L4.10945 1.82628V1.83206C4.17693 1.82582 4.24221 1.81934 4.30736 1.82628C4.31485 1.80981 4.31866 1.79075 4.32714 1.77428C4.37664 1.67843 4.47055 1.53008 4.63389 1.43337C4.90072 1.27636 5.12629 1.36485 5.28696 1.46803C5.38484 1.40556 5.49839 1.35075 5.63329 1.34092C5.67232 1.33813 5.71015 1.35482 5.74708 1.35825C5.84107 1.28465 5.96042 1.2225 6.10825 1.20802C6.32643 1.18678 6.4911 1.28965 6.61289 1.39292C6.70903 1.34185 6.82807 1.30433 6.96912 1.32358C7.13529 1.34675 7.25498 1.43854 7.34018 1.52582C7.42565 1.46214 7.52114 1.40544 7.63703 1.38136L7.87946 1.37558C8.04825 1.4068 8.16996 1.51913 8.26043 1.61249L8.27031 1.60671L8.34947 1.5547L8.58695 1.41025C8.67944 1.37434 8.78466 1.35335 8.89867 1.36403C9.01553 1.37519 9.11449 1.4217 9.20045 1.47381C9.25686 1.3807 9.35345 1.24713 9.51211 1.16757C9.79869 1.02519 10.0702 1.13976 10.2295 1.29469C10.2877 1.35145 10.3324 1.41484 10.3681 1.47381C10.4761 1.47283 10.5822 1.50558 10.6847 1.56048C10.7135 1.50841 10.7352 1.44384 10.7787 1.39292C10.8373 1.32446 10.9333 1.23443 11.0706 1.1849C11.2199 1.13128 11.3769 1.13971 11.5159 1.20224C11.6625 1.26842 11.7551 1.387 11.8177 1.47959C11.8931 1.38067 11.9939 1.26804 12.1343 1.19646L12.3718 1.10401C12.4548 1.08263 12.541 1.06961 12.629 1.06934L12.8171 1.09823C12.9882 1.14859 13.1156 1.26258 13.1981 1.35825C13.2835 1.45786 13.3398 1.58036 13.391 1.68761L13.4009 1.68183L13.6384 1.48537C13.7401 1.42784 13.8655 1.38972 14.0094 1.39869C14.2144 1.41213 14.3636 1.52454 14.4695 1.62983C14.532 1.6379 14.5911 1.65488 14.6477 1.67605C14.7016 1.61126 14.7721 1.54212 14.8654 1.49115C15.0292 1.4017 15.1997 1.41606 15.3601 1.47381C15.4464 1.39734 15.5576 1.32846 15.6966 1.30047H15.939C16.0731 1.32612 16.1757 1.40584 16.2605 1.47959C16.3774 1.38088 16.542 1.28382 16.7652 1.32936C16.8941 1.18574 17.0942 1.02672 17.3886 1.09245H17.4381L17.6706 1.10401C17.8821 1.15393 18.0316 1.30518 18.1109 1.41025C18.1226 1.42583 18.1248 1.45189 18.1356 1.46803C18.1607 1.46637 18.185 1.44954 18.2099 1.4507L18.5116 1.53738L18.5711 1.56048L18.8035 1.63561C18.9028 1.50753 19.0178 1.38563 19.1549 1.29469L19.3775 1.19646C19.4606 1.17774 19.5509 1.17586 19.6446 1.19646C19.8196 1.23537 19.9475 1.34102 20.0256 1.42759C20.1489 1.5643 20.2227 1.73778 20.273 1.87251C20.2944 1.86904 20.3154 1.87424 20.3373 1.87251C20.4275 1.78702 20.5199 1.702 20.6193 1.63561C20.7475 1.55034 20.887 1.48464 21.0349 1.44493L21.2972 1.42759C21.3465 1.3674 21.4081 1.29938 21.4901 1.24846C21.6531 1.14769 21.8554 1.11647 22.0541 1.19646C22.0653 1.20097 22.0731 1.21458 22.0838 1.21957C22.1941 1.12457 22.3452 1.04457 22.539 1.05201C22.8045 1.06288 22.9712 1.24486 23.0733 1.38136C23.1688 1.36645 23.2578 1.39161 23.3454 1.41603C23.4627 1.3031 23.6323 1.19949 23.8352 1.20224L24.0727 1.24846L24.2706 1.3698C24.2764 1.3743 24.2798 1.38254 24.2854 1.38714L24.2904 1.38136C24.3903 1.2761 24.5439 1.16347 24.7356 1.13868L24.9434 1.15023L25.1463 1.21957C25.2147 1.25373 25.2737 1.30012 25.3294 1.3467C25.4521 1.25724 25.6201 1.17463 25.834 1.23113C25.9891 1.27261 26.0951 1.37395 26.1705 1.46225C26.2299 1.37285 26.3508 1.2191 26.5514 1.15023C26.7652 1.07688 26.9563 1.14354 27.1006 1.24269C27.2429 1.16714 27.4161 1.11615 27.6052 1.19068C27.6739 1.21786 27.7235 1.2717 27.7734 1.31202C27.7853 1.30952 27.7958 1.29654 27.8081 1.29469C27.8857 1.28327 27.9558 1.31041 28.0208 1.32358C28.0897 1.27447 28.172 1.22778 28.2731 1.20802C28.5008 1.16416 28.6931 1.25591 28.8173 1.36403C28.8604 1.40155 28.8847 1.45667 28.9163 1.49692C29.0105 1.37318 29.16 1.21607 29.3913 1.17913L29.5051 1.14446L29.7129 1.09245C29.9141 1.07739 30.0958 1.16016 30.2274 1.27735C30.3322 1.37088 30.4035 1.4912 30.4599 1.59515L30.4649 1.58938C30.5778 1.56598 30.6792 1.57991 30.7717 1.60671C30.7801 1.60287 30.7876 1.59294 30.7964 1.58938C30.8649 1.56174 30.9345 1.55769 31.0042 1.5547C31.0381 1.49272 31.0659 1.41356 31.1229 1.35247C31.1872 1.28368 31.2895 1.20248 31.4297 1.16179C31.5803 1.11846 31.7313 1.13837 31.8601 1.20224C32.0347 1.28913 32.1329 1.4412 32.1867 1.53738C32.286 1.51606 32.3792 1.5165 32.4686 1.53738C32.6052 1.47199 32.7681 1.43243 32.9535 1.49692C33.1115 1.55205 33.2232 1.66195 33.3048 1.76272C33.368 1.76789 33.4265 1.79598 33.4878 1.81473C33.5915 1.67322 33.7225 1.52541 33.9083 1.4507L34.1063 1.39869C34.2235 1.383 34.3326 1.42195 34.4427 1.45647C34.5089 1.33536 34.715 0.995739 35.1057 1.00578L35.3926 1.07512C35.5254 1.13905 35.6185 1.25216 35.6994 1.35247C35.7567 1.31423 35.8099 1.26204 35.8774 1.23691L36.1793 1.19646C36.263 1.20854 36.3362 1.2442 36.4019 1.28313C36.461 1.23467 36.5295 1.19142 36.6097 1.16179L36.8917 1.12134C37.1473 1.14863 37.329 1.34583 37.4112 1.46225C37.5084 1.60052 37.5719 1.765 37.619 1.90718C37.6465 1.91825 37.6673 1.94564 37.6932 1.95918C37.7137 1.89105 37.7326 1.81802 37.7625 1.75116C37.7941 1.68037 37.9024 1.45349 38.1335 1.33514C38.275 1.26294 38.4425 1.24346 38.6036 1.30047C38.6425 1.3144 38.675 1.33924 38.7074 1.35825C38.78 1.32327 38.8604 1.29138 38.9499 1.28313L39.1874 1.30047C39.2606 1.31801 39.3282 1.34666 39.3902 1.38136C39.4784 1.27717 39.5839 1.17771 39.7118 1.10979L40.0185 1.02889C40.1241 1.02563 40.2325 1.04976 40.3351 1.09823C40.425 1.14092 40.5001 1.19879 40.5628 1.26002L40.7161 1.43915L40.7755 1.5316C40.8632 1.53185 40.9416 1.54224 41.013 1.57204C41.0646 1.54138 41.1245 1.51848 41.1911 1.5027C41.4281 1.44765 41.6131 1.55394 41.7353 1.65871C41.821 1.54168 41.9481 1.40295 42.141 1.3467C42.4503 1.25678 42.6769 1.42807 42.8139 1.57204C42.8806 1.58684 42.9405 1.60566 42.997 1.63561C43.023 1.62162 43.0472 1.60031 43.0761 1.58938C43.2884 1.50924 43.4704 1.55848 43.6154 1.64137C43.7476 1.62192 43.8858 1.63836 44.0211 1.71072C44.0399 1.7208 44.0532 1.74564 44.0706 1.75694C44.0884 1.73164 44.1071 1.70721 44.125 1.68183L44.3575 1.44493C44.4658 1.37086 44.6041 1.31749 44.7731 1.32936C44.8029 1.33146 44.8297 1.34675 44.8572 1.35247C44.9765 1.25086 45.1296 1.19596 45.3173 1.19646C45.5458 1.06563 45.8059 1.07485 46.0248 1.21957C46.0786 1.25525 46.1166 1.30909 46.1584 1.35247C46.2087 1.33224 46.2617 1.30728 46.3217 1.30047C46.5048 1.27974 46.6645 1.34729 46.7818 1.43337C46.9229 1.53735 47.0129 1.68361 47.0737 1.80317C47.1517 1.6523 47.2405 1.5073 47.3458 1.38714L47.4794 1.26002C47.5343 1.21967 47.602 1.18664 47.6773 1.16179C47.8386 1.10893 48.0025 1.12188 48.1473 1.19068C48.1857 1.20913 48.2183 1.24232 48.2512 1.2658C48.3685 1.13331 48.5487 0.980391 48.8152 1.00578L49.1071 1.10401C49.1904 1.15277 49.2609 1.21363 49.3149 1.27157C49.3279 1.28556 49.3324 1.30905 49.3446 1.32358C49.4157 1.32388 49.4933 1.32818 49.5722 1.35825C49.6216 1.37724 49.6647 1.4062 49.7058 1.43337C49.844 1.29935 50.0808 1.16912 50.3638 1.27735C50.5339 1.34267 50.6359 1.47718 50.7002 1.57204C50.7268 1.56545 50.7553 1.55196 50.7843 1.54893C50.9311 1.53413 51.0524 1.57826 51.1504 1.63561C51.2464 1.52749 51.3934 1.394 51.5958 1.3698L51.8579 1.39292L51.8975 1.41603C51.9642 1.33083 52.0517 1.24467 52.1647 1.1849L52.5308 1.08667C52.5919 1.08471 52.6527 1.09161 52.7139 1.10401L52.9019 1.16179L53.1344 1.32358C53.1992 1.38629 53.2486 1.45614 53.2878 1.51426C53.3176 1.55862 53.3364 1.61117 53.362 1.65871L53.6093 1.75116C53.6768 1.68685 53.7494 1.6282 53.8271 1.57782C53.8388 1.5702 53.8683 1.54448 53.9161 1.48537L54.1635 1.27157C54.2712 1.21021 54.4041 1.17362 54.5593 1.19068C54.5743 1.19237 54.5895 1.2054 54.6038 1.20802C54.6688 1.1571 54.7465 1.11308 54.8364 1.08667C55.111 1.0067 55.3111 1.13841 55.4498 1.2658C55.532 1.20419 55.6307 1.1477 55.7517 1.12712L56.0287 1.14446C56.276 1.21693 56.4279 1.43287 56.4838 1.52582C56.6754 1.52778 56.8143 1.6128 56.9193 1.7165C56.9614 1.65816 57.0041 1.59233 57.0628 1.54316C57.1748 1.44968 57.3395 1.36505 57.5377 1.38136C57.6344 1.3896 57.7183 1.42297 57.79 1.46225L57.9632 1.59515L58.1165 1.78583C58.1641 1.77936 58.2089 1.7709 58.2551 1.77428C58.2641 1.75173 58.2695 1.72696 58.2798 1.70494C58.3078 1.64592 58.3561 1.54887 58.4382 1.46225C58.5239 1.37174 58.6829 1.25933 58.8983 1.26002C58.9435 1.26028 58.9822 1.28545 59.022 1.29469C59.1541 1.17768 59.36 1.05311 59.6255 1.14446C59.8199 1.21211 59.9329 1.36643 59.9966 1.46803C60.0406 1.47637 60.0866 1.47998 60.1302 1.49115L60.2489 1.54316C60.3584 1.46669 60.5019 1.39475 60.6844 1.42181C60.7054 1.42495 60.724 1.4399 60.7437 1.44493C60.7798 1.40482 60.8155 1.36299 60.8575 1.32936L61.1148 1.19068C61.2124 1.16049 61.3206 1.14603 61.4364 1.16757C61.5457 1.18793 61.6394 1.23479 61.7184 1.28891L61.9064 1.46225L62.0845 1.72806C62.2444 1.69445 62.3893 1.72868 62.5248 1.78006C62.654 1.71405 62.7973 1.66984 62.9602 1.68183V1.67605C63.0452 1.64149 63.1329 1.61776 63.2224 1.60671L63.4994 1.61249L63.7221 1.68183C63.7385 1.69001 63.751 1.7074 63.7666 1.7165C63.8149 1.62992 63.8669 1.54718 63.9249 1.47381L64.1377 1.24846C64.2207 1.17826 64.3149 1.11891 64.4197 1.07512L64.5978 1.02311C64.7775 1.0011 64.9486 1.06143 65.0876 1.16179C65.2173 1.25584 65.305 1.38309 65.3696 1.49115C65.4863 1.37542 65.6528 1.24442 65.8891 1.26002L66.087 1.30624C66.266 1.37697 66.3885 1.51659 66.458 1.61249L66.463 1.62983C66.5363 1.58251 66.6174 1.54077 66.7104 1.52004L66.9627 1.50848C67.191 1.53813 67.3706 1.68105 67.4971 1.82051C67.5113 1.77799 67.5243 1.73437 67.5416 1.69338C67.5761 1.61181 67.6497 1.45671 67.7841 1.33514C67.8585 1.26772 67.9698 1.19808 68.1106 1.17335C68.1866 1.16025 68.2594 1.16492 68.3283 1.17913C68.3388 1.1716 68.3469 1.1573 68.3579 1.15023C68.4757 1.07517 68.6235 1.02576 68.7884 1.04623C68.8546 1.05454 68.912 1.0857 68.9664 1.10979C69.0466 1.09583 69.1309 1.08806 69.2188 1.10979C69.3676 1.14684 69.4786 1.23425 69.5552 1.31202C69.6263 1.2454 69.7101 1.17702 69.8175 1.13868L70.0253 1.10401C70.2249 1.10018 70.398 1.19274 70.52 1.30624C70.5963 1.37752 70.6538 1.46248 70.7031 1.54316C70.7519 1.53076 70.8007 1.52275 70.8515 1.52004C70.9631 1.40254 71.1247 1.27289 71.3561 1.27735C71.5605 1.28184 71.709 1.39144 71.8162 1.49692C71.8311 1.47567 71.8397 1.44794 71.8558 1.42759C71.9495 1.30918 72.11 1.16257 72.3358 1.11557L72.6277 1.12134C72.8892 1.19648 73.043 1.43875 73.0927 1.52582C73.146 1.61925 73.1704 1.733 73.2065 1.83783C73.2646 1.82349 73.3236 1.8074 73.3846 1.80317L73.6172 1.79161C73.6296 1.75568 73.6364 1.7166 73.6518 1.68183C73.6776 1.62346 73.725 1.53203 73.8002 1.44493C73.8759 1.35727 74.0229 1.22786 74.2405 1.21379C74.4345 1.20196 74.5793 1.29669 74.6759 1.38136C74.866 1.3442 75.0416 1.4023 75.1756 1.50848C75.2099 1.4445 75.2451 1.36576 75.3042 1.30047C75.4132 1.18084 75.625 1.02857 75.9029 1.0809C76.0262 1.10421 76.1244 1.16233 76.1998 1.22535L76.3581 1.40447L76.4521 1.5836C76.4687 1.55895 76.4827 1.53168 76.5016 1.50848C76.5725 1.42104 76.6953 1.3052 76.8726 1.25424C76.969 1.22674 77.0621 1.22092 77.1497 1.23691L77.3921 1.33514L77.4316 1.36403C77.4897 1.28964 77.5705 1.20264 77.684 1.14446C77.893 1.03769 78.1189 1.06176 78.3025 1.17913C78.391 1.23587 78.4553 1.30959 78.5053 1.37558C78.5567 1.39046 78.5993 1.4204 78.6438 1.44493C78.7384 1.38155 78.8444 1.31309 78.9753 1.30624L79.1979 1.33514L79.4998 1.51426C79.5773 1.58836 79.6302 1.67335 79.668 1.73384C79.6972 1.73096 79.7262 1.73277 79.757 1.73384C79.7923 1.6663 79.827 1.58263 79.8906 1.51426C80.029 1.36598 80.2916 1.20954 80.5981 1.34092C80.6071 1.34478 80.6142 1.35405 80.6228 1.35825C80.6583 1.33658 80.6941 1.31051 80.7366 1.29469C80.8487 1.25301 80.9601 1.25643 81.0681 1.27735C81.0989 1.25916 81.1305 1.24053 81.1621 1.21957L81.3501 1.12712C81.5405 1.06909 81.7435 1.10028 81.9191 1.21957C81.9522 1.2421 81.9748 1.28033 82.0032 1.30624C82.0714 1.2608 82.1536 1.223 82.2506 1.20802C82.4767 1.17358 82.6383 1.27842 82.7503 1.38136C82.7989 1.35792 82.8487 1.32269 82.9086 1.31202C83.141 1.27095 83.3321 1.37609 83.4528 1.48537C83.4638 1.49538 83.4672 1.51529 83.4776 1.52582C83.5369 1.48782 83.6048 1.45026 83.6854 1.43337C83.7932 1.41087 83.8879 1.43086 83.9723 1.45647C84.0874 1.38709 84.2358 1.3416 84.4176 1.38714C84.5586 1.42264 84.6634 1.50276 84.7391 1.5836C84.7939 1.54025 84.8508 1.49735 84.9176 1.46803L85.2393 1.35825H85.219C85.2215 1.35629 85.2274 1.3524 85.2342 1.3467L85.4909 1.19646C85.5947 1.16275 85.7138 1.15318 85.8421 1.19068C86.0195 1.24242 86.1335 1.36527 86.2035 1.45647C86.2213 1.4267 86.2322 1.39153 86.2534 1.36403C86.3327 1.25849 86.516 1.0626 86.8022 1.06934C86.9415 1.07306 87.0555 1.12308 87.1433 1.1849L87.3316 1.37558L87.3612 1.43337C87.5089 1.30676 87.7302 1.1995 88.0046 1.29469L87.9995 1.30047C88.0899 1.28825 88.1735 1.28879 88.252 1.30624C88.2908 1.2666 88.3263 1.21693 88.3753 1.1849C88.5112 1.0975 88.6843 1.04749 88.8701 1.09245C88.9571 1.11366 89.0305 1.15349 89.093 1.19646L89.2416 1.32936L89.4392 1.59515C89.4519 1.6155 89.462 1.63788 89.4738 1.65871C89.5878 1.63277 89.7119 1.6305 89.8403 1.67605C89.8825 1.6914 89.9171 1.72978 89.9543 1.75116C89.961 1.74859 89.9669 1.74199 89.9737 1.7396C90.0159 1.62554 90.0564 1.50283 90.1223 1.39869C90.2017 1.27296 90.4094 0.99935 90.7556 1L91.0773 1.08667ZM77.0408 40.7539H77.0557C77.0128 40.7335 76.9682 40.7231 76.932 40.6961L77.0408 40.7539ZM39.4743 40.465L39.4842 40.4707C39.473 40.4574 39.4592 40.4486 39.4496 40.4361C39.4511 40.438 39.4581 40.4505 39.4743 40.465ZM36.6543 40.2569L36.6641 40.2512C36.613 40.2368 36.5599 40.2338 36.5107 40.2108L36.6543 40.2569ZM42.5616 40.153H42.5715C42.6013 40.1252 42.6183 40.0992 42.621 40.0952L42.5616 40.153ZM44.8226 40.0201C44.8393 40.0416 44.8738 40.0802 44.9264 40.1183C44.8876 40.0812 44.8485 40.0535 44.8226 40.0201ZM14.2519 39.893L14.2617 39.8871L14.2816 39.8641L14.2519 39.893ZM77.3427 39.5983L77.3327 39.5809C77.3306 39.5779 77.3264 39.5739 77.3228 39.5694C77.328 39.5799 77.3382 39.5886 77.3427 39.5983ZM32.34 39.4884L32.439 39.5289L32.4686 39.4018L32.34 39.4884ZM32.439 39.5289L32.34 39.4884L32.4686 39.4018L32.439 39.5289ZM53.3917 39.4365L53.3818 39.4191C53.3786 39.4146 53.3727 39.409 53.3669 39.4018C53.3736 39.4136 53.3851 39.4245 53.3917 39.4365ZM17.8982 39.4018C17.8882 39.4172 17.8819 39.4295 17.8784 39.4365C17.8872 39.4172 17.906 39.4017 17.918 39.3787C17.911 39.3881 17.9024 39.3953 17.8982 39.4018ZM81.6272 39.3094C81.6095 39.2906 81.5844 39.2635 81.548 39.24C81.5758 39.2668 81.6063 39.2841 81.6272 39.3094ZM44.1348 39.2574C44.125 39.2663 44.1135 39.2718 44.1052 39.2805V39.292C44.114 39.2802 44.1246 39.2699 44.1348 39.2574ZM10.3779 3.14948C10.2596 3.20898 10.1211 3.23414 9.97719 3.20149C9.89039 3.18169 9.81938 3.13887 9.75951 3.09748C9.68453 3.16536 9.59663 3.23282 9.48247 3.26505C9.12117 3.36655 8.873 3.12846 8.75517 2.97614V2.98192C8.70456 3.06611 8.60451 3.20514 8.44348 3.29394C8.25038 3.39984 8.03112 3.40114 7.83988 3.29394C7.79166 3.2669 7.75334 3.22878 7.71619 3.19571C7.63062 3.27053 7.53396 3.33968 7.41439 3.37484C7.13316 3.45705 6.92899 3.32127 6.79101 3.18993C6.61899 3.24177 6.43818 3.22197 6.28142 3.12059C6.16684 3.04599 6.09032 2.94135 6.03899 2.86057C5.93141 2.88775 5.82935 2.88864 5.73224 2.86635C5.72634 2.87 5.72336 2.88014 5.7174 2.88369L5.47002 2.99348C5.36751 3.02509 5.27207 3.02718 5.18306 3.01659C5.12598 3.09381 5.0606 3.18562 4.96042 3.24771L4.79221 3.32861C4.68546 3.35993 4.58007 3.3647 4.48051 3.3575L4.19851 3.29394H4.2183C4.16656 3.30284 4.1146 3.28318 4.06493 3.28239C4.06149 3.30103 4.06444 3.32143 4.05998 3.34016C4.02938 3.46739 3.96414 3.62888 3.83734 3.76198C3.73652 3.86734 3.62126 3.91775 3.51081 3.94688L3.50586 4.0451C3.47117 4.1924 3.40257 4.3143 3.3228 4.4149C3.3309 4.59292 3.31388 4.81099 3.15953 5.00428C3.13264 5.0379 3.09885 5.05956 3.07047 5.08517C3.05457 5.21016 3.01784 5.33056 2.94679 5.44342C2.96715 5.48387 2.99387 5.52763 3.0111 5.5821L3.05563 5.88835C3.05165 6.09628 3.00399 6.29002 2.93194 6.46038C2.91835 6.4927 2.9085 6.52466 2.90226 6.55861C2.86151 6.78216 2.75159 6.94535 2.64004 7.07287C2.6474 7.12883 2.64595 7.18593 2.64498 7.24622C2.67583 7.31926 2.70829 7.39218 2.72909 7.47156L2.77857 7.77203L2.76373 8.03205C2.75376 8.08307 2.73039 8.12628 2.71426 8.17073C2.76345 8.26642 2.8105 8.38616 2.81815 8.53475C2.82657 8.69989 2.79189 8.84645 2.73899 8.96233C2.68266 9.08526 2.60202 9.16676 2.53614 9.22813C2.61306 9.27443 2.69375 9.32154 2.76373 9.38415C2.81434 9.42956 2.87464 9.4927 2.93194 9.57483L3.08037 9.88684L3.11994 10.2162C3.1122 10.4488 3.02097 10.6392 2.92205 10.7882C2.92241 10.9433 2.90674 11.0947 2.85773 11.2389C2.86173 11.2272 2.8704 11.2065 2.87258 11.1812L2.89731 11.5683C2.89317 11.6768 2.87009 11.7767 2.84289 11.8687C2.84623 11.8772 2.85457 11.8831 2.85773 11.8919C2.96428 12.1899 2.90104 12.4856 2.77857 12.6835C2.75649 12.7191 2.72333 12.7414 2.69941 12.7702C2.70395 12.8061 2.71869 12.8414 2.7192 12.8799C2.71964 12.9139 2.70715 12.9461 2.70436 12.9782C2.73481 13.0529 2.76883 13.1384 2.77857 13.2382C2.78396 13.2952 2.76276 13.3481 2.75878 13.4C2.82979 13.4579 2.9184 13.5335 2.98636 13.6484L3.08037 13.8738L3.12489 14.1685C3.12716 14.3589 3.0764 14.5309 3.00616 14.677L2.88741 14.8734C2.88208 14.8805 2.8731 14.8838 2.86763 14.8908C2.89682 15.0152 2.91243 15.1583 2.86763 15.3241C2.83151 15.4572 2.76656 15.5534 2.70436 15.6304C2.82066 15.7669 2.96109 15.9833 2.93689 16.3064C2.92572 16.4552 2.87139 16.5702 2.81815 16.6705C2.82551 16.7347 2.82879 16.7961 2.8231 16.8611C2.93981 16.9847 3.10611 17.2107 3.09521 17.5545C3.08521 17.8489 2.94874 18.0502 2.84289 18.1728C2.91248 18.2643 2.98856 18.4044 3.021 18.5888C3.05501 18.7834 3.02995 18.9706 2.96657 19.1262C2.87325 19.3547 2.70881 19.4839 2.60046 19.5595C2.61062 19.5794 2.62592 19.5959 2.6351 19.6173C2.67223 19.7045 2.69288 19.7976 2.70436 19.8889C2.75175 19.9423 2.80362 20.0081 2.84289 20.0911C2.89732 20.2071 2.93518 20.356 2.927 20.5245C2.91853 20.692 2.86511 20.8297 2.80825 20.9289C2.7269 21.0707 2.62006 21.1548 2.54604 21.2063C2.53304 21.3292 2.50547 21.4349 2.46193 21.5241C2.50168 21.5817 2.54245 21.6391 2.57572 21.7033C2.61874 21.7862 2.65462 21.8754 2.68457 21.969L2.75383 22.2695L2.72909 22.6508C2.71894 22.6916 2.6938 22.7237 2.67962 22.7606C2.71402 22.8537 2.73982 22.9632 2.73899 23.09C2.73836 23.177 2.70848 23.2503 2.68952 23.3211C2.74917 23.3966 2.81825 23.4955 2.85773 23.6331C2.92024 23.8528 2.89693 24.0817 2.81815 24.2687C2.77642 24.3668 2.72044 24.4402 2.66972 24.4999C2.75137 24.5898 2.85197 24.7295 2.88741 24.939C2.9397 25.2516 2.81907 25.4789 2.7192 25.6151C2.78909 25.8325 2.78018 26.0684 2.68952 26.2737C2.68459 26.2849 2.66998 26.2922 2.66477 26.3026C2.69691 26.4293 2.70161 26.5505 2.68457 26.6667C2.73957 26.7768 2.79103 26.9144 2.78847 27.0885C2.78799 27.1163 2.77131 27.1433 2.76868 27.1693C2.84522 27.2749 2.93163 27.4417 2.94679 27.6605C2.95437 27.7746 2.94173 27.88 2.9171 27.9726L2.8132 28.2153C2.80786 28.2241 2.79892 28.2297 2.79342 28.2383L2.8231 28.2846L2.89731 28.5042C2.94507 28.7277 2.91571 28.9609 2.8132 29.1628C2.70614 29.3735 2.54769 29.5025 2.44214 29.5731C2.42092 29.5874 2.40184 29.5968 2.38772 29.6078C2.38274 29.7572 2.36059 29.8968 2.31351 30.0296C2.31728 30.0622 2.31938 30.0951 2.3234 30.1278C2.45317 30.2716 2.64255 30.5497 2.56088 30.9541C2.55745 30.9709 2.54523 30.9842 2.54109 31.0003C2.55854 31.0132 2.57872 31.021 2.59551 31.035C2.67406 31.1004 2.81716 31.2348 2.89731 31.451L2.95174 31.6937L2.93194 32.0982L2.927 32.1039C2.9668 32.1958 3.00584 32.2982 3.01605 32.4217C3.02814 32.5724 3.00927 32.7103 2.97152 32.8263L2.8231 33.1151C2.79527 33.1533 2.75522 33.179 2.72415 33.2133C2.74858 33.248 2.77477 33.2825 2.79836 33.3174L2.95174 33.6178L3.04079 33.9876L3.06552 34.1841C3.13137 34.5238 3.01213 34.801 2.88741 34.9699C2.82007 35.0612 2.73967 35.1261 2.66477 35.1837C2.70626 35.2781 2.74316 35.3916 2.74888 35.5246C2.75558 35.6907 2.70948 35.827 2.65983 35.9407C2.68979 36.0222 2.71284 36.1153 2.7192 36.218C2.72332 36.2854 2.71236 36.3484 2.70436 36.4087C2.73901 36.4163 2.77433 36.42 2.80825 36.4318C2.8907 36.4606 3.0224 36.5212 3.13974 36.6571C3.26846 36.8064 3.33562 37.0085 3.33764 37.2292C3.51253 37.3332 3.63963 37.51 3.69386 37.7204C3.73565 37.8831 3.71793 38.0305 3.70375 38.1306C3.81803 38.1116 3.96661 38.1122 4.11935 38.1999C4.22479 38.2609 4.30007 38.346 4.35683 38.4311C4.46465 38.4092 4.58905 38.4108 4.72294 38.4657C4.95249 38.5602 5.06566 38.7625 5.13359 38.9165C5.14526 38.9013 5.15576 38.8848 5.16822 38.8702C5.27209 38.7492 5.44968 38.5975 5.69266 38.5756L5.95983 38.6044C6.00428 38.6178 6.04381 38.6418 6.08351 38.6622C6.176 38.6197 6.28399 38.596 6.41005 38.6102C6.63546 38.636 6.78564 38.7784 6.88501 38.9048C6.93612 38.8803 6.99002 38.8516 7.05323 38.8413C7.09881 38.782 7.14825 38.7185 7.21155 38.668C7.35382 38.5547 7.538 38.4921 7.73103 38.5178L7.92894 38.5756L8.09221 38.6795C8.12996 38.7114 8.16123 38.7486 8.19115 38.7835C8.21914 38.7622 8.24703 38.7381 8.28021 38.7199C8.44871 38.6285 8.64494 38.6107 8.82935 38.691L8.83433 38.6969C8.95001 38.6621 9.08308 38.6476 9.23017 38.7027C9.42979 38.7776 9.55264 38.9423 9.63092 39.0667C9.65802 39.0722 9.68344 39.0879 9.71003 39.0956C9.85071 39.0314 10.0045 39.0114 10.1603 39.0378H10.185C10.3542 38.963 10.5539 38.9584 10.749 39.0551C10.7678 39.0645 10.7811 39.085 10.7985 39.0956C10.8993 39.0191 11.0271 38.9494 11.1794 38.9337C11.2565 38.9261 11.3286 38.9414 11.3972 38.9569C11.4756 38.914 11.5671 38.8802 11.6692 38.8702C11.7837 38.8592 11.8881 38.8804 11.981 38.9165L12.2184 39.0609L12.3322 39.136L12.4955 39.2053C12.5053 39.2085 12.5156 39.2135 12.5252 39.2169C12.5698 39.1106 12.6227 39.002 12.6885 38.9048C12.7704 38.7838 12.9236 38.6006 13.1634 38.535L13.4554 38.5178C13.5327 38.5297 13.6028 38.5596 13.668 38.5928C13.7397 38.5553 13.8193 38.5289 13.9056 38.5178L14.2074 38.5467L14.4053 38.6449C14.5748 38.7683 14.67 38.9472 14.712 39.032V39.0436C14.8699 39.0042 15.026 39.0213 15.1622 39.0956C15.1738 39.102 15.1857 39.1117 15.1969 39.1186C15.2931 39.0093 15.4152 38.9121 15.5679 38.8587L15.7658 38.8124C15.9219 38.7991 16.0657 38.8529 16.2012 38.9222C16.2487 38.8806 16.3032 38.8374 16.3694 38.8066C16.5636 38.7166 16.7738 38.7345 16.9483 38.8355C17.0225 38.8787 17.0832 38.9328 17.1313 38.9858L17.2402 39.136L17.255 39.1591C17.3055 39.1576 17.3519 39.1674 17.3985 39.1764H17.4034L17.4975 39.0204C17.5424 38.9596 17.6006 38.8952 17.6755 38.8413C17.8624 38.7075 18.1068 38.6728 18.3336 38.7951C18.3998 38.8309 18.4509 38.8821 18.4969 38.928C18.5555 38.9233 18.6193 38.9297 18.6848 38.9454C18.7655 38.9648 18.829 39.0099 18.8877 39.0493C18.9104 39.0289 18.9314 39.0041 18.957 38.9858C19.1478 38.8492 19.3762 38.8257 19.5903 38.9107C19.7276 38.8029 19.8889 38.7137 20.0801 38.691L20.3126 38.7027C20.4169 38.7296 20.4978 38.7949 20.5698 38.8529C20.638 38.8199 20.7145 38.7964 20.7975 38.7893L21.025 38.8124L21.2526 38.928C21.3891 38.7927 21.595 38.6556 21.881 38.7373H21.8908C21.9331 38.7122 21.9806 38.6895 22.0343 38.6738C22.1995 38.6255 22.362 38.6513 22.4944 38.7258C22.696 38.8394 22.7969 39.0387 22.8358 39.1245L22.8457 39.1302C22.8881 39.0491 22.9553 38.9343 23.0634 38.8413C23.2041 38.7209 23.4198 38.6337 23.6621 38.7084C23.7155 38.7251 23.7576 38.7632 23.8006 38.7893C23.9072 38.7102 24.0522 38.6409 24.2359 38.6622C24.2568 38.6646 24.2758 38.6752 24.2954 38.6795C24.3942 38.5886 24.5335 38.5037 24.701 38.4889L24.9732 38.5293L25.2057 38.616L25.453 38.7547C25.4915 38.7864 25.5216 38.8254 25.552 38.8587C25.5776 38.8551 25.6037 38.8416 25.6312 38.8413C25.7682 38.8398 25.8789 38.8866 25.9726 38.9454C26.095 38.9206 26.2124 38.9337 26.3238 38.98C26.4246 38.8416 26.5511 38.7048 26.7147 38.616L27.0214 38.535C27.1267 38.5373 27.2325 38.5711 27.3281 38.6275C27.4211 38.6828 27.4887 38.7576 27.5409 38.824C27.5841 38.7843 27.6247 38.7336 27.6795 38.7027L27.8477 38.6391C28.0177 38.5936 28.196 38.6163 28.3572 38.7084C28.4606 38.7677 28.5402 38.849 28.6046 38.928L28.6095 38.9222C28.7186 38.7958 28.9441 38.621 29.2478 38.6969C29.3147 38.7137 29.3745 38.7404 29.4259 38.772C29.4681 38.7467 29.5122 38.7132 29.5644 38.6969C29.7798 38.63 29.9776 38.6933 30.1235 38.8009C30.1304 38.8059 30.1368 38.813 30.1433 38.8182C30.2418 38.7974 30.351 38.7965 30.4698 38.8413C30.5682 38.8785 30.641 38.9427 30.7023 39.0031C30.7666 38.9011 30.8731 38.7718 31.0388 38.7027C31.2019 38.6346 31.3762 38.645 31.5286 38.7199C31.6163 38.7635 31.6817 38.8275 31.7315 38.8818C31.8975 38.7958 32.0741 38.7971 32.2312 38.8587L32.241 38.8471C32.3466 38.7077 32.5729 38.5177 32.8743 38.5524C33.0543 38.4647 33.2446 38.4477 33.4285 38.5061L33.6462 38.6102L33.8094 38.7604C34.0086 38.7085 34.1963 38.7638 34.3388 38.8702C34.3537 38.8813 34.3648 38.8989 34.3784 38.9107C34.4417 38.8592 34.5146 38.8096 34.601 38.7777L34.9572 38.7316C34.964 38.7321 34.9703 38.7366 34.977 38.7373C35.107 38.6327 35.2853 38.5381 35.5163 38.5871C35.6737 38.6205 35.7936 38.7089 35.8824 38.8009L36.0605 39.0493L36.1051 39.1302C36.1391 39.0826 36.1751 39.0341 36.2188 38.9915C36.381 38.8338 36.6329 38.7215 36.9115 38.8182C37.0319 38.7979 37.143 38.8166 37.243 38.8529C37.3513 38.7658 37.5065 38.6918 37.6932 38.7027C37.7888 38.7083 37.8734 38.7349 37.9456 38.772L38.1286 38.9048L38.3759 39.1475C38.3911 39.1625 38.4055 39.1785 38.4205 39.1938C38.4291 39.1731 38.4358 39.1506 38.4453 39.1302C38.4833 39.0486 38.5682 38.8927 38.7173 38.7777C38.9136 38.6272 39.1762 38.5933 39.4149 38.7373C39.5843 38.8398 39.6772 38.9982 39.7217 39.084C39.8231 39.0828 39.9141 39.1054 39.9987 39.1418C40.0034 39.1375 40.009 39.1345 40.0136 39.1302L40.2313 38.9858C40.3155 38.946 40.4117 38.9187 40.5182 38.9165C40.6258 38.9141 40.7236 38.9369 40.8101 38.9742L41.0328 39.1186L41.1515 39.24C41.2925 39.1442 41.461 39.0719 41.6612 39.084H41.7057C41.7894 38.985 41.9065 38.8775 42.0668 38.824C42.1994 38.7801 42.3245 38.7823 42.4379 38.8124L42.7347 38.9684L42.7694 39.0031C42.828 38.9457 42.8884 38.8895 42.9475 38.8355L43.1849 38.691C43.279 38.6577 43.388 38.644 43.5065 38.668C43.5814 38.6834 43.6428 38.7268 43.6995 38.7604C43.7541 38.7064 43.8185 38.648 43.9024 38.6102C44.1566 38.4959 44.4027 38.5762 44.5653 38.7142C44.6513 38.7873 44.7102 38.8773 44.7533 38.9511C44.7689 38.9356 44.7804 38.9138 44.7978 38.8991C44.927 38.7901 45.1203 38.6988 45.347 38.7488C45.3568 38.7511 45.3672 38.7578 45.3767 38.7604C45.4302 38.733 45.4847 38.6927 45.5498 38.6795C45.69 38.6515 45.8174 38.6698 45.9258 38.7142L46.193 38.8991C46.2193 38.9049 46.2434 38.9104 46.2672 38.9107L46.3959 38.9337C46.4697 38.8538 46.5812 38.7622 46.7323 38.7199C46.9009 38.6734 47.0403 38.7093 47.1578 38.7662C47.1945 38.7264 47.2362 38.6855 47.2865 38.6506C47.4443 38.5413 47.6529 38.4899 47.8653 38.5698C47.9576 38.6047 48.0334 38.6596 48.0929 38.7142L48.2264 38.8702L48.365 39.1418C48.3745 39.1423 48.3849 39.1408 48.3947 39.1418C48.4934 39.1514 48.5779 39.1871 48.652 39.2285C48.7063 39.1206 48.8872 38.7889 49.2506 38.7431C49.3759 38.7278 49.4848 38.754 49.5772 38.7951C49.6013 38.7788 49.626 38.7633 49.6513 38.7488L49.9383 38.6622C50.0386 38.6582 50.1428 38.6832 50.2401 38.7316C50.2924 38.7577 50.3337 38.7963 50.3737 38.8298C50.4452 38.7462 50.5386 38.6637 50.6557 38.6044L50.9526 38.535C51.054 38.5382 51.1526 38.5691 51.2445 38.6217C51.3978 38.71 51.4956 38.8385 51.5463 38.9222C51.6004 39.0119 51.6392 39.1164 51.6749 39.2169C51.7116 39.2267 51.7461 39.2367 51.7788 39.2516C51.8005 39.2424 51.8198 39.2241 51.8432 39.2169L51.853 39.2111C51.8639 39.1866 51.8753 39.1601 51.8877 39.136C51.9294 39.0547 52.0011 38.9341 52.1152 38.8355C52.2441 38.7243 52.4424 38.633 52.6743 38.6853C52.7934 38.7123 52.8834 38.7793 52.9563 38.8413C53.0123 38.7695 53.0907 38.6871 53.1987 38.6275C53.3635 38.5366 53.5579 38.5159 53.743 38.5928C53.8252 38.6273 53.8958 38.6758 53.9507 38.7258L54.0744 38.8702L54.213 39.1129C54.2367 39.1122 54.2597 39.105 54.2822 39.1071C54.294 39.0961 54.3044 39.083 54.3168 39.0725C54.4251 38.9803 54.5675 38.9011 54.7324 38.8876C54.814 38.8254 54.9186 38.7652 55.0491 38.7488C55.26 38.7228 55.4372 38.8112 55.5538 38.9107C55.6103 38.959 55.6464 39.0267 55.6873 39.084C55.7811 38.989 55.9311 38.8767 56.1376 38.8702C56.2659 38.8663 56.3755 38.9061 56.4641 38.9569C56.4814 38.9281 56.4952 38.8971 56.5136 38.8702L56.7709 38.616C56.8934 38.5377 57.0541 38.489 57.2458 38.5293C57.4661 38.5765 57.6059 38.7333 57.696 38.8587C57.7079 38.8615 57.719 38.8669 57.7307 38.8702C57.8496 38.7843 58.0133 38.7119 58.2106 38.7488C58.3341 38.7725 58.432 38.8306 58.5074 38.8933C58.5547 38.8177 58.6152 38.7408 58.6856 38.6738C58.8362 38.5308 59.0734 38.4106 59.3535 38.4889C59.3683 38.493 59.3831 38.49 59.3931 38.4889C59.5901 38.4676 59.7551 38.5317 59.8878 38.6217L60.1896 38.928L60.2688 39.0378C60.3345 38.9471 60.4408 38.8432 60.5903 38.7835C60.7874 38.7052 60.9553 38.7561 61.09 38.8298C61.1598 38.7636 61.252 38.6974 61.372 38.6622C61.7062 38.5657 61.9301 38.7648 62.0598 38.9222C62.1424 38.8279 62.2896 38.7063 62.4951 38.6795C62.5778 38.669 62.6529 38.6843 62.7227 38.7027C62.8415 38.6439 62.9731 38.6027 63.1185 38.6044L63.4153 38.6738C63.4636 38.6971 63.5029 38.7351 63.544 38.7662C63.6045 38.7482 63.6692 38.729 63.7419 38.7316C63.8893 38.7372 64.008 38.7993 64.1031 38.8702C64.1123 38.8685 64.1233 38.8659 64.1327 38.8644C64.2928 38.8409 64.431 38.8885 64.5483 38.9511C64.602 38.8849 64.6676 38.8196 64.7462 38.7662L65.0579 38.5871L65.3003 38.5178C65.3844 38.5114 65.4722 38.5219 65.5576 38.5524C65.6402 38.5822 65.7083 38.627 65.7654 38.6738C65.8476 38.6199 65.953 38.5818 66.0772 38.5756C66.2745 38.5658 66.4202 38.6593 66.5224 38.7488C66.628 38.6568 66.7845 38.5665 66.9825 38.5756C67.0861 38.5805 67.1788 38.6096 67.2546 38.6506L67.4377 38.7951L67.4872 38.8355C67.5401 38.8588 67.5914 38.8749 67.6405 38.8876L67.8829 38.9511L67.9869 38.9915C68.0275 38.9432 68.0627 38.8878 68.1106 38.8471L68.2788 38.7316C68.3959 38.6675 68.528 38.6263 68.6696 38.6275L68.8873 38.6622L69.1595 38.7547L69.3078 38.824C69.3154 38.8208 69.3248 38.8153 69.3326 38.8124C69.5292 38.7405 69.7249 38.7779 69.8817 38.8759C70.0076 38.955 70.0921 39.0613 70.144 39.1418C70.1975 39.1043 70.2603 39.0721 70.332 39.0493C70.4717 39.0056 70.6116 39.02 70.7377 39.0667C70.7682 39.0123 70.7964 38.9535 70.8366 38.9048C70.9193 38.8052 71.0781 38.6625 71.3116 38.6449C71.4336 38.6358 71.5398 38.6645 71.6282 38.7084L71.8409 38.8644L72.1131 39.1764L72.1676 39.2458C72.1806 39.2435 72.1938 39.2416 72.2071 39.24C72.2663 39.1358 72.3224 39.0314 72.3852 38.9396L72.593 38.7142C72.689 38.6405 72.8127 38.5801 72.9641 38.5698C73.1221 38.5591 73.2543 38.607 73.3599 38.6738L73.5973 38.8991L73.6716 39.032C73.7467 38.9278 73.8526 38.8183 73.9981 38.7547C74.1698 38.68 74.3574 38.6871 74.5225 38.7662C74.5969 38.8021 74.6598 38.8512 74.7106 38.8991L74.8293 39.0378L74.8936 39.1534C74.9006 39.1402 74.9061 39.1257 74.9134 39.1129C74.9814 38.9934 75.0992 38.8269 75.2795 38.7199L75.4675 38.6449C75.5359 38.6284 75.6086 38.619 75.6852 38.6275C75.8355 38.6445 75.9607 38.7151 76.0513 38.7893C76.1875 38.9014 76.2742 39.0515 76.3334 39.1707C76.4145 39.12 76.5159 39.0843 76.6352 39.0782C76.8049 39.0695 76.9395 39.1363 77.0408 39.2111L77.0508 39.1996C77.0983 39.1151 77.2354 38.8955 77.496 38.824C77.5778 38.8017 77.6537 38.7978 77.7236 38.8066C77.7871 38.7284 77.8646 38.6461 77.966 38.5871L78.2184 38.4773C78.3052 38.4519 78.3967 38.4375 78.4904 38.4368L78.7032 38.4715C78.8958 38.5374 79.0274 38.6849 79.099 38.7835C79.1441 38.8459 79.1689 38.9236 79.2029 38.9915L79.2079 38.9858L79.3315 38.8298C79.386 38.7749 79.4543 38.7194 79.5393 38.6795C79.7398 38.5857 79.9531 38.6082 80.1281 38.7142C80.2137 38.7666 80.2806 38.8367 80.3309 38.8991C80.5274 38.9006 80.673 38.9971 80.7811 39.0956C80.8251 39.0729 80.8724 39.0509 80.9247 39.0378C81.049 39.0066 81.1582 39.0251 81.2561 39.0551C81.3111 39.0153 81.3668 38.975 81.4293 38.9454L81.6421 38.8355L81.8746 38.7488C81.9568 38.7337 82.0433 38.7326 82.1318 38.7488C82.2186 38.7651 82.2997 38.7966 82.3693 38.8355L82.5474 38.9684L82.582 38.9973L82.7602 39.0956C82.8672 38.9779 83.0719 38.8269 83.3489 38.8759C83.3947 38.8842 83.4385 38.9002 83.4776 38.9165C83.4857 38.9093 83.4939 38.9002 83.5023 38.8933L83.8239 38.7142C83.8824 38.6958 83.9435 38.684 84.0069 38.6795L84.2098 38.691L84.4325 38.772C84.4592 38.7863 84.482 38.8073 84.5066 38.824C84.6979 38.7642 84.8948 38.8056 85.051 38.9165C85.1987 39.0222 85.2815 39.1695 85.3229 39.2516C85.3271 39.2604 85.3288 39.2715 85.333 39.2805C85.4157 39.2544 85.5086 39.2464 85.6049 39.2516L85.8421 39.2863C85.9317 39.1567 86.0836 38.9795 86.3277 38.9337C86.3792 38.9242 86.429 38.9316 86.4754 38.9337C86.5877 38.8314 86.7617 38.7232 86.9905 38.7547C87.0158 38.7583 87.0403 38.7771 87.0648 38.7835C87.091 38.7664 87.1172 38.7456 87.1484 38.7316C87.3105 38.6591 87.4853 38.6623 87.6432 38.7373C87.8138 38.8188 87.9168 38.9629 87.975 39.0667C88.0105 39.0195 88.0434 38.9695 88.084 38.928L88.415 38.6969C88.4817 38.6695 88.5526 38.6528 88.6277 38.6449L88.8608 38.6564L89.0339 38.7258C89.0888 38.6805 89.1437 38.6338 89.207 38.5986L89.4983 38.5178C89.5996 38.5155 89.7043 38.537 89.8006 38.5871C89.9154 38.6473 89.9956 38.7377 90.0531 38.8124C90.0936 38.7928 90.1375 38.7713 90.1865 38.7604C90.3435 38.7259 90.4913 38.7611 90.612 38.8298C90.7015 38.881 90.7674 38.9544 90.8197 39.0204C90.8822 38.9839 90.9464 38.9456 91.0173 38.9222L91.2402 38.8876C91.4454 38.8829 91.6303 38.9644 91.7798 39.084C91.7866 39.0848 91.7925 39.0889 91.7992 39.0897C91.8617 38.9175 91.9841 38.671 92.2543 38.5698C92.316 38.5468 92.3768 38.5507 92.4325 38.5467C92.4654 38.5007 92.5001 38.4547 92.5414 38.4137L92.7694 38.2635C92.7838 38.2576 92.799 38.2566 92.8133 38.2519C92.8175 38.2394 92.8184 38.2242 92.8235 38.2115C92.8775 38.0669 92.9797 37.9374 93.1207 37.8417C93.2617 37.6274 93.4576 37.5354 93.6146 37.5066C93.6501 37.5002 93.6847 37.5024 93.7185 37.5008C93.7692 37.3814 93.8342 37.2866 93.9169 37.2118C93.933 37.0327 93.9904 36.856 94.1094 36.7149C94.1559 36.6605 94.2099 36.6214 94.258 36.5878C94.296 36.4841 94.3425 36.3931 94.4016 36.3162C94.4024 36.271 94.3991 36.2242 94.4067 36.1776L94.2732 36.0331C94.1998 35.9336 94.1179 35.7789 94.0951 35.5766C94.0799 35.4439 94.0993 35.3217 94.1297 35.2126C94.0782 35.1013 94.036 34.9629 94.0453 34.7909C94.0537 34.6395 94.0976 34.5173 94.1491 34.421C94.0816 34.3215 94.0047 34.1822 93.9862 33.9935C93.9608 33.727 94.0495 33.5137 94.1398 33.381C94.1153 33.3524 94.0774 33.3328 94.0554 33.3C93.9515 33.1467 93.857 32.9164 93.8772 32.6355L93.9465 32.3004C93.9794 32.1967 94.0208 32.0997 94.0706 32.0115C94.1229 31.9176 94.1761 31.8222 94.2285 31.7284C94.2445 31.7001 94.2454 31.6924 94.2437 31.7053L94.3476 31.3875C94.394 31.2982 94.4463 31.2236 94.4953 31.1679L94.5004 31.1563C94.4582 31.1163 94.4083 31.0818 94.372 31.0292C94.3045 30.9327 94.2555 30.7884 94.2336 30.6132L94.2234 30.6074C94.139 30.516 94.0064 30.3311 93.9862 30.0527C93.965 29.761 94.0799 29.5435 94.1745 29.4229C94.2116 29.375 94.2589 29.3412 94.2977 29.3073C94.318 29.2154 94.3526 29.1323 94.3915 29.0589C94.383 29.0261 94.3872 28.992 94.3822 28.9607C94.3704 28.951 94.3543 28.9481 94.3425 28.9375C94.2842 28.8848 94.1922 28.7814 94.1297 28.6197C94.0579 28.4337 94.0495 28.2195 94.1145 28.0188C94.1348 27.9576 94.1576 27.9028 94.1837 27.857C94.1407 27.7954 94.1018 27.7181 94.0706 27.6258C93.9997 27.4182 94.0014 27.1909 94.0748 26.9903L94.0799 26.9556L93.9566 26.6378C93.8739 26.313 93.9406 26.0218 94.0605 25.8C93.9879 25.6655 93.9313 25.4952 93.9363 25.3031L93.9659 25.1182L93.976 25.199L93.9659 25.1008C93.9076 24.6799 94.1297 24.3911 94.2479 24.2803C94.2758 24.2544 94.3079 24.2332 94.3374 24.2109L94.2876 24.1763C94.1778 24.0828 93.8933 23.7883 93.9617 23.3096C93.9912 23.1063 94.0757 22.9545 94.1643 22.8473C94.0824 22.7153 93.998 22.522 94.0258 22.2695C94.0495 22.0528 94.1449 21.9042 94.2234 21.8072C94.1778 21.7019 94.1415 21.5743 94.1441 21.4201C94.1483 21.2285 94.2082 21.0791 94.2732 20.9694C94.2513 20.8329 94.253 20.7008 94.2825 20.5707C94.269 20.5549 94.2521 20.5414 94.2386 20.5245L94.036 20.1836C93.9651 20.0071 93.9439 19.7951 93.9963 19.5884C94.0301 19.4538 94.0883 19.3487 94.1441 19.2706C94.0968 19.1951 94.0512 19.0989 94.0258 18.9817C93.9608 18.6836 94.0529 18.4283 94.1593 18.271L94.3476 18.0398C94.3585 18.0279 94.3704 18.0169 94.3822 18.0052L94.2184 17.8723C94.1348 17.7909 93.9735 17.6023 93.9515 17.2945C93.9304 16.997 94.0503 16.783 94.1441 16.6647C94.1145 16.6003 94.0841 16.5277 94.0706 16.4393C94.0444 16.2727 94.0706 16.1335 94.1094 16.0175L94.1052 16.0117C94.0495 15.8517 94.041 15.6685 94.085 15.4916C94.1263 15.3288 94.204 15.2149 94.2631 15.145L94.2732 15.1335C94.2513 15.109 94.2234 15.0921 94.204 15.0641C94.128 14.956 94.0486 14.7878 94.036 14.5729C94.0292 14.461 94.041 14.358 94.0655 14.2667C94.0537 14.1994 94.047 14.1284 94.0503 14.053C94.0605 13.8673 94.1179 13.7131 94.1837 13.6022C94.1956 13.5824 94.2108 13.5626 94.2234 13.5444C94.1559 13.3288 94.1373 13.0925 94.1837 12.8569L94.1888 12.8337C94.1044 12.7489 94.009 12.6361 93.9465 12.4755C93.8012 12.0987 93.8764 11.7216 94.0503 11.447L94.2285 11.2332L94.2336 11.2274C94.2276 11.1484 94.2268 11.0758 94.2386 11.0078C94.2032 10.9414 94.1593 10.869 94.1398 10.7767C94.0909 10.5404 94.1474 10.3459 94.2184 10.1989C94.2099 10.14 94.2108 10.0802 94.2133 10.0197C94.1263 9.93441 93.9802 9.76055 93.9515 9.4766C93.9169 9.12715 94.0757 8.88497 94.1745 8.77743C94.1213 8.65283 94.0816 8.50165 94.0951 8.32674C94.1035 8.22293 94.1238 8.12806 94.1542 8.04938C94.0985 7.9744 94.0436 7.87887 94.0106 7.75469C93.9338 7.45723 94.0284 7.21909 94.1246 7.06132C94.0833 7.01376 94.041 6.95978 94.0056 6.89375L93.922 6.66262C93.8325 6.27717 93.9676 5.99322 94.1145 5.80168C94.0571 5.71114 94.0073 5.59825 93.9862 5.46076C93.9659 5.33053 93.9752 5.21317 93.9963 5.11407L93.8274 5.00428C93.6788 4.85233 93.5952 4.66384 93.5555 4.47269C93.4483 4.41041 93.3427 4.32664 93.2684 4.19534C93.1967 4.06746 93.1722 3.93358 93.1595 3.82553C93.1528 3.81953 93.1418 3.82037 93.135 3.81398C93.1122 3.79177 93.1004 3.75662 93.081 3.73308C93.0725 3.73237 93.0641 3.7399 93.0557 3.73886C92.8876 3.71706 92.7196 3.62927 92.5955 3.46729C92.5355 3.38831 92.495 3.30223 92.4671 3.2246C92.4494 3.22367 92.4308 3.23294 92.4131 3.23038C92.2932 3.21336 92.1902 3.15573 92.1007 3.08593V3.09171C92.0399 3.18013 91.8786 3.38418 91.6067 3.41528C91.4513 3.43271 91.3213 3.38573 91.2208 3.32283L91.003 3.12059L90.8544 2.95302C90.8451 2.94473 90.8383 2.93274 90.8299 2.92414C90.7682 2.99803 90.6838 3.08734 90.5622 3.1437C90.4769 3.1829 90.3849 3.19584 90.2954 3.19571C90.167 3.28455 90.0032 3.36561 89.8006 3.32861C89.6874 3.3077 89.5971 3.25288 89.5186 3.19571L89.3159 3.24771C89.0626 3.25985 88.8676 3.12452 88.7468 2.99925C88.7122 2.96373 88.6911 2.9165 88.6624 2.87791C88.5247 2.94337 88.3651 2.97141 88.2022 2.91836C88.1473 2.90017 88.1025 2.86519 88.0586 2.83747C88.0173 2.92098 87.9742 3.01063 87.9109 3.08593C87.8399 3.16979 87.726 3.27738 87.5638 3.32861C87.476 3.35651 87.3865 3.36199 87.3021 3.35172L87.0648 3.27083C86.9973 3.23332 86.9356 3.18906 86.8816 3.13793C86.8714 3.15064 86.8681 3.17171 86.8571 3.18416C86.7718 3.27739 86.6266 3.39661 86.4265 3.42106C86.3826 3.42634 86.3353 3.43433 86.288 3.44995C86.0684 3.5221 85.8624 3.46231 85.7138 3.35172C85.5855 3.25597 85.5061 3.12721 85.4613 3.04548C85.4377 3.0016 85.4276 2.94876 85.4073 2.90102C85.3566 3.00133 85.3017 3.10944 85.2241 3.20149C85.1261 3.3178 84.9682 3.45582 84.7491 3.49617C84.4374 3.55325 84.2366 3.36088 84.1158 3.21305C84.0628 3.22059 84.0143 3.21831 83.9674 3.21305C83.8721 3.31896 83.7263 3.44269 83.5319 3.46729L83.25 3.43839C83.0593 3.37225 82.9362 3.22467 82.8541 3.10904C82.8034 3.12973 82.7527 3.17199 82.6909 3.17838C82.5675 3.19067 82.4594 3.16359 82.3693 3.12059C82.2584 3.19392 82.1172 3.25953 81.9388 3.23038C81.8135 3.20978 81.7142 3.15435 81.6371 3.09171L81.4738 2.91258C81.4337 2.85415 81.4033 2.78588 81.3649 2.7219C81.3251 2.73535 81.2867 2.74953 81.2462 2.75656C81.2232 2.80512 81.2101 2.8642 81.177 2.91258C81.103 3.02038 80.8847 3.28322 80.5338 3.2246C80.4484 3.21005 80.3736 3.17662 80.3111 3.13793C80.2293 3.18037 80.1381 3.22137 80.0291 3.2246C79.9882 3.22572 79.9463 3.20926 79.9054 3.20727C79.8418 3.27048 79.7602 3.33542 79.6531 3.37484C79.4356 3.45478 79.2251 3.40572 79.0693 3.29394C79.0019 3.24557 78.9491 3.18663 78.906 3.13215C78.8472 3.15819 78.7873 3.1956 78.7131 3.20149C78.4583 3.22095 78.2726 3.07966 78.1738 2.97036C78.1364 2.92885 78.1168 2.8743 78.0897 2.83169C78.0172 2.90402 77.921 2.9889 77.7879 3.02815C77.7024 3.05326 77.6167 3.05557 77.5356 3.04548L77.3031 2.97036C77.2844 2.96014 77.2672 2.9464 77.2486 2.93569C77.2356 2.95875 77.2333 2.99454 77.219 3.01659C77.1553 3.1137 77.0198 3.28923 76.8083 3.36328L76.5658 3.39795L76.5362 3.40372C76.1819 3.53053 75.9074 3.31659 75.7742 3.15526C75.7201 3.19773 75.6628 3.24517 75.5912 3.27083L75.3141 3.29972L74.9876 3.24193C74.9281 3.22596 74.8788 3.18841 74.8293 3.16104C74.8086 3.17287 74.7883 3.19156 74.7649 3.20149C74.6375 3.25537 74.5082 3.24764 74.384 3.21305C74.3215 3.27157 74.2506 3.34037 74.1515 3.37484C73.9244 3.45354 73.7356 3.36499 73.5973 3.26505L73.4589 3.27661C73.4641 3.27622 73.468 3.27685 73.4687 3.27661L73.4589 3.28239C73.3201 3.36259 73.1683 3.41564 73.0086 3.43839C72.6027 3.49577 72.3732 3.15934 72.2962 3.02815C72.2139 3.06806 72.1209 3.10389 72.0141 3.10326C71.9093 3.10262 71.8177 3.06761 71.7371 3.02815C71.5772 3.04706 71.4425 2.99892 71.3265 2.92992C71.2052 2.98932 71.0781 3.01215 70.9405 2.99348C70.8776 3.02656 70.8171 3.06816 70.7476 3.08593L70.3913 3.09748C70.2825 3.07662 70.1877 3.03041 70.1094 2.97614C70.1015 2.98616 70.0977 3.00107 70.0895 3.01081C70.0201 3.09326 69.9084 3.19461 69.7531 3.24771C69.5844 3.30519 69.4124 3.28825 69.2633 3.21305C69.0666 3.11361 68.9431 2.93944 68.8725 2.82013C68.8485 2.77959 68.8341 2.73054 68.8131 2.68723C68.7367 2.74883 68.6397 2.79819 68.5162 2.82013C68.5018 2.85574 68.4976 2.89653 68.4816 2.92992C68.4414 3.0135 68.3455 3.19538 68.1748 3.32283L67.9819 3.42684C67.9066 3.45191 67.8272 3.46941 67.7494 3.47885L67.5119 3.48462C67.3902 3.47344 67.28 3.43309 67.1804 3.38062L66.9182 3.18993L66.9083 3.18416C66.8804 3.21351 66.8568 3.25022 66.8242 3.27661C66.664 3.40507 66.4381 3.49151 66.1909 3.42106C66.0339 3.37617 65.9209 3.27213 65.8347 3.17838C65.81 3.19708 65.7891 3.22582 65.7605 3.24193C65.5473 3.36153 65.3103 3.34466 65.1173 3.21882C64.9626 3.1174 64.8698 2.97248 64.8254 2.88947C64.8169 2.87354 64.8102 2.8621 64.8056 2.85479C64.7697 2.83367 64.7337 2.81643 64.7017 2.79124C64.6505 2.92001 64.5849 3.07045 64.4841 3.19571C64.3971 3.30322 64.2424 3.44484 64.0338 3.48462H63.8062C63.5521 3.44052 63.3741 3.26781 63.2471 3.10904C63.163 3.1324 63.0778 3.14156 62.9899 3.1437C62.8798 3.2248 62.7446 3.29828 62.5792 3.30549C62.4596 3.31047 62.3532 3.27963 62.2576 3.23616C62.1782 3.29427 62.083 3.35789 61.9608 3.37484C61.7748 3.40009 61.6112 3.33513 61.4908 3.24771C61.4138 3.19174 61.3589 3.11521 61.3077 3.04548C61.2041 3.15208 61.0385 3.28737 60.7981 3.26505C60.7063 3.25633 60.6281 3.22151 60.5607 3.18416C60.3899 3.25493 60.2085 3.25986 60.0411 3.1726C59.9056 3.10183 59.8164 2.99442 59.7592 2.91258L59.6997 2.9068C59.693 2.90618 59.6867 2.90182 59.68 2.90102C59.6606 2.93187 59.6471 2.97343 59.6206 3.00503C59.5489 3.09025 59.4065 3.21919 59.1951 3.24193C59.1357 3.24813 59.0835 3.22292 59.0318 3.21305C58.9818 3.26534 58.925 3.32337 58.8488 3.36328C58.6351 3.47439 58.4139 3.43639 58.2353 3.32283C58.0975 3.39459 57.9279 3.43496 57.7307 3.36328C57.6478 3.33311 57.5783 3.28637 57.518 3.23616C57.4147 3.32808 57.2783 3.42098 57.0974 3.43262C56.9031 3.44481 56.7185 3.39479 56.5532 3.30549C56.5115 3.28289 56.4813 3.24109 56.4443 3.21305C56.4071 3.22727 56.3687 3.24661 56.3255 3.25349C56.1786 3.27686 56.0406 3.24151 55.9298 3.17838C55.8672 3.14252 55.8203 3.0908 55.7764 3.04548C55.74 3.06775 55.7065 3.10479 55.6626 3.12059C55.4153 3.2091 55.1922 3.11962 55.0442 2.99348C54.9758 2.93511 54.9214 2.8701 54.8809 2.80857C54.749 2.84407 54.6362 2.8253 54.5345 2.79124C54.5029 2.81597 54.4742 2.85029 54.4405 2.87213L54.3515 2.9588C54.2027 3.14466 53.9524 3.36359 53.6093 3.34016C53.4405 3.32836 53.298 3.25199 53.174 3.16682C53.1355 3.17139 53.0967 3.19312 53.0553 3.18993C52.8847 3.17648 52.7484 3.09359 52.6545 3.01081C52.6422 2.99985 52.6315 2.98189 52.6199 2.97036C52.5617 3.06738 52.4606 3.20966 52.2884 3.28816C52.0698 3.38774 51.8762 3.33683 51.7293 3.24771C51.5941 3.39272 51.3655 3.57009 51.0515 3.47885C50.9432 3.44737 50.8538 3.39013 50.7794 3.32861C50.7676 3.33278 50.7571 3.34817 50.7448 3.35172C50.5261 3.41413 50.3405 3.33087 50.2055 3.23038C50.101 3.31866 49.9568 3.41278 49.7602 3.39795C49.6239 3.38743 49.513 3.3343 49.4287 3.27083L49.2506 3.08593C49.2108 3.02946 49.1798 2.96263 49.1417 2.90102C49.0694 2.89838 48.9938 2.88299 48.9142 2.84902C48.8881 2.89037 48.8725 2.94476 48.84 2.98192C48.7449 3.09018 48.5618 3.239 48.3056 3.2246C48.1233 3.21414 47.9919 3.11465 47.8999 3.02815L47.6377 3.32283C47.446 3.4648 47.2031 3.5457 46.9401 3.49039C46.7607 3.45232 46.6 3.36764 46.4603 3.25927C46.3517 3.17499 46.2666 3.06146 46.193 2.94725C45.9545 3.00289 45.7417 2.9229 45.5894 2.79702C45.5564 2.76961 45.5335 2.72925 45.5053 2.69879C45.4097 2.81633 45.2705 2.94825 45.065 2.98192C44.9856 2.99469 44.9142 2.98349 44.8473 2.97036C44.7233 3.14286 44.5461 3.33273 44.2981 3.41528C44.0594 3.49446 43.8343 3.43054 43.6649 3.30549C43.6011 3.2583 43.5486 3.19983 43.5016 3.1437C43.4722 3.14183 43.4429 3.14974 43.4126 3.1437C43.331 3.20753 43.2376 3.27363 43.1157 3.29394C42.7872 3.34862 42.5761 3.12891 42.4626 2.98192C42.4459 2.97736 42.4292 2.97594 42.4132 2.97036C42.3129 3.06134 42.1918 3.14561 42.0421 3.17838L42.0569 3.1726L42.0421 3.18416C41.9362 3.26908 41.7857 3.33887 41.6067 3.33439C41.5142 3.33178 41.4317 3.30987 41.3593 3.27661C41.3107 3.30376 41.2575 3.33178 41.1961 3.34594C40.9005 3.4141 40.677 3.24506 40.5677 3.12059C40.5531 3.10393 40.546 3.07995 40.5331 3.06281C40.5173 3.06102 40.4998 3.06584 40.4836 3.06281C40.2686 3.02231 40.1192 2.883 40.0235 2.76812C39.9611 2.83047 39.8942 2.89664 39.8108 2.94147L39.5683 3.02237C39.3825 3.05092 39.2231 3.0001 39.0884 2.92414C39.0708 2.94044 39.0589 2.96676 39.0389 2.98192C38.9242 3.06891 38.78 3.11577 38.6283 3.10904C38.5789 3.18401 38.5073 3.275 38.4057 3.34594C38.2774 3.43515 38.1198 3.46002 37.9505 3.43262C37.6723 3.53863 37.4121 3.46823 37.2083 3.31127C37.0469 3.29362 36.9268 3.21291 36.8323 3.12637C36.733 3.21119 36.5976 3.28832 36.4167 3.28239C36.1508 3.27285 35.986 3.094 35.9022 2.97614C35.807 3.01502 35.7115 3.03843 35.6153 3.03392L35.3085 2.94725C35.2839 2.93372 35.2671 2.90501 35.2441 2.88947C35.2138 2.93812 35.1949 3.00425 35.1502 3.05125C35.0223 3.18519 34.7817 3.33033 34.4921 3.23616C34.383 3.20027 34.3007 3.13244 34.2349 3.06859C34.1955 3.11528 34.1568 3.16673 34.1063 3.20727C33.94 3.33991 33.7091 3.42143 33.4581 3.34016C33.3738 3.31256 33.2886 3.27845 33.2058 3.24193C32.9557 3.2853 32.7618 3.18285 32.617 3.05125L32.6072 3.05703C32.5538 3.06488 32.5035 3.04382 32.4538 3.0397C32.3533 3.11952 32.2266 3.19461 32.063 3.20149C31.9225 3.207 31.8042 3.16062 31.7067 3.10326C31.6311 3.17581 31.5155 3.26347 31.3604 3.28816C31.1978 3.31341 31.0523 3.2629 30.9399 3.18993C30.9253 3.18049 30.9137 3.16547 30.9003 3.15526C30.8952 3.15599 30.8905 3.16042 30.8854 3.16104C30.8097 3.17011 30.7383 3.15762 30.6727 3.1437C30.6026 3.18832 30.5243 3.2303 30.4303 3.24771C30.2798 3.27497 30.1452 3.24816 30.0344 3.19571L29.7723 2.99925C29.7403 2.96378 29.7173 2.91703 29.6881 2.87791C29.6456 2.95658 29.588 3.0635 29.4902 3.14948C29.3578 3.26578 29.1519 3.36189 28.9113 3.29972C28.8067 3.27247 28.7214 3.2224 28.6541 3.16682L28.5007 3.00503C28.4956 2.99789 28.4935 2.991 28.4908 2.9877C28.4439 2.96588 28.398 2.94732 28.3572 2.91836C28.3196 2.93432 28.2824 2.96738 28.2385 2.97614C28.1238 2.99863 28.0192 2.97893 27.9268 2.94725C27.7991 3.01127 27.647 3.05762 27.4717 2.99925C27.3871 2.97101 27.3219 2.9198 27.2639 2.87213C27.1747 2.8935 27.0853 2.89804 26.9917 2.87791C26.9737 2.9168 26.9682 2.96312 26.9472 2.99925C26.8989 3.08206 26.8091 3.21361 26.6652 3.30549C26.581 3.35895 26.4871 3.39351 26.3882 3.40372L26.0814 3.3575L26.0368 3.34594C25.8107 3.33655 25.653 3.20528 25.5471 3.08593C25.5044 3.09793 25.4621 3.12403 25.4135 3.12637C25.3106 3.13094 25.216 3.10896 25.1364 3.07437L24.9385 2.94147C24.9224 2.92679 24.9097 2.90482 24.894 2.88947C24.8006 2.99654 24.6681 3.12064 24.4783 3.16682C24.2261 3.22808 24.007 3.13437 23.855 3.00503L23.8451 2.99348C23.7954 3.02969 23.7434 3.07417 23.6769 3.09748C23.4545 3.17531 23.2447 3.11247 23.0931 2.99925C23.0484 2.96565 23.0127 2.9212 22.9793 2.88369H22.7963C22.6797 2.86433 22.5816 2.81022 22.4944 2.75079C22.4035 2.80206 22.3021 2.84772 22.1827 2.85479C22.1043 2.85929 22.0329 2.8433 21.9651 2.82591C21.9337 2.8584 21.914 2.90806 21.876 2.93569C21.7404 3.03441 21.5558 3.10067 21.3515 3.05125C21.2888 3.03604 21.2379 2.99854 21.1883 2.97036C21.1625 2.9916 21.134 3.01531 21.1042 3.04548C20.9519 3.19957 20.7333 3.32045 20.4709 3.31705C20.358 3.38793 20.226 3.44614 20.0701 3.44417C19.9748 3.44296 19.8871 3.42449 19.8079 3.39217L19.5952 3.26505C19.5055 3.19273 19.4312 3.10211 19.3676 3.00503C19.2894 3.05582 19.2038 3.10305 19.1054 3.12637C18.9992 3.1513 18.8914 3.15646 18.7888 3.1437L18.4919 3.05125L18.4128 3.02815C18.3668 3.02142 18.3236 2.99373 18.2792 2.98192C18.2352 3.01283 18.1921 3.05301 18.1356 3.07437C17.9263 3.15299 17.7195 3.11181 17.5617 3.00503C17.5178 2.97513 17.4816 2.93521 17.448 2.90102C17.3714 3.0204 17.2261 3.21094 16.968 3.24193C16.8772 3.2527 16.7972 3.23549 16.7256 3.21305C16.6483 3.28193 16.5527 3.34867 16.4337 3.38062C16.1528 3.45541 15.9437 3.30996 15.8054 3.17838C15.7042 3.25404 15.5726 3.32374 15.3997 3.31127C15.2647 3.30134 15.1573 3.24711 15.0732 3.18416C14.9323 3.25544 14.772 3.29157 14.6031 3.25927C14.4644 3.23264 14.3515 3.16037 14.2568 3.08593C14.1639 3.07819 14.0814 3.059 14.0044 3.02237C13.9956 3.03016 13.9887 3.04363 13.9798 3.05125C13.8075 3.19775 13.5885 3.2846 13.3564 3.25349L13.1189 3.17838L13.0001 3.13215C12.7939 3.0852 12.6487 2.95056 12.5549 2.83747C12.4928 2.92229 12.3899 3.04315 12.2333 3.10904C12.0988 3.16504 11.9645 3.14976 11.8374 3.11482L11.8325 3.12637C11.6261 3.2243 11.4275 3.18966 11.2735 3.10326C11.1447 3.2166 10.9656 3.33653 10.7292 3.30549C10.587 3.28641 10.469 3.22204 10.3779 3.14948ZM49.9383 39.1302C49.9309 39.1212 49.9243 39.1063 49.9136 39.0956L49.9037 39.0897C49.915 39.106 49.9296 39.1164 49.9383 39.1302ZM92.9721 38.7604C92.9881 38.776 93.0058 38.7846 93.016 38.7951L93.0016 38.7777C92.9957 38.7732 92.9873 38.7676 92.9771 38.7604H92.9721ZM93.1502 37.8186C93.1452 37.8231 93.1401 37.8311 93.135 37.836C93.1713 37.8127 93.2026 37.7771 93.244 37.7608C93.2169 37.7716 93.1832 37.7883 93.1502 37.8186ZM95.4309 37.1021C95.4326 37.094 95.4393 37.0872 95.441 37.079L95.4503 36.9056C95.4562 36.9722 95.4376 37.0365 95.4309 37.1021ZM95.4951 36.767C95.4984 36.7641 95.5136 36.751 95.5347 36.7266C95.539 36.721 95.544 36.7106 95.5491 36.7034L95.4951 36.767ZM1.51695 35.9869C1.49716 36.0283 1.47962 36.0834 1.46747 36.1487C1.48603 36.0943 1.49346 36.036 1.51695 35.9869ZM94.2927 29.6714L94.3273 29.8274L94.2927 29.6425C94.2935 29.6521 94.2918 29.6618 94.2927 29.6714ZM2.34319 17.6122C2.34433 17.6115 2.35934 17.6047 2.37782 17.5892L2.38277 17.5776C2.36653 17.588 2.35512 17.6051 2.34319 17.6122ZM94.7731 17.3407C94.7537 17.3624 94.7199 17.404 94.6887 17.4679C94.7199 17.4241 94.7419 17.3754 94.7731 17.3407ZM2.03644 15.2202L2.10076 14.989L2.01665 15.145L2.03644 15.2202ZM2.03644 15.2202L2.01665 15.145L2.10076 14.989L2.03644 15.2202ZM2.57572 11.5048L2.56583 11.4932L2.55593 11.4874C2.56226 11.4921 2.56831 11.4988 2.57572 11.5048ZM95.3025 9.59215L95.2924 9.58061L95.2823 9.57483C95.289 9.57993 95.2949 9.58653 95.3025 9.59215ZM1.9276 6.29281L1.93255 6.29859V6.29281L1.9276 6.28704V6.29281ZM93.8671 3.9411C93.8772 3.93933 93.8857 3.94269 93.8924 3.9411C93.911 3.93619 93.9237 3.93085 93.9271 3.92954L93.8671 3.9411ZM37.9257 3.43839C37.931 3.43813 37.9357 3.43317 37.9406 3.43262C37.9022 3.42573 37.8608 3.43619 37.8219 3.42106C37.8498 3.43179 37.8863 3.44023 37.9257 3.43839ZM73.5034 3.21305C73.5115 3.2192 73.5254 3.22761 73.543 3.23616H73.5479C73.5306 3.22144 73.5083 3.21652 73.4935 3.20149C73.495 3.20298 73.4974 3.20858 73.5034 3.21305ZM90.1814 3.18416L90.1966 3.17838C90.1459 3.16988 90.0919 3.17079 90.0429 3.14948L90.1814 3.18416ZM40.9684 2.94147C40.9765 2.93782 40.9857 2.93959 40.9932 2.93569L40.9883 2.92992C40.9818 2.93431 40.9751 2.93723 40.9684 2.94147ZM32.5973 2.88947C32.6016 2.88589 32.6084 2.88699 32.6121 2.88369C32.6392 2.85909 32.6528 2.8373 32.6566 2.83169C32.6426 2.85215 32.6168 2.86519 32.5973 2.88947ZM93.5108 2.537C93.4964 2.54081 93.4854 2.54111 93.4812 2.54278L93.5015 2.537H93.5108ZM5.56403 2.79702H5.57392C5.53581 2.77773 5.49423 2.76989 5.46013 2.74502L5.56403 2.79702ZM67.7939 2.43299L67.8038 2.43877C67.7851 2.40737 67.7575 2.38416 67.7445 2.35788L67.7939 2.43299ZM27.7982 2.40988L27.8081 2.4041C27.8237 2.38097 27.8306 2.3624 27.8328 2.35788L27.7982 2.40988ZM55.7863 2.03429C55.7813 2.04243 55.7796 2.05137 55.7764 2.05741C55.7817 2.0455 55.7903 2.03531 55.7962 2.02274L55.7863 2.03429ZM62.7722 1.9014C62.7469 1.88393 62.7137 1.86854 62.6732 1.85517C62.7051 1.87449 62.7428 1.87894 62.7722 1.9014ZM27.2292 1.79161C27.2246 1.79893 27.2223 1.8093 27.2193 1.81473C27.2268 1.79871 27.2401 1.78583 27.249 1.7685C27.2417 1.77844 27.2335 1.78477 27.2292 1.79161ZM89.2019 1.78006C89.1926 1.7838 89.1884 1.79055 89.1867 1.79161C89.1952 1.7852 89.2078 1.78616 89.2163 1.78006H89.2019ZM32.7457 1.66449C32.7115 1.63965 32.6648 1.61549 32.6072 1.60093C32.6545 1.62357 32.7046 1.63359 32.7457 1.66449ZM39.697 1.64715V1.64137C39.6944 1.63864 39.6878 1.63482 39.6821 1.62983C39.6773 1.62567 39.6697 1.62361 39.6623 1.61827C39.6726 1.62994 39.6874 1.6356 39.697 1.64715ZM68.8428 1.61827C68.8415 1.61553 68.8345 1.6007 68.823 1.5836C68.8205 1.5799 68.8165 1.57668 68.8131 1.57204C68.8233 1.59043 68.8362 1.60493 68.8428 1.61827ZM45.347 1.1849C45.3375 1.18706 45.3298 1.19377 45.3223 1.19646C45.3604 1.19685 45.4001 1.17756 45.441 1.1849H45.347Z" fill="#78C8C2"/>
<path d="M31.5 17.621L31.5 17.6872C31.5 18.4723 31.5 18.8649 31.3161 19.186C31.1322 19.5072 30.7983 19.6979 30.1305 20.0792L29.4265 20.4812C29.9116 18.7954 30.0735 16.9841 30.1333 15.4352C30.1359 15.3687 30.1388 15.3015 30.1417 15.2336L30.1438 15.186C30.7218 15.3923 31.0463 15.5461 31.2488 15.8348C31.5 16.1931 31.5 16.6691 31.5 17.621Z" fill="#979797"/>
<path d="M13.75 17.621L13.75 17.6872C13.75 18.4723 13.75 18.8649 13.9339 19.186C14.1178 19.5072 14.4517 19.6979 15.1195 20.0792L15.8239 20.4814C15.3387 18.7956 15.1768 16.9842 15.117 15.4352C15.1144 15.3687 15.1115 15.3015 15.1086 15.2336L15.1066 15.1859C14.5283 15.3922 14.2037 15.546 14.0012 15.8348C13.75 16.1931 13.75 16.6691 13.75 17.621Z" fill="#979797"/>
<path fill-rule="evenodd" clip-rule="evenodd" d="M22.6252 12C24.2081 12 25.5121 12.1433 26.5097 12.3163C27.5204 12.4915 28.0257 12.5792 28.4479 13.1136C28.8701 13.648 28.8478 14.2256 28.8031 15.3809C28.6499 19.3469 27.8172 24.3007 23.2907 24.7389V27.9627H24.56C24.983 27.9627 25.3473 28.2696 25.4302 28.696L25.5982 29.559H27.95C28.3177 29.559 28.6157 29.8653 28.6157 30.2431C28.6157 30.6209 28.3177 30.9272 27.95 30.9272H17.3C16.9324 30.9272 16.6344 30.6209 16.6344 30.2431C16.6344 29.8653 16.9324 29.559 17.3 29.559H19.6519L19.8198 28.696C19.9028 28.2696 20.267 27.9627 20.6901 27.9627H21.9594V24.7389C17.4331 24.3005 16.6004 19.3468 16.4472 15.3809C16.4026 14.2256 16.3802 13.648 16.8024 13.1136C17.2246 12.5792 17.73 12.4915 18.7406 12.3163C19.7382 12.1433 21.0423 12 22.6252 12ZM23.4702 15.83L23.383 15.6692C23.0458 15.0474 22.8771 14.7365 22.625 14.7365C22.3729 14.7365 22.2043 15.0474 21.8671 15.6692L21.7798 15.83C21.684 16.0067 21.6361 16.0951 21.5613 16.1534C21.4866 16.2116 21.3936 16.2333 21.2075 16.2766L21.038 16.316C20.3832 16.4683 20.0557 16.5444 19.9778 16.8019C19.8999 17.0594 20.1231 17.3276 20.5696 17.8642L20.6851 18.003C20.812 18.1555 20.8754 18.2318 20.9039 18.3261C20.9325 18.4204 20.9229 18.5221 20.9037 18.7256L20.8862 18.9108C20.8187 19.6267 20.785 19.9847 20.989 20.1438C21.1929 20.3029 21.4995 20.1578 22.1127 19.8677L22.2713 19.7926C22.4456 19.7101 22.5327 19.6689 22.625 19.6689C22.7174 19.6689 22.8045 19.7101 22.9787 19.7926L23.1374 19.8677C23.7506 20.1578 24.0571 20.3029 24.2611 20.1438C24.4651 19.9847 24.4313 19.6267 24.3638 18.9108L24.3463 18.7256C24.3272 18.5221 24.3176 18.4204 24.3461 18.3261C24.3746 18.2318 24.4381 18.1555 24.565 18.003L24.6805 17.8642C25.1269 17.3276 25.3501 17.0594 25.2722 16.8019C25.1943 16.5444 24.8669 16.4683 24.212 16.316L24.0426 16.2766C23.8565 16.2333 23.7634 16.2116 23.6887 16.1534C23.614 16.0951 23.5661 16.0067 23.4702 15.83Z" fill="#979797"/>
<path fill-rule="evenodd" clip-rule="evenodd" d="M23.4702 15.83L23.383 15.6692C23.0458 15.0474 22.8771 14.7365 22.625 14.7365C22.3729 14.7365 22.2043 15.0474 21.8671 15.6692L21.7798 15.83C21.684 16.0067 21.6361 16.0951 21.5613 16.1534C21.4866 16.2116 21.3936 16.2333 21.2075 16.2766L21.038 16.316C20.3832 16.4683 20.0557 16.5444 19.9778 16.8019C19.8999 17.0594 20.1231 17.3276 20.5696 17.8642L20.6851 18.003C20.812 18.1555 20.8754 18.2318 20.9039 18.3261C20.9325 18.4204 20.9229 18.5221 20.9037 18.7256L20.8862 18.9108C20.8187 19.6267 20.785 19.9847 20.989 20.1438C21.1929 20.3029 21.4995 20.1578 22.1127 19.8677L22.2713 19.7926C22.4456 19.7101 22.5327 19.6689 22.625 19.6689C22.7174 19.6689 22.8045 19.7101 22.9787 19.7926L23.1374 19.8677C23.7506 20.1578 24.0571 20.3029 24.2611 20.1438C24.4651 19.9847 24.4313 19.6267 24.3638 18.9108L24.3463 18.7256C24.3272 18.5221 24.3176 18.4204 24.3461 18.3261C24.3746 18.2318 24.4381 18.1555 24.565 18.003L24.6805 17.8642C25.1269 17.3276 25.3501 17.0594 25.2722 16.8019C25.1943 16.5444 24.8669 16.4683 24.212 16.316L24.0426 16.2766C23.8565 16.2333 23.7634 16.2116 23.6887 16.1534C23.614 16.0951 23.5661 16.0067 23.4702 15.83Z" fill="#979797"/>
<path d="M19.8286 17.6002C19.8286 18.9916 20.9523 19.7331 21.7749 20.3967C22.0651 20.6309 22.3447 20.8514 22.6242 20.8514C22.9038 20.8514 23.1834 20.6309 23.4736 20.3967C24.2962 19.7331 25.4199 18.9916 25.4199 17.6002C25.4199 16.2088 23.8822 15.2221 22.6242 16.5598C21.3663 15.2221 19.8286 16.2088 19.8286 17.6002Z" fill="white"/>
</svg>
