<svg width="86" height="42" viewBox="0 0 86 42" fill="none" xmlns="http://www.w3.org/2000/svg">
<path d="M2 6C2 3.79086 3.335 2 4.98182 2H81.0182C82.6649 2 84 3.79086 84 6V36C84 38.2091 82.6649 40 81.0182 40H4.98182C3.335 40 2 38.2091 2 36V6Z" fill="white"/>
<path d="M80.6473 1.08667C80.7272 1.13514 80.7929 1.19905 80.8436 1.26002C80.8817 1.30557 80.9056 1.36605 80.9355 1.41603C80.9967 1.32248 81.1677 1.09935 81.4432 1.11557C81.5828 1.12381 81.691 1.18912 81.7709 1.2658L81.9285 1.47959L81.9635 1.5316C82.0509 1.4687 82.198 1.3819 82.3839 1.42759C82.6579 1.49531 82.7893 1.76775 82.8386 1.92451C82.8647 2.00789 82.8654 2.09505 82.8737 2.1672C82.92 2.18109 82.973 2.1799 83.0222 2.21342C83.1424 2.29497 83.2134 2.41717 83.2634 2.53122C83.3694 2.58086 83.4814 2.66633 83.565 2.83169C83.6822 3.06349 83.6748 3.30351 83.6658 3.4095C83.7584 3.51273 83.8286 3.63033 83.8711 3.76198C83.9809 3.75664 84.1026 3.76721 84.2213 3.8082C84.3303 3.84609 84.4998 3.93847 84.6192 4.14911L84.7155 4.39758L84.7506 4.67493C84.7484 4.93364 84.6581 5.13895 84.5976 5.24697L84.5886 5.25274C84.6401 5.34407 84.6894 5.45309 84.7111 5.59366C84.7529 5.87033 84.6722 6.08311 84.5976 6.23504C84.611 6.24507 84.6274 6.25325 84.6409 6.26392C84.7014 6.31229 84.8678 6.4544 84.9515 6.71463L85 7.01509L84.9515 7.36756C84.9194 7.46604 84.8731 7.5463 84.8335 7.60446C84.8014 7.65184 84.7573 7.67459 84.7245 7.70847C84.7835 7.90561 84.7962 8.12547 84.7282 8.33251C84.6879 8.45524 84.6282 8.54292 84.5752 8.60987C84.6021 8.7319 84.6192 8.86499 84.6013 9.00856C84.5976 9.04323 84.5774 9.0747 84.5707 9.10679C84.6416 9.17319 84.729 9.27119 84.7857 9.42459C84.8484 9.59791 84.8664 9.81004 84.8163 10.014C84.7857 10.1378 84.7297 10.2242 84.6849 10.2913C84.6857 10.3488 84.6857 10.4083 84.676 10.4705L84.6715 10.4762C84.7058 10.549 84.7424 10.6321 84.7588 10.7363C84.7768 10.848 84.7678 10.9504 84.7551 11.0425C84.8126 11.1685 84.8581 11.3379 84.838 11.551C84.8074 11.8707 84.6446 12.0438 84.567 12.1173C84.5931 12.1601 84.6237 12.2052 84.6454 12.2617C84.7245 12.4649 84.7409 12.7114 84.6715 12.9435C84.6431 13.0383 84.6013 13.1124 84.5625 13.1746C84.6103 13.2585 84.661 13.3648 84.6849 13.504C84.7208 13.7121 84.6946 13.9135 84.6319 14.076C84.6006 14.1574 84.5468 14.2081 84.5057 14.2667C84.5229 14.2832 84.5461 14.2949 84.5625 14.3129C84.6334 14.391 84.7327 14.5261 84.7895 14.7231L84.8335 14.9428L84.829 15.2606C84.8193 15.3626 84.7984 15.4646 84.7723 15.5611C84.7574 15.6149 84.7267 15.6544 84.7066 15.6997C84.7424 15.8038 84.7678 15.9254 84.7588 16.0752C84.8044 16.1291 84.8514 16.2007 84.8902 16.289C84.9634 16.4544 84.9925 16.6529 84.9649 16.8496L84.9164 17.046C84.879 17.1528 84.8208 17.2302 84.7678 17.3002C84.7745 17.3129 84.788 17.3215 84.7939 17.3349C84.8701 17.4927 84.9194 17.711 84.8813 17.9532C84.8552 18.1201 84.7902 18.24 84.7327 18.3288C84.7215 18.4167 84.7021 18.4927 84.676 18.5656C84.6805 18.5699 84.6849 18.5729 84.6894 18.5773C84.7581 18.6494 84.8865 18.8082 84.9298 19.0742C84.9545 19.2288 84.9462 19.371 84.9164 19.4902L84.7939 19.7791C84.7372 19.8677 84.6603 19.9271 84.5886 19.9929C84.6558 20.1674 84.6961 20.3801 84.6409 20.64C84.6357 20.6641 84.6245 20.6856 84.6192 20.7094C84.6334 20.7427 84.6513 20.7747 84.6625 20.8134C84.7066 20.9621 84.7036 21.1204 84.6804 21.2757C84.6864 21.2817 84.6924 21.2869 84.6976 21.293L84.8425 21.5068C84.891 21.6077 84.9328 21.742 84.9388 21.9055C84.9462 22.1391 84.8679 22.3064 84.7984 22.4255C84.838 22.5014 84.8843 22.5884 84.9037 22.7028C84.9597 23.035 84.8462 23.2981 84.7506 23.4367C84.7387 23.4532 84.7185 23.4566 84.7066 23.4713C84.7656 23.5599 84.8328 23.6817 84.8596 23.8528C84.8962 24.0836 84.8432 24.2802 84.7768 24.4305C84.7984 24.6796 84.735 24.8879 84.6543 25.0257C84.5991 25.1196 84.5289 25.1738 84.4751 25.2221C84.511 25.2824 84.549 25.3532 84.5752 25.4417C84.6371 25.647 84.6349 25.8705 84.5707 26.0716C84.5431 26.1593 84.5072 26.2318 84.4707 26.2911L84.3609 26.4356C84.3557 26.441 84.3482 26.4419 84.3437 26.4471C84.4035 26.6053 84.446 26.7768 84.44 26.9729C84.4983 27.0071 84.558 27.0348 84.6103 27.0769C84.6558 27.1133 84.7193 27.1711 84.7812 27.2503L84.947 27.568L84.991 27.7646C85.0134 27.9633 84.9761 28.158 84.9037 28.3135C84.8619 28.4024 84.8104 28.4686 84.7633 28.5214C84.7671 28.5609 84.7686 28.6007 84.7678 28.6428C84.8372 28.7643 84.9126 28.9384 84.9037 29.1744C84.8917 29.4643 84.77 29.6587 84.6939 29.7523C84.6573 29.7967 84.6118 29.8195 84.5752 29.8505C84.5655 29.8967 84.5558 29.9413 84.5401 29.9834C84.5565 30.0299 84.5699 30.0767 84.5797 30.1278C84.6483 30.1784 84.7193 30.2478 84.7812 30.33C84.8507 30.4238 84.9395 30.5861 84.9649 30.8154C84.9798 30.956 84.9582 31.08 84.9298 31.191C84.9604 31.4324 84.9112 31.6651 84.8163 31.844C84.72 32.0236 84.5871 32.134 84.4923 32.2022C84.4602 32.3191 84.4236 32.431 84.3743 32.5315L84.3654 32.5431C84.4147 32.5861 84.4639 32.6265 84.5095 32.6702L84.6192 32.7974C84.6588 32.8516 84.6999 32.9168 84.7327 32.9996C84.8089 33.1919 84.829 33.4284 84.7678 33.6583C84.7484 33.7313 84.717 33.7886 84.6894 33.8432C84.7939 34.0033 84.9119 34.2499 84.8469 34.5943C84.8126 34.77 84.7372 34.8956 84.667 34.993C84.6879 35.1352 84.6805 35.2619 84.6543 35.3744C84.6595 35.3812 84.67 35.3846 84.676 35.3917C84.7402 35.4731 84.8313 35.6211 84.8686 35.8367C84.9216 36.1457 84.8335 36.3661 84.7372 36.5243C84.7387 36.6241 84.7364 36.7317 84.7066 36.842C84.6581 37.0221 84.5655 37.1386 84.4833 37.2292C84.4647 37.3195 84.4445 37.4092 84.405 37.4892C84.4348 37.6394 84.458 37.8622 84.3564 38.0959C84.2526 38.3353 84.0891 38.4139 83.9801 38.4542C83.9652 38.4995 83.9622 38.5516 83.9413 38.5928L83.7352 38.8587C83.6009 38.9703 83.459 39.0026 83.3283 39.0089C83.3298 39.022 83.3366 39.0361 83.3373 39.0493C83.3418 39.1098 83.3455 39.198 83.3328 39.2978C83.3209 39.396 83.2835 39.5552 83.1843 39.7022C82.9468 40.0527 82.6407 39.9563 82.5369 39.9103C82.4615 40.0131 82.3675 40.1163 82.2219 40.153C82.1935 40.16 82.1651 40.151 82.139 40.153C82.1039 40.2224 82.0718 40.2992 82.0248 40.361C81.9337 40.4812 81.803 40.5939 81.6358 40.6383C81.5514 40.6606 81.4708 40.6635 81.3954 40.6499L81.1848 40.569L81.1497 40.5517C81.0318 40.543 80.9243 40.4999 80.8265 40.4418L80.7122 40.5921C80.6309 40.7006 80.4681 40.8601 80.2359 40.8464C80.0918 40.8373 79.9836 40.7556 79.9037 40.6788C79.7678 40.7671 79.6028 40.8089 79.4311 40.7308C79.2668 40.6561 79.1668 40.5117 79.116 40.4246C79.0899 40.3798 79.0712 40.329 79.0503 40.2801C79.0286 40.2869 79.0077 40.3106 78.9846 40.3147C78.8524 40.338 78.7375 40.2999 78.6389 40.2454C78.6083 40.322 78.5695 40.4193 78.5075 40.5055C78.4403 40.5993 78.3164 40.7342 78.1312 40.7712C78.0215 40.7931 77.9237 40.7695 77.8385 40.7308C77.7452 40.7718 77.6422 40.7948 77.5324 40.7655C77.404 40.7309 77.3085 40.6503 77.248 40.5806C77.2353 40.5657 77.2241 40.544 77.2129 40.5285C77.1114 40.5383 77.0225 40.5242 76.9464 40.4823C76.8545 40.5277 76.7612 40.5407 76.6664 40.5285L76.4431 40.7423C76.2468 40.858 76.0355 40.863 75.8391 40.7712C75.7294 40.873 75.5928 40.958 75.4322 40.9677L75.1963 40.9272C74.9653 40.8402 74.8317 40.6195 74.7719 40.4996C74.7641 40.4842 74.7617 40.4636 74.7543 40.4477C74.6407 40.4368 74.5469 40.4005 74.47 40.3379C74.4372 40.3988 74.4111 40.4806 74.3562 40.5401C74.2367 40.6693 74.0325 40.7873 73.7963 40.7019C73.7751 40.6941 73.7587 40.6714 73.7394 40.6615C73.6873 40.7009 73.6316 40.7442 73.5645 40.7655L73.385 40.7886C73.2496 40.7818 73.1307 40.7332 73.0307 40.6615L72.7857 40.4072C72.7795 40.3987 72.7753 40.3928 72.7726 40.3899C72.7756 40.3923 72.7827 40.3912 72.7901 40.3957C72.7173 40.3642 72.6484 40.3278 72.5845 40.2801C72.568 40.2892 72.5529 40.306 72.5364 40.3147C72.5485 40.3083 72.5538 40.3049 72.5495 40.309C72.5451 40.3133 72.5342 40.3225 72.5189 40.3436C72.4231 40.4767 72.2385 40.6623 71.9808 40.6499C71.9451 40.648 71.9126 40.6294 71.8802 40.621C71.851 40.6453 71.8268 40.6881 71.7927 40.7077C71.6173 40.8075 71.4403 40.7965 71.2896 40.7193L71.1452 40.621C71.1075 40.5868 71.0747 40.5445 71.0402 40.5055C70.9044 40.531 70.7733 40.5167 70.6596 40.4361L70.6509 40.4303C70.5944 40.4827 70.53 40.5353 70.454 40.569C70.3008 40.6366 70.1396 40.6315 69.9904 40.5632C69.7364 40.5912 69.5567 40.4196 69.4566 40.2858C69.3908 40.3893 69.251 40.5771 69.0192 40.5979C68.9839 40.601 68.9505 40.5846 68.9185 40.5806C68.8524 40.6631 68.7564 40.7702 68.6167 40.8117C68.5334 40.8361 68.4541 40.8279 68.3805 40.8117C68.3398 40.8314 68.2974 40.8548 68.2492 40.8637C68.1315 40.8853 68.0246 40.8486 67.9299 40.8001C67.8433 40.866 67.7474 40.9386 67.628 40.9446L67.4399 40.9157C67.2569 40.8543 67.1165 40.7158 67.0069 40.5748C66.932 40.6813 66.8045 40.8278 66.6218 40.8694H66.425C66.1872 40.9555 65.9766 40.8578 65.8345 40.7134C65.7754 40.6535 65.7266 40.5855 65.6857 40.517C65.6224 40.5484 65.556 40.5648 65.4844 40.569C65.4423 40.607 65.3971 40.6516 65.3401 40.6788C65.1933 40.7483 65.032 40.7408 64.8895 40.6672C64.7923 40.6166 64.7176 40.5383 64.6577 40.4592C64.6186 40.5102 64.5784 40.5668 64.5264 40.6094C64.3925 40.7192 64.2301 40.7666 64.0627 40.7308C63.9563 40.7833 63.837 40.8248 63.7039 40.7944C63.5413 40.757 63.4227 40.6422 63.3365 40.5401C63.2618 40.6629 63.1479 40.8204 62.9646 40.881C62.7589 40.9488 62.5856 40.8621 62.4528 40.7539C62.3762 40.8249 62.2818 40.8954 62.1641 40.9215C62.0542 40.9455 61.9523 40.9332 61.8622 40.8983L61.6304 40.7423C61.5345 40.6473 61.4537 40.5274 61.3898 40.4014C61.3225 40.3993 61.2593 40.3913 61.2017 40.3668L60.9611 40.1934C60.9554 40.1873 60.952 40.1799 60.9479 40.1761C60.9187 40.2541 60.8818 40.3486 60.8255 40.4361C60.768 40.525 60.6599 40.6645 60.493 40.725C60.1181 40.8597 59.8883 40.52 59.8018 40.3668L59.688 40.3379C59.6304 40.3212 59.574 40.2917 59.5174 40.2685C59.4897 40.3255 59.4586 40.3914 59.4168 40.4534L59.2549 40.6383C59.1209 40.7574 58.9307 40.8255 58.7256 40.7423C58.5789 40.6826 58.482 40.5648 58.4238 40.4766C58.2476 40.5598 58.0662 40.5347 57.9163 40.4246C57.8967 40.4101 57.8811 40.3885 57.8638 40.3725C57.8582 40.385 57.8567 40.4006 57.8507 40.413C57.81 40.4967 57.7196 40.6618 57.562 40.7597C57.3608 40.8841 57.1423 40.8488 56.9757 40.7134C56.8853 40.6398 56.8261 40.5425 56.7833 40.465C56.6998 40.4797 56.6065 40.4826 56.5077 40.4418C56.4787 40.4298 56.4547 40.4058 56.4289 40.3899C56.3707 40.4133 56.3083 40.4375 56.2365 40.4361C56.0367 40.4314 55.8944 40.3083 55.7989 40.1876C55.7724 40.198 55.7445 40.1986 55.7158 40.205C55.7103 40.2188 55.7087 40.2375 55.7027 40.2512C55.6669 40.3334 55.6021 40.4645 55.4928 40.569C55.3637 40.6921 55.1696 40.7788 54.9547 40.6961C54.8642 40.661 54.7921 40.5995 54.7359 40.5401L54.6178 40.3841C54.6078 40.3956 54.6021 40.4135 54.5916 40.4246L54.4079 40.569C54.2837 40.637 54.1422 40.6572 54.001 40.6094C53.942 40.6863 53.8715 40.7784 53.7691 40.829L53.5504 40.881C53.4165 40.8826 53.2979 40.8417 53.196 40.777L52.9424 40.5401C52.8646 40.441 52.7875 40.3351 52.7105 40.2281C52.6727 40.1756 52.6383 40.1164 52.6011 40.0605C52.5493 40.1637 52.5086 40.2737 52.448 40.361C52.3412 40.5141 52.1644 40.6924 51.9361 40.725L51.6912 40.7019C51.5526 40.6588 51.4492 40.563 51.3719 40.4707C51.262 40.4992 51.148 40.5035 51.0393 40.4534C50.9633 40.4181 50.9016 40.3664 50.8513 40.3147C50.8257 40.3111 50.8008 40.3104 50.7769 40.3032C50.7325 40.4274 50.6727 40.5749 50.5756 40.6904C50.4922 40.7893 50.3484 40.9052 50.1557 40.9099C49.9765 40.914 49.8428 40.8128 49.7532 40.7193L49.7095 40.7655C49.5541 40.8753 49.3784 40.9163 49.202 40.881L49.0227 40.8175C48.8611 40.7329 48.7526 40.5862 48.6858 40.4707C48.6138 40.559 48.5218 40.648 48.3971 40.6904C48.3035 40.7218 48.2166 40.7183 48.139 40.7019C47.9889 40.8105 47.8023 40.8608 47.614 40.7597C47.5024 40.6996 47.4269 40.6021 47.3734 40.5228C47.2392 40.6517 47.0447 40.7709 46.8047 40.6788C46.7294 40.6497 46.667 40.6016 46.6122 40.5517C46.5492 40.6098 46.4711 40.6696 46.3716 40.6961C46.3305 40.7069 46.2881 40.696 46.2491 40.6961C46.1505 40.7815 46.0224 40.8552 45.8597 40.8464C45.7613 40.8408 45.6785 40.7996 45.606 40.7539C45.5715 40.7616 45.5355 40.7777 45.4967 40.777C45.3214 40.7736 45.1962 40.6671 45.1117 40.5748V40.5806C45.0424 40.6823 44.8939 40.8566 44.6655 40.8694C44.4295 40.8822 44.264 40.7178 44.1843 40.6094C44.1415 40.5512 44.114 40.4792 44.0836 40.413C44.0059 40.4341 43.9204 40.4506 43.8255 40.4246L43.8168 40.4188C43.7509 40.4885 43.6779 40.5559 43.5893 40.5979L43.5237 40.6499C43.3806 40.7933 43.1651 40.8953 42.9244 40.8059C42.877 40.7883 42.8413 40.7462 42.8019 40.7193C42.6578 40.7589 42.5167 40.747 42.395 40.6672C42.2993 40.6045 42.2335 40.5148 42.1851 40.4418C42.1528 40.4612 42.1225 40.4924 42.0844 40.5055C42.008 40.5314 41.9297 40.5388 41.857 40.5285L41.6513 40.4534C41.6341 40.4427 41.6197 40.4249 41.6033 40.413C41.5091 40.4781 41.3938 40.5272 41.262 40.517C41.1327 40.5068 41.0246 40.4479 40.9427 40.3783C40.8543 40.3714 40.7663 40.3651 40.6802 40.3379C40.6257 40.3206 40.5761 40.2848 40.5271 40.2569C40.4686 40.2908 40.4046 40.3165 40.3302 40.3263C40.2793 40.4161 40.1887 40.5503 40.0415 40.6268C39.8575 40.7218 39.684 40.6707 39.5428 40.5748C39.4107 40.6045 39.2978 40.5658 39.1972 40.5055C39.1847 40.521 39.1762 40.5425 39.1622 40.5574C39.0974 40.6263 39.0004 40.7036 38.8734 40.7308C38.7416 40.7585 38.6161 40.7257 38.5148 40.6615C38.4444 40.6165 38.3929 40.5519 38.3485 40.4939C38.2313 40.6292 38.0436 40.7838 37.7886 40.7193C37.6353 40.6799 37.5271 40.572 37.4474 40.4707C37.355 40.5271 37.2511 40.5725 37.128 40.569C37.0872 40.5678 37.0463 40.5595 37.0055 40.5574L36.743 40.8001C36.5611 40.9207 36.3499 40.9309 36.1568 40.8175C36.0535 40.7566 35.9732 40.6712 35.9118 40.5863C35.8047 40.6846 35.6628 40.783 35.4787 40.7655C35.3245 40.7502 35.2096 40.6583 35.12 40.569C35.0239 40.5687 34.9367 40.5351 34.8488 40.4939C34.7816 40.6109 34.6848 40.7581 34.5295 40.8348C34.3545 40.921 34.1647 40.9379 33.9782 40.8753C33.877 40.841 33.7864 40.7863 33.707 40.7193L33.5014 40.4939C33.4912 40.4801 33.4809 40.4667 33.4708 40.4534C33.4221 40.4965 33.3688 40.5485 33.3002 40.5748C33.0886 40.655 32.8956 40.5747 32.7664 40.4534C32.7519 40.4398 32.7445 40.4158 32.7315 40.4014C32.7036 40.445 32.6789 40.495 32.644 40.5343C32.5189 40.6748 32.328 40.779 32.1059 40.7308C31.9384 40.8002 31.7621 40.789 31.6028 40.6845C31.5221 40.6316 31.4549 40.5639 31.4016 40.4939L31.279 40.2974C31.2685 40.2768 31.259 40.2548 31.2484 40.2339C31.2025 40.2425 31.1586 40.2548 31.1128 40.2512C31.0545 40.3809 30.9606 40.5633 30.7978 40.6672C30.6646 40.7516 30.5023 40.7749 30.3429 40.7134C30.2365 40.6719 30.1576 40.597 30.0979 40.5285C30.0395 40.5542 29.9752 40.5761 29.901 40.5748C29.6491 40.5698 29.4892 40.3705 29.4242 40.2685C29.3968 40.2254 29.3829 40.1732 29.3629 40.1298C29.3314 40.2056 29.2983 40.2863 29.2536 40.3552C29.1789 40.4699 29.0255 40.6475 28.8118 40.6788L28.5799 40.6499C28.5644 40.6445 28.551 40.6275 28.5362 40.621C28.4605 40.7077 28.3486 40.8111 28.1905 40.8348C28.0383 40.8575 27.9128 40.7928 27.8143 40.7193C27.7691 40.765 27.7149 40.8131 27.6481 40.8464L27.3856 40.8983H27.2544C26.9598 40.9282 26.7745 40.6938 26.6857 40.5517C26.659 40.5521 26.6311 40.562 26.6026 40.5574C26.4575 40.5342 26.3533 40.4442 26.2789 40.361C26.2629 40.3662 26.2474 40.3801 26.2307 40.3841C26.1884 40.3942 26.1473 40.3777 26.1083 40.3783C26.0949 40.4156 26.0926 40.4591 26.0777 40.4939C26.0435 40.5729 25.9913 40.6792 25.9158 40.7712C25.8776 40.8176 25.8259 40.8674 25.7627 40.9099L25.5308 40.9966C25.2863 41.0247 25.101 40.8755 24.9927 40.7423C24.963 40.7057 24.9473 40.6549 24.9227 40.6152C24.8546 40.721 24.735 40.8858 24.5508 40.9388L24.3146 40.9446C24.1477 40.9084 24.0302 40.7919 23.9603 40.7019C23.9279 40.6601 23.9053 40.6116 23.8815 40.569C23.8479 40.6107 23.8145 40.66 23.7678 40.6961C23.6168 40.8126 23.4206 40.8563 23.2297 40.7597C23.1199 40.7038 23.0437 40.611 22.9891 40.5343C22.9684 40.5333 22.9452 40.544 22.9235 40.5401C22.8685 40.5301 22.8203 40.5061 22.7747 40.4823C22.6883 40.5209 22.5897 40.5439 22.4729 40.517C22.3005 40.4767 22.1813 40.3543 22.1142 40.2628C22.0349 40.3603 21.9182 40.4784 21.7423 40.4939C21.6489 40.5017 21.5672 40.4758 21.4974 40.4418C21.417 40.494 21.3223 40.543 21.2087 40.5401C21.1394 40.5381 21.0767 40.5131 21.0205 40.4881C20.9653 40.5737 20.8925 40.6846 20.7799 40.7539L20.6005 40.829C20.4279 40.8628 20.2823 40.8071 20.1631 40.725C20.157 40.7269 20.1519 40.7348 20.1456 40.7366C19.877 40.81 19.6765 40.6368 19.5813 40.5112C19.5701 40.4965 19.565 40.4743 19.555 40.4592C19.5003 40.462 19.4503 40.4563 19.4019 40.4418C19.2888 40.6016 19.0578 40.8357 18.7326 40.7019C18.656 40.6703 18.5916 40.6245 18.5401 40.5748C18.4423 40.6436 18.3168 40.7041 18.1638 40.673C17.9396 40.6266 17.807 40.4363 17.7527 40.3436L17.7483 40.3379C17.6866 40.3658 17.6253 40.403 17.5558 40.413C17.5081 40.4198 17.4617 40.4045 17.4158 40.4014C17.3661 40.4853 17.3153 40.5775 17.2452 40.6499L17.0834 40.777C16.9628 40.8507 16.8191 40.8837 16.6721 40.8405C16.538 40.8004 16.4376 40.7062 16.3703 40.6268C16.2902 40.635 16.2048 40.6345 16.1166 40.5921C16.1085 40.5883 16.1024 40.5789 16.0947 40.5748C16.0069 40.6784 15.8884 40.7937 15.7185 40.8175C15.5306 40.8434 15.3889 40.7481 15.281 40.6499C15.1275 40.6547 14.9859 40.6005 14.861 40.5055L14.8567 40.517C14.7301 40.6113 14.5656 40.6597 14.393 40.6037C14.3043 40.5748 14.232 40.5247 14.1742 40.4707C14.1221 40.5581 14.0704 40.6566 13.9949 40.7308L13.8286 40.8579C13.5814 40.995 13.3461 40.9049 13.1855 40.7539C13.0853 40.819 12.9613 40.8736 12.8137 40.8405C12.6141 40.7956 12.4894 40.6341 12.4287 40.5401C12.3616 40.4358 12.3126 40.3145 12.2756 40.1992C12.254 40.2022 12.2329 40.2163 12.21 40.2165C12.1596 40.2169 12.1139 40.2 12.07 40.1876C12.0567 40.219 12.0495 40.2551 12.035 40.2858L11.8294 40.621C11.7286 40.7417 11.5648 40.8754 11.3526 40.881C11.1391 40.886 10.9728 40.7596 10.867 40.6383C10.8559 40.6259 10.8495 40.621 10.8495 40.621L10.587 40.4996C10.5513 40.4798 10.5206 40.4479 10.4863 40.4246C10.4385 40.4477 10.3897 40.4788 10.3333 40.4881C10.2672 40.4987 10.2046 40.4769 10.1451 40.465L10.0752 40.5459C9.92527 40.7059 9.68829 40.8235 9.42773 40.7019C9.34605 40.6634 9.28281 40.6003 9.22644 40.5401C9.15887 40.5483 9.09116 40.5401 9.02083 40.5228C8.84448 40.6155 8.64894 40.6332 8.45214 40.5343L8.16783 40.465C8.086 40.4217 8.01679 40.3634 7.96221 40.3032C7.95199 40.292 7.94564 40.2745 7.93593 40.2628C7.92862 40.2634 7.92152 40.2625 7.91406 40.2628L7.77408 40.5285C7.70972 40.6269 7.56825 40.8029 7.34537 40.829C7.10684 40.856 6.93284 40.6985 6.84666 40.5863C6.79074 40.5134 6.75547 40.4218 6.7198 40.3379C6.70818 40.3671 6.70299 40.4016 6.68917 40.4303C6.64937 40.513 6.55114 40.6927 6.36983 40.7886C6.13132 40.9137 5.90337 40.8188 5.76175 40.673C5.70597 40.6152 5.66408 40.5485 5.63051 40.4881L5.55614 40.3321C5.5502 40.3167 5.5402 40.301 5.53426 40.2858C5.44652 40.292 5.37156 40.2766 5.30241 40.2454C5.27618 40.2841 5.25554 40.3316 5.22367 40.3668C5.12426 40.4761 4.97977 40.5763 4.80808 40.5863L4.62871 40.5632C4.47537 40.5167 4.33502 40.4255 4.21312 40.309L4.14313 40.2569C4.0766 40.2231 4.01909 40.1739 3.96814 40.1241C3.90741 40.1794 3.80334 40.266 3.66629 40.2917C3.57462 40.3085 3.45638 40.3006 3.33382 40.2281C3.20882 40.1539 3.1209 40.0359 3.06697 39.9219C3.00656 39.7936 2.9848 39.6626 2.9751 39.5636C2.89737 39.5307 2.82044 39.4977 2.74761 39.448H2.72137C2.6191 39.4455 2.43382 39.4072 2.27953 39.2053C2.11937 38.9948 2.09128 38.7385 2.0958 38.5813C2.09665 38.5519 2.10602 38.5232 2.10891 38.4946C2.02411 38.4372 1.92818 38.3505 1.85956 38.1999C1.79224 38.0509 1.77974 37.9028 1.78082 37.7782C1.7726 37.7743 1.76273 37.7766 1.75457 37.7724C1.66701 37.727 1.53155 37.6291 1.43522 37.4314C1.32999 37.214 1.32068 36.9785 1.3521 36.7959L1.35648 36.7842C1.34479 36.707 1.34272 36.6324 1.34335 36.5589C1.33612 36.5509 1.32424 36.5501 1.31711 36.5416C1.22536 36.431 1.08556 36.196 1.1115 35.854C1.12668 35.6558 1.19753 35.5144 1.26024 35.4149C1.22651 35.3033 1.20038 35.1797 1.20336 35.0393C1.20877 34.8055 1.2778 34.6118 1.35648 34.473L1.58396 34.1784C1.6036 34.1591 1.62518 34.1439 1.6452 34.1263C1.61499 34.0785 1.5816 34.0302 1.54896 33.9818L1.36085 33.7103C1.29742 33.6206 1.22119 33.4808 1.19024 33.2885C1.15722 33.0828 1.18606 32.8865 1.24711 32.728C1.32569 32.5256 1.45377 32.3998 1.54896 32.3235C1.53904 32.2473 1.54491 32.1755 1.54896 32.1039C1.47278 32.0588 1.39031 32.0237 1.32148 31.9595C1.25266 31.8952 1.13154 31.7638 1.059 31.555L1.00651 31.3182C0.978424 31.0618 1.0456 30.848 1.12462 30.6883C1.10432 30.6203 1.08577 30.5478 1.0765 30.4687L1.04588 30.1625C1.03375 30.0373 1.03451 29.9152 1.05025 29.7985L1.12462 29.5153V29.602C1.09248 29.2931 1.15939 29.0137 1.26898 28.7989L1.28648 28.7757C1.20549 28.6653 1.09633 28.4858 1.09837 28.2094C1.1009 27.9118 1.22552 27.7217 1.30836 27.6201C1.29867 27.5853 1.27537 27.5555 1.26898 27.5161C1.24189 27.3471 1.26016 27.1961 1.29523 27.0711C1.28214 27.0271 1.25919 26.9841 1.25149 26.9325C1.23881 26.8469 1.25094 26.7691 1.25586 26.6956C1.18286 26.5624 1.106 26.3734 1.13337 26.1177C1.15023 25.9634 1.1959 25.8396 1.24711 25.7479L1.21211 25.6036C1.19495 25.4277 1.22316 25.2779 1.26461 25.1528C1.23484 25.0925 1.20098 25.0271 1.18149 24.9448C1.13794 24.7594 1.15782 24.5766 1.20336 24.4132C1.18874 24.187 1.24779 24.01 1.31711 23.87C1.22743 23.7003 1.14948 23.4614 1.22086 23.1536C1.22866 23.1201 1.24572 23.0913 1.25586 23.0611C1.24336 23.0154 1.21872 22.9701 1.21211 22.9166C1.18015 22.6543 1.24234 22.4505 1.32148 22.3042C1.176 22.1202 1.00307 21.8068 1.06775 21.3739L1.12025 21.1485C1.13118 21.1156 1.14684 21.0865 1.15962 21.056L1.15524 21.0503C1.09514 20.7266 1.19805 20.4634 1.29523 20.3164C1.31526 20.2864 1.34425 20.2717 1.36523 20.2471C1.30445 20.1757 1.24042 20.0985 1.19024 19.9987L1.10275 19.7791C1.02807 19.5146 1.05466 19.2429 1.14649 19.0221C1.18753 18.9244 1.23923 18.84 1.29086 18.7737C1.26137 18.7359 1.21717 18.7094 1.19024 18.6581C1.1021 18.4897 1.04251 18.2421 1.09837 17.9705C1.14682 17.7364 1.26247 17.5921 1.33023 17.5198L1.38273 17.4736C1.36367 17.4304 1.33107 17.3938 1.31711 17.3407C1.23886 17.0408 1.31729 16.7756 1.41335 16.601C1.41019 16.5308 1.40085 16.4555 1.41335 16.3757C1.4193 16.338 1.43501 16.3058 1.44397 16.2718C1.42585 16.2317 1.41044 16.1894 1.39585 16.1447L1.25149 15.9828C1.19719 15.9019 1.14493 15.7909 1.11587 15.6477C1.04527 15.2985 1.16522 15.0264 1.26461 14.885C1.24225 14.6325 1.31614 14.4349 1.39585 14.3014C1.32446 14.23 1.23394 14.1227 1.18149 13.9547C1.12874 13.784 1.12194 13.59 1.16837 13.4057C1.20548 13.2591 1.26682 13.155 1.31711 13.0879C1.30406 13.0678 1.28556 13.0531 1.27336 13.0302C1.22242 12.9342 1.17014 12.7997 1.15962 12.6315C1.14894 12.4598 1.18513 12.3071 1.23399 12.1866C1.28533 12.0602 1.35346 11.9707 1.41335 11.9092C1.4172 11.7045 1.48723 11.5442 1.55771 11.4181C1.55686 11.4104 1.5545 11.4028 1.55333 11.3949C1.52042 11.1735 1.53966 10.957 1.59271 10.7536C1.5776 10.6108 1.58424 10.4846 1.61021 10.3665C1.57923 10.3437 1.5444 10.3289 1.51397 10.3028L1.25586 10.0082C1.17424 9.8749 1.0962 9.68177 1.08525 9.44193C1.07435 9.19768 1.13652 8.98871 1.21649 8.83522L1.22524 8.81788L1.24711 8.74855C1.20405 8.68004 1.15623 8.60048 1.129 8.4943C1.0312 8.11108 1.17366 7.80485 1.28211 7.66224C1.30763 7.62883 1.34316 7.61288 1.3696 7.58713C1.35699 7.51794 1.35957 7.44668 1.35648 7.37333C1.31196 7.28905 1.26364 7.18748 1.24274 7.05554C1.21289 6.86611 1.23301 6.67929 1.28648 6.52395C1.35987 6.31195 1.48652 6.18242 1.57959 6.10213C1.54559 6.07558 1.50671 6.05807 1.47459 6.02702C1.42104 5.97523 1.31289 5.85724 1.24274 5.66877C1.20343 5.56278 1.16944 5.4158 1.18149 5.24119C1.1944 5.06089 1.2498 4.9092 1.31711 4.80204C1.3817 4.69943 1.45823 4.63275 1.52272 4.58826C1.5177 4.43474 1.53956 4.25502 1.6452 4.07977C1.7001 3.98902 1.76383 3.93124 1.82019 3.88909C1.85705 3.68017 1.95078 3.49541 2.0958 3.38062C2.09405 3.22315 2.11431 3.02433 2.21828 2.83747C2.32759 2.64257 2.46981 2.55709 2.5945 2.51966C2.59601 2.50487 2.5969 2.48828 2.59887 2.47344C2.62684 2.26466 2.71861 1.9757 2.95322 1.80895L3.16758 1.70494C3.23822 1.68691 3.30743 1.68736 3.37319 1.69338L3.71878 1.80895L3.74941 1.82628V1.83206C3.80907 1.82582 3.8668 1.81934 3.9244 1.82628C3.93102 1.80981 3.93439 1.79075 3.94189 1.77428C3.98566 1.67843 4.0687 1.53008 4.21312 1.43337C4.44906 1.27636 4.64851 1.36485 4.79058 1.46803C4.87712 1.40556 4.97753 1.35075 5.0968 1.34092C5.13131 1.33813 5.16476 1.35482 5.19742 1.35825C5.28053 1.28465 5.38605 1.2225 5.51677 1.20802C5.70969 1.18678 5.85529 1.28965 5.96298 1.39292C6.04799 1.34185 6.15324 1.30433 6.27796 1.32358C6.42489 1.34675 6.53072 1.43854 6.60605 1.52582C6.68163 1.46214 6.76606 1.40544 6.86853 1.38136L7.08289 1.37558C7.23214 1.4068 7.33975 1.51913 7.41974 1.61249L7.42849 1.60671L7.49848 1.5547L7.70846 1.41025C7.79024 1.37434 7.88327 1.35335 7.98409 1.36403C8.08742 1.37519 8.17492 1.4217 8.25093 1.47381C8.3008 1.3807 8.38621 1.24713 8.5265 1.16757C8.7799 1.02519 9.02001 1.13976 9.16082 1.29469C9.21226 1.35145 9.25183 1.41484 9.28333 1.47381C9.3789 1.47283 9.47267 1.50558 9.56331 1.56048C9.58877 1.50841 9.60796 1.44384 9.64641 1.39292C9.69822 1.32446 9.78311 1.23443 9.90451 1.1849C10.0366 1.13128 10.1754 1.13971 10.2983 1.20224C10.4279 1.26842 10.5098 1.387 10.5651 1.47959C10.6318 1.38067 10.7209 1.26804 10.8451 1.19646L11.0551 1.10401C11.1285 1.08263 11.2047 1.06961 11.2825 1.06934L11.4488 1.09823C11.6001 1.14859 11.7127 1.26258 11.7857 1.35825C11.8612 1.45786 11.9109 1.58036 11.9563 1.68761L11.965 1.68183L12.175 1.48537C12.2649 1.42784 12.3759 1.38972 12.5031 1.39869C12.6844 1.41213 12.8162 1.52454 12.9099 1.62983C12.9652 1.6379 13.0174 1.65488 13.0674 1.67605C13.1151 1.61126 13.1774 1.54212 13.2599 1.49115C13.4048 1.4017 13.5556 1.41606 13.6973 1.47381C13.7737 1.39734 13.872 1.32846 13.9949 1.30047H14.2092C14.3278 1.32612 14.4185 1.40584 14.4935 1.47959C14.5969 1.38088 14.7424 1.28382 14.9398 1.32936C15.0537 1.18574 15.2307 1.02672 15.491 1.09245H15.5347L15.7403 1.10401C15.9273 1.15393 16.0595 1.30518 16.1296 1.41025C16.14 1.42583 16.1419 1.45189 16.1515 1.46803C16.1737 1.46637 16.1951 1.44954 16.2171 1.4507L16.484 1.53738L16.5365 1.56048L16.7421 1.63561C16.8299 1.50753 16.9316 1.38563 17.0527 1.29469L17.2496 1.19646C17.3231 1.17774 17.4029 1.17586 17.4858 1.19646C17.6405 1.23537 17.7536 1.34102 17.8226 1.42759C17.9317 1.5643 17.9969 1.73778 18.0414 1.87251C18.0603 1.86904 18.0789 1.87424 18.0982 1.87251C18.178 1.78702 18.2597 1.702 18.3476 1.63561C18.4609 1.55034 18.5843 1.48464 18.7151 1.44493L18.947 1.42759C18.9906 1.3674 19.0451 1.29938 19.1176 1.24846C19.2617 1.14769 19.4405 1.11647 19.6163 1.19646C19.6262 1.20097 19.6331 1.21458 19.6425 1.21957C19.74 1.12457 19.8737 1.04457 20.045 1.05201C20.2797 1.06288 20.4272 1.24486 20.5174 1.38136C20.6019 1.36645 20.6806 1.39161 20.7581 1.41603C20.8618 1.3031 21.0117 1.19949 21.1911 1.20224L21.4011 1.24846L21.5761 1.3698C21.5812 1.3743 21.5843 1.38254 21.5892 1.38714L21.5936 1.38136C21.6819 1.2761 21.8177 1.16347 21.9873 1.13868L22.171 1.15023L22.3504 1.21957C22.4109 1.25373 22.463 1.30012 22.5123 1.3467C22.6208 1.25724 22.7694 1.17463 22.9585 1.23113C23.0956 1.27261 23.1893 1.37395 23.256 1.46225C23.3086 1.37285 23.4154 1.2191 23.5928 1.15023C23.7818 1.07688 23.9508 1.14354 24.0784 1.24269C24.2043 1.16714 24.3574 1.11615 24.5246 1.19068C24.5853 1.21786 24.6292 1.2717 24.6734 1.31202C24.6838 1.30952 24.6931 1.29654 24.704 1.29469C24.7726 1.28327 24.8346 1.31041 24.8921 1.32358C24.953 1.27447 25.0258 1.22778 25.1152 1.20802C25.3165 1.16416 25.4865 1.25591 25.5964 1.36403C25.6345 1.40155 25.656 1.45667 25.6839 1.49692C25.7672 1.37318 25.8994 1.21607 26.1039 1.17913L26.2045 1.14446L26.3882 1.09245C26.5662 1.07739 26.7268 1.16016 26.8431 1.27735C26.9358 1.37088 26.9989 1.4912 27.0488 1.59515L27.0532 1.58938C27.153 1.56598 27.2427 1.57991 27.3244 1.60671C27.3319 1.60287 27.3385 1.59294 27.3463 1.58938C27.4068 1.56174 27.4684 1.55769 27.53 1.5547C27.56 1.49272 27.5846 1.41356 27.635 1.35247C27.6918 1.28368 27.7823 1.20248 27.9062 1.16179C28.0394 1.11846 28.1729 1.13837 28.2868 1.20224C28.4412 1.28913 28.528 1.4412 28.5756 1.53738C28.6634 1.51606 28.7458 1.5165 28.8249 1.53738C28.9457 1.47199 29.0897 1.43243 29.2536 1.49692C29.3933 1.55205 29.4921 1.66195 29.5642 1.76272C29.6202 1.76789 29.6719 1.79598 29.7261 1.81473C29.8178 1.67322 29.9336 1.52541 30.0979 1.4507L30.2729 1.39869C30.3766 1.383 30.4731 1.42195 30.5704 1.45647C30.6289 1.33536 30.8111 0.995739 31.1566 1.00578L31.4103 1.07512C31.5277 1.13905 31.6101 1.25216 31.6815 1.35247C31.7322 1.31423 31.7793 1.26204 31.839 1.23691L32.1059 1.19646C32.1799 1.20854 32.2446 1.2442 32.3027 1.28313C32.355 1.23467 32.4155 1.19142 32.4864 1.16179L32.7358 1.12134C32.9618 1.14863 33.1225 1.34583 33.1952 1.46225C33.2811 1.60052 33.3373 1.765 33.3789 1.90718C33.4032 1.91825 33.4216 1.94564 33.4445 1.95918C33.4626 1.89105 33.4794 1.81802 33.5058 1.75116C33.5337 1.68037 33.6295 1.45349 33.8338 1.33514C33.959 1.26294 34.107 1.24346 34.2495 1.30047C34.2839 1.3144 34.3126 1.33924 34.3413 1.35825C34.4055 1.32327 34.4765 1.29138 34.5557 1.28313L34.7657 1.30047C34.8304 1.31801 34.8902 1.34666 34.945 1.38136C35.023 1.27717 35.1163 1.17771 35.2294 1.10979L35.5006 1.02889C35.594 1.02563 35.6898 1.04976 35.7806 1.09823C35.86 1.14092 35.9264 1.19879 35.9818 1.26002L36.1174 1.43915L36.1699 1.5316C36.2475 1.53185 36.3168 1.54224 36.3799 1.57204C36.4255 1.54138 36.4785 1.51848 36.5374 1.5027C36.747 1.44765 36.9105 1.55394 37.0186 1.65871C37.0944 1.54168 37.2067 1.40295 37.3773 1.3467C37.6508 1.25678 37.8511 1.42807 37.9723 1.57204C38.0313 1.58684 38.0842 1.60566 38.1342 1.63561C38.1571 1.62162 38.1786 1.60031 38.2041 1.58938C38.3918 1.50924 38.5528 1.55848 38.681 1.64137C38.7979 1.62192 38.9201 1.63836 39.0397 1.71072C39.0563 1.7208 39.0681 1.74564 39.0835 1.75694C39.0992 1.73164 39.1158 1.70721 39.1315 1.68183L39.3372 1.44493C39.433 1.37086 39.5552 1.31749 39.7046 1.32936C39.731 1.33146 39.7547 1.34675 39.779 1.35247C39.8845 1.25086 40.0199 1.19596 40.1858 1.19646C40.3879 1.06563 40.6179 1.07485 40.8114 1.21957C40.859 1.25525 40.8926 1.30909 40.9295 1.35247C40.974 1.33224 41.0208 1.30728 41.0739 1.30047C41.2359 1.27974 41.377 1.34729 41.4807 1.43337C41.6055 1.53735 41.6851 1.68361 41.7388 1.80317C41.8078 1.6523 41.8863 1.5073 41.9795 1.38714L42.0976 1.26002C42.1461 1.21967 42.206 1.18664 42.2726 1.16179C42.4152 1.10893 42.5601 1.12188 42.6882 1.19068C42.7221 1.20913 42.7509 1.24232 42.78 1.2658C42.8838 1.13331 43.043 0.980391 43.2787 1.00578L43.5368 1.10401C43.6104 1.15277 43.6728 1.21363 43.7206 1.27157C43.7321 1.28556 43.736 1.30905 43.7468 1.32358C43.8096 1.32388 43.8782 1.32818 43.9481 1.35825C43.9917 1.37724 44.0298 1.4062 44.0662 1.43337C44.1884 1.29935 44.3977 1.16912 44.648 1.27735C44.7984 1.34267 44.8886 1.47718 44.9454 1.57204C44.969 1.56545 44.9941 1.55196 45.0198 1.54893C45.1496 1.53413 45.2569 1.57826 45.3435 1.63561C45.4284 1.52749 45.5584 1.394 45.7373 1.3698L45.9691 1.39292L46.0041 1.41603C46.063 1.33083 46.1405 1.24467 46.2404 1.1849L46.5641 1.08667C46.6181 1.08471 46.6719 1.09161 46.726 1.10401L46.8922 1.16179L47.0978 1.32358C47.1551 1.38629 47.1988 1.45614 47.2334 1.51426C47.2598 1.55862 47.2764 1.61117 47.2991 1.65871L47.5177 1.75116C47.5774 1.68685 47.6416 1.6282 47.7103 1.57782C47.7206 1.5702 47.7467 1.54448 47.789 1.48537L48.0077 1.27157C48.1029 1.21021 48.2204 1.17362 48.3577 1.19068C48.371 1.19237 48.3844 1.2054 48.3971 1.20802C48.4545 1.1571 48.5233 1.11308 48.6027 1.08667C48.8455 1.0067 49.0224 1.13841 49.1451 1.2658C49.2178 1.20419 49.305 1.1477 49.412 1.12712L49.657 1.14446C49.8756 1.21693 50.0099 1.43287 50.0594 1.52582C50.2287 1.52778 50.3516 1.6128 50.4444 1.7165C50.4817 1.65816 50.5194 1.59233 50.5713 1.54316C50.6704 1.44968 50.8159 1.36505 50.9912 1.38136C51.0767 1.3896 51.1509 1.42297 51.2143 1.46225L51.3675 1.59515L51.503 1.78583C51.5451 1.77936 51.5847 1.7709 51.6256 1.77428C51.6335 1.75173 51.6383 1.72696 51.6474 1.70494C51.6721 1.64592 51.7149 1.54887 51.7874 1.46225C51.8633 1.37174 52.0038 1.25933 52.1943 1.26002C52.2343 1.26028 52.2685 1.28545 52.3036 1.29469C52.4205 1.17768 52.6025 1.05311 52.8373 1.14446C53.0092 1.21211 53.1091 1.36643 53.1654 1.46803C53.2043 1.47637 53.245 1.47998 53.2836 1.49115L53.3885 1.54316C53.4853 1.46669 53.6122 1.39475 53.7735 1.42181C53.7921 1.42495 53.8086 1.4399 53.826 1.44493C53.8579 1.40482 53.8895 1.36299 53.9266 1.32936L54.1541 1.19068C54.2405 1.16049 54.3361 1.14603 54.4385 1.16757C54.5352 1.18793 54.618 1.23479 54.6878 1.28891L54.854 1.46225L55.0116 1.72806C55.153 1.69445 55.281 1.72868 55.4009 1.78006C55.5152 1.71405 55.6419 1.66984 55.7859 1.68183V1.67605C55.861 1.64149 55.9386 1.61776 56.0177 1.60671L56.2627 1.61249L56.4595 1.68183C56.474 1.69001 56.4851 1.7074 56.4989 1.7165C56.5416 1.62992 56.5876 1.54718 56.6389 1.47381L56.827 1.24846C56.9004 1.17826 56.9837 1.11891 57.0764 1.07512L57.2338 1.02311C57.3927 1.0011 57.5441 1.06143 57.667 1.16179C57.7816 1.25584 57.8592 1.38309 57.9163 1.49115C58.0195 1.37542 58.1667 1.24442 58.3756 1.26002L58.5506 1.30624C58.7089 1.37697 58.8172 1.51659 58.8787 1.61249L58.8831 1.62983C58.9479 1.58251 59.0196 1.54077 59.1019 1.52004L59.3249 1.50848C59.5267 1.53813 59.6856 1.68105 59.7974 1.82051C59.81 1.77799 59.8215 1.73437 59.8367 1.69338C59.8673 1.61181 59.9324 1.45671 60.0512 1.33514C60.117 1.26772 60.2154 1.19808 60.3399 1.17335C60.4071 1.16025 60.4715 1.16492 60.5324 1.17913C60.5417 1.1716 60.5489 1.1573 60.5586 1.15023C60.6627 1.07517 60.7934 1.02576 60.9392 1.04623C60.9978 1.05454 61.0485 1.0857 61.0966 1.10979C61.1675 1.09583 61.2421 1.08806 61.3198 1.10979C61.4514 1.14684 61.5495 1.23425 61.6172 1.31202C61.6801 1.2454 61.7542 1.17702 61.8491 1.13868L62.0329 1.10401C62.2094 1.10018 62.3624 1.19274 62.4703 1.30624C62.5378 1.37752 62.5886 1.46248 62.6322 1.54316C62.6753 1.53076 62.7185 1.52275 62.7634 1.52004C62.8621 1.40254 63.005 1.27289 63.2096 1.27735C63.3904 1.28184 63.5216 1.39144 63.6164 1.49692C63.6296 1.47567 63.6372 1.44794 63.6515 1.42759C63.7343 1.30918 63.8763 1.16257 64.0758 1.11557L64.3339 1.12134C64.5651 1.19648 64.7012 1.43875 64.7452 1.52582C64.7923 1.61925 64.8138 1.733 64.8457 1.83783C64.8971 1.82349 64.9493 1.8074 65.0033 1.80317L65.2089 1.79161C65.2198 1.75568 65.2259 1.7166 65.2395 1.68183C65.2623 1.62346 65.3042 1.53203 65.3707 1.44493C65.4376 1.35727 65.5676 1.22786 65.76 1.21379C65.9315 1.20196 66.0596 1.29669 66.145 1.38136C66.3131 1.3442 66.4683 1.4023 66.5869 1.50848C66.6172 1.4445 66.6483 1.36576 66.7006 1.30047C66.7969 1.18084 66.9842 1.02857 67.2299 1.0809C67.3389 1.10421 67.4258 1.16233 67.4924 1.22535L67.6324 1.40447L67.7155 1.5836C67.7302 1.55895 67.7426 1.53168 67.7593 1.50848C67.822 1.42104 67.9306 1.3052 68.0873 1.25424C68.1726 1.22674 68.255 1.22092 68.3324 1.23691L68.5467 1.33514L68.5817 1.36403C68.633 1.28964 68.7044 1.20264 68.8048 1.14446C68.9896 1.03769 69.1893 1.06176 69.3516 1.17913C69.43 1.23587 69.4868 1.30959 69.531 1.37558C69.5764 1.39046 69.6142 1.4204 69.6535 1.44493C69.7371 1.38155 69.8308 1.31309 69.9466 1.30624L70.1434 1.33514L70.4103 1.51426C70.4789 1.58836 70.5256 1.67335 70.5591 1.73384C70.5849 1.73096 70.6105 1.73277 70.6377 1.73384C70.669 1.6663 70.6996 1.58263 70.7559 1.51426C70.8783 1.36598 71.1105 1.20954 71.3814 1.34092C71.3894 1.34478 71.3957 1.35405 71.4033 1.35825C71.4347 1.33658 71.4663 1.31051 71.504 1.29469C71.603 1.25301 71.7016 1.25643 71.7971 1.27735C71.8243 1.25916 71.8523 1.24053 71.8802 1.21957L72.0464 1.12712C72.2147 1.06909 72.3943 1.10028 72.5495 1.21957C72.5788 1.2421 72.5988 1.28033 72.6239 1.30624C72.6842 1.2608 72.7568 1.223 72.8426 1.20802C73.0426 1.17358 73.1855 1.27842 73.2845 1.38136C73.3275 1.35792 73.3715 1.32269 73.4245 1.31202C73.6299 1.27095 73.7989 1.37609 73.9056 1.48537C73.9154 1.49538 73.9183 1.51529 73.9275 1.52582C73.98 1.48782 74.04 1.45026 74.1113 1.43337C74.2066 1.41087 74.2904 1.43086 74.365 1.45647C74.4668 1.38709 74.598 1.3416 74.7587 1.38714C74.8834 1.42264 74.9761 1.50276 75.043 1.5836C75.0914 1.54025 75.1418 1.49735 75.2008 1.46803L75.4852 1.35825H75.4673C75.4696 1.35629 75.4748 1.3524 75.4808 1.3467L75.7077 1.19646C75.7996 1.16275 75.9048 1.15318 76.0183 1.19068C76.1751 1.24242 76.2759 1.36527 76.3379 1.45647C76.3535 1.4267 76.3633 1.39153 76.3819 1.36403C76.4521 1.25849 76.6141 1.0626 76.8672 1.06934C76.9904 1.07306 77.0912 1.12308 77.1688 1.1849L77.3353 1.37558L77.3615 1.43337C77.4921 1.30676 77.6877 1.1995 77.9304 1.29469L77.9259 1.30047C78.0058 1.28825 78.0797 1.28879 78.1491 1.30624C78.1835 1.2666 78.2148 1.21693 78.2581 1.1849C78.3783 1.0975 78.5314 1.04749 78.6957 1.09245C78.7726 1.11366 78.8375 1.15349 78.8928 1.19646L79.0242 1.32936L79.1989 1.59515C79.2101 1.6155 79.219 1.63788 79.2295 1.65871C79.3303 1.63277 79.44 1.6305 79.5535 1.67605C79.5908 1.6914 79.6214 1.72978 79.6543 1.75116C79.6603 1.74859 79.6655 1.74199 79.6715 1.7396C79.7088 1.62554 79.7446 1.50283 79.8029 1.39869C79.8731 1.27296 80.0567 0.99935 80.3628 1L80.6473 1.08667ZM68.2361 40.7539H68.2492C68.2114 40.7335 68.1719 40.7231 68.1398 40.6961L68.2361 40.7539ZM35.0194 40.465L35.0281 40.4707C35.0182 40.4574 35.006 40.4486 34.9975 40.4361C34.9989 40.438 35.0051 40.4505 35.0194 40.465ZM32.5259 40.2569L32.5346 40.2512C32.4894 40.2368 32.4424 40.2338 32.3989 40.2108L32.5259 40.2569ZM37.7492 40.153H37.7579C37.7843 40.1252 37.7994 40.0992 37.8017 40.0952L37.7492 40.153ZM39.7484 40.0201C39.7632 40.0416 39.7936 40.0802 39.8402 40.1183C39.8059 40.0812 39.7713 40.0535 39.7484 40.0201ZM12.7174 39.893L12.7262 39.8871L12.7437 39.8641L12.7174 39.893ZM68.503 39.5983L68.4942 39.5809C68.4923 39.5779 68.4886 39.5739 68.4854 39.5694C68.49 39.5799 68.499 39.5886 68.503 39.5983ZM28.7112 39.4884L28.7987 39.5289L28.8249 39.4018L28.7112 39.4884ZM28.7987 39.5289L28.7112 39.4884L28.8249 39.4018L28.7987 39.5289ZM47.3253 39.4365L47.3165 39.4191C47.3137 39.4146 47.3085 39.409 47.3034 39.4018C47.3093 39.4136 47.3194 39.4245 47.3253 39.4365ZM15.9416 39.4018C15.9328 39.4172 15.9272 39.4295 15.924 39.4365C15.9319 39.4172 15.9484 39.4017 15.959 39.3787C15.9529 39.3881 15.9453 39.3953 15.9416 39.4018ZM72.2914 39.3094C72.2757 39.2906 72.2536 39.2635 72.2214 39.24C72.2459 39.2668 72.273 39.2841 72.2914 39.3094ZM39.1403 39.2574C39.1315 39.2663 39.1214 39.2718 39.1141 39.2805V39.292C39.1218 39.2802 39.1312 39.2699 39.1403 39.2574ZM9.29207 3.14948C9.1874 3.20898 9.06495 3.23414 8.93773 3.20149C8.86098 3.18169 8.79819 3.13887 8.74525 3.09748C8.67896 3.16536 8.60123 3.23282 8.50029 3.26505C8.18082 3.36655 7.96139 3.12846 7.8572 2.97614V2.98192C7.81245 3.06611 7.72399 3.20514 7.5816 3.29394C7.41087 3.39984 7.21699 3.40114 7.0479 3.29394C7.00526 3.2669 6.97138 3.22878 6.93853 3.19571C6.86286 3.27053 6.77739 3.33968 6.67167 3.37484C6.42301 3.45705 6.24248 3.32127 6.12047 3.18993C5.96837 3.24177 5.80849 3.22197 5.66988 3.12059C5.56858 3.04599 5.50091 2.94135 5.45553 2.86057C5.3604 2.88775 5.27017 2.88864 5.1843 2.86635C5.17908 2.87 5.17644 2.88014 5.17117 2.88369L4.95244 2.99348C4.8618 3.02509 4.77741 3.02718 4.69871 3.01659C4.64824 3.09381 4.59043 3.18562 4.50185 3.24771L4.35311 3.32861C4.25872 3.35993 4.16554 3.3647 4.07751 3.3575L3.82816 3.29394H3.84566C3.7999 3.30284 3.75396 3.28318 3.71004 3.28239C3.707 3.30103 3.70961 3.32143 3.70567 3.34016C3.67861 3.46739 3.62092 3.62888 3.5088 3.76198C3.41966 3.86734 3.31774 3.91775 3.22008 3.94688L3.21571 4.0451C3.18504 4.1924 3.12437 4.3143 3.05384 4.4149C3.06101 4.59292 3.04596 4.81099 2.90948 5.00428C2.88571 5.0379 2.85583 5.05956 2.83073 5.08517C2.81667 5.21016 2.7842 5.33056 2.72137 5.44342C2.73937 5.48387 2.763 5.52763 2.77824 5.5821L2.81761 5.88835C2.81409 6.09628 2.77195 6.29002 2.70825 6.46038C2.69622 6.4927 2.68752 6.52466 2.68199 6.55861C2.64596 6.78216 2.54878 6.94535 2.45014 7.07287C2.45665 7.12883 2.45536 7.18593 2.45451 7.24622C2.48178 7.31926 2.51048 7.39218 2.52888 7.47156L2.57263 7.77203L2.55951 8.03205C2.5507 8.08307 2.53003 8.12628 2.51576 8.17073C2.55926 8.26642 2.60086 8.38616 2.60763 8.53475C2.61508 8.69989 2.58441 8.84645 2.53763 8.96233C2.48782 9.08526 2.41652 9.16676 2.35827 9.22813C2.42628 9.27443 2.49763 9.32154 2.55951 9.38415C2.60426 9.42956 2.65757 9.4927 2.70825 9.57483L2.83948 9.88684L2.87448 10.2162C2.86763 10.4488 2.78696 10.6392 2.69949 10.7882C2.69982 10.9433 2.68596 11.0947 2.64263 11.2389C2.64616 11.2272 2.65383 11.2065 2.65575 11.1812L2.67762 11.5683C2.67396 11.6768 2.65356 11.7767 2.6295 11.8687C2.63246 11.8772 2.63983 11.8831 2.64263 11.8919C2.73684 12.1899 2.68092 12.4856 2.57263 12.6835C2.55311 12.7191 2.52379 12.7414 2.50264 12.7702C2.50665 12.8061 2.51968 12.8414 2.52014 12.8799C2.52053 12.9139 2.50948 12.9461 2.50701 12.9782C2.53393 13.0529 2.56402 13.1384 2.57263 13.2382C2.57739 13.2952 2.55866 13.3481 2.55513 13.4C2.61792 13.4579 2.69627 13.5335 2.75636 13.6484L2.83948 13.8738L2.87885 14.1685C2.88086 14.3589 2.83597 14.5309 2.77386 14.677L2.66887 14.8734C2.66415 14.8805 2.65621 14.8838 2.65138 14.8908C2.67719 15.0152 2.69099 15.1583 2.65138 15.3241C2.61944 15.4572 2.56201 15.5534 2.50701 15.6304C2.60984 15.7669 2.73402 15.9833 2.71262 16.3064C2.70274 16.4552 2.65471 16.5702 2.60763 16.6705C2.61414 16.7347 2.61703 16.7961 2.612 16.8611C2.7152 16.9847 2.86224 17.2107 2.85261 17.5545C2.84376 17.8489 2.7231 18.0502 2.6295 18.1728C2.69104 18.2643 2.75831 18.4044 2.78699 18.5888C2.81706 18.7834 2.7949 18.9706 2.73886 19.1262C2.65635 19.3547 2.51095 19.4839 2.41514 19.5595C2.42412 19.5794 2.43765 19.5959 2.44577 19.6173C2.4786 19.7045 2.49686 19.7976 2.50701 19.8889C2.54892 19.9423 2.59478 20.0081 2.6295 20.0911C2.67763 20.2071 2.7111 20.356 2.70387 20.5245C2.69638 20.692 2.64915 20.8297 2.59887 20.9289C2.52694 21.0707 2.43248 21.1548 2.36702 21.2063C2.35553 21.3292 2.33116 21.4349 2.29265 21.5241C2.3278 21.5817 2.36385 21.6391 2.39327 21.7033C2.43131 21.7862 2.46303 21.8754 2.48951 21.969L2.55076 22.2695L2.52888 22.6508C2.51991 22.6916 2.49768 22.7237 2.48514 22.7606C2.51555 22.8537 2.53837 22.9632 2.53763 23.09C2.53708 23.177 2.51066 23.2503 2.49389 23.3211C2.54663 23.3966 2.60771 23.4955 2.64263 23.6331C2.6979 23.8528 2.67728 24.0817 2.60763 24.2687C2.57073 24.3668 2.52124 24.4402 2.47639 24.4999C2.54858 24.5898 2.63753 24.7295 2.66887 24.939C2.7151 25.2516 2.60844 25.4789 2.52014 25.6151C2.58193 25.8325 2.57406 26.0684 2.49389 26.2737C2.48953 26.2849 2.47661 26.2922 2.47201 26.3026C2.50043 26.4293 2.50459 26.5505 2.48951 26.6667C2.53815 26.7768 2.58364 26.9144 2.58138 27.0885C2.58096 27.1163 2.56621 27.1433 2.56388 27.1693C2.63156 27.2749 2.70797 27.4417 2.72137 27.6605C2.72808 27.7746 2.7169 27.88 2.69512 27.9726L2.60325 28.2153C2.59853 28.2241 2.59062 28.2297 2.58576 28.2383L2.612 28.2846L2.67762 28.5042C2.71985 28.7277 2.69389 28.9609 2.60325 29.1628C2.50859 29.3735 2.36849 29.5025 2.27515 29.5731C2.25639 29.5874 2.23952 29.5968 2.22703 29.6078C2.22263 29.7572 2.20305 29.8968 2.16142 30.0296C2.16475 30.0622 2.16661 30.0951 2.17017 30.1278C2.2849 30.2716 2.45236 30.5497 2.38015 30.9541C2.37711 30.9709 2.36631 30.9842 2.36265 31.0003C2.37808 31.0132 2.39592 31.021 2.41077 31.035C2.48022 31.1004 2.60675 31.2348 2.67762 31.451L2.72575 31.6937L2.70825 32.0982L2.70387 32.1039C2.73907 32.1958 2.77358 32.2982 2.78261 32.4217C2.7933 32.5724 2.77662 32.7103 2.74324 32.8263L2.612 33.1151C2.5874 33.1533 2.55198 33.179 2.52451 33.2133C2.54611 33.248 2.56927 33.2825 2.59013 33.3174L2.72575 33.6178L2.80449 33.9876L2.82636 34.1841C2.88458 34.5238 2.77914 34.801 2.66887 34.9699C2.60933 35.0612 2.53824 35.1261 2.47201 35.1837C2.50869 35.2781 2.54132 35.3916 2.54638 35.5246C2.5523 35.6907 2.51154 35.827 2.46764 35.9407C2.49413 36.0222 2.51451 36.1153 2.52014 36.218C2.52377 36.2854 2.51408 36.3484 2.50701 36.4087C2.53765 36.4163 2.56888 36.42 2.59887 36.4318C2.67178 36.4606 2.78823 36.5212 2.89198 36.6571C3.0058 36.8064 3.06518 37.0085 3.06697 37.2292C3.2216 37.3332 3.33399 37.51 3.38194 37.7204C3.41889 37.8831 3.40322 38.0305 3.39069 38.1306C3.49173 38.1116 3.62311 38.1122 3.75816 38.1999C3.85139 38.2609 3.91796 38.346 3.96814 38.4311C4.06348 38.4092 4.17348 38.4108 4.29187 38.4657C4.49483 38.5602 4.5949 38.7625 4.65496 38.9165C4.66528 38.9013 4.67457 38.8848 4.68559 38.8702C4.77743 38.7492 4.93445 38.5975 5.1493 38.5756L5.38553 38.6044C5.42484 38.6178 5.45979 38.6418 5.49489 38.6622C5.57667 38.6197 5.67216 38.596 5.78362 38.6102C5.98293 38.636 6.11573 38.7784 6.20359 38.9048C6.24878 38.8803 6.29644 38.8516 6.35233 38.8413C6.39263 38.782 6.43634 38.7185 6.49232 38.668C6.61811 38.5547 6.78097 38.4921 6.95165 38.5178L7.12664 38.5756L7.271 38.6795C7.30439 38.7114 7.33203 38.7486 7.35849 38.7835C7.38324 38.7622 7.4079 38.7381 7.43724 38.7199C7.58623 38.6285 7.75973 38.6107 7.92279 38.691L7.9272 38.6969C8.02948 38.6621 8.14715 38.6476 8.27721 38.7027C8.4537 38.7776 8.56234 38.9423 8.63155 39.0667C8.65551 39.0722 8.67799 39.0879 8.7015 39.0956C8.82589 39.0314 8.96185 39.0114 9.09959 39.0378H9.12147C9.27109 38.963 9.44766 38.9584 9.6202 39.0551C9.63678 39.0645 9.64857 39.085 9.66395 39.0956C9.7531 39.0191 9.86606 38.9494 10.0007 38.9337C10.0689 38.9261 10.1327 38.9414 10.1933 38.9569C10.2627 38.914 10.3435 38.8802 10.4339 38.8702C10.535 38.8592 10.6274 38.8804 10.7095 38.9165L10.9194 39.0609L11.0201 39.136L11.1644 39.2053C11.1731 39.2085 11.1822 39.2135 11.1907 39.2169C11.2301 39.1106 11.2769 39.002 11.3351 38.9048C11.4075 38.7838 11.5429 38.6006 11.7551 38.535L12.0132 38.5178C12.0815 38.5297 12.1435 38.5596 12.2012 38.5928C12.2646 38.5553 12.3349 38.5289 12.4112 38.5178L12.6781 38.5467L12.8531 38.6449C13.003 38.7683 13.0871 38.9472 13.1243 39.032V39.0436C13.2639 39.0042 13.4019 39.0213 13.5223 39.0956C13.5326 39.102 13.5432 39.1117 13.553 39.1186C13.6381 39.0093 13.7461 38.9121 13.8811 38.8587L14.0561 38.8124C14.1941 38.7991 14.3212 38.8529 14.441 38.9222C14.4831 38.8806 14.5312 38.8374 14.5898 38.8066C14.7615 38.7166 14.9474 38.7345 15.1016 38.8355C15.1673 38.8787 15.2209 38.9328 15.2635 38.9858L15.3597 39.136L15.3729 39.1591C15.4175 39.1576 15.4585 39.1674 15.4997 39.1764H15.5041L15.5872 39.0204C15.627 38.9596 15.6785 38.8952 15.7447 38.8413C15.9099 38.7075 16.126 38.6728 16.3265 38.7951C16.3851 38.8309 16.4302 38.8821 16.4709 38.928C16.5227 38.9233 16.5792 38.9297 16.6371 38.9454C16.7085 38.9648 16.7646 39.0099 16.8165 39.0493C16.8365 39.0289 16.8551 39.0041 16.8777 38.9858C17.0465 38.8492 17.2484 38.8257 17.4377 38.9107C17.5592 38.8029 17.7018 38.7137 17.8708 38.691L18.0764 38.7027C18.1686 38.7296 18.2402 38.7949 18.3038 38.8529C18.3641 38.8199 18.4317 38.7964 18.5051 38.7893L18.7063 38.8124L18.9075 38.928C19.0283 38.7927 19.2103 38.6556 19.4632 38.7373H19.4719C19.5093 38.7122 19.5513 38.6895 19.5988 38.6738C19.7448 38.6255 19.8885 38.6513 20.0056 38.7258C20.1838 38.8394 20.273 39.0387 20.3074 39.1245L20.3162 39.1302C20.3536 39.0491 20.4131 38.9343 20.5087 38.8413C20.6331 38.7209 20.8239 38.6337 21.0381 38.7084C21.0853 38.7251 21.1225 38.7632 21.1605 38.7893C21.2548 38.7102 21.383 38.6409 21.5455 38.6622C21.5639 38.6646 21.5807 38.6752 21.598 38.6795C21.6854 38.5886 21.8086 38.5037 21.9567 38.4889L22.1973 38.5293L22.4029 38.616L22.6216 38.7547C22.6557 38.7864 22.6822 38.8254 22.7091 38.8587C22.7317 38.8551 22.7549 38.8416 22.7791 38.8413C22.9003 38.8398 22.9982 38.8866 23.081 38.9454C23.1893 38.9206 23.2931 38.9337 23.3916 38.98C23.4807 38.8416 23.5926 38.7048 23.7372 38.616L24.0084 38.535C24.1015 38.5373 24.1951 38.5711 24.2796 38.6275C24.3618 38.6828 24.4216 38.7576 24.4677 38.824C24.5059 38.7843 24.5418 38.7336 24.5903 38.7027L24.739 38.6391C24.8894 38.5936 25.047 38.6163 25.1896 38.7084C25.2809 38.7677 25.3514 38.849 25.4083 38.928L25.4126 38.9222C25.509 38.7958 25.7085 38.621 25.977 38.6969C26.0361 38.7137 26.089 38.7404 26.1345 38.772C26.1718 38.7467 26.2108 38.7132 26.257 38.6969C26.4474 38.63 26.6223 38.6933 26.7513 38.8009C26.7574 38.8059 26.763 38.813 26.7688 38.8182C26.8559 38.7974 26.9525 38.7965 27.0575 38.8413C27.1446 38.8785 27.2089 38.9427 27.2631 39.0031C27.3199 38.9011 27.4142 38.7718 27.5606 38.7027C27.7049 38.6346 27.859 38.645 27.9937 38.7199C28.0712 38.7635 28.1291 38.8275 28.1731 38.8818C28.3199 38.7958 28.4761 38.7971 28.6149 38.8587L28.6237 38.8471C28.717 38.7077 28.9171 38.5177 29.1836 38.5524C29.3428 38.4647 29.511 38.4477 29.6736 38.5061L29.8661 38.6102L30.0104 38.7604C30.1865 38.7085 30.3525 38.7638 30.4785 38.8702C30.4917 38.8813 30.5015 38.8989 30.5135 38.9107C30.5695 38.8592 30.634 38.8096 30.7103 38.7777L31.0253 38.7316C31.0313 38.7321 31.0369 38.7366 31.0428 38.7373C31.1578 38.6327 31.3154 38.5381 31.5197 38.5871C31.6588 38.6205 31.7649 38.7089 31.8434 38.8009L32.0009 39.0493L32.0403 39.1302C32.0704 39.0826 32.1022 39.0341 32.1408 38.9915C32.2843 38.8338 32.507 38.7215 32.7534 38.8182C32.8598 38.7979 32.958 38.8166 33.0464 38.8529C33.1422 38.7658 33.2794 38.6918 33.4445 38.7027C33.5291 38.7083 33.6038 38.7349 33.6677 38.772L33.8295 38.9048L34.0482 39.1475C34.0616 39.1625 34.0743 39.1785 34.0876 39.1938C34.0952 39.1731 34.1011 39.1506 34.1095 39.1302C34.1431 39.0486 34.2182 38.8927 34.3501 38.7777C34.5236 38.6272 34.7558 38.5933 34.9669 38.7373C35.1167 38.8398 35.1988 38.9982 35.2381 39.084C35.3278 39.0828 35.4083 39.1054 35.4831 39.1418C35.4872 39.1375 35.4921 39.1345 35.4962 39.1302L35.6887 38.9858C35.7632 38.946 35.8483 38.9187 35.9424 38.9165C36.0375 38.9141 36.1241 38.9369 36.2005 38.9742L36.3974 39.1186L36.5024 39.24C36.6271 39.1442 36.776 39.0719 36.953 39.084H36.9924C37.0664 38.985 37.17 38.8775 37.3117 38.824C37.429 38.7801 37.5396 38.7823 37.6398 38.8124L37.9023 38.9684L37.9329 39.0031C37.9848 38.9457 38.0381 38.8895 38.0904 38.8355L38.3004 38.691C38.3835 38.6577 38.4799 38.644 38.5847 38.668C38.6509 38.6834 38.7052 38.7268 38.7553 38.7604C38.8036 38.7064 38.8605 38.648 38.9347 38.6102C39.1595 38.4959 39.3771 38.5762 39.5209 38.7142C39.597 38.7873 39.649 38.8773 39.6872 38.9511C39.7009 38.9356 39.7111 38.9138 39.7265 38.8991C39.8407 38.7901 40.0116 38.6988 40.2121 38.7488C40.2208 38.7511 40.23 38.7578 40.2383 38.7604C40.2857 38.733 40.3338 38.6927 40.3914 38.6795C40.5154 38.6515 40.628 38.6698 40.7239 38.7142L40.9601 38.8991C40.9834 38.9049 41.0047 38.9104 41.0258 38.9107L41.1395 38.9337C41.2048 38.8538 41.3034 38.7622 41.437 38.7199C41.5861 38.6734 41.7094 38.7093 41.8132 38.7662C41.8457 38.7264 41.8826 38.6855 41.927 38.6506C42.0665 38.5413 42.2509 38.4899 42.4388 38.5698C42.5204 38.6047 42.5874 38.6596 42.64 38.7142L42.7581 38.8702L42.8806 39.1418C42.8891 39.1423 42.8983 39.1408 42.9069 39.1418C42.9942 39.1514 43.0689 39.1871 43.1344 39.2285C43.1824 39.1206 43.3423 38.7889 43.6637 38.7431C43.7745 38.7278 43.8708 38.754 43.9525 38.7951C43.9738 38.7788 43.9956 38.7633 44.018 38.7488L44.2718 38.6622C44.3604 38.6582 44.4525 38.6832 44.5386 38.7316C44.5848 38.7577 44.6213 38.7963 44.6567 38.8298C44.72 38.7462 44.8025 38.6637 44.9061 38.6044L45.1686 38.535C45.2583 38.5382 45.3455 38.5691 45.4267 38.6217C45.5623 38.71 45.6487 38.8385 45.6935 38.9222C45.7414 39.0119 45.7757 39.1164 45.8073 39.2169C45.8397 39.2267 45.8703 39.2367 45.8992 39.2516C45.9184 39.2424 45.9354 39.2241 45.9561 39.2169L45.9648 39.2111C45.9744 39.1866 45.9845 39.1601 45.9954 39.136C46.0323 39.0547 46.0957 38.9341 46.1966 38.8355C46.3105 38.7243 46.4859 38.633 46.6909 38.6853C46.7963 38.7123 46.8759 38.7793 46.9403 38.8413C46.9898 38.7695 47.0592 38.6871 47.1547 38.6275C47.3004 38.5366 47.4723 38.5159 47.6359 38.5928C47.7086 38.6273 47.771 38.6758 47.8196 38.7258L47.929 38.8702L48.0515 39.1129C48.0725 39.1122 48.0928 39.105 48.1127 39.1071C48.1231 39.0961 48.1323 39.083 48.1433 39.0725C48.239 38.9803 48.3649 38.9011 48.5108 38.8876C48.5829 38.8254 48.6754 38.7652 48.7908 38.7488C48.9773 38.7228 49.1339 38.8112 49.237 38.9107C49.287 38.959 49.3189 39.0267 49.3551 39.084C49.438 38.989 49.5707 38.8767 49.7532 38.8702C49.8667 38.8663 49.9636 38.9061 50.0419 38.9569C50.0572 38.9281 50.0694 38.8971 50.0857 38.8702L50.3132 38.616C50.4215 38.5377 50.5637 38.489 50.7331 38.5293C50.9279 38.5765 51.0516 38.7333 51.1312 38.8587C51.1418 38.8615 51.1515 38.8669 51.1618 38.8702C51.267 38.7843 51.4117 38.7119 51.5862 38.7488C51.6954 38.7725 51.782 38.8306 51.8486 38.8933C51.8905 38.8177 51.944 38.7408 52.0062 38.6738C52.1394 38.5308 52.3491 38.4106 52.5967 38.4889C52.6099 38.493 52.623 38.49 52.6318 38.4889C52.806 38.4676 52.9519 38.5317 53.0692 38.6217L53.336 38.928L53.4061 39.0378C53.4642 38.9471 53.5582 38.8432 53.6904 38.7835C53.8646 38.7052 54.0131 38.7561 54.1322 38.8298C54.1939 38.7636 54.2755 38.6974 54.3816 38.6622C54.6771 38.5657 54.875 38.7648 54.9897 38.9222C55.0628 38.8279 55.1929 38.7063 55.3746 38.6795C55.4477 38.669 55.5142 38.6843 55.5759 38.7027C55.6809 38.6439 55.7972 38.6027 55.9259 38.6044L56.1883 38.6738C56.231 38.6971 56.2657 38.7351 56.3021 38.7662C56.3555 38.7482 56.4128 38.729 56.477 38.7316C56.6074 38.7372 56.7123 38.7993 56.7964 38.8702C56.8045 38.8685 56.8143 38.8659 56.8226 38.8644C56.9642 38.8409 57.0864 38.8885 57.1901 38.9511C57.2376 38.8849 57.2956 38.8196 57.3651 38.7662L57.6407 38.5871L57.855 38.5178C57.9294 38.5114 58.007 38.5219 58.0825 38.5524C58.1555 38.5822 58.2158 38.627 58.2663 38.6738C58.339 38.6199 58.4322 38.5818 58.5419 38.5756C58.7164 38.5658 58.8452 38.6593 58.9356 38.7488C59.029 38.6568 59.1673 38.5665 59.3424 38.5756C59.434 38.5805 59.516 38.6096 59.583 38.6506L59.7449 38.7951L59.7887 38.8355C59.8355 38.8588 59.8808 38.8749 59.9242 38.8876L60.1386 38.9511L60.2305 38.9915C60.2664 38.9432 60.2975 38.8878 60.3399 38.8471L60.4886 38.7316C60.5922 38.6675 60.7089 38.6263 60.8342 38.6275L61.0267 38.6622L61.2673 38.7547L61.3985 38.824C61.4052 38.8208 61.4135 38.8153 61.4204 38.8124C61.5943 38.7405 61.7673 38.7779 61.906 38.8759C62.0173 38.955 62.0919 39.0613 62.1379 39.1418C62.1851 39.1043 62.2407 39.0721 62.304 39.0493C62.4276 39.0056 62.5513 39.02 62.6628 39.0667C62.6898 39.0123 62.7147 38.9535 62.7503 38.9048C62.8234 38.8052 62.9638 38.6625 63.1703 38.6449C63.2781 38.6358 63.3721 38.6645 63.4502 38.7084L63.6383 38.8644L63.8789 39.1764L63.9271 39.2458C63.9387 39.2435 63.9503 39.2416 63.962 39.24C64.0144 39.1358 64.064 39.0314 64.1196 38.9396L64.3033 38.7142C64.3882 38.6405 64.4976 38.5801 64.6314 38.5698C64.7711 38.5591 64.888 38.607 64.9814 38.6738L65.1913 38.8991L65.257 39.032C65.3234 38.9278 65.417 38.8183 65.5457 38.7547C65.6975 38.68 65.8634 38.6871 66.0094 38.7662C66.0752 38.8021 66.1308 38.8512 66.1757 38.8991L66.2806 39.0378L66.3375 39.1534C66.3437 39.1402 66.3486 39.1257 66.355 39.1129C66.4151 38.9934 66.5193 38.8269 66.6787 38.7199L66.845 38.6449C66.9054 38.6284 66.9697 38.619 67.0375 38.6275C67.1704 38.6445 67.281 38.7151 67.3612 38.7893C67.4815 38.9014 67.5582 39.0515 67.6106 39.1707C67.6823 39.12 67.772 39.0843 67.8774 39.0782C68.0275 39.0695 68.1465 39.1363 68.2361 39.2111L68.2449 39.1996C68.2869 39.1151 68.4082 38.8955 68.6386 38.824C68.7109 38.8017 68.778 38.7978 68.8398 38.8066C68.8959 38.7284 68.9645 38.6461 69.0541 38.5871L69.2773 38.4773C69.354 38.4519 69.435 38.4375 69.5178 38.4368L69.706 38.4715C69.8763 38.5374 69.9927 38.6849 70.0559 38.7835C70.0959 38.8459 70.1177 38.9236 70.1478 38.9915L70.1522 38.9858L70.2615 38.8298C70.3097 38.7749 70.3701 38.7194 70.4453 38.6795C70.6225 38.5857 70.8112 38.6082 70.9659 38.7142C71.0416 38.7666 71.1007 38.8367 71.1452 38.8991C71.319 38.9006 71.4477 38.9971 71.5433 39.0956C71.5822 39.0729 71.624 39.0509 71.6702 39.0378C71.7801 39.0066 71.8767 39.0251 71.9633 39.0551C72.0119 39.0153 72.0612 38.975 72.1164 38.9454L72.3046 38.8355L72.5102 38.7488C72.5828 38.7337 72.6593 38.7326 72.7376 38.7488C72.8143 38.7651 72.886 38.7966 72.9476 38.8355L73.1051 38.9684L73.1357 38.9973L73.2932 39.0956C73.3878 38.9779 73.5689 38.8269 73.8137 38.8759C73.8543 38.8842 73.893 38.9002 73.9275 38.9165C73.9348 38.9093 73.942 38.9002 73.9494 38.8933L74.2338 38.7142C74.2854 38.6958 74.3395 38.684 74.3956 38.6795L74.575 38.691L74.7719 38.772C74.7955 38.7863 74.8157 38.8073 74.8374 38.824C75.0066 38.7642 75.1806 38.8056 75.3187 38.9165C75.4494 39.0222 75.5226 39.1695 75.5592 39.2516C75.5629 39.2604 75.5644 39.2715 75.5681 39.2805C75.6413 39.2544 75.7234 39.2464 75.8085 39.2516L76.0183 39.2863C76.0975 39.1567 76.2318 38.9795 76.4476 38.9337C76.4932 38.9242 76.5372 38.9316 76.5783 38.9337C76.6776 38.8314 76.8314 38.7232 77.0337 38.7547C77.0561 38.7583 77.0778 38.7771 77.0994 38.7835C77.1226 38.7664 77.1457 38.7456 77.1733 38.7316C77.3167 38.6591 77.4712 38.6623 77.6108 38.7373C77.7616 38.8188 77.8527 38.9629 77.9042 39.0667C77.9356 39.0195 77.9647 38.9695 78.0006 38.928L78.2932 38.6969C78.3522 38.6695 78.4149 38.6528 78.4814 38.6449L78.6874 38.6564L78.8405 38.7258C78.889 38.6805 78.9376 38.6338 78.9935 38.5986L79.2511 38.5178C79.3407 38.5155 79.4333 38.537 79.5184 38.5871C79.6199 38.6473 79.6909 38.7377 79.7416 38.8124C79.7775 38.7928 79.8163 38.7713 79.8596 38.7604C79.9985 38.7259 80.1291 38.7611 80.2359 38.8298C80.315 38.881 80.3733 38.9544 80.4196 39.0204C80.4748 38.9839 80.5316 38.9456 80.5943 38.9222L80.7914 38.8876C80.9728 38.8829 81.1363 38.9644 81.2685 39.084C81.2744 39.0848 81.2797 39.0889 81.2856 39.0897C81.3409 38.9175 81.4491 38.671 81.6881 38.5698C81.7426 38.5468 81.7963 38.5507 81.8456 38.5467C81.8747 38.5007 81.9053 38.4547 81.9419 38.4137L82.1435 38.2635C82.1562 38.2576 82.1696 38.2566 82.1823 38.2519C82.186 38.2394 82.1868 38.2242 82.1913 38.2115C82.239 38.0669 82.3294 37.9374 82.4541 37.8417C82.5787 37.6274 82.752 37.5354 82.8908 37.5066C82.9222 37.5002 82.9528 37.5024 82.9827 37.5008C83.0275 37.3814 83.0849 37.2866 83.1581 37.2118C83.1723 37.0327 83.2231 36.856 83.3283 36.7149C83.3694 36.6605 83.4172 36.6214 83.4597 36.5878C83.4933 36.4841 83.5344 36.3931 83.5867 36.3162C83.5874 36.271 83.5844 36.2242 83.5912 36.1776L83.4732 36.0331C83.4082 35.9336 83.3358 35.7789 83.3157 35.5766C83.3022 35.4439 83.3194 35.3217 83.3463 35.2126C83.3007 35.1013 83.2634 34.9629 83.2716 34.7909C83.2791 34.6395 83.3179 34.5173 83.3634 34.421C83.3037 34.3215 83.2358 34.1822 83.2193 33.9935C83.1969 33.727 83.2753 33.5137 83.3552 33.381C83.3336 33.3524 83.3 33.3328 83.2806 33.3C83.1887 33.1467 83.1051 32.9164 83.123 32.6355L83.1843 32.3004C83.2134 32.1967 83.2499 32.0997 83.294 32.0115C83.3403 31.9176 83.3873 31.8222 83.4336 31.7284C83.4478 31.7001 83.4485 31.6924 83.4471 31.7053L83.5389 31.3875C83.58 31.2982 83.6262 31.2236 83.6695 31.1679L83.674 31.1563C83.6367 31.1163 83.5926 31.0818 83.5605 31.0292C83.5008 30.9327 83.4575 30.7884 83.4381 30.6132L83.4291 30.6074C83.3545 30.516 83.2373 30.3311 83.2193 30.0527C83.2007 29.761 83.3022 29.5435 83.3858 29.4229C83.4187 29.375 83.4605 29.3412 83.4948 29.3073C83.5128 29.2154 83.5434 29.1323 83.5777 29.0589C83.5702 29.0261 83.574 28.992 83.5695 28.9607C83.559 28.951 83.5449 28.9481 83.5344 28.9375C83.4829 28.8848 83.4015 28.7814 83.3463 28.6197C83.2828 28.4337 83.2753 28.2195 83.3328 28.0188C83.3507 27.9576 83.3709 27.9028 83.394 27.857C83.356 27.7954 83.3216 27.7181 83.294 27.6258C83.2313 27.4182 83.2328 27.1909 83.2977 26.9903L83.3022 26.9556L83.1932 26.6378C83.12 26.313 83.179 26.0218 83.285 25.8C83.2208 25.6655 83.1708 25.4952 83.1753 25.3031L83.2014 25.1182L83.2104 25.199L83.2014 25.1008C83.1499 24.6799 83.3463 24.3911 83.4508 24.2803C83.4754 24.2544 83.5038 24.2332 83.5299 24.2109L83.4859 24.1763C83.3888 24.0828 83.1372 23.7883 83.1977 23.3096C83.2238 23.1063 83.2985 22.9545 83.3769 22.8473C83.3045 22.7153 83.2298 22.522 83.2544 22.2695C83.2753 22.0528 83.3597 21.9042 83.4291 21.8072C83.3888 21.7019 83.3567 21.5743 83.359 21.4201C83.3627 21.2285 83.4157 21.0791 83.4732 20.9694C83.4538 20.8329 83.4553 20.7008 83.4814 20.5707C83.4695 20.5549 83.4545 20.5414 83.4426 20.5245L83.2634 20.1836C83.2007 20.0071 83.182 19.7951 83.2283 19.5884C83.2582 19.4538 83.3097 19.3487 83.359 19.2706C83.3171 19.1951 83.2768 19.0989 83.2544 18.9817C83.1969 18.6836 83.2783 18.4283 83.3724 18.271L83.5389 18.0398C83.5486 18.0279 83.559 18.0169 83.5695 18.0052L83.4247 17.8723C83.3507 17.7909 83.2081 17.6023 83.1887 17.2945C83.1701 16.997 83.2761 16.783 83.359 16.6647C83.3328 16.6003 83.3059 16.5277 83.294 16.4393C83.2709 16.2727 83.294 16.1335 83.3283 16.0175L83.3246 16.0117C83.2753 15.8517 83.2679 15.6685 83.3067 15.4916C83.3433 15.3288 83.412 15.2149 83.4642 15.145L83.4732 15.1335C83.4538 15.109 83.4291 15.0921 83.412 15.0641C83.3448 14.956 83.2746 14.7878 83.2634 14.5729C83.2574 14.461 83.2679 14.358 83.2895 14.2667C83.2791 14.1994 83.2731 14.1284 83.2761 14.053C83.285 13.8673 83.3358 13.7131 83.394 13.6022C83.4045 13.5824 83.4179 13.5626 83.4291 13.5444C83.3694 13.3288 83.353 13.0925 83.394 12.8569L83.3985 12.8337C83.3239 12.7489 83.2395 12.6361 83.1843 12.4755C83.0558 12.0987 83.1223 11.7216 83.2761 11.447L83.4336 11.2332L83.4381 11.2274C83.4329 11.1484 83.4321 11.0758 83.4426 11.0078C83.4112 10.9414 83.3724 10.869 83.3552 10.7767C83.3119 10.5404 83.3619 10.3459 83.4247 10.1989C83.4172 10.14 83.4179 10.0802 83.4202 10.0197C83.3433 9.93441 83.2141 9.76055 83.1887 9.4766C83.1581 9.12715 83.2985 8.88497 83.3858 8.77743C83.3388 8.65283 83.3037 8.50165 83.3157 8.32674C83.3231 8.22293 83.341 8.12806 83.3679 8.04938C83.3186 7.9744 83.2701 7.87887 83.241 7.75469C83.173 7.45723 83.2567 7.21909 83.3418 7.06132C83.3052 7.01376 83.2679 6.95978 83.2365 6.89375L83.1626 6.66262C83.0835 6.27717 83.2029 5.99322 83.3328 5.80168C83.2821 5.71114 83.238 5.59825 83.2193 5.46076C83.2014 5.33053 83.2096 5.21317 83.2283 5.11407L83.079 5.00428C82.9476 4.85233 82.8737 4.66384 82.8386 4.47269C82.7438 4.41041 82.6504 4.32664 82.5847 4.19534C82.5213 4.06746 82.4996 3.93358 82.4884 3.82553C82.4824 3.81953 82.4727 3.82037 82.4668 3.81398C82.4466 3.79177 82.4362 3.75662 82.419 3.73308C82.4115 3.73237 82.404 3.7399 82.3966 3.73886C82.248 3.71706 82.0994 3.62927 81.9897 3.46729C81.9367 3.38831 81.9008 3.30223 81.8762 3.2246C81.8605 3.22367 81.8441 3.23294 81.8284 3.23038C81.7224 3.21336 81.6313 3.15573 81.5522 3.08593V3.09171C81.4984 3.18013 81.3558 3.38418 81.1154 3.41528C80.978 3.43271 80.863 3.38573 80.7742 3.32283L80.5816 3.12059L80.4502 2.95302C80.442 2.94473 80.436 2.93274 80.4285 2.92414C80.374 2.99803 80.2994 3.08734 80.1918 3.1437C80.1164 3.1829 80.0351 3.19584 79.9559 3.19571C79.8424 3.28455 79.6976 3.36561 79.5184 3.32861C79.4184 3.3077 79.3385 3.25288 79.269 3.19571L79.0899 3.24771C78.8659 3.25985 78.6934 3.12452 78.5866 2.99925C78.556 2.96373 78.5374 2.9165 78.512 2.87791C78.3903 2.94337 78.2492 2.97141 78.1051 2.91836C78.0566 2.90017 78.017 2.86519 77.9782 2.83747C77.9416 2.92098 77.9035 3.01063 77.8475 3.08593C77.7848 3.16979 77.684 3.27738 77.5407 3.32861C77.463 3.35651 77.3839 3.36199 77.3092 3.35172L77.0994 3.27083C77.0397 3.23332 76.9852 3.18906 76.9374 3.13793C76.9284 3.15064 76.9254 3.17171 76.9157 3.18416C76.8403 3.27739 76.7119 3.39661 76.535 3.42106C76.4962 3.42634 76.4543 3.43433 76.4125 3.44995C76.2184 3.5221 76.0362 3.46231 75.9048 3.35172C75.7914 3.25597 75.7212 3.12721 75.6816 3.04548C75.6607 3.0016 75.6517 2.94876 75.6338 2.90102C75.589 3.00133 75.5405 3.10944 75.4718 3.20149C75.3852 3.3178 75.2456 3.45582 75.0518 3.49617C74.7763 3.55325 74.5986 3.36088 74.4919 3.21305C74.445 3.22059 74.4021 3.21831 74.3606 3.21305C74.2764 3.31896 74.1475 3.44269 73.9756 3.46729L73.7263 3.43839C73.5577 3.37225 73.4489 3.22467 73.3763 3.10904C73.3314 3.12973 73.2866 3.17199 73.232 3.17838C73.1228 3.19067 73.0273 3.16359 72.9476 3.12059C72.8495 3.19392 72.7247 3.25953 72.567 3.23038C72.4562 3.20978 72.3683 3.15435 72.3001 3.09171L72.1558 2.91258C72.1203 2.85415 72.0934 2.78588 72.0595 2.7219C72.0243 2.73535 71.9903 2.74953 71.9545 2.75656C71.9342 2.80512 71.9226 2.8642 71.8933 2.91258C71.8279 3.02038 71.6349 3.28322 71.3246 3.2246C71.2491 3.21005 71.183 3.17662 71.1277 3.13793C71.0554 3.18037 70.9748 3.22137 70.8784 3.2246C70.8422 3.22572 70.8051 3.20926 70.769 3.20727C70.7127 3.27048 70.6406 3.33542 70.5459 3.37484C70.3536 3.45478 70.1675 3.40572 70.0297 3.29394C69.9701 3.24557 69.9234 3.18663 69.8853 3.13215C69.8333 3.15819 69.7803 3.1956 69.7147 3.20149C69.4895 3.22095 69.3252 3.07966 69.2379 2.97036C69.2048 2.92885 69.1875 2.8743 69.1635 2.83169C69.0994 2.90402 69.0143 2.9889 68.8967 3.02815C68.821 3.05326 68.7453 3.05557 68.6736 3.04548L68.468 2.97036C68.4515 2.96014 68.4362 2.9464 68.4198 2.93569C68.4083 2.95875 68.4063 2.99454 68.3936 3.01659C68.3373 3.1137 68.2176 3.28923 68.0305 3.36328L67.8161 3.39795L67.7899 3.40372C67.4766 3.53053 67.2339 3.31659 67.1162 3.15526C67.0683 3.19773 67.0176 3.24517 66.9544 3.27083L66.7093 3.29972L66.4206 3.24193C66.368 3.22596 66.3245 3.18841 66.2806 3.16104C66.2623 3.17287 66.2444 3.19156 66.2237 3.20149C66.1111 3.25537 65.9967 3.24764 65.8869 3.21305C65.8316 3.27157 65.769 3.34037 65.6813 3.37484C65.4806 3.45354 65.3136 3.36499 65.1913 3.26505L65.0689 3.27661C65.0735 3.27622 65.0769 3.27685 65.0776 3.27661L65.0689 3.28239C64.9462 3.36259 64.812 3.41564 64.6708 3.43839C64.3119 3.49577 64.109 3.15934 64.0408 3.02815C63.9681 3.06806 63.8859 3.10389 63.7914 3.10326C63.6987 3.10262 63.6178 3.06761 63.5465 3.02815C63.4051 3.04706 63.286 2.99892 63.1834 2.92992C63.0762 2.98932 62.9638 3.01215 62.8421 2.99348C62.7865 3.02656 62.7331 3.06816 62.6715 3.08593L62.3565 3.09748C62.2603 3.07662 62.1765 3.03041 62.1072 2.97614C62.1003 2.98616 62.0969 3.00107 62.0897 3.01081C62.0283 3.09326 61.9296 3.19461 61.7923 3.24771C61.6431 3.30519 61.4909 3.28825 61.3591 3.21305C61.1852 3.11361 61.076 2.93944 61.0135 2.82013C60.9923 2.77959 60.9796 2.73054 60.9611 2.68723C60.8935 2.74883 60.8077 2.79819 60.6985 2.82013C60.6858 2.85574 60.6821 2.89653 60.6679 2.92992C60.6324 3.0135 60.5476 3.19538 60.3967 3.32283L60.2261 3.42684C60.1595 3.45191 60.0893 3.46941 60.0205 3.47885L59.8105 3.48462C59.7029 3.47344 59.6055 3.43309 59.5174 3.38062L59.2856 3.18993L59.2768 3.18416C59.2521 3.21351 59.2313 3.25022 59.2024 3.27661C59.0608 3.40507 58.8611 3.49151 58.6425 3.42106C58.5037 3.37617 58.4037 3.27213 58.3276 3.17838C58.3057 3.19708 58.2872 3.22582 58.2619 3.24193C58.0734 3.36153 57.8638 3.34466 57.6932 3.21882C57.5564 3.1174 57.4743 2.97248 57.4351 2.88947C57.4276 2.87354 57.4217 2.8621 57.4176 2.85479C57.3859 2.83367 57.354 2.81643 57.3258 2.79124C57.2804 2.92001 57.2224 3.07045 57.1333 3.19571C57.0564 3.30322 56.9196 3.44484 56.7351 3.48462H56.5339C56.3093 3.44052 56.1519 3.26781 56.0396 3.10904C55.9651 3.1324 55.8899 3.14156 55.8121 3.1437C55.7148 3.2248 55.5952 3.29828 55.449 3.30549C55.3432 3.31047 55.2491 3.27963 55.1646 3.23616C55.0944 3.29427 55.0102 3.35789 54.9022 3.37484C54.7377 3.40009 54.593 3.33513 54.4866 3.24771C54.4185 3.19174 54.37 3.11521 54.3247 3.04548C54.2331 3.15208 54.0867 3.28737 53.8741 3.26505C53.793 3.25633 53.7238 3.22151 53.6642 3.18416C53.5131 3.25493 53.3528 3.25986 53.2048 3.1726C53.085 3.10183 53.0061 2.99442 52.9555 2.91258L52.9029 2.9068C52.897 2.90618 52.8914 2.90182 52.8855 2.90102C52.8683 2.93187 52.8564 2.97343 52.833 3.00503C52.7696 3.09025 52.6436 3.21919 52.4568 3.24193C52.4042 3.24813 52.3581 3.22292 52.3124 3.21305C52.2681 3.26534 52.2179 3.32337 52.1505 3.36328C51.9615 3.47439 51.766 3.43639 51.6081 3.32283C51.4862 3.39459 51.3362 3.43496 51.1618 3.36328C51.0886 3.33311 51.0272 3.28637 50.9738 3.23616C50.8825 3.32808 50.7619 3.42098 50.6019 3.43262C50.4301 3.44481 50.2669 3.39479 50.1207 3.30549C50.0838 3.28289 50.0572 3.24109 50.0245 3.21305C49.9915 3.22727 49.9576 3.24661 49.9194 3.25349C49.7895 3.27686 49.6674 3.24151 49.5695 3.17838C49.5142 3.14252 49.4727 3.0908 49.4339 3.04548C49.4016 3.06775 49.3721 3.10479 49.3333 3.12059C49.1146 3.2091 48.9173 3.11962 48.7864 2.99348C48.726 2.93511 48.6779 2.8701 48.642 2.80857C48.5254 2.84407 48.4257 2.8253 48.3358 2.79124C48.3078 2.81597 48.2825 2.85029 48.2527 2.87213L48.174 2.9588C48.0424 3.14466 47.8211 3.36359 47.5177 3.34016C47.3685 3.32836 47.2425 3.25199 47.1328 3.16682C47.0987 3.17139 47.0645 3.19312 47.0278 3.18993C46.877 3.17648 46.7565 3.09359 46.6735 3.01081C46.6626 2.99985 46.6531 2.98189 46.6429 2.97036C46.5914 3.06738 46.502 3.20966 46.3497 3.28816C46.1564 3.38774 45.9852 3.33683 45.8554 3.24771C45.7359 3.39272 45.5337 3.57009 45.256 3.47885C45.1603 3.44737 45.0813 3.39013 45.0155 3.32861C45.005 3.33278 44.9958 3.34817 44.9849 3.35172C44.7915 3.41413 44.6274 3.33087 44.508 3.23038C44.4157 3.31866 44.2881 3.41278 44.1143 3.39795C43.9937 3.38743 43.8957 3.3343 43.8212 3.27083L43.6637 3.08593C43.6285 3.02946 43.6011 2.96263 43.5674 2.90102C43.5035 2.89838 43.4366 2.88299 43.3662 2.84902C43.3432 2.89037 43.3293 2.94476 43.3006 2.98192C43.2165 3.09018 43.0547 3.239 42.8281 3.2246C42.667 3.21414 42.5507 3.11465 42.4694 3.02815L42.2376 3.32283C42.068 3.4648 41.8533 3.5457 41.6207 3.49039C41.4621 3.45232 41.32 3.36764 41.1964 3.25927C41.1004 3.17499 41.0252 3.06146 40.9601 2.94725C40.7492 3.00289 40.5611 2.9229 40.4265 2.79702C40.3972 2.76961 40.377 2.72925 40.3521 2.69879C40.2675 2.81633 40.1445 2.94825 39.9627 2.98192C39.8926 2.99469 39.8294 2.98349 39.7703 2.97036C39.6606 3.14286 39.504 3.33273 39.2847 3.41528C39.0736 3.49446 38.8746 3.43054 38.7247 3.30549C38.6684 3.2583 38.6219 3.19983 38.5803 3.1437C38.5543 3.14183 38.5284 3.14974 38.5016 3.1437C38.4295 3.20753 38.3469 3.27363 38.2391 3.29394C37.9487 3.34862 37.762 3.12891 37.6617 2.98192C37.6469 2.97736 37.6321 2.97594 37.618 2.97036C37.5293 3.06134 37.4222 3.14561 37.2898 3.17838L37.303 3.1726L37.2898 3.18416C37.1962 3.26908 37.0631 3.33887 36.9049 3.33439C36.8231 3.33178 36.7502 3.30987 36.6861 3.27661C36.6431 3.30376 36.5961 3.33178 36.5418 3.34594C36.2805 3.4141 36.0828 3.24506 35.9862 3.12059C35.9733 3.10393 35.967 3.07995 35.9556 3.06281C35.9416 3.06102 35.9261 3.06584 35.9118 3.06281C35.7217 3.02231 35.5896 2.883 35.505 2.76812C35.4498 2.83047 35.3907 2.89664 35.3169 2.94147L35.1025 3.02237C34.9382 3.05092 34.7973 3.0001 34.6782 2.92414C34.6626 2.94044 34.6521 2.96676 34.6344 2.98192C34.533 3.06891 34.4055 3.11577 34.2714 3.10904C34.2277 3.18401 34.1644 3.275 34.0745 3.34594C33.9611 3.43515 33.8217 3.46002 33.672 3.43262C33.4261 3.53863 33.1959 3.46823 33.0158 3.31127C32.873 3.29362 32.7669 3.21291 32.6833 3.12637C32.5955 3.21119 32.4758 3.28832 32.3158 3.28239C32.0807 3.27285 31.935 3.094 31.8609 2.97614C31.7767 3.01502 31.6923 3.03843 31.6072 3.03392L31.3359 2.94725C31.3142 2.93372 31.2993 2.90501 31.279 2.88947C31.2522 2.93812 31.2355 3.00425 31.1959 3.05125C31.0829 3.18519 30.8701 3.33033 30.6141 3.23616C30.5176 3.20027 30.4449 3.13244 30.3866 3.06859C30.3518 3.11528 30.3176 3.16673 30.2729 3.20727C30.1259 3.33991 29.9217 3.42143 29.6998 3.34016C29.6252 3.31256 29.5499 3.27845 29.4767 3.24193C29.2556 3.2853 29.0842 3.18285 28.9561 3.05125L28.9474 3.05703C28.9002 3.06488 28.8557 3.04382 28.8118 3.0397C28.7229 3.11952 28.6109 3.19461 28.4662 3.20149C28.342 3.207 28.2374 3.16062 28.1512 3.10326C28.0844 3.17581 27.9821 3.26347 27.8449 3.28816C27.7012 3.31341 27.5726 3.2629 27.4731 3.18993C27.4603 3.18049 27.45 3.16547 27.4381 3.15526C27.4336 3.15599 27.4295 3.16042 27.425 3.16104C27.3581 3.17011 27.2949 3.15762 27.2369 3.1437C27.1749 3.18832 27.1057 3.2303 27.0226 3.24771C26.8895 3.27497 26.7705 3.24816 26.6725 3.19571L26.4407 2.99925C26.4125 2.96378 26.3921 2.91703 26.3664 2.87791C26.3287 2.95658 26.2778 3.0635 26.1914 3.14948C26.0743 3.26578 25.8922 3.36189 25.6795 3.29972C25.587 3.27247 25.5116 3.2224 25.4521 3.16682L25.3164 3.00503C25.3119 2.99789 25.3101 2.991 25.3077 2.9877C25.2662 2.96588 25.2256 2.94732 25.1896 2.91836C25.1563 2.93432 25.1234 2.96738 25.0846 2.97614C24.9831 2.99863 24.8907 2.97893 24.8089 2.94725C24.6961 3.01127 24.5615 3.05762 24.4065 2.99925C24.3317 2.97101 24.2741 2.9198 24.2228 2.87213C24.1439 2.8935 24.0649 2.89804 23.9822 2.87791C23.9662 2.9168 23.9614 2.96312 23.9428 2.99925C23.9001 3.08206 23.8207 3.21361 23.6934 3.30549C23.619 3.35895 23.536 3.39351 23.4485 3.40372L23.1772 3.3575L23.1378 3.34594C22.9379 3.33655 22.7985 3.20528 22.7048 3.08593C22.667 3.09793 22.6297 3.12403 22.5867 3.12637C22.4957 3.13094 22.412 3.10896 22.3416 3.07437L22.1667 2.94147C22.1524 2.92679 22.1412 2.90482 22.1273 2.88947C22.0448 2.99654 21.9276 3.12064 21.7598 3.16682C21.5368 3.22808 21.343 3.13437 21.2087 3.00503L21.1998 2.99348C21.1559 3.02969 21.11 3.07417 21.0511 3.09748C20.8545 3.17531 20.669 3.11247 20.5349 2.99925C20.4954 2.96565 20.4638 2.9212 20.4344 2.88369H20.2725C20.1695 2.86433 20.0827 2.81022 20.0056 2.75079C19.9252 2.80206 19.8355 2.84772 19.73 2.85479C19.6606 2.85929 19.5976 2.8433 19.5375 2.82591C19.5098 2.8584 19.4924 2.90806 19.4588 2.93569C19.3389 3.03441 19.1756 3.10067 18.995 3.05125C18.9396 3.03604 18.8946 2.99854 18.8507 2.97036C18.8279 2.9916 18.8027 3.01531 18.7764 3.04548C18.6417 3.19957 18.4484 3.32045 18.2164 3.31705C18.1165 3.38793 17.9998 3.44614 17.862 3.44417C17.7777 3.44296 17.7002 3.42449 17.6302 3.39217L17.442 3.26505C17.3627 3.19273 17.297 3.10211 17.2408 3.00503C17.1717 3.05582 17.096 3.10305 17.009 3.12637C16.9151 3.1513 16.8197 3.15646 16.729 3.1437L16.4665 3.05125L16.3966 3.02815C16.3559 3.02142 16.3177 2.99373 16.2784 2.98192C16.2395 3.01283 16.2015 3.05301 16.1515 3.07437C15.9664 3.15299 15.7836 3.11181 15.644 3.00503C15.6052 2.97513 15.5732 2.93521 15.5435 2.90102C15.4758 3.0204 15.3473 3.21094 15.1191 3.24193C15.0388 3.2527 14.9681 3.23549 14.9048 3.21305C14.8364 3.28193 14.7519 3.34867 14.6467 3.38062C14.3983 3.45541 14.2134 3.30996 14.0911 3.17838C14.0016 3.25404 13.8853 3.32374 13.7324 3.31127C13.613 3.30134 13.518 3.24711 13.4437 3.18416C13.3191 3.25544 13.1773 3.29157 13.028 3.25927C12.9053 3.23264 12.8055 3.16037 12.7218 3.08593C12.6396 3.07819 12.5667 3.059 12.4987 3.02237C12.4908 3.03016 12.4847 3.04363 12.4769 3.05125C12.3245 3.19775 12.1309 3.2846 11.9256 3.25349L11.7156 3.17838L11.6107 3.13215C11.4283 3.0852 11.2999 2.95056 11.217 2.83747C11.162 2.92229 11.0711 3.04315 10.9326 3.10904C10.8137 3.16504 10.6949 3.14976 10.5826 3.11482L10.5782 3.12637C10.3957 3.2243 10.2201 3.18966 10.0839 3.10326C9.97006 3.2166 9.81171 3.33653 9.60266 3.30549C9.47693 3.28641 9.37263 3.22204 9.29207 3.14948ZM44.2718 39.1302C44.2652 39.1212 44.2594 39.1063 44.2499 39.0956L44.2412 39.0897C44.2512 39.106 44.2641 39.1164 44.2718 39.1302ZM82.3227 38.7604C82.3369 38.776 82.3525 38.7846 82.3615 38.7951L82.3488 38.7777C82.3436 38.7732 82.3361 38.7676 82.3271 38.7604H82.3227ZM82.4802 37.8186C82.4757 37.8231 82.4712 37.8311 82.4668 37.836C82.4989 37.8127 82.5265 37.7771 82.5631 37.7608C82.5392 37.7716 82.5093 37.7883 82.4802 37.8186ZM84.4968 37.1021C84.4983 37.094 84.5042 37.0872 84.5057 37.079L84.514 36.9056C84.5192 36.9722 84.5028 37.0365 84.4968 37.1021ZM84.5535 36.767C84.5565 36.7641 84.57 36.751 84.5886 36.7266C84.5923 36.721 84.5968 36.7106 84.6013 36.7034L84.5535 36.767ZM1.4571 35.9869C1.4396 36.0283 1.42408 36.0834 1.41335 36.1487C1.42976 36.0943 1.43633 36.036 1.4571 35.9869ZM83.4904 29.6714L83.521 29.8274L83.4904 29.6425C83.4911 29.6521 83.4896 29.6618 83.4904 29.6714ZM2.18766 17.6122C2.18867 17.6115 2.20194 17.6047 2.21828 17.5892L2.22266 17.5776C2.2083 17.588 2.19821 17.6051 2.18766 17.6122ZM83.9152 17.3407C83.898 17.3624 83.8681 17.404 83.8405 17.4679C83.8681 17.4241 83.8876 17.3754 83.9152 17.3407ZM1.91643 15.2202L1.9733 14.989L1.89893 15.145L1.91643 15.2202ZM1.91643 15.2202L1.89893 15.145L1.9733 14.989L1.91643 15.2202ZM2.39327 11.5048L2.38452 11.4932L2.37577 11.4874C2.38137 11.4921 2.38672 11.4988 2.39327 11.5048ZM84.3833 9.59215L84.3743 9.58061L84.3654 9.57483C84.3714 9.57993 84.3766 9.58653 84.3833 9.59215ZM1.82019 6.29281L1.82457 6.29859V6.29281L1.82019 6.28704V6.29281ZM83.1141 3.9411C83.123 3.93933 83.1305 3.94269 83.1365 3.9411C83.1529 3.93619 83.1641 3.93085 83.1671 3.92954L83.1141 3.9411ZM33.6501 3.43839C33.6547 3.43813 33.6589 3.43317 33.6632 3.43262C33.6293 3.42573 33.5927 3.43619 33.5583 3.42106C33.583 3.43179 33.6152 3.44023 33.6501 3.43839ZM65.1082 3.21305C65.1155 3.2192 65.1277 3.22761 65.1432 3.23616H65.1476C65.1323 3.22144 65.1126 3.21652 65.0995 3.20149C65.1008 3.20298 65.103 3.20858 65.1082 3.21305ZM79.8551 3.18416L79.8686 3.17838C79.8238 3.16988 79.776 3.17079 79.7327 3.14948L79.8551 3.18416ZM36.3405 2.94147C36.3476 2.93782 36.3558 2.93959 36.3624 2.93569L36.3581 2.92992C36.3523 2.93431 36.3464 2.93723 36.3405 2.94147ZM28.9386 2.88947C28.9425 2.88589 28.9485 2.88699 28.9518 2.88369C28.9758 2.85909 28.9877 2.8373 28.9911 2.83169C28.9787 2.85215 28.9559 2.86519 28.9386 2.88947ZM82.799 2.537C82.7863 2.54081 82.7766 2.54111 82.7729 2.54278L82.7908 2.537H82.799ZM5.03556 2.79702H5.04431C5.01061 2.77773 4.97385 2.76989 4.94369 2.74502L5.03556 2.79702ZM60.0599 2.43299L60.0686 2.43877C60.0521 2.40737 60.0276 2.38416 60.0161 2.35788L60.0599 2.43299ZM24.6952 2.40988L24.704 2.4041C24.7178 2.38097 24.7239 2.3624 24.7258 2.35788L24.6952 2.40988ZM49.4426 2.03429C49.4382 2.04243 49.4367 2.05137 49.4339 2.05741C49.4385 2.0455 49.4461 2.03531 49.4514 2.02274L49.4426 2.03429ZM55.6196 1.9014C55.5973 1.88393 55.5679 1.86854 55.5321 1.85517C55.5603 1.87449 55.5936 1.87894 55.6196 1.9014ZM24.1922 1.79161C24.1881 1.79893 24.1861 1.8093 24.1834 1.81473C24.19 1.79871 24.2018 1.78583 24.2096 1.7685C24.2031 1.77844 24.196 1.78477 24.1922 1.79161ZM78.9891 1.78006C78.9809 1.7838 78.9771 1.79055 78.9756 1.79161C78.9831 1.7852 78.9943 1.78616 79.0018 1.78006H78.9891ZM29.0699 1.66449C29.0397 1.63965 28.9984 1.61549 28.9474 1.60093C28.9893 1.62357 29.0335 1.63359 29.0699 1.66449ZM35.2163 1.64715V1.64137C35.214 1.63864 35.2082 1.63482 35.2031 1.62983C35.1989 1.62567 35.1922 1.62361 35.1857 1.61827C35.1948 1.62994 35.2078 1.6356 35.2163 1.64715ZM60.9873 1.61827C60.9861 1.61553 60.9799 1.6007 60.9698 1.5836C60.9676 1.5799 60.964 1.57668 60.9611 1.57204C60.9701 1.59043 60.9814 1.60493 60.9873 1.61827ZM40.2121 1.1849C40.2037 1.18706 40.1969 1.19377 40.1902 1.19646C40.2239 1.19685 40.259 1.17756 40.2952 1.1849H40.2121Z" fill="#78C8C2"/>
<path d="M31.5 17.621L31.5 17.6872C31.5 18.4723 31.5 18.8649 31.3161 19.186C31.1322 19.5072 30.7983 19.6979 30.1305 20.0792L29.4265 20.4812C29.9116 18.7954 30.0735 16.9841 30.1333 15.4352C30.1359 15.3687 30.1388 15.3015 30.1417 15.2336L30.1438 15.186C30.7218 15.3923 31.0463 15.5461 31.2488 15.8348C31.5 16.1931 31.5 16.6691 31.5 17.621Z" fill="#FF9D00"/>
<path d="M13.75 17.621L13.75 17.6872C13.75 18.4723 13.75 18.8649 13.9339 19.186C14.1178 19.5072 14.4517 19.6979 15.1195 20.0792L15.8239 20.4814C15.3387 18.7956 15.1768 16.9842 15.117 15.4352C15.1144 15.3687 15.1115 15.3015 15.1086 15.2336L15.1066 15.1859C14.5283 15.3922 14.2037 15.546 14.0012 15.8348C13.75 16.1931 13.75 16.6691 13.75 17.621Z" fill="#FF9D00"/>
<path fill-rule="evenodd" clip-rule="evenodd" d="M22.6252 12C24.2081 12 25.5121 12.1433 26.5097 12.3163C27.5204 12.4915 28.0257 12.5792 28.4479 13.1136C28.8701 13.648 28.8478 14.2256 28.8031 15.3809C28.6499 19.3469 27.8172 24.3007 23.2907 24.7389V27.9627H24.56C24.983 27.9627 25.3473 28.2696 25.4302 28.696L25.5982 29.559H27.95C28.3177 29.559 28.6157 29.8653 28.6157 30.2431C28.6157 30.6209 28.3177 30.9272 27.95 30.9272H17.3C16.9324 30.9272 16.6344 30.6209 16.6344 30.2431C16.6344 29.8653 16.9324 29.559 17.3 29.559H19.6519L19.8198 28.696C19.9028 28.2696 20.267 27.9627 20.6901 27.9627H21.9594V24.7389C17.4331 24.3005 16.6004 19.3468 16.4472 15.3809C16.4026 14.2256 16.3802 13.648 16.8024 13.1136C17.2246 12.5792 17.73 12.4915 18.7406 12.3163C19.7382 12.1433 21.0423 12 22.6252 12ZM23.4702 15.83L23.383 15.6692C23.0458 15.0474 22.8771 14.7365 22.625 14.7365C22.3729 14.7365 22.2043 15.0474 21.8671 15.6692L21.7798 15.83C21.684 16.0067 21.6361 16.0951 21.5613 16.1534C21.4866 16.2116 21.3936 16.2333 21.2075 16.2766L21.038 16.316C20.3832 16.4683 20.0557 16.5444 19.9778 16.8019C19.8999 17.0594 20.1231 17.3276 20.5696 17.8642L20.6851 18.003C20.812 18.1555 20.8754 18.2318 20.9039 18.3261C20.9325 18.4204 20.9229 18.5221 20.9037 18.7256L20.8862 18.9108C20.8187 19.6267 20.785 19.9847 20.989 20.1438C21.1929 20.3029 21.4995 20.1578 22.1127 19.8677L22.2713 19.7926C22.4456 19.7101 22.5327 19.6689 22.625 19.6689C22.7174 19.6689 22.8045 19.7101 22.9787 19.7926L23.1374 19.8677C23.7506 20.1578 24.0571 20.3029 24.2611 20.1438C24.4651 19.9847 24.4313 19.6267 24.3638 18.9108L24.3463 18.7256C24.3272 18.5221 24.3176 18.4204 24.3461 18.3261C24.3746 18.2318 24.4381 18.1555 24.565 18.003L24.6805 17.8642C25.1269 17.3276 25.3501 17.0594 25.2722 16.8019C25.1943 16.5444 24.8669 16.4683 24.212 16.316L24.0426 16.2766C23.8565 16.2333 23.7634 16.2116 23.6887 16.1534C23.614 16.0951 23.5661 16.0067 23.4702 15.83Z" fill="#FF9D00"/>
<path fill-rule="evenodd" clip-rule="evenodd" d="M23.4702 15.83L23.383 15.6692C23.0458 15.0474 22.8771 14.7365 22.625 14.7365C22.3729 14.7365 22.2043 15.0474 21.8671 15.6692L21.7798 15.83C21.684 16.0067 21.6361 16.0951 21.5613 16.1534C21.4866 16.2116 21.3936 16.2333 21.2075 16.2766L21.038 16.316C20.3832 16.4683 20.0557 16.5444 19.9778 16.8019C19.8999 17.0594 20.1231 17.3276 20.5696 17.8642L20.6851 18.003C20.812 18.1555 20.8754 18.2318 20.9039 18.3261C20.9325 18.4204 20.9229 18.5221 20.9037 18.7256L20.8862 18.9108C20.8187 19.6267 20.785 19.9847 20.989 20.1438C21.1929 20.3029 21.4995 20.1578 22.1127 19.8677L22.2713 19.7926C22.4456 19.7101 22.5327 19.6689 22.625 19.6689C22.7174 19.6689 22.8045 19.7101 22.9787 19.7926L23.1374 19.8677C23.7506 20.1578 24.0571 20.3029 24.2611 20.1438C24.4651 19.9847 24.4313 19.6267 24.3638 18.9108L24.3463 18.7256C24.3272 18.5221 24.3176 18.4204 24.3461 18.3261C24.3746 18.2318 24.4381 18.1555 24.565 18.003L24.6805 17.8642C25.1269 17.3276 25.3501 17.0594 25.2722 16.8019C25.1943 16.5444 24.8669 16.4683 24.212 16.316L24.0426 16.2766C23.8565 16.2333 23.7634 16.2116 23.6887 16.1534C23.614 16.0951 23.5661 16.0067 23.4702 15.83Z" fill="#FF9D00"/>
<path d="M19.8286 17.6002C19.8286 18.9916 20.9523 19.7331 21.7749 20.3967C22.0651 20.6309 22.3447 20.8514 22.6242 20.8514C22.9038 20.8514 23.1834 20.6309 23.4736 20.3967C24.2962 19.7331 25.4199 18.9916 25.4199 17.6002C25.4199 16.2088 23.8822 15.2221 22.6242 16.5598C21.3663 15.2221 19.8286 16.2088 19.8286 17.6002Z" fill="white"/>
</svg>
